%TF.GenerationSoftware,KiCad,Pcbnew,7.0.7*%
%TF.CreationDate,2023-10-29T23:24:32-05:00*%
%TF.ProjectId,1016 Breadboard Power Supply,31303136-2042-4726-9561-64626f617264,1*%
%TF.SameCoordinates,Original*%
%TF.FileFunction,Soldermask,Top*%
%TF.FilePolarity,Negative*%
%FSLAX46Y46*%
G04 Gerber Fmt 4.6, Leading zero omitted, Abs format (unit mm)*
G04 Created by KiCad (PCBNEW 7.0.7) date 2023-10-29 23:24:32*
%MOMM*%
%LPD*%
G01*
G04 APERTURE LIST*
G04 Aperture macros list*
%AMRoundRect*
0 Rectangle with rounded corners*
0 $1 Rounding radius*
0 $2 $3 $4 $5 $6 $7 $8 $9 X,Y pos of 4 corners*
0 Add a 4 corners polygon primitive as box body*
4,1,4,$2,$3,$4,$5,$6,$7,$8,$9,$2,$3,0*
0 Add four circle primitives for the rounded corners*
1,1,$1+$1,$2,$3*
1,1,$1+$1,$4,$5*
1,1,$1+$1,$6,$7*
1,1,$1+$1,$8,$9*
0 Add four rect primitives between the rounded corners*
20,1,$1+$1,$2,$3,$4,$5,0*
20,1,$1+$1,$4,$5,$6,$7,0*
20,1,$1+$1,$6,$7,$8,$9,0*
20,1,$1+$1,$8,$9,$2,$3,0*%
%AMFreePoly0*
4,1,8,0.325000,0.000126,0.325000,-0.149874,0.175000,-0.149874,0.175000,-0.150126,-0.175000,-0.150126,-0.175000,0.150126,0.175000,0.150126,0.325000,0.000126,0.325000,0.000126,$1*%
%AMFreePoly1*
4,1,6,0.250000,0.000000,0.100000,-0.150000,-0.250000,-0.150000,-0.250000,0.150000,0.250000,0.150000,0.250000,0.000000,0.250000,0.000000,$1*%
%AMFreePoly2*
4,1,6,0.250000,0.000000,0.250000,-0.150000,-0.250000,-0.150000,-0.250000,0.150000,0.100000,0.150000,0.250000,0.000000,0.250000,0.000000,$1*%
%AMFreePoly3*
4,1,6,0.250000,-0.150000,-0.100000,-0.150000,-0.250000,0.000000,-0.250000,0.150000,0.250000,0.150000,0.250000,-0.150000,0.250000,-0.150000,$1*%
%AMFreePoly4*
4,1,6,0.250000,-0.150000,-0.250000,-0.150000,-0.250000,0.000000,-0.100000,0.150000,0.250000,0.150000,0.250000,-0.150000,0.250000,-0.150000,$1*%
G04 Aperture macros list end*
%ADD10R,1.650000X2.100000*%
%ADD11C,0.990600*%
%ADD12C,0.787400*%
%ADD13RoundRect,0.200000X0.275000X-0.200000X0.275000X0.200000X-0.275000X0.200000X-0.275000X-0.200000X0*%
%ADD14RoundRect,0.200000X-0.275000X0.200000X-0.275000X-0.200000X0.275000X-0.200000X0.275000X0.200000X0*%
%ADD15RoundRect,0.200000X-0.200000X-0.275000X0.200000X-0.275000X0.200000X0.275000X-0.200000X0.275000X0*%
%ADD16C,1.000000*%
%ADD17R,4.000000X1.500000*%
%ADD18RoundRect,0.250000X-0.262500X-0.450000X0.262500X-0.450000X0.262500X0.450000X-0.262500X0.450000X0*%
%ADD19O,1.508000X3.016000*%
%ADD20O,3.016000X1.508000*%
%ADD21R,0.950000X0.950000*%
%ADD22RoundRect,0.225000X-0.250000X0.225000X-0.250000X-0.225000X0.250000X-0.225000X0.250000X0.225000X0*%
%ADD23RoundRect,0.250000X0.250000X0.475000X-0.250000X0.475000X-0.250000X-0.475000X0.250000X-0.475000X0*%
%ADD24RoundRect,0.225000X-0.225000X-0.250000X0.225000X-0.250000X0.225000X0.250000X-0.225000X0.250000X0*%
%ADD25R,1.750000X1.750000*%
%ADD26R,0.300000X0.800000*%
%ADD27R,0.800000X0.300000*%
%ADD28RoundRect,0.200000X0.200000X0.275000X-0.200000X0.275000X-0.200000X-0.275000X0.200000X-0.275000X0*%
%ADD29C,2.000000*%
%ADD30R,1.500000X4.000000*%
%ADD31C,2.100000*%
%ADD32R,3.403600X1.549400*%
%ADD33RoundRect,0.225000X0.225000X0.250000X-0.225000X0.250000X-0.225000X-0.250000X0.225000X-0.250000X0*%
%ADD34RoundRect,0.250000X-0.475000X0.250000X-0.475000X-0.250000X0.475000X-0.250000X0.475000X0.250000X0*%
%ADD35FreePoly0,90.000000*%
%ADD36R,0.300000X0.700000*%
%ADD37FreePoly1,90.000000*%
%ADD38FreePoly2,180.000000*%
%ADD39R,0.700000X0.300000*%
%ADD40FreePoly1,180.000000*%
%ADD41FreePoly3,90.000000*%
%ADD42FreePoly4,90.000000*%
%ADD43FreePoly3,180.000000*%
%ADD44FreePoly4,180.000000*%
%ADD45R,1.092200X1.193800*%
%ADD46R,0.430000X0.350000*%
%ADD47R,1.100000X1.250000*%
%ADD48R,0.660000X0.350000*%
%ADD49R,1.200000X0.750000*%
%ADD50R,1.700000X1.700000*%
%ADD51O,1.700000X1.700000*%
G04 APERTURE END LIST*
D10*
X68953000Y-108204000D03*
X61603000Y-108204000D03*
X68953000Y-88011000D03*
X61603000Y-88011000D03*
D11*
X51562000Y-105918000D03*
X52578000Y-110998000D03*
X50546000Y-110998000D03*
D12*
X50927000Y-107188000D03*
X52197000Y-107188000D03*
X50927000Y-108458000D03*
X52197000Y-108458000D03*
X50927000Y-109728000D03*
X52197000Y-109728000D03*
D13*
X58801000Y-113325000D03*
X58801000Y-111675000D03*
D14*
X75438000Y-111824000D03*
X75438000Y-113474000D03*
D15*
X70676000Y-76949000D03*
X72326000Y-76949000D03*
D16*
X68961000Y-84074000D03*
D17*
X52959000Y-86741000D03*
X52959000Y-90341000D03*
D15*
X70676000Y-78600000D03*
X72326000Y-78600000D03*
D16*
X60071000Y-104648000D03*
D18*
X50268500Y-103124000D03*
X52093500Y-103124000D03*
D15*
X70676000Y-82156000D03*
X72326000Y-82156000D03*
D19*
X60610000Y-76327000D03*
X54610000Y-76327000D03*
D20*
X57610000Y-81027000D03*
D21*
X78220000Y-90932000D03*
X76720000Y-90932000D03*
X53328000Y-98552000D03*
X51828000Y-98552000D03*
D22*
X66675000Y-117208000D03*
X66675000Y-118758000D03*
D15*
X74994000Y-102997000D03*
X76644000Y-102997000D03*
D21*
X78220000Y-99695000D03*
X76720000Y-99695000D03*
D23*
X52131000Y-94361000D03*
X50231000Y-94361000D03*
D14*
X57150000Y-111675000D03*
X57150000Y-113325000D03*
D24*
X62344000Y-100584000D03*
X63894000Y-100584000D03*
D17*
X60579000Y-119656000D03*
X60579000Y-116056000D03*
D21*
X78220000Y-97663000D03*
X76720000Y-97663000D03*
D13*
X55499000Y-113325000D03*
X55499000Y-111675000D03*
D21*
X78220000Y-108458000D03*
X76720000Y-108458000D03*
D25*
X54761000Y-116425000D03*
D26*
X55511000Y-117925000D03*
X55011000Y-117925000D03*
X54511000Y-117925000D03*
X54011000Y-117925000D03*
D27*
X53261000Y-117175000D03*
X53261000Y-116675000D03*
X53261000Y-116175000D03*
X53261000Y-115675000D03*
D26*
X54011000Y-114925000D03*
X54511000Y-114925000D03*
X55011000Y-114925000D03*
X55511000Y-114925000D03*
D27*
X56261000Y-115675000D03*
X56261000Y-116175000D03*
X56261000Y-116675000D03*
X56261000Y-117175000D03*
D22*
X51689000Y-113884000D03*
X51689000Y-115434000D03*
D28*
X79819000Y-94361000D03*
X78169000Y-94361000D03*
D16*
X82550000Y-117475000D03*
X82550000Y-72898000D03*
D14*
X73787000Y-111824000D03*
X73787000Y-113474000D03*
D15*
X78296000Y-111760000D03*
X79946000Y-111760000D03*
D29*
X50800000Y-75565000D03*
D24*
X73012000Y-84061000D03*
X74562000Y-84061000D03*
D22*
X50038000Y-117059000D03*
X50038000Y-118609000D03*
D29*
X82550000Y-120015000D03*
D15*
X62294000Y-102235000D03*
X63944000Y-102235000D03*
D26*
X76200000Y-79375000D03*
X75700000Y-79375000D03*
X75200000Y-79375000D03*
X74700000Y-79375000D03*
D27*
X73950000Y-80125000D03*
X73950000Y-80625000D03*
X73950000Y-81125000D03*
X73950000Y-81625000D03*
D26*
X74700000Y-82375000D03*
X75200000Y-82375000D03*
X75700000Y-82375000D03*
X76200000Y-82375000D03*
D27*
X76950000Y-81625000D03*
X76950000Y-81125000D03*
X76950000Y-80625000D03*
X76950000Y-80125000D03*
D25*
X75450000Y-80875000D03*
D30*
X75035000Y-75057000D03*
X78635000Y-75057000D03*
D16*
X61087000Y-112776000D03*
D28*
X72326000Y-80251000D03*
X70676000Y-80251000D03*
D22*
X51689000Y-117059000D03*
X51689000Y-118609000D03*
D16*
X54229000Y-94361000D03*
D28*
X59372000Y-83185000D03*
X57722000Y-83185000D03*
D27*
X72978000Y-117178000D03*
X72978000Y-116678000D03*
X72978000Y-116178000D03*
X72978000Y-115678000D03*
D26*
X72228000Y-114928000D03*
X71728000Y-114928000D03*
X71228000Y-114928000D03*
X70728000Y-114928000D03*
D27*
X69978000Y-115678000D03*
X69978000Y-116178000D03*
X69978000Y-116678000D03*
X69978000Y-117178000D03*
D26*
X70728000Y-117928000D03*
X71228000Y-117928000D03*
X71728000Y-117928000D03*
X72228000Y-117928000D03*
D25*
X71478000Y-116428000D03*
D24*
X76187000Y-85712000D03*
X77737000Y-85712000D03*
D29*
X82550000Y-75565000D03*
D31*
X69215000Y-73660000D03*
D32*
X64897000Y-72732900D03*
X64897000Y-76619100D03*
D31*
X56261000Y-107823000D03*
D33*
X73038000Y-119507000D03*
X71488000Y-119507000D03*
D31*
X72009000Y-104521000D03*
D34*
X58420000Y-86426000D03*
X58420000Y-88326000D03*
D22*
X68326000Y-117208000D03*
X68326000Y-118758000D03*
X78613000Y-79362000D03*
X78613000Y-80912000D03*
D35*
X62372874Y-99138000D03*
D36*
X62872874Y-98963000D03*
X63373000Y-98963000D03*
X63873126Y-98963000D03*
D37*
X64373252Y-99063000D03*
D38*
X64773000Y-98663252D03*
D39*
X64673000Y-98163126D03*
X64673000Y-97663000D03*
X64673000Y-97162874D03*
D40*
X64773000Y-96662748D03*
D41*
X64373252Y-96263000D03*
D36*
X63873126Y-96363000D03*
X63373000Y-96363000D03*
X62872874Y-96363000D03*
D42*
X62372748Y-96263000D03*
D43*
X61973000Y-96662748D03*
D39*
X62073000Y-97162874D03*
X62073000Y-97663000D03*
X62073000Y-98163126D03*
D44*
X61973000Y-98663252D03*
D14*
X70231000Y-111824000D03*
X70231000Y-113474000D03*
D45*
X54444900Y-83185000D03*
X51219100Y-83185000D03*
D16*
X71247000Y-86233000D03*
D13*
X72136000Y-113474000D03*
X72136000Y-111824000D03*
D16*
X72263000Y-75184000D03*
D21*
X78220000Y-88900000D03*
X76720000Y-88900000D03*
D15*
X74994000Y-94361000D03*
X76644000Y-94361000D03*
D46*
X63500000Y-78994000D03*
X63500000Y-79644000D03*
X63500000Y-80294000D03*
X65370000Y-80294000D03*
X65370000Y-79644000D03*
X65370000Y-78994000D03*
D47*
X64435000Y-79359000D03*
D48*
X64435000Y-80419000D03*
D14*
X73279000Y-88837000D03*
X73279000Y-90487000D03*
D16*
X68580000Y-104394000D03*
D31*
X58039000Y-92456000D03*
D28*
X79819000Y-102997000D03*
X78169000Y-102997000D03*
D21*
X78220000Y-106426000D03*
X76720000Y-106426000D03*
D24*
X76187000Y-84061000D03*
X77737000Y-84061000D03*
D16*
X66040000Y-112014000D03*
D33*
X54724000Y-119634000D03*
X56274000Y-119634000D03*
D49*
X64565000Y-83185000D03*
X61165000Y-83185000D03*
D22*
X68326000Y-115583000D03*
X68326000Y-114033000D03*
D17*
X77330000Y-119656000D03*
X77330000Y-116056000D03*
D50*
X99060000Y-73025000D03*
D51*
X96520000Y-73025000D03*
X99060000Y-75565000D03*
X96520000Y-75565000D03*
D50*
X99060000Y-117475000D03*
D51*
X96520000Y-117475000D03*
X99060000Y-120015000D03*
X96520000Y-120015000D03*
M02*
