%TF.GenerationSoftware,KiCad,Pcbnew,7.0.7*%
%TF.CreationDate,2023-10-08T11:51:16-05:00*%
%TF.ProjectId,1016 Breadboard Power Supply,31303136-2042-4726-9561-64626f617264,1*%
%TF.SameCoordinates,Original*%
%TF.FileFunction,Legend,Bot*%
%TF.FilePolarity,Positive*%
%FSLAX46Y46*%
G04 Gerber Fmt 4.6, Leading zero omitted, Abs format (unit mm)*
G04 Created by KiCad (PCBNEW 7.0.7) date 2023-10-08 11:51:16*
%MOMM*%
%LPD*%
G01*
G04 APERTURE LIST*
%ADD10C,0.177800*%
%ADD11C,0.304800*%
%ADD12C,0.150000*%
%ADD13C,0.010000*%
%ADD14C,0.120000*%
%ADD15C,1.000000*%
%ADD16O,1.508000X3.016000*%
%ADD17O,3.016000X1.508000*%
%ADD18C,2.387600*%
%ADD19C,0.990600*%
%ADD20C,2.100000*%
%ADD21R,1.700000X1.700000*%
%ADD22O,1.700000X1.700000*%
G04 APERTURE END LIST*
D10*
X75969653Y-74345449D02*
X76018034Y-74297068D01*
X76018034Y-74297068D02*
X76066414Y-74151925D01*
X76066414Y-74151925D02*
X76066414Y-74055163D01*
X76066414Y-74055163D02*
X76018034Y-73910020D01*
X76018034Y-73910020D02*
X75921272Y-73813258D01*
X75921272Y-73813258D02*
X75824510Y-73764877D01*
X75824510Y-73764877D02*
X75630986Y-73716496D01*
X75630986Y-73716496D02*
X75485843Y-73716496D01*
X75485843Y-73716496D02*
X75292319Y-73764877D01*
X75292319Y-73764877D02*
X75195557Y-73813258D01*
X75195557Y-73813258D02*
X75098795Y-73910020D01*
X75098795Y-73910020D02*
X75050414Y-74055163D01*
X75050414Y-74055163D02*
X75050414Y-74151925D01*
X75050414Y-74151925D02*
X75098795Y-74297068D01*
X75098795Y-74297068D02*
X75147176Y-74345449D01*
X76066414Y-74926020D02*
X76018034Y-74829258D01*
X76018034Y-74829258D02*
X75969653Y-74780877D01*
X75969653Y-74780877D02*
X75872891Y-74732496D01*
X75872891Y-74732496D02*
X75582605Y-74732496D01*
X75582605Y-74732496D02*
X75485843Y-74780877D01*
X75485843Y-74780877D02*
X75437462Y-74829258D01*
X75437462Y-74829258D02*
X75389081Y-74926020D01*
X75389081Y-74926020D02*
X75389081Y-75071163D01*
X75389081Y-75071163D02*
X75437462Y-75167925D01*
X75437462Y-75167925D02*
X75485843Y-75216306D01*
X75485843Y-75216306D02*
X75582605Y-75264687D01*
X75582605Y-75264687D02*
X75872891Y-75264687D01*
X75872891Y-75264687D02*
X75969653Y-75216306D01*
X75969653Y-75216306D02*
X76018034Y-75167925D01*
X76018034Y-75167925D02*
X76066414Y-75071163D01*
X76066414Y-75071163D02*
X76066414Y-74926020D01*
X75389081Y-75700115D02*
X76405081Y-75700115D01*
X75437462Y-75700115D02*
X75389081Y-75796877D01*
X75389081Y-75796877D02*
X75389081Y-75990401D01*
X75389081Y-75990401D02*
X75437462Y-76087163D01*
X75437462Y-76087163D02*
X75485843Y-76135544D01*
X75485843Y-76135544D02*
X75582605Y-76183925D01*
X75582605Y-76183925D02*
X75872891Y-76183925D01*
X75872891Y-76183925D02*
X75969653Y-76135544D01*
X75969653Y-76135544D02*
X76018034Y-76087163D01*
X76018034Y-76087163D02*
X76066414Y-75990401D01*
X76066414Y-75990401D02*
X76066414Y-75796877D01*
X76066414Y-75796877D02*
X76018034Y-75700115D01*
X75389081Y-76522591D02*
X76066414Y-76764496D01*
X75389081Y-77006401D02*
X76066414Y-76764496D01*
X76066414Y-76764496D02*
X76308319Y-76667734D01*
X76308319Y-76667734D02*
X76356700Y-76619353D01*
X76356700Y-76619353D02*
X76405081Y-76522591D01*
X76066414Y-77393448D02*
X75389081Y-77393448D01*
X75582605Y-77393448D02*
X75485843Y-77441829D01*
X75485843Y-77441829D02*
X75437462Y-77490210D01*
X75437462Y-77490210D02*
X75389081Y-77586972D01*
X75389081Y-77586972D02*
X75389081Y-77683734D01*
X76066414Y-78022400D02*
X75389081Y-78022400D01*
X75050414Y-78022400D02*
X75098795Y-77974019D01*
X75098795Y-77974019D02*
X75147176Y-78022400D01*
X75147176Y-78022400D02*
X75098795Y-78070781D01*
X75098795Y-78070781D02*
X75050414Y-78022400D01*
X75050414Y-78022400D02*
X75147176Y-78022400D01*
X75389081Y-78941639D02*
X76211557Y-78941639D01*
X76211557Y-78941639D02*
X76308319Y-78893258D01*
X76308319Y-78893258D02*
X76356700Y-78844877D01*
X76356700Y-78844877D02*
X76405081Y-78748115D01*
X76405081Y-78748115D02*
X76405081Y-78602972D01*
X76405081Y-78602972D02*
X76356700Y-78506210D01*
X76018034Y-78941639D02*
X76066414Y-78844877D01*
X76066414Y-78844877D02*
X76066414Y-78651353D01*
X76066414Y-78651353D02*
X76018034Y-78554591D01*
X76018034Y-78554591D02*
X75969653Y-78506210D01*
X75969653Y-78506210D02*
X75872891Y-78457829D01*
X75872891Y-78457829D02*
X75582605Y-78457829D01*
X75582605Y-78457829D02*
X75485843Y-78506210D01*
X75485843Y-78506210D02*
X75437462Y-78554591D01*
X75437462Y-78554591D02*
X75389081Y-78651353D01*
X75389081Y-78651353D02*
X75389081Y-78844877D01*
X75389081Y-78844877D02*
X75437462Y-78941639D01*
X76066414Y-79425448D02*
X75050414Y-79425448D01*
X76066414Y-79860877D02*
X75534224Y-79860877D01*
X75534224Y-79860877D02*
X75437462Y-79812496D01*
X75437462Y-79812496D02*
X75389081Y-79715734D01*
X75389081Y-79715734D02*
X75389081Y-79570591D01*
X75389081Y-79570591D02*
X75437462Y-79473829D01*
X75437462Y-79473829D02*
X75485843Y-79425448D01*
X75389081Y-80199543D02*
X75389081Y-80586591D01*
X75050414Y-80344686D02*
X75921272Y-80344686D01*
X75921272Y-80344686D02*
X76018034Y-80393067D01*
X76018034Y-80393067D02*
X76066414Y-80489829D01*
X76066414Y-80489829D02*
X76066414Y-80586591D01*
X75292319Y-82521828D02*
X75243938Y-82425067D01*
X75243938Y-82425067D02*
X75243938Y-82231543D01*
X75243938Y-82231543D02*
X75292319Y-82134781D01*
X75292319Y-82134781D02*
X75389081Y-82038019D01*
X75389081Y-82038019D02*
X75485843Y-81989638D01*
X75485843Y-81989638D02*
X75679367Y-81989638D01*
X75679367Y-81989638D02*
X75776129Y-82038019D01*
X75776129Y-82038019D02*
X75872891Y-82134781D01*
X75872891Y-82134781D02*
X75921272Y-82231543D01*
X75921272Y-82231543D02*
X75921272Y-82425067D01*
X75921272Y-82425067D02*
X75872891Y-82521828D01*
X74905272Y-82328305D02*
X74953653Y-82086400D01*
X74953653Y-82086400D02*
X75098795Y-81844495D01*
X75098795Y-81844495D02*
X75340700Y-81699352D01*
X75340700Y-81699352D02*
X75582605Y-81650971D01*
X75582605Y-81650971D02*
X75824510Y-81699352D01*
X75824510Y-81699352D02*
X76066414Y-81844495D01*
X76066414Y-81844495D02*
X76211557Y-82086400D01*
X76211557Y-82086400D02*
X76259938Y-82328305D01*
X76259938Y-82328305D02*
X76211557Y-82570209D01*
X76211557Y-82570209D02*
X76066414Y-82812114D01*
X76066414Y-82812114D02*
X75824510Y-82957257D01*
X75824510Y-82957257D02*
X75582605Y-83005638D01*
X75582605Y-83005638D02*
X75340700Y-82957257D01*
X75340700Y-82957257D02*
X75098795Y-82812114D01*
X75098795Y-82812114D02*
X74953653Y-82570209D01*
X74953653Y-82570209D02*
X74905272Y-82328305D01*
X75147176Y-84166780D02*
X75098795Y-84215161D01*
X75098795Y-84215161D02*
X75050414Y-84311923D01*
X75050414Y-84311923D02*
X75050414Y-84553828D01*
X75050414Y-84553828D02*
X75098795Y-84650590D01*
X75098795Y-84650590D02*
X75147176Y-84698971D01*
X75147176Y-84698971D02*
X75243938Y-84747352D01*
X75243938Y-84747352D02*
X75340700Y-84747352D01*
X75340700Y-84747352D02*
X75485843Y-84698971D01*
X75485843Y-84698971D02*
X76066414Y-84118399D01*
X76066414Y-84118399D02*
X76066414Y-84747352D01*
X75050414Y-85376304D02*
X75050414Y-85473066D01*
X75050414Y-85473066D02*
X75098795Y-85569828D01*
X75098795Y-85569828D02*
X75147176Y-85618209D01*
X75147176Y-85618209D02*
X75243938Y-85666590D01*
X75243938Y-85666590D02*
X75437462Y-85714971D01*
X75437462Y-85714971D02*
X75679367Y-85714971D01*
X75679367Y-85714971D02*
X75872891Y-85666590D01*
X75872891Y-85666590D02*
X75969653Y-85618209D01*
X75969653Y-85618209D02*
X76018034Y-85569828D01*
X76018034Y-85569828D02*
X76066414Y-85473066D01*
X76066414Y-85473066D02*
X76066414Y-85376304D01*
X76066414Y-85376304D02*
X76018034Y-85279542D01*
X76018034Y-85279542D02*
X75969653Y-85231161D01*
X75969653Y-85231161D02*
X75872891Y-85182780D01*
X75872891Y-85182780D02*
X75679367Y-85134399D01*
X75679367Y-85134399D02*
X75437462Y-85134399D01*
X75437462Y-85134399D02*
X75243938Y-85182780D01*
X75243938Y-85182780D02*
X75147176Y-85231161D01*
X75147176Y-85231161D02*
X75098795Y-85279542D01*
X75098795Y-85279542D02*
X75050414Y-85376304D01*
X75147176Y-86102018D02*
X75098795Y-86150399D01*
X75098795Y-86150399D02*
X75050414Y-86247161D01*
X75050414Y-86247161D02*
X75050414Y-86489066D01*
X75050414Y-86489066D02*
X75098795Y-86585828D01*
X75098795Y-86585828D02*
X75147176Y-86634209D01*
X75147176Y-86634209D02*
X75243938Y-86682590D01*
X75243938Y-86682590D02*
X75340700Y-86682590D01*
X75340700Y-86682590D02*
X75485843Y-86634209D01*
X75485843Y-86634209D02*
X76066414Y-86053637D01*
X76066414Y-86053637D02*
X76066414Y-86682590D01*
X75050414Y-87021256D02*
X75050414Y-87650209D01*
X75050414Y-87650209D02*
X75437462Y-87311542D01*
X75437462Y-87311542D02*
X75437462Y-87456685D01*
X75437462Y-87456685D02*
X75485843Y-87553447D01*
X75485843Y-87553447D02*
X75534224Y-87601828D01*
X75534224Y-87601828D02*
X75630986Y-87650209D01*
X75630986Y-87650209D02*
X75872891Y-87650209D01*
X75872891Y-87650209D02*
X75969653Y-87601828D01*
X75969653Y-87601828D02*
X76018034Y-87553447D01*
X76018034Y-87553447D02*
X76066414Y-87456685D01*
X76066414Y-87456685D02*
X76066414Y-87166399D01*
X76066414Y-87166399D02*
X76018034Y-87069637D01*
X76018034Y-87069637D02*
X75969653Y-87021256D01*
X76066414Y-88859732D02*
X75050414Y-88859732D01*
X75050414Y-88859732D02*
X75050414Y-89101637D01*
X75050414Y-89101637D02*
X75098795Y-89246780D01*
X75098795Y-89246780D02*
X75195557Y-89343542D01*
X75195557Y-89343542D02*
X75292319Y-89391923D01*
X75292319Y-89391923D02*
X75485843Y-89440304D01*
X75485843Y-89440304D02*
X75630986Y-89440304D01*
X75630986Y-89440304D02*
X75824510Y-89391923D01*
X75824510Y-89391923D02*
X75921272Y-89343542D01*
X75921272Y-89343542D02*
X76018034Y-89246780D01*
X76018034Y-89246780D02*
X76066414Y-89101637D01*
X76066414Y-89101637D02*
X76066414Y-88859732D01*
X76066414Y-90311161D02*
X75534224Y-90311161D01*
X75534224Y-90311161D02*
X75437462Y-90262780D01*
X75437462Y-90262780D02*
X75389081Y-90166018D01*
X75389081Y-90166018D02*
X75389081Y-89972494D01*
X75389081Y-89972494D02*
X75437462Y-89875732D01*
X76018034Y-90311161D02*
X76066414Y-90214399D01*
X76066414Y-90214399D02*
X76066414Y-89972494D01*
X76066414Y-89972494D02*
X76018034Y-89875732D01*
X76018034Y-89875732D02*
X75921272Y-89827351D01*
X75921272Y-89827351D02*
X75824510Y-89827351D01*
X75824510Y-89827351D02*
X75727748Y-89875732D01*
X75727748Y-89875732D02*
X75679367Y-89972494D01*
X75679367Y-89972494D02*
X75679367Y-90214399D01*
X75679367Y-90214399D02*
X75630986Y-90311161D01*
X75389081Y-90794970D02*
X76066414Y-90794970D01*
X75485843Y-90794970D02*
X75437462Y-90843351D01*
X75437462Y-90843351D02*
X75389081Y-90940113D01*
X75389081Y-90940113D02*
X75389081Y-91085256D01*
X75389081Y-91085256D02*
X75437462Y-91182018D01*
X75437462Y-91182018D02*
X75534224Y-91230399D01*
X75534224Y-91230399D02*
X76066414Y-91230399D01*
X75050414Y-92391541D02*
X76066414Y-92633446D01*
X76066414Y-92633446D02*
X75340700Y-92826970D01*
X75340700Y-92826970D02*
X76066414Y-93020494D01*
X76066414Y-93020494D02*
X75050414Y-93262399D01*
X76066414Y-93649446D02*
X75389081Y-93649446D01*
X75050414Y-93649446D02*
X75098795Y-93601065D01*
X75098795Y-93601065D02*
X75147176Y-93649446D01*
X75147176Y-93649446D02*
X75098795Y-93697827D01*
X75098795Y-93697827D02*
X75050414Y-93649446D01*
X75050414Y-93649446D02*
X75147176Y-93649446D01*
X76066414Y-94278399D02*
X76018034Y-94181637D01*
X76018034Y-94181637D02*
X75921272Y-94133256D01*
X75921272Y-94133256D02*
X75050414Y-94133256D01*
X76018034Y-94617065D02*
X76066414Y-94713827D01*
X76066414Y-94713827D02*
X76066414Y-94907351D01*
X76066414Y-94907351D02*
X76018034Y-95004113D01*
X76018034Y-95004113D02*
X75921272Y-95052494D01*
X75921272Y-95052494D02*
X75872891Y-95052494D01*
X75872891Y-95052494D02*
X75776129Y-95004113D01*
X75776129Y-95004113D02*
X75727748Y-94907351D01*
X75727748Y-94907351D02*
X75727748Y-94762208D01*
X75727748Y-94762208D02*
X75679367Y-94665446D01*
X75679367Y-94665446D02*
X75582605Y-94617065D01*
X75582605Y-94617065D02*
X75534224Y-94617065D01*
X75534224Y-94617065D02*
X75437462Y-94665446D01*
X75437462Y-94665446D02*
X75389081Y-94762208D01*
X75389081Y-94762208D02*
X75389081Y-94907351D01*
X75389081Y-94907351D02*
X75437462Y-95004113D01*
X76066414Y-95633065D02*
X76018034Y-95536303D01*
X76018034Y-95536303D02*
X75969653Y-95487922D01*
X75969653Y-95487922D02*
X75872891Y-95439541D01*
X75872891Y-95439541D02*
X75582605Y-95439541D01*
X75582605Y-95439541D02*
X75485843Y-95487922D01*
X75485843Y-95487922D02*
X75437462Y-95536303D01*
X75437462Y-95536303D02*
X75389081Y-95633065D01*
X75389081Y-95633065D02*
X75389081Y-95778208D01*
X75389081Y-95778208D02*
X75437462Y-95874970D01*
X75437462Y-95874970D02*
X75485843Y-95923351D01*
X75485843Y-95923351D02*
X75582605Y-95971732D01*
X75582605Y-95971732D02*
X75872891Y-95971732D01*
X75872891Y-95971732D02*
X75969653Y-95923351D01*
X75969653Y-95923351D02*
X76018034Y-95874970D01*
X76018034Y-95874970D02*
X76066414Y-95778208D01*
X76066414Y-95778208D02*
X76066414Y-95633065D01*
X75389081Y-96407160D02*
X76066414Y-96407160D01*
X75485843Y-96407160D02*
X75437462Y-96455541D01*
X75437462Y-96455541D02*
X75389081Y-96552303D01*
X75389081Y-96552303D02*
X75389081Y-96697446D01*
X75389081Y-96697446D02*
X75437462Y-96794208D01*
X75437462Y-96794208D02*
X75534224Y-96842589D01*
X75534224Y-96842589D02*
X76066414Y-96842589D01*
D11*
G36*
X73305241Y-107388219D02*
G01*
X73305241Y-107606551D01*
X73259818Y-107697396D01*
X73222223Y-107734991D01*
X73131378Y-107780414D01*
X72767904Y-107780414D01*
X72677058Y-107734991D01*
X72639463Y-107697396D01*
X72594041Y-107606551D01*
X72594041Y-107388219D01*
X72608401Y-107359500D01*
X73290881Y-107359500D01*
X73305241Y-107388219D01*
G37*
G36*
X73305241Y-106009362D02*
G01*
X73305241Y-106227694D01*
X73259818Y-106318539D01*
X73222223Y-106356134D01*
X73131378Y-106401557D01*
X72767904Y-106401557D01*
X72677058Y-106356134D01*
X72639463Y-106318539D01*
X72594041Y-106227694D01*
X72594041Y-106009362D01*
X72608401Y-105980643D01*
X73290881Y-105980643D01*
X73305241Y-106009362D01*
G37*
G36*
X72680994Y-100080672D02*
G01*
X72627804Y-100054077D01*
X72594041Y-99986550D01*
X72594041Y-99768218D01*
X72627804Y-99700691D01*
X72695333Y-99666927D01*
X72763743Y-99666927D01*
X72680994Y-100080672D01*
G37*
G36*
X73222224Y-96736923D02*
G01*
X73259819Y-96774517D01*
X73305241Y-96865361D01*
X73305241Y-97011122D01*
X73259818Y-97101967D01*
X73222223Y-97139562D01*
X73131378Y-97184985D01*
X72767904Y-97184985D01*
X72677058Y-97139562D01*
X72639463Y-97101967D01*
X72594041Y-97011122D01*
X72594041Y-96865361D01*
X72639462Y-96774517D01*
X72677059Y-96736922D01*
X72767905Y-96691499D01*
X73131377Y-96691499D01*
X73222224Y-96736923D01*
G37*
G36*
X72579527Y-95632263D02*
G01*
X72534103Y-95723110D01*
X72496509Y-95760704D01*
X72405663Y-95806128D01*
X72259905Y-95806128D01*
X72169059Y-95760704D01*
X72131462Y-95723109D01*
X72086041Y-95632265D01*
X72086041Y-95240071D01*
X72579527Y-95240071D01*
X72579527Y-95632263D01*
G37*
G36*
X73222224Y-92672923D02*
G01*
X73259819Y-92710517D01*
X73305241Y-92801361D01*
X73305241Y-93019694D01*
X73290881Y-93048414D01*
X72608401Y-93048414D01*
X72594041Y-93019694D01*
X72594041Y-92801361D01*
X72639462Y-92710517D01*
X72677059Y-92672922D01*
X72767905Y-92627499D01*
X73131377Y-92627499D01*
X73222224Y-92672923D01*
G37*
G36*
X73271477Y-90338977D02*
G01*
X73305241Y-90406504D01*
X73305241Y-90697408D01*
X73290881Y-90726128D01*
X73029470Y-90726128D01*
X73029470Y-90406504D01*
X73063233Y-90338977D01*
X73130762Y-90305213D01*
X73203949Y-90305213D01*
X73271477Y-90338977D01*
G37*
G36*
X73222224Y-88971780D02*
G01*
X73259819Y-89009374D01*
X73305241Y-89100218D01*
X73305241Y-89245979D01*
X73259818Y-89336824D01*
X73222223Y-89374419D01*
X73131378Y-89419842D01*
X72767904Y-89419842D01*
X72677058Y-89374419D01*
X72639463Y-89336824D01*
X72594041Y-89245979D01*
X72594041Y-89100218D01*
X72639462Y-89009374D01*
X72677059Y-88971779D01*
X72767905Y-88926356D01*
X73131377Y-88926356D01*
X73222224Y-88971780D01*
G37*
G36*
X73305241Y-87648790D02*
G01*
X73305241Y-87867122D01*
X73259818Y-87957967D01*
X73222223Y-87995562D01*
X73131378Y-88040985D01*
X72767904Y-88040985D01*
X72677058Y-87995562D01*
X72639463Y-87957967D01*
X72594041Y-87867122D01*
X72594041Y-87648790D01*
X72608401Y-87620071D01*
X73290881Y-87620071D01*
X73305241Y-87648790D01*
G37*
G36*
X73222224Y-86214066D02*
G01*
X73259819Y-86251660D01*
X73305241Y-86342504D01*
X73305241Y-86560837D01*
X73290881Y-86589557D01*
X72608401Y-86589557D01*
X72594041Y-86560837D01*
X72594041Y-86342504D01*
X72639462Y-86251660D01*
X72677059Y-86214065D01*
X72767905Y-86168642D01*
X73131377Y-86168642D01*
X73222224Y-86214066D01*
G37*
G36*
X73271477Y-84823549D02*
G01*
X73305241Y-84891076D01*
X73305241Y-85181980D01*
X73290881Y-85210700D01*
X73029470Y-85210700D01*
X73029470Y-84891076D01*
X73063233Y-84823549D01*
X73130762Y-84789785D01*
X73203949Y-84789785D01*
X73271477Y-84823549D01*
G37*
G36*
X72680994Y-83897244D02*
G01*
X72627804Y-83870649D01*
X72594041Y-83803122D01*
X72594041Y-83584790D01*
X72627804Y-83517263D01*
X72695333Y-83483499D01*
X72763743Y-83483499D01*
X72680994Y-83897244D01*
G37*
G36*
X73305241Y-81480836D02*
G01*
X73259819Y-81571680D01*
X73222224Y-81609274D01*
X73131377Y-81654699D01*
X72985619Y-81654699D01*
X72894772Y-81609275D01*
X72865128Y-81579631D01*
X72811755Y-81419510D01*
X72811755Y-81088642D01*
X73305241Y-81088642D01*
X73305241Y-81480836D01*
G37*
G36*
X72506955Y-81408265D02*
G01*
X72461533Y-81499109D01*
X72423937Y-81536704D01*
X72333093Y-81582127D01*
X72259904Y-81582127D01*
X72169059Y-81536705D01*
X72131462Y-81499109D01*
X72086041Y-81408265D01*
X72086041Y-81088642D01*
X72506955Y-81088642D01*
X72506955Y-81408265D01*
G37*
G36*
X73222224Y-78448922D02*
G01*
X73259819Y-78486516D01*
X73305241Y-78577360D01*
X73305241Y-78795693D01*
X73259819Y-78886537D01*
X73222223Y-78924132D01*
X73131378Y-78969555D01*
X72840475Y-78969555D01*
X72749629Y-78924132D01*
X72712035Y-78886538D01*
X72666612Y-78795691D01*
X72666612Y-78577362D01*
X72712035Y-78486515D01*
X72749629Y-78448921D01*
X72840476Y-78403498D01*
X73131377Y-78403498D01*
X73222224Y-78448922D01*
G37*
G36*
X73114164Y-75564604D02*
G01*
X73222223Y-75618634D01*
X73259818Y-75656229D01*
X73305241Y-75747074D01*
X73305241Y-75820263D01*
X73259818Y-75911108D01*
X73222223Y-75948703D01*
X73114163Y-76002733D01*
X72858308Y-76066697D01*
X72532974Y-76066697D01*
X72277118Y-76002733D01*
X72169058Y-75948703D01*
X72131463Y-75911108D01*
X72086041Y-75820263D01*
X72086041Y-75747073D01*
X72131463Y-75656230D01*
X72169058Y-75618634D01*
X72277117Y-75564604D01*
X72532975Y-75500640D01*
X72858307Y-75500640D01*
X73114164Y-75564604D01*
G37*
G36*
X74335755Y-110332450D02*
G01*
X71563527Y-110332450D01*
X71563527Y-109937444D01*
X72291719Y-109937444D01*
X72298120Y-110016072D01*
X72342977Y-110080965D01*
X72414271Y-110114736D01*
X72492899Y-110108335D01*
X73508899Y-109745478D01*
X73511318Y-109743805D01*
X73514241Y-109743457D01*
X73877098Y-109598314D01*
X73901677Y-109579925D01*
X73928260Y-109564578D01*
X74000833Y-109492007D01*
X74013102Y-109470754D01*
X74029381Y-109452398D01*
X74101952Y-109307255D01*
X74117767Y-109229968D01*
X74092820Y-109155129D01*
X74033796Y-109102789D01*
X73956510Y-109086974D01*
X73881670Y-109111920D01*
X73829330Y-109170945D01*
X73767819Y-109293967D01*
X73734855Y-109326931D01*
X73454586Y-109439038D01*
X72492899Y-109095579D01*
X72414271Y-109089178D01*
X72342977Y-109122949D01*
X72298120Y-109187842D01*
X72291719Y-109266470D01*
X72325490Y-109337764D01*
X72390383Y-109382621D01*
X73004522Y-109601957D01*
X72390383Y-109821293D01*
X72325490Y-109866150D01*
X72291719Y-109937444D01*
X71563527Y-109937444D01*
X71563527Y-108585957D01*
X71781241Y-108585957D01*
X71801659Y-108662157D01*
X71857441Y-108717939D01*
X71933641Y-108738357D01*
X73203950Y-108738357D01*
X73271477Y-108772120D01*
X73321330Y-108871826D01*
X73373670Y-108930851D01*
X73448510Y-108955797D01*
X73525796Y-108939982D01*
X73584820Y-108887642D01*
X73609767Y-108812803D01*
X73593952Y-108735516D01*
X73521381Y-108590373D01*
X73515197Y-108583399D01*
X73512250Y-108574557D01*
X73489346Y-108554247D01*
X73469041Y-108531349D01*
X73460199Y-108528401D01*
X73453225Y-108522217D01*
X73308082Y-108449646D01*
X73273762Y-108442623D01*
X73239927Y-108433557D01*
X71933641Y-108433557D01*
X71857441Y-108453975D01*
X71801659Y-108509757D01*
X71781241Y-108585957D01*
X71563527Y-108585957D01*
X71563527Y-107642528D01*
X72289241Y-107642528D01*
X72298307Y-107676363D01*
X72305330Y-107710683D01*
X72377901Y-107855826D01*
X72394181Y-107874185D01*
X72406449Y-107895434D01*
X72479021Y-107968006D01*
X72500270Y-107980274D01*
X72518629Y-107996554D01*
X72663772Y-108069125D01*
X72698091Y-108076147D01*
X72731927Y-108085214D01*
X73167355Y-108085214D01*
X73201190Y-108076147D01*
X73235510Y-108069125D01*
X73380653Y-107996554D01*
X73399012Y-107980273D01*
X73420261Y-107968006D01*
X73492833Y-107895434D01*
X73505101Y-107874184D01*
X73521381Y-107855826D01*
X73593952Y-107710683D01*
X73600974Y-107676363D01*
X73610041Y-107642528D01*
X73610041Y-107359500D01*
X73965641Y-107359500D01*
X74041841Y-107339082D01*
X74097623Y-107283300D01*
X74118041Y-107207100D01*
X74097623Y-107130900D01*
X74041841Y-107075118D01*
X73965641Y-107054700D01*
X72441641Y-107054700D01*
X72365441Y-107075118D01*
X72309659Y-107130900D01*
X72289241Y-107207100D01*
X72308285Y-107278175D01*
X72305330Y-107284088D01*
X72298307Y-107318407D01*
X72289241Y-107352243D01*
X72289241Y-107642528D01*
X71563527Y-107642528D01*
X71563527Y-106263671D01*
X72289241Y-106263671D01*
X72298307Y-106297506D01*
X72305330Y-106331826D01*
X72377901Y-106476969D01*
X72394181Y-106495328D01*
X72406449Y-106516577D01*
X72479021Y-106589149D01*
X72500270Y-106601417D01*
X72518629Y-106617697D01*
X72663772Y-106690268D01*
X72698091Y-106697290D01*
X72731927Y-106706357D01*
X73167355Y-106706357D01*
X73201190Y-106697290D01*
X73235510Y-106690268D01*
X73380653Y-106617697D01*
X73399012Y-106601416D01*
X73420261Y-106589149D01*
X73492833Y-106516577D01*
X73505101Y-106495327D01*
X73521381Y-106476969D01*
X73593952Y-106331826D01*
X73600974Y-106297506D01*
X73610041Y-106263671D01*
X73610041Y-105980643D01*
X73965641Y-105980643D01*
X74041841Y-105960225D01*
X74097623Y-105904443D01*
X74118041Y-105828243D01*
X74097623Y-105752043D01*
X74041841Y-105696261D01*
X73965641Y-105675843D01*
X72441641Y-105675843D01*
X72365441Y-105696261D01*
X72309659Y-105752043D01*
X72289241Y-105828243D01*
X72308285Y-105899318D01*
X72305330Y-105905231D01*
X72298307Y-105939550D01*
X72289241Y-105973386D01*
X72289241Y-106263671D01*
X71563527Y-106263671D01*
X71563527Y-105102529D01*
X72289241Y-105102529D01*
X72309659Y-105178729D01*
X72365441Y-105234511D01*
X72441641Y-105254929D01*
X73457641Y-105254929D01*
X73533841Y-105234511D01*
X73589623Y-105178729D01*
X73610041Y-105102529D01*
X73589623Y-105026329D01*
X73568055Y-105004761D01*
X73593952Y-104952969D01*
X73600974Y-104918649D01*
X73610041Y-104884814D01*
X73610041Y-104667100D01*
X73600974Y-104633264D01*
X73593952Y-104598945D01*
X73521381Y-104453802D01*
X73515197Y-104446828D01*
X73512250Y-104437986D01*
X73489346Y-104417676D01*
X73469041Y-104394778D01*
X73460199Y-104391830D01*
X73453225Y-104385646D01*
X73308082Y-104313075D01*
X73273762Y-104306052D01*
X73239927Y-104296986D01*
X72441641Y-104296986D01*
X72365441Y-104317404D01*
X72309659Y-104373186D01*
X72289241Y-104449386D01*
X72309659Y-104525586D01*
X72365441Y-104581368D01*
X72441641Y-104601786D01*
X73203950Y-104601786D01*
X73271477Y-104635549D01*
X73305241Y-104703076D01*
X73305241Y-104848837D01*
X73259818Y-104939682D01*
X73249372Y-104950129D01*
X72441641Y-104950129D01*
X72365441Y-104970547D01*
X72309659Y-105026329D01*
X72289241Y-105102529D01*
X71563527Y-105102529D01*
X71563527Y-103578528D01*
X71781241Y-103578528D01*
X71787591Y-103602229D01*
X71789062Y-103626721D01*
X71861633Y-103844435D01*
X71905099Y-103910268D01*
X71975659Y-103945548D01*
X72054405Y-103940822D01*
X72120238Y-103897355D01*
X72155518Y-103826796D01*
X72150792Y-103748049D01*
X72086041Y-103553797D01*
X72086041Y-103251647D01*
X72131462Y-103160803D01*
X72169059Y-103123208D01*
X72259905Y-103077785D01*
X72333094Y-103077785D01*
X72423936Y-103123206D01*
X72461533Y-103160803D01*
X72515562Y-103268861D01*
X72584077Y-103542920D01*
X72592243Y-103557630D01*
X72595616Y-103574112D01*
X72668187Y-103719255D01*
X72684467Y-103737614D01*
X72696736Y-103758864D01*
X72769308Y-103831435D01*
X72790556Y-103843702D01*
X72808915Y-103859982D01*
X72954057Y-103932553D01*
X72988378Y-103939576D01*
X73022212Y-103948642D01*
X73167355Y-103948642D01*
X73201190Y-103939575D01*
X73235510Y-103932553D01*
X73380653Y-103859982D01*
X73399012Y-103843702D01*
X73420260Y-103831435D01*
X73492833Y-103758864D01*
X73505102Y-103737611D01*
X73521381Y-103719255D01*
X73593952Y-103574112D01*
X73600974Y-103539792D01*
X73610041Y-103505957D01*
X73610041Y-103143100D01*
X73603691Y-103119401D01*
X73602221Y-103094908D01*
X73529649Y-102877192D01*
X73486183Y-102811359D01*
X73415624Y-102776079D01*
X73336877Y-102780806D01*
X73271044Y-102824272D01*
X73235764Y-102894831D01*
X73240491Y-102973578D01*
X73305241Y-103167829D01*
X73305241Y-103469980D01*
X73259819Y-103560824D01*
X73222223Y-103598419D01*
X73131378Y-103643842D01*
X73058190Y-103643842D01*
X72967345Y-103598420D01*
X72929748Y-103560824D01*
X72875719Y-103452766D01*
X72807205Y-103178708D01*
X72799038Y-103163997D01*
X72795666Y-103147516D01*
X72723095Y-103002373D01*
X72706816Y-102984016D01*
X72694547Y-102962764D01*
X72621974Y-102890193D01*
X72600724Y-102877925D01*
X72582368Y-102861647D01*
X72437226Y-102789075D01*
X72402909Y-102782052D01*
X72369070Y-102772985D01*
X72223927Y-102772985D01*
X72190094Y-102782050D01*
X72155771Y-102789074D01*
X72010628Y-102861646D01*
X71992268Y-102877926D01*
X71971022Y-102890193D01*
X71898450Y-102962764D01*
X71886181Y-102984013D01*
X71869901Y-103002373D01*
X71797330Y-103147516D01*
X71790307Y-103181835D01*
X71781241Y-103215671D01*
X71781241Y-103578528D01*
X71563527Y-103578528D01*
X71563527Y-101328813D01*
X72289241Y-101328813D01*
X72309659Y-101405013D01*
X72365441Y-101460795D01*
X72441641Y-101481213D01*
X72517841Y-101460795D01*
X72573623Y-101405013D01*
X72594041Y-101328813D01*
X72594041Y-101219646D01*
X72639462Y-101128803D01*
X72677058Y-101091207D01*
X72767904Y-101045785D01*
X73457641Y-101045785D01*
X73533841Y-101025367D01*
X73589623Y-100969585D01*
X73610041Y-100893385D01*
X73589623Y-100817185D01*
X73533841Y-100761403D01*
X73457641Y-100740985D01*
X72441641Y-100740985D01*
X72365441Y-100761403D01*
X72309659Y-100817185D01*
X72289241Y-100893385D01*
X72309659Y-100969585D01*
X72355416Y-101015342D01*
X72305330Y-101115515D01*
X72298306Y-101149836D01*
X72289241Y-101183670D01*
X72289241Y-101328813D01*
X71563527Y-101328813D01*
X71563527Y-100022527D01*
X72289241Y-100022527D01*
X72298307Y-100056362D01*
X72305330Y-100090682D01*
X72377901Y-100235825D01*
X72384084Y-100242798D01*
X72387032Y-100251640D01*
X72409932Y-100271947D01*
X72430241Y-100294850D01*
X72439082Y-100297797D01*
X72446056Y-100303981D01*
X72591199Y-100376553D01*
X72625522Y-100383576D01*
X72659355Y-100392642D01*
X72804498Y-100392642D01*
X72828519Y-100386205D01*
X72853334Y-100384605D01*
X72865996Y-100376163D01*
X72880698Y-100372224D01*
X72898282Y-100354639D01*
X72918973Y-100340846D01*
X72925718Y-100327203D01*
X72936480Y-100316442D01*
X72942916Y-100292420D01*
X72953938Y-100270130D01*
X73074579Y-99666927D01*
X73203949Y-99666927D01*
X73271477Y-99700691D01*
X73305241Y-99768218D01*
X73305241Y-99986550D01*
X73248759Y-100099515D01*
X73232944Y-100176802D01*
X73257891Y-100251641D01*
X73316915Y-100303981D01*
X73394202Y-100319796D01*
X73469041Y-100294849D01*
X73521381Y-100235825D01*
X73593952Y-100090682D01*
X73600974Y-100056362D01*
X73610041Y-100022527D01*
X73610041Y-99732242D01*
X73600974Y-99698406D01*
X73593952Y-99664087D01*
X73521381Y-99518944D01*
X73515197Y-99511970D01*
X73512250Y-99503129D01*
X73489347Y-99482819D01*
X73469041Y-99459920D01*
X73460200Y-99456973D01*
X73453226Y-99450788D01*
X73308083Y-99378216D01*
X73273759Y-99371192D01*
X73239927Y-99362127D01*
X72659355Y-99362127D01*
X72625522Y-99371192D01*
X72591199Y-99378216D01*
X72446056Y-99450788D01*
X72439082Y-99456971D01*
X72430241Y-99459919D01*
X72409932Y-99482821D01*
X72387032Y-99503129D01*
X72384084Y-99511970D01*
X72377901Y-99518944D01*
X72305330Y-99664087D01*
X72298307Y-99698406D01*
X72289241Y-99732242D01*
X72289241Y-100022527D01*
X71563527Y-100022527D01*
X71563527Y-98969518D01*
X72293803Y-98969518D01*
X72295105Y-99048396D01*
X72335671Y-99116054D01*
X72404631Y-99154366D01*
X72483509Y-99153064D01*
X73499509Y-98862778D01*
X73524789Y-98847620D01*
X73551883Y-98836009D01*
X73558168Y-98827607D01*
X73567167Y-98822212D01*
X73581481Y-98796446D01*
X73599141Y-98772842D01*
X73600383Y-98762423D01*
X73605479Y-98753252D01*
X73604992Y-98723777D01*
X73608483Y-98694509D01*
X73604350Y-98684865D01*
X73604177Y-98674374D01*
X73589019Y-98649093D01*
X73577408Y-98622000D01*
X73569006Y-98615714D01*
X73563611Y-98606716D01*
X73537845Y-98592401D01*
X73514241Y-98574742D01*
X73142277Y-98425956D01*
X73514241Y-98277171D01*
X73537845Y-98259511D01*
X73563611Y-98245197D01*
X73569006Y-98236198D01*
X73577408Y-98229913D01*
X73589019Y-98202819D01*
X73604177Y-98177539D01*
X73604350Y-98167047D01*
X73608483Y-98157404D01*
X73604992Y-98128135D01*
X73605479Y-98098661D01*
X73600383Y-98089489D01*
X73599141Y-98079071D01*
X73581480Y-98055464D01*
X73567167Y-98029701D01*
X73558170Y-98024306D01*
X73551884Y-98015904D01*
X73524788Y-98004291D01*
X73499509Y-97989135D01*
X72483509Y-97698849D01*
X72404631Y-97697547D01*
X72335671Y-97735859D01*
X72295105Y-97803517D01*
X72293803Y-97882395D01*
X72332115Y-97951355D01*
X72399773Y-97991921D01*
X72987126Y-98159736D01*
X72675327Y-98284456D01*
X72657801Y-98297567D01*
X72637685Y-98306189D01*
X72626761Y-98320790D01*
X72612160Y-98331714D01*
X72603538Y-98351830D01*
X72590427Y-98369356D01*
X72588267Y-98387463D01*
X72581085Y-98404223D01*
X72583676Y-98425956D01*
X72581085Y-98447689D01*
X72588267Y-98464448D01*
X72590427Y-98482556D01*
X72603538Y-98500081D01*
X72612160Y-98520198D01*
X72626761Y-98531121D01*
X72637685Y-98545723D01*
X72657801Y-98554344D01*
X72675327Y-98567456D01*
X72987127Y-98692176D01*
X72399773Y-98859992D01*
X72332115Y-98900558D01*
X72293803Y-98969518D01*
X71563527Y-98969518D01*
X71563527Y-97047099D01*
X72289241Y-97047099D01*
X72298307Y-97080934D01*
X72305330Y-97115254D01*
X72377901Y-97260397D01*
X72394181Y-97278756D01*
X72406449Y-97300005D01*
X72479021Y-97372577D01*
X72500270Y-97384845D01*
X72518629Y-97401125D01*
X72663772Y-97473696D01*
X72698091Y-97480718D01*
X72731927Y-97489785D01*
X73167355Y-97489785D01*
X73201190Y-97480718D01*
X73235510Y-97473696D01*
X73380653Y-97401125D01*
X73399012Y-97384844D01*
X73420261Y-97372577D01*
X73492833Y-97300005D01*
X73505101Y-97278755D01*
X73521381Y-97260397D01*
X73593952Y-97115254D01*
X73600974Y-97080934D01*
X73610041Y-97047099D01*
X73610041Y-96829385D01*
X73600974Y-96795549D01*
X73593952Y-96761230D01*
X73521381Y-96616087D01*
X73505102Y-96597730D01*
X73492833Y-96576478D01*
X73420260Y-96503907D01*
X73399013Y-96491640D01*
X73380654Y-96475360D01*
X73235511Y-96402788D01*
X73201187Y-96395764D01*
X73167355Y-96386699D01*
X72731927Y-96386699D01*
X72698094Y-96395764D01*
X72663771Y-96402788D01*
X72518628Y-96475360D01*
X72500268Y-96491640D01*
X72479022Y-96503907D01*
X72406450Y-96576478D01*
X72394181Y-96597727D01*
X72377901Y-96616087D01*
X72305330Y-96761230D01*
X72298307Y-96795549D01*
X72289241Y-96829385D01*
X72289241Y-97047099D01*
X71563527Y-97047099D01*
X71563527Y-95668242D01*
X71781241Y-95668242D01*
X71790307Y-95702077D01*
X71797330Y-95736397D01*
X71869901Y-95881540D01*
X71886181Y-95899899D01*
X71898450Y-95921149D01*
X71971022Y-95993720D01*
X71992268Y-96005986D01*
X72010628Y-96022267D01*
X72155771Y-96094839D01*
X72190094Y-96101862D01*
X72223927Y-96110928D01*
X72441641Y-96110928D01*
X72475473Y-96101862D01*
X72509797Y-96094839D01*
X72654940Y-96022267D01*
X72673299Y-96005986D01*
X72694547Y-95993719D01*
X72767118Y-95921148D01*
X72779385Y-95899900D01*
X72795666Y-95881541D01*
X72868238Y-95736398D01*
X72875261Y-95702074D01*
X72884327Y-95668242D01*
X72884327Y-95240071D01*
X73457641Y-95240071D01*
X73533841Y-95219653D01*
X73589623Y-95163871D01*
X73610041Y-95087671D01*
X73589623Y-95011471D01*
X73533841Y-94955689D01*
X73457641Y-94935271D01*
X71933641Y-94935271D01*
X71857441Y-94955689D01*
X71801659Y-95011471D01*
X71781241Y-95087671D01*
X71781241Y-95668242D01*
X71563527Y-95668242D01*
X71563527Y-93200814D01*
X71781241Y-93200814D01*
X71801659Y-93277014D01*
X71857441Y-93332796D01*
X71933641Y-93353214D01*
X73457641Y-93353214D01*
X73533841Y-93332796D01*
X73589623Y-93277014D01*
X73610041Y-93200814D01*
X73590996Y-93129738D01*
X73593952Y-93123826D01*
X73600974Y-93089506D01*
X73610041Y-93055671D01*
X73610041Y-92765385D01*
X73600974Y-92731549D01*
X73593952Y-92697230D01*
X73521381Y-92552087D01*
X73505102Y-92533730D01*
X73492833Y-92512478D01*
X73420260Y-92439907D01*
X73399013Y-92427640D01*
X73380654Y-92411360D01*
X73235511Y-92338788D01*
X73201187Y-92331764D01*
X73167355Y-92322699D01*
X72731927Y-92322699D01*
X72698094Y-92331764D01*
X72663771Y-92338788D01*
X72518628Y-92411360D01*
X72500268Y-92427640D01*
X72479022Y-92439907D01*
X72406450Y-92512478D01*
X72394181Y-92533727D01*
X72377901Y-92552087D01*
X72305330Y-92697230D01*
X72298307Y-92731549D01*
X72289241Y-92765385D01*
X72289241Y-93048414D01*
X71933641Y-93048414D01*
X71857441Y-93068832D01*
X71801659Y-93124614D01*
X71781241Y-93200814D01*
X71563527Y-93200814D01*
X71563527Y-92039670D01*
X72289241Y-92039670D01*
X72309659Y-92115870D01*
X72365441Y-92171652D01*
X72441641Y-92192070D01*
X72517841Y-92171652D01*
X72573623Y-92115870D01*
X72594041Y-92039670D01*
X72594041Y-91930503D01*
X72639463Y-91839659D01*
X72677058Y-91802064D01*
X72767904Y-91756642D01*
X73457641Y-91756642D01*
X73533841Y-91736224D01*
X73589623Y-91680442D01*
X73610041Y-91604242D01*
X73589623Y-91528042D01*
X73533841Y-91472260D01*
X73457641Y-91451842D01*
X72441641Y-91451842D01*
X72365441Y-91472260D01*
X72309659Y-91528042D01*
X72289241Y-91604242D01*
X72309659Y-91680442D01*
X72355416Y-91726199D01*
X72305330Y-91826372D01*
X72298306Y-91860693D01*
X72289241Y-91894527D01*
X72289241Y-92039670D01*
X71563527Y-92039670D01*
X71563527Y-90660813D01*
X72289241Y-90660813D01*
X72298307Y-90694648D01*
X72305330Y-90728968D01*
X72377901Y-90874111D01*
X72384084Y-90881084D01*
X72387032Y-90889926D01*
X72409932Y-90910233D01*
X72430241Y-90933136D01*
X72439082Y-90936083D01*
X72446056Y-90942267D01*
X72591199Y-91014839D01*
X72625522Y-91021862D01*
X72659355Y-91030928D01*
X73457641Y-91030928D01*
X73533841Y-91010510D01*
X73589623Y-90954728D01*
X73610041Y-90878528D01*
X73590996Y-90807452D01*
X73593952Y-90801540D01*
X73600974Y-90767220D01*
X73610041Y-90733385D01*
X73610041Y-90370528D01*
X73600974Y-90336692D01*
X73593952Y-90302373D01*
X73521381Y-90157230D01*
X73515197Y-90150256D01*
X73512250Y-90141415D01*
X73489347Y-90121105D01*
X73469041Y-90098206D01*
X73460200Y-90095259D01*
X73453226Y-90089074D01*
X73308083Y-90016502D01*
X73273759Y-90009478D01*
X73239927Y-90000413D01*
X73094784Y-90000413D01*
X73060951Y-90009478D01*
X73026628Y-90016502D01*
X72881485Y-90089074D01*
X72874511Y-90095257D01*
X72865670Y-90098205D01*
X72845361Y-90121107D01*
X72822461Y-90141415D01*
X72819513Y-90150256D01*
X72813330Y-90157230D01*
X72740759Y-90302373D01*
X72733736Y-90336692D01*
X72724670Y-90370528D01*
X72724670Y-90697406D01*
X72710309Y-90726128D01*
X72695333Y-90726128D01*
X72627804Y-90692363D01*
X72594041Y-90624836D01*
X72594041Y-90406504D01*
X72650523Y-90293540D01*
X72666338Y-90216253D01*
X72641391Y-90141414D01*
X72582367Y-90089074D01*
X72505081Y-90073259D01*
X72430241Y-90098205D01*
X72377901Y-90157230D01*
X72305330Y-90302373D01*
X72298307Y-90336692D01*
X72289241Y-90370528D01*
X72289241Y-90660813D01*
X71563527Y-90660813D01*
X71563527Y-89281956D01*
X72289241Y-89281956D01*
X72298307Y-89315791D01*
X72305330Y-89350111D01*
X72377901Y-89495254D01*
X72394181Y-89513613D01*
X72406449Y-89534862D01*
X72479021Y-89607434D01*
X72500270Y-89619702D01*
X72518629Y-89635982D01*
X72663772Y-89708553D01*
X72698091Y-89715575D01*
X72731927Y-89724642D01*
X73167355Y-89724642D01*
X73201190Y-89715575D01*
X73235510Y-89708553D01*
X73380653Y-89635982D01*
X73399012Y-89619701D01*
X73420261Y-89607434D01*
X73492833Y-89534862D01*
X73505101Y-89513612D01*
X73521381Y-89495254D01*
X73593952Y-89350111D01*
X73600974Y-89315791D01*
X73610041Y-89281956D01*
X73610041Y-89064242D01*
X73600974Y-89030406D01*
X73593952Y-88996087D01*
X73521381Y-88850944D01*
X73505102Y-88832587D01*
X73492833Y-88811335D01*
X73420260Y-88738764D01*
X73399013Y-88726497D01*
X73380654Y-88710217D01*
X73235511Y-88637645D01*
X73201187Y-88630621D01*
X73167355Y-88621556D01*
X72731927Y-88621556D01*
X72698094Y-88630621D01*
X72663771Y-88637645D01*
X72518628Y-88710217D01*
X72500268Y-88726497D01*
X72479022Y-88738764D01*
X72406450Y-88811335D01*
X72394181Y-88832584D01*
X72377901Y-88850944D01*
X72305330Y-88996087D01*
X72298307Y-89030406D01*
X72289241Y-89064242D01*
X72289241Y-89281956D01*
X71563527Y-89281956D01*
X71563527Y-87467671D01*
X71781241Y-87467671D01*
X71801659Y-87543871D01*
X71857441Y-87599653D01*
X71933641Y-87620071D01*
X72289241Y-87620071D01*
X72289241Y-87903099D01*
X72298307Y-87936934D01*
X72305330Y-87971254D01*
X72377901Y-88116397D01*
X72394181Y-88134756D01*
X72406449Y-88156005D01*
X72479021Y-88228577D01*
X72500270Y-88240845D01*
X72518629Y-88257125D01*
X72663772Y-88329696D01*
X72698091Y-88336718D01*
X72731927Y-88345785D01*
X73167355Y-88345785D01*
X73201190Y-88336718D01*
X73235510Y-88329696D01*
X73380653Y-88257125D01*
X73399012Y-88240844D01*
X73420261Y-88228577D01*
X73492833Y-88156005D01*
X73505101Y-88134755D01*
X73521381Y-88116397D01*
X73593952Y-87971254D01*
X73600974Y-87936934D01*
X73610041Y-87903099D01*
X73610041Y-87612814D01*
X73600974Y-87578978D01*
X73593952Y-87544659D01*
X73590996Y-87538746D01*
X73610041Y-87467671D01*
X73589623Y-87391471D01*
X73533841Y-87335689D01*
X73457641Y-87315271D01*
X71933641Y-87315271D01*
X71857441Y-87335689D01*
X71801659Y-87391471D01*
X71781241Y-87467671D01*
X71563527Y-87467671D01*
X71563527Y-86741957D01*
X71781241Y-86741957D01*
X71801659Y-86818157D01*
X71857441Y-86873939D01*
X71933641Y-86894357D01*
X73457641Y-86894357D01*
X73533841Y-86873939D01*
X73589623Y-86818157D01*
X73610041Y-86741957D01*
X73590996Y-86670881D01*
X73593952Y-86664969D01*
X73600974Y-86630649D01*
X73610041Y-86596814D01*
X73610041Y-86306528D01*
X73600974Y-86272692D01*
X73593952Y-86238373D01*
X73521381Y-86093230D01*
X73505102Y-86074873D01*
X73492833Y-86053621D01*
X73420260Y-85981050D01*
X73399013Y-85968783D01*
X73380654Y-85952503D01*
X73235511Y-85879931D01*
X73201187Y-85872907D01*
X73167355Y-85863842D01*
X72731927Y-85863842D01*
X72698094Y-85872907D01*
X72663771Y-85879931D01*
X72518628Y-85952503D01*
X72500268Y-85968783D01*
X72479022Y-85981050D01*
X72406450Y-86053621D01*
X72394181Y-86074870D01*
X72377901Y-86093230D01*
X72305330Y-86238373D01*
X72298307Y-86272692D01*
X72289241Y-86306528D01*
X72289241Y-86589557D01*
X71933641Y-86589557D01*
X71857441Y-86609975D01*
X71801659Y-86665757D01*
X71781241Y-86741957D01*
X71563527Y-86741957D01*
X71563527Y-85145385D01*
X72289241Y-85145385D01*
X72298307Y-85179220D01*
X72305330Y-85213540D01*
X72377901Y-85358683D01*
X72384084Y-85365656D01*
X72387032Y-85374498D01*
X72409932Y-85394805D01*
X72430241Y-85417708D01*
X72439082Y-85420655D01*
X72446056Y-85426839D01*
X72591199Y-85499411D01*
X72625522Y-85506434D01*
X72659355Y-85515500D01*
X73457641Y-85515500D01*
X73533841Y-85495082D01*
X73589623Y-85439300D01*
X73610041Y-85363100D01*
X73590996Y-85292024D01*
X73593952Y-85286112D01*
X73600974Y-85251792D01*
X73610041Y-85217957D01*
X73610041Y-84855100D01*
X73600974Y-84821264D01*
X73593952Y-84786945D01*
X73521381Y-84641802D01*
X73515197Y-84634828D01*
X73512250Y-84625987D01*
X73489347Y-84605677D01*
X73469041Y-84582778D01*
X73460200Y-84579831D01*
X73453226Y-84573646D01*
X73308083Y-84501074D01*
X73273759Y-84494050D01*
X73239927Y-84484985D01*
X73094784Y-84484985D01*
X73060951Y-84494050D01*
X73026628Y-84501074D01*
X72881485Y-84573646D01*
X72874511Y-84579829D01*
X72865670Y-84582777D01*
X72845361Y-84605679D01*
X72822461Y-84625987D01*
X72819513Y-84634828D01*
X72813330Y-84641802D01*
X72740759Y-84786945D01*
X72733736Y-84821264D01*
X72724670Y-84855100D01*
X72724670Y-85181978D01*
X72710309Y-85210700D01*
X72695333Y-85210700D01*
X72627804Y-85176935D01*
X72594041Y-85109408D01*
X72594041Y-84891076D01*
X72650523Y-84778112D01*
X72666338Y-84700825D01*
X72641391Y-84625986D01*
X72582367Y-84573646D01*
X72505081Y-84557831D01*
X72430241Y-84582777D01*
X72377901Y-84641802D01*
X72305330Y-84786945D01*
X72298307Y-84821264D01*
X72289241Y-84855100D01*
X72289241Y-85145385D01*
X71563527Y-85145385D01*
X71563527Y-83839099D01*
X72289241Y-83839099D01*
X72298307Y-83872934D01*
X72305330Y-83907254D01*
X72377901Y-84052397D01*
X72384084Y-84059370D01*
X72387032Y-84068212D01*
X72409932Y-84088519D01*
X72430241Y-84111422D01*
X72439082Y-84114369D01*
X72446056Y-84120553D01*
X72591199Y-84193125D01*
X72625522Y-84200148D01*
X72659355Y-84209214D01*
X72804498Y-84209214D01*
X72828519Y-84202777D01*
X72853334Y-84201177D01*
X72865996Y-84192735D01*
X72880698Y-84188796D01*
X72898282Y-84171211D01*
X72918973Y-84157418D01*
X72925718Y-84143775D01*
X72936480Y-84133014D01*
X72942916Y-84108992D01*
X72953938Y-84086702D01*
X73074579Y-83483499D01*
X73203949Y-83483499D01*
X73271477Y-83517263D01*
X73305241Y-83584790D01*
X73305241Y-83803122D01*
X73248759Y-83916087D01*
X73232944Y-83993374D01*
X73257891Y-84068213D01*
X73316915Y-84120553D01*
X73394202Y-84136368D01*
X73469041Y-84111421D01*
X73521381Y-84052397D01*
X73593952Y-83907254D01*
X73600974Y-83872934D01*
X73610041Y-83839099D01*
X73610041Y-83548814D01*
X73600974Y-83514978D01*
X73593952Y-83480659D01*
X73521381Y-83335516D01*
X73515197Y-83328542D01*
X73512250Y-83319701D01*
X73489347Y-83299391D01*
X73469041Y-83276492D01*
X73460200Y-83273545D01*
X73453226Y-83267360D01*
X73308083Y-83194788D01*
X73273759Y-83187764D01*
X73239927Y-83178699D01*
X72659355Y-83178699D01*
X72625522Y-83187764D01*
X72591199Y-83194788D01*
X72446056Y-83267360D01*
X72439082Y-83273543D01*
X72430241Y-83276491D01*
X72409932Y-83299393D01*
X72387032Y-83319701D01*
X72384084Y-83328542D01*
X72377901Y-83335516D01*
X72305330Y-83480659D01*
X72298307Y-83514978D01*
X72289241Y-83548814D01*
X72289241Y-83839099D01*
X71563527Y-83839099D01*
X71563527Y-82895670D01*
X72289241Y-82895670D01*
X72309659Y-82971870D01*
X72365441Y-83027652D01*
X72441641Y-83048070D01*
X72517841Y-83027652D01*
X72573623Y-82971870D01*
X72594041Y-82895670D01*
X72594041Y-82786503D01*
X72639463Y-82695659D01*
X72677058Y-82658064D01*
X72767904Y-82612642D01*
X73457641Y-82612642D01*
X73533841Y-82592224D01*
X73589623Y-82536442D01*
X73610041Y-82460242D01*
X73589623Y-82384042D01*
X73533841Y-82328260D01*
X73457641Y-82307842D01*
X72441641Y-82307842D01*
X72365441Y-82328260D01*
X72309659Y-82384042D01*
X72289241Y-82460242D01*
X72309659Y-82536442D01*
X72355416Y-82582199D01*
X72305330Y-82682372D01*
X72298306Y-82716693D01*
X72289241Y-82750527D01*
X72289241Y-82895670D01*
X71563527Y-82895670D01*
X71563527Y-81444242D01*
X71781241Y-81444242D01*
X71790307Y-81478077D01*
X71797330Y-81512397D01*
X71869901Y-81657540D01*
X71886181Y-81675899D01*
X71898450Y-81697149D01*
X71971022Y-81769720D01*
X71992270Y-81781987D01*
X72010629Y-81798267D01*
X72155772Y-81870838D01*
X72190091Y-81877860D01*
X72223927Y-81886927D01*
X72369070Y-81886927D01*
X72402903Y-81877861D01*
X72437225Y-81870838D01*
X72582368Y-81798267D01*
X72600727Y-81781986D01*
X72621974Y-81769720D01*
X72623362Y-81768331D01*
X72624164Y-81769719D01*
X72696735Y-81842290D01*
X72717982Y-81854557D01*
X72736342Y-81870838D01*
X72881485Y-81943410D01*
X72915808Y-81950433D01*
X72949641Y-81959499D01*
X73167355Y-81959499D01*
X73201187Y-81950433D01*
X73235511Y-81943410D01*
X73380654Y-81870838D01*
X73399013Y-81854557D01*
X73420260Y-81842291D01*
X73492833Y-81769720D01*
X73505102Y-81748467D01*
X73521381Y-81730111D01*
X73593952Y-81584968D01*
X73600974Y-81550648D01*
X73610041Y-81516813D01*
X73610041Y-80936242D01*
X73589623Y-80860042D01*
X73533841Y-80804260D01*
X73457641Y-80783842D01*
X71933641Y-80783842D01*
X71857441Y-80804260D01*
X71801659Y-80860042D01*
X71781241Y-80936242D01*
X71781241Y-81444242D01*
X71563527Y-81444242D01*
X71563527Y-78976813D01*
X71781241Y-78976813D01*
X71801659Y-79053013D01*
X71857441Y-79108795D01*
X71933641Y-79129213D01*
X72009841Y-79108795D01*
X72065623Y-79053013D01*
X72086041Y-78976813D01*
X72086041Y-78722503D01*
X72131462Y-78631659D01*
X72175880Y-78587243D01*
X72359069Y-78465117D01*
X72385225Y-78458578D01*
X72377901Y-78473228D01*
X72370877Y-78507551D01*
X72361812Y-78541384D01*
X72361812Y-78831670D01*
X72370877Y-78865502D01*
X72377901Y-78899826D01*
X72450473Y-79044969D01*
X72466753Y-79063328D01*
X72479021Y-79084576D01*
X72551592Y-79157147D01*
X72572841Y-79169415D01*
X72591200Y-79185695D01*
X72736343Y-79258266D01*
X72770662Y-79265288D01*
X72804498Y-79274355D01*
X73167355Y-79274355D01*
X73201190Y-79265288D01*
X73235510Y-79258266D01*
X73380653Y-79185695D01*
X73399012Y-79169415D01*
X73420260Y-79157148D01*
X73492833Y-79084577D01*
X73505102Y-79063324D01*
X73521381Y-79044968D01*
X73593952Y-78899825D01*
X73600974Y-78865505D01*
X73610041Y-78831670D01*
X73610041Y-78541384D01*
X73600974Y-78507548D01*
X73593952Y-78473229D01*
X73521381Y-78328086D01*
X73505102Y-78309729D01*
X73492833Y-78288477D01*
X73420260Y-78215906D01*
X73399013Y-78203639D01*
X73380654Y-78187359D01*
X73235511Y-78114787D01*
X73201187Y-78107763D01*
X73167355Y-78098698D01*
X72586784Y-78098698D01*
X72568622Y-78103564D01*
X72549821Y-78103248D01*
X72259535Y-78175820D01*
X72236698Y-78188497D01*
X72211962Y-78196866D01*
X71994248Y-78342009D01*
X71984202Y-78353439D01*
X71971022Y-78361049D01*
X71898450Y-78433620D01*
X71886181Y-78454869D01*
X71869901Y-78473229D01*
X71797330Y-78618372D01*
X71790307Y-78652691D01*
X71781241Y-78686527D01*
X71781241Y-78976813D01*
X71563527Y-78976813D01*
X71563527Y-77235098D01*
X71781241Y-77235098D01*
X71782545Y-77239965D01*
X71781557Y-77244906D01*
X71792676Y-77277775D01*
X71801659Y-77311298D01*
X71805222Y-77314861D01*
X71806837Y-77319634D01*
X71832900Y-77342539D01*
X71857441Y-77367080D01*
X71862308Y-77368384D01*
X71866094Y-77371711D01*
X71900123Y-77378516D01*
X71933641Y-77387498D01*
X73305241Y-77387498D01*
X73305241Y-77670526D01*
X73325659Y-77746726D01*
X73381441Y-77802508D01*
X73457641Y-77822926D01*
X73533841Y-77802508D01*
X73589623Y-77746726D01*
X73610041Y-77670526D01*
X73610041Y-76799669D01*
X73589623Y-76723469D01*
X73533841Y-76667687D01*
X73457641Y-76647269D01*
X73381441Y-76667687D01*
X73325659Y-76723469D01*
X73305241Y-76799669D01*
X73305241Y-77082698D01*
X72374138Y-77082698D01*
X72404261Y-77052575D01*
X72416528Y-77031327D01*
X72432809Y-77012968D01*
X72505381Y-76867825D01*
X72521196Y-76790538D01*
X72496250Y-76715699D01*
X72437226Y-76663359D01*
X72359939Y-76647543D01*
X72285100Y-76672489D01*
X72232759Y-76731513D01*
X72171246Y-76854537D01*
X72054260Y-76971523D01*
X71849105Y-77108294D01*
X71826199Y-77134357D01*
X71801659Y-77158898D01*
X71800354Y-77163765D01*
X71797028Y-77167551D01*
X71790222Y-77201580D01*
X71781241Y-77235098D01*
X71563527Y-77235098D01*
X71563527Y-75856240D01*
X71781241Y-75856240D01*
X71790307Y-75890075D01*
X71797330Y-75924395D01*
X71869901Y-76069538D01*
X71886181Y-76087897D01*
X71898449Y-76109146D01*
X71971021Y-76181718D01*
X71992270Y-76193986D01*
X72010629Y-76210266D01*
X72155772Y-76282837D01*
X72172255Y-76286209D01*
X72186965Y-76294376D01*
X72477250Y-76366947D01*
X72496050Y-76366630D01*
X72514212Y-76371497D01*
X72877070Y-76371497D01*
X72895231Y-76366630D01*
X72914032Y-76366947D01*
X73204317Y-76294376D01*
X73219026Y-76286209D01*
X73235510Y-76282837D01*
X73380653Y-76210266D01*
X73399012Y-76193985D01*
X73420261Y-76181718D01*
X73492833Y-76109146D01*
X73505101Y-76087896D01*
X73521381Y-76069538D01*
X73593952Y-75924395D01*
X73600974Y-75890075D01*
X73610041Y-75856240D01*
X73610041Y-75711097D01*
X73600975Y-75677263D01*
X73593952Y-75642942D01*
X73521381Y-75497800D01*
X73505101Y-75479441D01*
X73492833Y-75458192D01*
X73420261Y-75385620D01*
X73399012Y-75373352D01*
X73380653Y-75357072D01*
X73235510Y-75284501D01*
X73219028Y-75281128D01*
X73204318Y-75272962D01*
X72914033Y-75200390D01*
X72895231Y-75200706D01*
X72877070Y-75195840D01*
X72514212Y-75195840D01*
X72496050Y-75200706D01*
X72477249Y-75200390D01*
X72186964Y-75272962D01*
X72172253Y-75281128D01*
X72155772Y-75284501D01*
X72010629Y-75357072D01*
X71992270Y-75373351D01*
X71971021Y-75385620D01*
X71898449Y-75458192D01*
X71886181Y-75479439D01*
X71869901Y-75497799D01*
X71797330Y-75642942D01*
X71790306Y-75677263D01*
X71781241Y-75711097D01*
X71781241Y-75856240D01*
X71563527Y-75856240D01*
X71563527Y-74332240D01*
X71781241Y-74332240D01*
X71782545Y-74337107D01*
X71781557Y-74342048D01*
X71792676Y-74374917D01*
X71801659Y-74408440D01*
X71805222Y-74412003D01*
X71806837Y-74416776D01*
X71832900Y-74439681D01*
X71857441Y-74464222D01*
X71862308Y-74465526D01*
X71866094Y-74468853D01*
X71900123Y-74475658D01*
X71933641Y-74484640D01*
X73305241Y-74484640D01*
X73305241Y-74767668D01*
X73325659Y-74843868D01*
X73381441Y-74899650D01*
X73457641Y-74920068D01*
X73533841Y-74899650D01*
X73589623Y-74843868D01*
X73610041Y-74767668D01*
X73610041Y-73896811D01*
X73589623Y-73820611D01*
X73533841Y-73764829D01*
X73457641Y-73744411D01*
X73381441Y-73764829D01*
X73325659Y-73820611D01*
X73305241Y-73896811D01*
X73305241Y-74179840D01*
X72374138Y-74179840D01*
X72404261Y-74149717D01*
X72416528Y-74128469D01*
X72432809Y-74110110D01*
X72505381Y-73964967D01*
X72521196Y-73887680D01*
X72496250Y-73812841D01*
X72437226Y-73760501D01*
X72359939Y-73744685D01*
X72285100Y-73769631D01*
X72232759Y-73828655D01*
X72171246Y-73951679D01*
X72054260Y-74068665D01*
X71849105Y-74205436D01*
X71826199Y-74231499D01*
X71801659Y-74256040D01*
X71800354Y-74260907D01*
X71797028Y-74264693D01*
X71790222Y-74298722D01*
X71781241Y-74332240D01*
X71563527Y-74332240D01*
X71563527Y-73526697D01*
X74335755Y-73526697D01*
X74335755Y-110332450D01*
G37*
D12*
X94313333Y-73749819D02*
X94313333Y-74464104D01*
X94313333Y-74464104D02*
X94360952Y-74606961D01*
X94360952Y-74606961D02*
X94456190Y-74702200D01*
X94456190Y-74702200D02*
X94599047Y-74749819D01*
X94599047Y-74749819D02*
X94694285Y-74749819D01*
X93932380Y-73749819D02*
X93313333Y-73749819D01*
X93313333Y-73749819D02*
X93646666Y-74130771D01*
X93646666Y-74130771D02*
X93503809Y-74130771D01*
X93503809Y-74130771D02*
X93408571Y-74178390D01*
X93408571Y-74178390D02*
X93360952Y-74226009D01*
X93360952Y-74226009D02*
X93313333Y-74321247D01*
X93313333Y-74321247D02*
X93313333Y-74559342D01*
X93313333Y-74559342D02*
X93360952Y-74654580D01*
X93360952Y-74654580D02*
X93408571Y-74702200D01*
X93408571Y-74702200D02*
X93503809Y-74749819D01*
X93503809Y-74749819D02*
X93789523Y-74749819D01*
X93789523Y-74749819D02*
X93884761Y-74702200D01*
X93884761Y-74702200D02*
X93932380Y-74654580D01*
X94313333Y-120739819D02*
X94313333Y-121454104D01*
X94313333Y-121454104D02*
X94360952Y-121596961D01*
X94360952Y-121596961D02*
X94456190Y-121692200D01*
X94456190Y-121692200D02*
X94599047Y-121739819D01*
X94599047Y-121739819D02*
X94694285Y-121739819D01*
X93408571Y-121073152D02*
X93408571Y-121739819D01*
X93646666Y-120692200D02*
X93884761Y-121406485D01*
X93884761Y-121406485D02*
X93265714Y-121406485D01*
D13*
X69299667Y-76327000D02*
X69704091Y-76327000D01*
X69697671Y-76977875D01*
X69696775Y-77067583D01*
X69694924Y-77232978D01*
X69692864Y-77363558D01*
X69690198Y-77464464D01*
X69686530Y-77540837D01*
X69681463Y-77597814D01*
X69674600Y-77640538D01*
X69665544Y-77674147D01*
X69653900Y-77703782D01*
X69639269Y-77734583D01*
X69621236Y-77768827D01*
X69519649Y-77908601D01*
X69385368Y-78029901D01*
X69223642Y-78130816D01*
X69039720Y-78209437D01*
X68838851Y-78263855D01*
X68626284Y-78292160D01*
X68407269Y-78292444D01*
X68187055Y-78262797D01*
X67987844Y-78207639D01*
X67813333Y-78126697D01*
X67670569Y-78020621D01*
X67557548Y-77888222D01*
X67544576Y-77868841D01*
X67508915Y-77811368D01*
X67480484Y-77755066D01*
X67458472Y-77694497D01*
X67442068Y-77624223D01*
X67430464Y-77538807D01*
X67422848Y-77432814D01*
X67418411Y-77300805D01*
X67416343Y-77137343D01*
X67415833Y-76936991D01*
X67415833Y-76813833D01*
X67813196Y-76813833D01*
X67822338Y-77104875D01*
X67824893Y-77172727D01*
X67834159Y-77308027D01*
X67849472Y-77412119D01*
X67872793Y-77492753D01*
X67906083Y-77557678D01*
X67951302Y-77614646D01*
X67971302Y-77634478D01*
X68079603Y-77706700D01*
X68221014Y-77755845D01*
X68393218Y-77781306D01*
X68593895Y-77782479D01*
X68756662Y-77764785D01*
X68930413Y-77719642D01*
X69073430Y-77649562D01*
X69183943Y-77555459D01*
X69260177Y-77438250D01*
X69269803Y-77414847D01*
X69283981Y-77363653D01*
X69292940Y-77297460D01*
X69297680Y-77207176D01*
X69299202Y-77083708D01*
X69299667Y-76813833D01*
X67813196Y-76813833D01*
X67415833Y-76813833D01*
X67415833Y-76327000D01*
X69299667Y-76327000D01*
G36*
X69299667Y-76327000D02*
G01*
X69704091Y-76327000D01*
X69697671Y-76977875D01*
X69696775Y-77067583D01*
X69694924Y-77232978D01*
X69692864Y-77363558D01*
X69690198Y-77464464D01*
X69686530Y-77540837D01*
X69681463Y-77597814D01*
X69674600Y-77640538D01*
X69665544Y-77674147D01*
X69653900Y-77703782D01*
X69639269Y-77734583D01*
X69621236Y-77768827D01*
X69519649Y-77908601D01*
X69385368Y-78029901D01*
X69223642Y-78130816D01*
X69039720Y-78209437D01*
X68838851Y-78263855D01*
X68626284Y-78292160D01*
X68407269Y-78292444D01*
X68187055Y-78262797D01*
X67987844Y-78207639D01*
X67813333Y-78126697D01*
X67670569Y-78020621D01*
X67557548Y-77888222D01*
X67544576Y-77868841D01*
X67508915Y-77811368D01*
X67480484Y-77755066D01*
X67458472Y-77694497D01*
X67442068Y-77624223D01*
X67430464Y-77538807D01*
X67422848Y-77432814D01*
X67418411Y-77300805D01*
X67416343Y-77137343D01*
X67415833Y-76936991D01*
X67415833Y-76813833D01*
X67813196Y-76813833D01*
X67822338Y-77104875D01*
X67824893Y-77172727D01*
X67834159Y-77308027D01*
X67849472Y-77412119D01*
X67872793Y-77492753D01*
X67906083Y-77557678D01*
X67951302Y-77614646D01*
X67971302Y-77634478D01*
X68079603Y-77706700D01*
X68221014Y-77755845D01*
X68393218Y-77781306D01*
X68593895Y-77782479D01*
X68756662Y-77764785D01*
X68930413Y-77719642D01*
X69073430Y-77649562D01*
X69183943Y-77555459D01*
X69260177Y-77438250D01*
X69269803Y-77414847D01*
X69283981Y-77363653D01*
X69292940Y-77297460D01*
X69297680Y-77207176D01*
X69299202Y-77083708D01*
X69299667Y-76813833D01*
X67813196Y-76813833D01*
X67415833Y-76813833D01*
X67415833Y-76327000D01*
X69299667Y-76327000D01*
G37*
X67433398Y-78337850D02*
X67457797Y-78343984D01*
X67518303Y-78360333D01*
X67610524Y-78385666D01*
X67730064Y-78418753D01*
X67872529Y-78458361D01*
X68033526Y-78503261D01*
X68208661Y-78552221D01*
X68393539Y-78604011D01*
X68583766Y-78657400D01*
X68774948Y-78711156D01*
X68962692Y-78764050D01*
X69142602Y-78814850D01*
X69310285Y-78862326D01*
X69461347Y-78905245D01*
X69591394Y-78942379D01*
X69703205Y-78974415D01*
X69697227Y-79211348D01*
X69691250Y-79448281D01*
X68986098Y-79618015D01*
X68280946Y-79787750D01*
X68964931Y-79953328D01*
X69076367Y-79980330D01*
X69232996Y-80018377D01*
X69373611Y-80052644D01*
X69493183Y-80081899D01*
X69586686Y-80104912D01*
X69649092Y-80120453D01*
X69675375Y-80127289D01*
X69686706Y-80141922D01*
X69695417Y-80186000D01*
X69700306Y-80263544D01*
X69701833Y-80378936D01*
X69701833Y-80622201D01*
X69614485Y-80645722D01*
X69577851Y-80655766D01*
X69504928Y-80675969D01*
X69401991Y-80704594D01*
X69273758Y-80740321D01*
X69124951Y-80781829D01*
X68960287Y-80827800D01*
X68784486Y-80876913D01*
X68602268Y-80927848D01*
X68418352Y-80979285D01*
X68237457Y-81029904D01*
X68064303Y-81078386D01*
X67903608Y-81123411D01*
X67760093Y-81163658D01*
X67638476Y-81197808D01*
X67543477Y-81224540D01*
X67479815Y-81242535D01*
X67452210Y-81250473D01*
X67441790Y-81252731D01*
X67429516Y-81247964D01*
X67422085Y-81227100D01*
X67418658Y-81183588D01*
X67418396Y-81110873D01*
X67420460Y-81002404D01*
X67426417Y-80742700D01*
X68107490Y-80572142D01*
X68219313Y-80544024D01*
X68374010Y-80504723D01*
X68512023Y-80469187D01*
X68628469Y-80438699D01*
X68718466Y-80414540D01*
X68777135Y-80397994D01*
X68799592Y-80390342D01*
X68797140Y-80388289D01*
X68764108Y-80377326D01*
X68696758Y-80358764D01*
X68599983Y-80333847D01*
X68478674Y-80303819D01*
X68337722Y-80269921D01*
X68182019Y-80233398D01*
X68127317Y-80220708D01*
X67969858Y-80184067D01*
X67824859Y-80150159D01*
X67698079Y-80120344D01*
X67595275Y-80095977D01*
X67522204Y-80078417D01*
X67484625Y-80069019D01*
X67415833Y-80050343D01*
X67415833Y-79786755D01*
X67415842Y-79776168D01*
X67416800Y-79677524D01*
X67419118Y-79597123D01*
X67422469Y-79542994D01*
X67426527Y-79523167D01*
X67435364Y-79521949D01*
X67480572Y-79513346D01*
X67557820Y-79497612D01*
X67661005Y-79476068D01*
X67784024Y-79450032D01*
X67920773Y-79420824D01*
X68065148Y-79389763D01*
X68211047Y-79358170D01*
X68352365Y-79327362D01*
X68482999Y-79298661D01*
X68596847Y-79273384D01*
X68687803Y-79252852D01*
X68749766Y-79238385D01*
X68776631Y-79231301D01*
X68777954Y-79230468D01*
X68763279Y-79219647D01*
X68708695Y-79199867D01*
X68615397Y-79171478D01*
X68484580Y-79134829D01*
X68317440Y-79090268D01*
X68115172Y-79038146D01*
X67415833Y-78860351D01*
X67415833Y-78599092D01*
X67415843Y-78590439D01*
X67417367Y-78492021D01*
X67421125Y-78411738D01*
X67426579Y-78357653D01*
X67433195Y-78337833D01*
X67433398Y-78337850D01*
G36*
X67433398Y-78337850D02*
G01*
X67457797Y-78343984D01*
X67518303Y-78360333D01*
X67610524Y-78385666D01*
X67730064Y-78418753D01*
X67872529Y-78458361D01*
X68033526Y-78503261D01*
X68208661Y-78552221D01*
X68393539Y-78604011D01*
X68583766Y-78657400D01*
X68774948Y-78711156D01*
X68962692Y-78764050D01*
X69142602Y-78814850D01*
X69310285Y-78862326D01*
X69461347Y-78905245D01*
X69591394Y-78942379D01*
X69703205Y-78974415D01*
X69697227Y-79211348D01*
X69691250Y-79448281D01*
X68986098Y-79618015D01*
X68280946Y-79787750D01*
X68964931Y-79953328D01*
X69076367Y-79980330D01*
X69232996Y-80018377D01*
X69373611Y-80052644D01*
X69493183Y-80081899D01*
X69586686Y-80104912D01*
X69649092Y-80120453D01*
X69675375Y-80127289D01*
X69686706Y-80141922D01*
X69695417Y-80186000D01*
X69700306Y-80263544D01*
X69701833Y-80378936D01*
X69701833Y-80622201D01*
X69614485Y-80645722D01*
X69577851Y-80655766D01*
X69504928Y-80675969D01*
X69401991Y-80704594D01*
X69273758Y-80740321D01*
X69124951Y-80781829D01*
X68960287Y-80827800D01*
X68784486Y-80876913D01*
X68602268Y-80927848D01*
X68418352Y-80979285D01*
X68237457Y-81029904D01*
X68064303Y-81078386D01*
X67903608Y-81123411D01*
X67760093Y-81163658D01*
X67638476Y-81197808D01*
X67543477Y-81224540D01*
X67479815Y-81242535D01*
X67452210Y-81250473D01*
X67441790Y-81252731D01*
X67429516Y-81247964D01*
X67422085Y-81227100D01*
X67418658Y-81183588D01*
X67418396Y-81110873D01*
X67420460Y-81002404D01*
X67426417Y-80742700D01*
X68107490Y-80572142D01*
X68219313Y-80544024D01*
X68374010Y-80504723D01*
X68512023Y-80469187D01*
X68628469Y-80438699D01*
X68718466Y-80414540D01*
X68777135Y-80397994D01*
X68799592Y-80390342D01*
X68797140Y-80388289D01*
X68764108Y-80377326D01*
X68696758Y-80358764D01*
X68599983Y-80333847D01*
X68478674Y-80303819D01*
X68337722Y-80269921D01*
X68182019Y-80233398D01*
X68127317Y-80220708D01*
X67969858Y-80184067D01*
X67824859Y-80150159D01*
X67698079Y-80120344D01*
X67595275Y-80095977D01*
X67522204Y-80078417D01*
X67484625Y-80069019D01*
X67415833Y-80050343D01*
X67415833Y-79786755D01*
X67415842Y-79776168D01*
X67416800Y-79677524D01*
X67419118Y-79597123D01*
X67422469Y-79542994D01*
X67426527Y-79523167D01*
X67435364Y-79521949D01*
X67480572Y-79513346D01*
X67557820Y-79497612D01*
X67661005Y-79476068D01*
X67784024Y-79450032D01*
X67920773Y-79420824D01*
X68065148Y-79389763D01*
X68211047Y-79358170D01*
X68352365Y-79327362D01*
X68482999Y-79298661D01*
X68596847Y-79273384D01*
X68687803Y-79252852D01*
X68749766Y-79238385D01*
X68776631Y-79231301D01*
X68777954Y-79230468D01*
X68763279Y-79219647D01*
X68708695Y-79199867D01*
X68615397Y-79171478D01*
X68484580Y-79134829D01*
X68317440Y-79090268D01*
X68115172Y-79038146D01*
X67415833Y-78860351D01*
X67415833Y-78599092D01*
X67415843Y-78590439D01*
X67417367Y-78492021D01*
X67421125Y-78411738D01*
X67426579Y-78357653D01*
X67433195Y-78337833D01*
X67433398Y-78337850D01*
G37*
X68495333Y-73448333D02*
X68728167Y-73448333D01*
X68728167Y-73543583D01*
X68728369Y-73569274D01*
X68732958Y-73615480D01*
X68748429Y-73634885D01*
X68781083Y-73638833D01*
X68795356Y-73638469D01*
X68821026Y-73630208D01*
X68831807Y-73602360D01*
X68834000Y-73543583D01*
X68834000Y-73533000D01*
X68918667Y-73533000D01*
X68918667Y-74676000D01*
X69088000Y-74676000D01*
X69088000Y-73533000D01*
X68918667Y-73533000D01*
X68834000Y-73533000D01*
X68834000Y-73448333D01*
X68918667Y-73448333D01*
X69172667Y-73448333D01*
X69172667Y-74062167D01*
X69510477Y-74062167D01*
X69574833Y-74062167D01*
X69574833Y-74164267D01*
X69575552Y-74212616D01*
X69583179Y-74251928D01*
X69606344Y-74271938D01*
X69653683Y-74285975D01*
X69712250Y-74309823D01*
X69760383Y-74358500D01*
X69777808Y-74418116D01*
X69783324Y-74500366D01*
X69777225Y-74588055D01*
X69760631Y-74665529D01*
X69734667Y-74717135D01*
X69718007Y-74732843D01*
X69683392Y-74750116D01*
X69630134Y-74758483D01*
X69546458Y-74760667D01*
X69444076Y-74755602D01*
X69371253Y-74735514D01*
X69327197Y-74694205D01*
X69305478Y-74625490D01*
X69299667Y-74523181D01*
X69299823Y-74514050D01*
X69383260Y-74514050D01*
X69387124Y-74581507D01*
X69398781Y-74636008D01*
X69417814Y-74663152D01*
X69445404Y-74670261D01*
X69509000Y-74675817D01*
X69579597Y-74673863D01*
X69640855Y-74665193D01*
X69676433Y-74650600D01*
X69691500Y-74616555D01*
X69699969Y-74555140D01*
X69700281Y-74484644D01*
X69692436Y-74421939D01*
X69676433Y-74383900D01*
X69642388Y-74368833D01*
X69580974Y-74360364D01*
X69510477Y-74360052D01*
X69447772Y-74367897D01*
X69409733Y-74383900D01*
X69400576Y-74397871D01*
X69387605Y-74448038D01*
X69383260Y-74514050D01*
X69299823Y-74514050D01*
X69300795Y-74457334D01*
X69307458Y-74399282D01*
X69323231Y-74359874D01*
X69351621Y-74325788D01*
X69354462Y-74323008D01*
X69402720Y-74288185D01*
X69446871Y-74273833D01*
X69459015Y-74273077D01*
X69483640Y-74256655D01*
X69490167Y-74210333D01*
X69490167Y-74146833D01*
X69172667Y-74146833D01*
X69172667Y-74760667D01*
X68834000Y-74760667D01*
X68834000Y-73723500D01*
X68728167Y-73723500D01*
X68728167Y-74760667D01*
X68410667Y-74760667D01*
X68410667Y-74570167D01*
X68156667Y-74570167D01*
X68156667Y-74824167D01*
X67902667Y-74824167D01*
X67902666Y-74963703D01*
X67902667Y-74964508D01*
X67906435Y-75052751D01*
X67919578Y-75112514D01*
X67945000Y-75157057D01*
X67976204Y-75206730D01*
X67983606Y-75265549D01*
X67953572Y-75328615D01*
X67952228Y-75330487D01*
X67902691Y-75366903D01*
X67840241Y-75373915D01*
X67780180Y-75353119D01*
X67737814Y-75306113D01*
X67727112Y-75262568D01*
X67804986Y-75262568D01*
X67830367Y-75283618D01*
X67869494Y-75282725D01*
X67885678Y-75273636D01*
X67902667Y-75247500D01*
X67902617Y-75245849D01*
X67884253Y-75219396D01*
X67847153Y-75210093D01*
X67812344Y-75223523D01*
X67805575Y-75232239D01*
X67804986Y-75262568D01*
X67727112Y-75262568D01*
X67724857Y-75253393D01*
X67740479Y-75186187D01*
X67789340Y-75135323D01*
X67802389Y-75118463D01*
X67814193Y-75064057D01*
X67818000Y-74971281D01*
X67818000Y-74824167D01*
X67542833Y-74824167D01*
X67542833Y-74273833D01*
X67627500Y-74273833D01*
X67627500Y-74739500D01*
X67847153Y-74739500D01*
X68072000Y-74739500D01*
X68072000Y-74273833D01*
X67627500Y-74273833D01*
X67542833Y-74273833D01*
X67542833Y-74189167D01*
X67627500Y-74189167D01*
X68156667Y-74189167D01*
X68156667Y-74485500D01*
X68410667Y-74485500D01*
X68410667Y-73533000D01*
X68495333Y-73533000D01*
X68495333Y-74676000D01*
X68643500Y-74676000D01*
X68643500Y-73533000D01*
X68495333Y-73533000D01*
X68410667Y-73533000D01*
X68410667Y-73448333D01*
X68495333Y-73448333D01*
G36*
X68495333Y-73448333D02*
G01*
X68728167Y-73448333D01*
X68728167Y-73543583D01*
X68728369Y-73569274D01*
X68732958Y-73615480D01*
X68748429Y-73634885D01*
X68781083Y-73638833D01*
X68795356Y-73638469D01*
X68821026Y-73630208D01*
X68831807Y-73602360D01*
X68834000Y-73543583D01*
X68834000Y-73533000D01*
X68918667Y-73533000D01*
X68918667Y-74676000D01*
X69088000Y-74676000D01*
X69088000Y-73533000D01*
X68918667Y-73533000D01*
X68834000Y-73533000D01*
X68834000Y-73448333D01*
X68918667Y-73448333D01*
X69172667Y-73448333D01*
X69172667Y-74062167D01*
X69510477Y-74062167D01*
X69574833Y-74062167D01*
X69574833Y-74164267D01*
X69575552Y-74212616D01*
X69583179Y-74251928D01*
X69606344Y-74271938D01*
X69653683Y-74285975D01*
X69712250Y-74309823D01*
X69760383Y-74358500D01*
X69777808Y-74418116D01*
X69783324Y-74500366D01*
X69777225Y-74588055D01*
X69760631Y-74665529D01*
X69734667Y-74717135D01*
X69718007Y-74732843D01*
X69683392Y-74750116D01*
X69630134Y-74758483D01*
X69546458Y-74760667D01*
X69444076Y-74755602D01*
X69371253Y-74735514D01*
X69327197Y-74694205D01*
X69305478Y-74625490D01*
X69299667Y-74523181D01*
X69299823Y-74514050D01*
X69383260Y-74514050D01*
X69387124Y-74581507D01*
X69398781Y-74636008D01*
X69417814Y-74663152D01*
X69445404Y-74670261D01*
X69509000Y-74675817D01*
X69579597Y-74673863D01*
X69640855Y-74665193D01*
X69676433Y-74650600D01*
X69691500Y-74616555D01*
X69699969Y-74555140D01*
X69700281Y-74484644D01*
X69692436Y-74421939D01*
X69676433Y-74383900D01*
X69642388Y-74368833D01*
X69580974Y-74360364D01*
X69510477Y-74360052D01*
X69447772Y-74367897D01*
X69409733Y-74383900D01*
X69400576Y-74397871D01*
X69387605Y-74448038D01*
X69383260Y-74514050D01*
X69299823Y-74514050D01*
X69300795Y-74457334D01*
X69307458Y-74399282D01*
X69323231Y-74359874D01*
X69351621Y-74325788D01*
X69354462Y-74323008D01*
X69402720Y-74288185D01*
X69446871Y-74273833D01*
X69459015Y-74273077D01*
X69483640Y-74256655D01*
X69490167Y-74210333D01*
X69490167Y-74146833D01*
X69172667Y-74146833D01*
X69172667Y-74760667D01*
X68834000Y-74760667D01*
X68834000Y-73723500D01*
X68728167Y-73723500D01*
X68728167Y-74760667D01*
X68410667Y-74760667D01*
X68410667Y-74570167D01*
X68156667Y-74570167D01*
X68156667Y-74824167D01*
X67902667Y-74824167D01*
X67902666Y-74963703D01*
X67902667Y-74964508D01*
X67906435Y-75052751D01*
X67919578Y-75112514D01*
X67945000Y-75157057D01*
X67976204Y-75206730D01*
X67983606Y-75265549D01*
X67953572Y-75328615D01*
X67952228Y-75330487D01*
X67902691Y-75366903D01*
X67840241Y-75373915D01*
X67780180Y-75353119D01*
X67737814Y-75306113D01*
X67727112Y-75262568D01*
X67804986Y-75262568D01*
X67830367Y-75283618D01*
X67869494Y-75282725D01*
X67885678Y-75273636D01*
X67902667Y-75247500D01*
X67902617Y-75245849D01*
X67884253Y-75219396D01*
X67847153Y-75210093D01*
X67812344Y-75223523D01*
X67805575Y-75232239D01*
X67804986Y-75262568D01*
X67727112Y-75262568D01*
X67724857Y-75253393D01*
X67740479Y-75186187D01*
X67789340Y-75135323D01*
X67802389Y-75118463D01*
X67814193Y-75064057D01*
X67818000Y-74971281D01*
X67818000Y-74824167D01*
X67542833Y-74824167D01*
X67542833Y-74273833D01*
X67627500Y-74273833D01*
X67627500Y-74739500D01*
X67847153Y-74739500D01*
X68072000Y-74739500D01*
X68072000Y-74273833D01*
X67627500Y-74273833D01*
X67542833Y-74273833D01*
X67542833Y-74189167D01*
X67627500Y-74189167D01*
X68156667Y-74189167D01*
X68156667Y-74485500D01*
X68410667Y-74485500D01*
X68410667Y-73533000D01*
X68495333Y-73533000D01*
X68495333Y-74676000D01*
X68643500Y-74676000D01*
X68643500Y-73533000D01*
X68495333Y-73533000D01*
X68410667Y-73533000D01*
X68410667Y-73448333D01*
X68495333Y-73448333D01*
G37*
X68851665Y-73117938D02*
X69027042Y-73168630D01*
X69214540Y-73250083D01*
X69257798Y-73272437D01*
X69455112Y-73402041D01*
X69628986Y-73562984D01*
X69774952Y-73749740D01*
X69888541Y-73956782D01*
X69965285Y-74178583D01*
X69982679Y-74281568D01*
X69991836Y-74419382D01*
X69991482Y-74571304D01*
X69982094Y-74723395D01*
X69964148Y-74861718D01*
X69938123Y-74972333D01*
X69870484Y-75139851D01*
X69751043Y-75340506D01*
X69599100Y-75520832D01*
X69419103Y-75676479D01*
X69215503Y-75803099D01*
X68992750Y-75896342D01*
X68983737Y-75899254D01*
X68892474Y-75925457D01*
X68807249Y-75941626D01*
X68711979Y-75950025D01*
X68590583Y-75952915D01*
X68450282Y-75950667D01*
X68315312Y-75938107D01*
X68192931Y-75911523D01*
X68067614Y-75867406D01*
X67923833Y-75802250D01*
X67913437Y-75797178D01*
X67809788Y-75742762D01*
X67725199Y-75688096D01*
X67644511Y-75622237D01*
X67552565Y-75534241D01*
X67435366Y-75403804D01*
X67305182Y-75210183D01*
X67213474Y-75001170D01*
X67159115Y-74774005D01*
X67145664Y-74590013D01*
X67227443Y-74590013D01*
X67236685Y-74735426D01*
X67257266Y-74856761D01*
X67269367Y-74900813D01*
X67350415Y-75105243D01*
X67466442Y-75297734D01*
X67611625Y-75471097D01*
X67780141Y-75618146D01*
X67966167Y-75731694D01*
X68016922Y-75755204D01*
X68206254Y-75823425D01*
X68401875Y-75867078D01*
X68587153Y-75882132D01*
X68707572Y-75874623D01*
X68912680Y-75832511D01*
X69115742Y-75756905D01*
X69306791Y-75651852D01*
X69475862Y-75521396D01*
X69494252Y-75504576D01*
X69566652Y-75437965D01*
X69615345Y-75388675D01*
X69637672Y-75354103D01*
X69630973Y-75331650D01*
X69592588Y-75318714D01*
X69519858Y-75312694D01*
X69410123Y-75310990D01*
X69260724Y-75311000D01*
X68860458Y-75311000D01*
X68848349Y-75371544D01*
X68842498Y-75393458D01*
X68798976Y-75473603D01*
X68730702Y-75543011D01*
X68650923Y-75587210D01*
X68596138Y-75599778D01*
X68492441Y-75602840D01*
X68391023Y-75584746D01*
X68310147Y-75547617D01*
X68264059Y-75506898D01*
X68207397Y-75418667D01*
X68180768Y-75316968D01*
X68181662Y-75280873D01*
X68262500Y-75280873D01*
X68266291Y-75334310D01*
X68287018Y-75389062D01*
X68333791Y-75447076D01*
X68399151Y-75497817D01*
X68489765Y-75527361D01*
X68582879Y-75522184D01*
X68668436Y-75483181D01*
X68736377Y-75411247D01*
X68743651Y-75399130D01*
X68776831Y-75303482D01*
X68772944Y-75208600D01*
X68735563Y-75123212D01*
X68668257Y-75056048D01*
X68574599Y-75015835D01*
X68493562Y-75010233D01*
X68402872Y-75036646D01*
X68329510Y-75094482D01*
X68280408Y-75177853D01*
X68262500Y-75280873D01*
X68181662Y-75280873D01*
X68183390Y-75211156D01*
X68214482Y-75110587D01*
X68273265Y-75024615D01*
X68358957Y-74962596D01*
X68435244Y-74936241D01*
X68493562Y-74931851D01*
X68545193Y-74927965D01*
X68649939Y-74950485D01*
X68741056Y-75000275D01*
X68810119Y-75073810D01*
X68848704Y-75167563D01*
X68860458Y-75226333D01*
X69722024Y-75226333D01*
X69756029Y-75174435D01*
X69757876Y-75171520D01*
X69782543Y-75123040D01*
X69813599Y-75050364D01*
X69844777Y-74968060D01*
X69864707Y-74901047D01*
X69890932Y-74763188D01*
X69906391Y-74608935D01*
X69910416Y-74452424D01*
X69902341Y-74307790D01*
X69881501Y-74189167D01*
X69835129Y-74053922D01*
X69738807Y-73862767D01*
X69613482Y-73682067D01*
X69466622Y-73522144D01*
X69305695Y-73393320D01*
X69292309Y-73384733D01*
X69207253Y-73337626D01*
X69104815Y-73289449D01*
X69004268Y-73249402D01*
X68997524Y-73247026D01*
X68914466Y-73219507D01*
X68843803Y-73201545D01*
X68771857Y-73191104D01*
X68684954Y-73186146D01*
X68569417Y-73184634D01*
X68495101Y-73184821D01*
X68393731Y-73187978D01*
X68314611Y-73196048D01*
X68245096Y-73210574D01*
X68172542Y-73233101D01*
X68029666Y-73282451D01*
X68029666Y-73460642D01*
X68029667Y-73638833D01*
X68304833Y-73638833D01*
X68304833Y-73935167D01*
X67669833Y-73935167D01*
X67669833Y-73723500D01*
X67754500Y-73723500D01*
X67754500Y-73850500D01*
X68220167Y-73850500D01*
X68220167Y-73723500D01*
X67754500Y-73723500D01*
X67669833Y-73723500D01*
X67669833Y-73638833D01*
X67754500Y-73638833D01*
X67945000Y-73638833D01*
X67945000Y-73321955D01*
X67881191Y-73360760D01*
X67742491Y-73458325D01*
X67576307Y-73616262D01*
X67436689Y-73799289D01*
X67328837Y-74000302D01*
X67257949Y-74212200D01*
X67242905Y-74293773D01*
X67229523Y-74437228D01*
X67227443Y-74590013D01*
X67145664Y-74590013D01*
X67140979Y-74525927D01*
X67150256Y-74342593D01*
X67193912Y-74113672D01*
X67274678Y-73902986D01*
X67394024Y-73706959D01*
X67553417Y-73522018D01*
X67632204Y-73447553D01*
X67823317Y-73303043D01*
X68028280Y-73197533D01*
X68250986Y-73129262D01*
X68495333Y-73096471D01*
X68569417Y-73095910D01*
X68674854Y-73095113D01*
X68851665Y-73117938D01*
G36*
X68851665Y-73117938D02*
G01*
X69027042Y-73168630D01*
X69214540Y-73250083D01*
X69257798Y-73272437D01*
X69455112Y-73402041D01*
X69628986Y-73562984D01*
X69774952Y-73749740D01*
X69888541Y-73956782D01*
X69965285Y-74178583D01*
X69982679Y-74281568D01*
X69991836Y-74419382D01*
X69991482Y-74571304D01*
X69982094Y-74723395D01*
X69964148Y-74861718D01*
X69938123Y-74972333D01*
X69870484Y-75139851D01*
X69751043Y-75340506D01*
X69599100Y-75520832D01*
X69419103Y-75676479D01*
X69215503Y-75803099D01*
X68992750Y-75896342D01*
X68983737Y-75899254D01*
X68892474Y-75925457D01*
X68807249Y-75941626D01*
X68711979Y-75950025D01*
X68590583Y-75952915D01*
X68450282Y-75950667D01*
X68315312Y-75938107D01*
X68192931Y-75911523D01*
X68067614Y-75867406D01*
X67923833Y-75802250D01*
X67913437Y-75797178D01*
X67809788Y-75742762D01*
X67725199Y-75688096D01*
X67644511Y-75622237D01*
X67552565Y-75534241D01*
X67435366Y-75403804D01*
X67305182Y-75210183D01*
X67213474Y-75001170D01*
X67159115Y-74774005D01*
X67145664Y-74590013D01*
X67227443Y-74590013D01*
X67236685Y-74735426D01*
X67257266Y-74856761D01*
X67269367Y-74900813D01*
X67350415Y-75105243D01*
X67466442Y-75297734D01*
X67611625Y-75471097D01*
X67780141Y-75618146D01*
X67966167Y-75731694D01*
X68016922Y-75755204D01*
X68206254Y-75823425D01*
X68401875Y-75867078D01*
X68587153Y-75882132D01*
X68707572Y-75874623D01*
X68912680Y-75832511D01*
X69115742Y-75756905D01*
X69306791Y-75651852D01*
X69475862Y-75521396D01*
X69494252Y-75504576D01*
X69566652Y-75437965D01*
X69615345Y-75388675D01*
X69637672Y-75354103D01*
X69630973Y-75331650D01*
X69592588Y-75318714D01*
X69519858Y-75312694D01*
X69410123Y-75310990D01*
X69260724Y-75311000D01*
X68860458Y-75311000D01*
X68848349Y-75371544D01*
X68842498Y-75393458D01*
X68798976Y-75473603D01*
X68730702Y-75543011D01*
X68650923Y-75587210D01*
X68596138Y-75599778D01*
X68492441Y-75602840D01*
X68391023Y-75584746D01*
X68310147Y-75547617D01*
X68264059Y-75506898D01*
X68207397Y-75418667D01*
X68180768Y-75316968D01*
X68181662Y-75280873D01*
X68262500Y-75280873D01*
X68266291Y-75334310D01*
X68287018Y-75389062D01*
X68333791Y-75447076D01*
X68399151Y-75497817D01*
X68489765Y-75527361D01*
X68582879Y-75522184D01*
X68668436Y-75483181D01*
X68736377Y-75411247D01*
X68743651Y-75399130D01*
X68776831Y-75303482D01*
X68772944Y-75208600D01*
X68735563Y-75123212D01*
X68668257Y-75056048D01*
X68574599Y-75015835D01*
X68493562Y-75010233D01*
X68402872Y-75036646D01*
X68329510Y-75094482D01*
X68280408Y-75177853D01*
X68262500Y-75280873D01*
X68181662Y-75280873D01*
X68183390Y-75211156D01*
X68214482Y-75110587D01*
X68273265Y-75024615D01*
X68358957Y-74962596D01*
X68435244Y-74936241D01*
X68493562Y-74931851D01*
X68545193Y-74927965D01*
X68649939Y-74950485D01*
X68741056Y-75000275D01*
X68810119Y-75073810D01*
X68848704Y-75167563D01*
X68860458Y-75226333D01*
X69722024Y-75226333D01*
X69756029Y-75174435D01*
X69757876Y-75171520D01*
X69782543Y-75123040D01*
X69813599Y-75050364D01*
X69844777Y-74968060D01*
X69864707Y-74901047D01*
X69890932Y-74763188D01*
X69906391Y-74608935D01*
X69910416Y-74452424D01*
X69902341Y-74307790D01*
X69881501Y-74189167D01*
X69835129Y-74053922D01*
X69738807Y-73862767D01*
X69613482Y-73682067D01*
X69466622Y-73522144D01*
X69305695Y-73393320D01*
X69292309Y-73384733D01*
X69207253Y-73337626D01*
X69104815Y-73289449D01*
X69004268Y-73249402D01*
X68997524Y-73247026D01*
X68914466Y-73219507D01*
X68843803Y-73201545D01*
X68771857Y-73191104D01*
X68684954Y-73186146D01*
X68569417Y-73184634D01*
X68495101Y-73184821D01*
X68393731Y-73187978D01*
X68314611Y-73196048D01*
X68245096Y-73210574D01*
X68172542Y-73233101D01*
X68029666Y-73282451D01*
X68029666Y-73460642D01*
X68029667Y-73638833D01*
X68304833Y-73638833D01*
X68304833Y-73935167D01*
X67669833Y-73935167D01*
X67669833Y-73723500D01*
X67754500Y-73723500D01*
X67754500Y-73850500D01*
X68220167Y-73850500D01*
X68220167Y-73723500D01*
X67754500Y-73723500D01*
X67669833Y-73723500D01*
X67669833Y-73638833D01*
X67754500Y-73638833D01*
X67945000Y-73638833D01*
X67945000Y-73321955D01*
X67881191Y-73360760D01*
X67742491Y-73458325D01*
X67576307Y-73616262D01*
X67436689Y-73799289D01*
X67328837Y-74000302D01*
X67257949Y-74212200D01*
X67242905Y-74293773D01*
X67229523Y-74437228D01*
X67227443Y-74590013D01*
X67145664Y-74590013D01*
X67140979Y-74525927D01*
X67150256Y-74342593D01*
X67193912Y-74113672D01*
X67274678Y-73902986D01*
X67394024Y-73706959D01*
X67553417Y-73522018D01*
X67632204Y-73447553D01*
X67823317Y-73303043D01*
X68028280Y-73197533D01*
X68250986Y-73129262D01*
X68495333Y-73096471D01*
X68569417Y-73095910D01*
X68674854Y-73095113D01*
X68851665Y-73117938D01*
G37*
D14*
X100395000Y-76890000D02*
X95195000Y-76890000D01*
X100395000Y-74290000D02*
X100395000Y-76890000D01*
X100395000Y-74290000D02*
X97795000Y-74290000D01*
X100395000Y-73020000D02*
X100395000Y-71690000D01*
X100395000Y-71690000D02*
X99065000Y-71690000D01*
X97795000Y-74290000D02*
X97795000Y-71690000D01*
X97795000Y-71690000D02*
X95195000Y-71690000D01*
X95195000Y-71690000D02*
X95195000Y-76890000D01*
X100395000Y-123885000D02*
X95195000Y-123885000D01*
X100395000Y-121285000D02*
X100395000Y-123885000D01*
X100395000Y-121285000D02*
X97795000Y-121285000D01*
X100395000Y-120015000D02*
X100395000Y-118685000D01*
X100395000Y-118685000D02*
X99065000Y-118685000D01*
X97795000Y-121285000D02*
X97795000Y-118685000D01*
X97795000Y-118685000D02*
X95195000Y-118685000D01*
X95195000Y-118685000D02*
X95195000Y-123885000D01*
%LPC*%
D15*
X58547000Y-122047000D03*
X68707000Y-87757000D03*
X67691000Y-111506000D03*
X79756000Y-83693000D03*
X66929000Y-81788000D03*
X77216000Y-110109000D03*
X77978000Y-122809000D03*
X66167000Y-73533000D03*
X59817000Y-100838000D03*
X51943000Y-111379000D03*
D16*
X57054000Y-76454000D03*
X51054000Y-76454000D03*
D17*
X54054000Y-81154000D03*
D18*
X50546000Y-120142000D03*
D19*
X53086000Y-120142000D03*
D18*
X55626000Y-120142000D03*
X50546000Y-116967000D03*
X55626000Y-116967000D03*
D19*
X52070000Y-115062000D03*
X54102000Y-115062000D03*
D20*
X60198000Y-74295000D03*
X78359000Y-94234000D03*
X56515000Y-107442000D03*
X66167000Y-121666000D03*
D21*
X99065000Y-73020000D03*
D22*
X96525000Y-73020000D03*
X99065000Y-75560000D03*
X96525000Y-75560000D03*
D21*
X99065000Y-120015000D03*
D22*
X96525000Y-120015000D03*
X99065000Y-122555000D03*
X96525000Y-122555000D03*
%LPD*%
M02*
