%TF.GenerationSoftware,KiCad,Pcbnew,7.0.7*%
%TF.CreationDate,2023-10-08T11:51:16-05:00*%
%TF.ProjectId,1016 Breadboard Power Supply,31303136-2042-4726-9561-64626f617264,1*%
%TF.SameCoordinates,Original*%
%TF.FileFunction,Legend,Top*%
%TF.FilePolarity,Positive*%
%FSLAX46Y46*%
G04 Gerber Fmt 4.6, Leading zero omitted, Abs format (unit mm)*
G04 Created by KiCad (PCBNEW 7.0.7) date 2023-10-08 11:51:16*
%MOMM*%
%LPD*%
G01*
G04 APERTURE LIST*
G04 Aperture macros list*
%AMRoundRect*
0 Rectangle with rounded corners*
0 $1 Rounding radius*
0 $2 $3 $4 $5 $6 $7 $8 $9 X,Y pos of 4 corners*
0 Add a 4 corners polygon primitive as box body*
4,1,4,$2,$3,$4,$5,$6,$7,$8,$9,$2,$3,0*
0 Add four circle primitives for the rounded corners*
1,1,$1+$1,$2,$3*
1,1,$1+$1,$4,$5*
1,1,$1+$1,$6,$7*
1,1,$1+$1,$8,$9*
0 Add four rect primitives between the rounded corners*
20,1,$1+$1,$2,$3,$4,$5,0*
20,1,$1+$1,$4,$5,$6,$7,0*
20,1,$1+$1,$6,$7,$8,$9,0*
20,1,$1+$1,$8,$9,$2,$3,0*%
%AMFreePoly0*
4,1,8,0.325000,0.000126,0.325000,-0.149874,0.175000,-0.149874,0.175000,-0.150126,-0.175000,-0.150126,-0.175000,0.150126,0.175000,0.150126,0.325000,0.000126,0.325000,0.000126,$1*%
%AMFreePoly1*
4,1,6,0.250000,0.000000,0.100000,-0.150000,-0.250000,-0.150000,-0.250000,0.150000,0.250000,0.150000,0.250000,0.000000,0.250000,0.000000,$1*%
%AMFreePoly2*
4,1,6,0.250000,0.000000,0.250000,-0.150000,-0.250000,-0.150000,-0.250000,0.150000,0.100000,0.150000,0.250000,0.000000,0.250000,0.000000,$1*%
%AMFreePoly3*
4,1,6,0.250000,-0.150000,-0.100000,-0.150000,-0.250000,0.000000,-0.250000,0.150000,0.250000,0.150000,0.250000,-0.150000,0.250000,-0.150000,$1*%
%AMFreePoly4*
4,1,6,0.250000,-0.150000,-0.250000,-0.150000,-0.250000,0.000000,-0.100000,0.150000,0.250000,0.150000,0.250000,-0.150000,0.250000,-0.150000,$1*%
G04 Aperture macros list end*
%ADD10C,0.177800*%
%ADD11C,0.150000*%
%ADD12C,0.254000*%
%ADD13C,0.152400*%
%ADD14C,0.120000*%
%ADD15C,0.100000*%
%ADD16C,0.127000*%
%ADD17C,0.400000*%
%ADD18C,0.200000*%
%ADD19C,0.250000*%
%ADD20C,1.000000*%
%ADD21C,2.000000*%
%ADD22R,4.000000X1.500000*%
%ADD23RoundRect,0.200000X-0.200000X-0.275000X0.200000X-0.275000X0.200000X0.275000X-0.200000X0.275000X0*%
%ADD24RoundRect,0.250000X0.450000X-0.262500X0.450000X0.262500X-0.450000X0.262500X-0.450000X-0.262500X0*%
%ADD25RoundRect,0.200000X0.200000X0.275000X-0.200000X0.275000X-0.200000X-0.275000X0.200000X-0.275000X0*%
%ADD26O,1.508000X3.016000*%
%ADD27O,3.016000X1.508000*%
%ADD28R,0.950000X0.950000*%
%ADD29RoundRect,0.225000X-0.250000X0.225000X-0.250000X-0.225000X0.250000X-0.225000X0.250000X0.225000X0*%
%ADD30RoundRect,0.200000X-0.275000X0.200000X-0.275000X-0.200000X0.275000X-0.200000X0.275000X0.200000X0*%
%ADD31R,1.000000X1.450000*%
%ADD32RoundRect,0.250000X0.250000X0.475000X-0.250000X0.475000X-0.250000X-0.475000X0.250000X-0.475000X0*%
%ADD33C,2.387600*%
%ADD34C,0.990600*%
%ADD35C,0.787400*%
%ADD36RoundRect,0.225000X-0.225000X-0.250000X0.225000X-0.250000X0.225000X0.250000X-0.225000X0.250000X0*%
%ADD37RoundRect,0.200000X0.275000X-0.200000X0.275000X0.200000X-0.275000X0.200000X-0.275000X-0.200000X0*%
%ADD38R,0.800000X0.300000*%
%ADD39R,0.300000X0.800000*%
%ADD40R,1.750000X1.750000*%
%ADD41RoundRect,0.225000X0.225000X0.250000X-0.225000X0.250000X-0.225000X-0.250000X0.225000X-0.250000X0*%
%ADD42RoundRect,0.225000X0.250000X-0.225000X0.250000X0.225000X-0.250000X0.225000X-0.250000X-0.225000X0*%
%ADD43R,1.500000X4.000000*%
%ADD44C,2.100000*%
%ADD45R,3.403600X1.549400*%
%ADD46FreePoly0,180.000000*%
%ADD47R,0.700000X0.300000*%
%ADD48FreePoly1,180.000000*%
%ADD49FreePoly2,270.000000*%
%ADD50R,0.300000X0.700000*%
%ADD51FreePoly1,270.000000*%
%ADD52FreePoly3,180.000000*%
%ADD53FreePoly4,180.000000*%
%ADD54FreePoly3,270.000000*%
%ADD55FreePoly4,270.000000*%
%ADD56R,1.193800X1.092200*%
%ADD57R,0.430000X0.350000*%
%ADD58R,1.100000X1.250000*%
%ADD59R,0.660000X0.350000*%
%ADD60R,1.200000X0.750000*%
%ADD61R,1.700000X1.700000*%
%ADD62O,1.700000X1.700000*%
G04 APERTURE END LIST*
D10*
X59182000Y-94637000D02*
X58674000Y-95145000D01*
X57531000Y-95145000D02*
X57277000Y-95399000D01*
X76073000Y-83071000D02*
X76073000Y-84595000D01*
X69075000Y-118872000D02*
X67691000Y-118872000D01*
X75311000Y-82309000D02*
X76073000Y-83071000D01*
X69837000Y-118110000D02*
X69075000Y-118872000D01*
X76073000Y-84595000D02*
X76581000Y-85103000D01*
X58674000Y-95145000D02*
X57531000Y-95145000D01*
D11*
X59602905Y-122009819D02*
X60174333Y-122009819D01*
X59888619Y-123009819D02*
X59888619Y-122009819D01*
X60507667Y-123009819D02*
X60507667Y-122009819D01*
X60507667Y-122009819D02*
X60888619Y-122009819D01*
X60888619Y-122009819D02*
X60983857Y-122057438D01*
X60983857Y-122057438D02*
X61031476Y-122105057D01*
X61031476Y-122105057D02*
X61079095Y-122200295D01*
X61079095Y-122200295D02*
X61079095Y-122343152D01*
X61079095Y-122343152D02*
X61031476Y-122438390D01*
X61031476Y-122438390D02*
X60983857Y-122486009D01*
X60983857Y-122486009D02*
X60888619Y-122533628D01*
X60888619Y-122533628D02*
X60507667Y-122533628D01*
X62031476Y-123009819D02*
X61460048Y-123009819D01*
X61745762Y-123009819D02*
X61745762Y-122009819D01*
X61745762Y-122009819D02*
X61650524Y-122152676D01*
X61650524Y-122152676D02*
X61555286Y-122247914D01*
X61555286Y-122247914D02*
X61460048Y-122295533D01*
X62650524Y-122009819D02*
X62745762Y-122009819D01*
X62745762Y-122009819D02*
X62841000Y-122057438D01*
X62841000Y-122057438D02*
X62888619Y-122105057D01*
X62888619Y-122105057D02*
X62936238Y-122200295D01*
X62936238Y-122200295D02*
X62983857Y-122390771D01*
X62983857Y-122390771D02*
X62983857Y-122628866D01*
X62983857Y-122628866D02*
X62936238Y-122819342D01*
X62936238Y-122819342D02*
X62888619Y-122914580D01*
X62888619Y-122914580D02*
X62841000Y-122962200D01*
X62841000Y-122962200D02*
X62745762Y-123009819D01*
X62745762Y-123009819D02*
X62650524Y-123009819D01*
X62650524Y-123009819D02*
X62555286Y-122962200D01*
X62555286Y-122962200D02*
X62507667Y-122914580D01*
X62507667Y-122914580D02*
X62460048Y-122819342D01*
X62460048Y-122819342D02*
X62412429Y-122628866D01*
X62412429Y-122628866D02*
X62412429Y-122390771D01*
X62412429Y-122390771D02*
X62460048Y-122200295D01*
X62460048Y-122200295D02*
X62507667Y-122105057D01*
X62507667Y-122105057D02*
X62555286Y-122057438D01*
X62555286Y-122057438D02*
X62650524Y-122009819D01*
X65286095Y-87338819D02*
X65857523Y-87338819D01*
X65571809Y-88338819D02*
X65571809Y-87338819D01*
X66190857Y-88338819D02*
X66190857Y-87338819D01*
X66190857Y-87338819D02*
X66571809Y-87338819D01*
X66571809Y-87338819D02*
X66667047Y-87386438D01*
X66667047Y-87386438D02*
X66714666Y-87434057D01*
X66714666Y-87434057D02*
X66762285Y-87529295D01*
X66762285Y-87529295D02*
X66762285Y-87672152D01*
X66762285Y-87672152D02*
X66714666Y-87767390D01*
X66714666Y-87767390D02*
X66667047Y-87815009D01*
X66667047Y-87815009D02*
X66571809Y-87862628D01*
X66571809Y-87862628D02*
X66190857Y-87862628D01*
X67238476Y-88338819D02*
X67428952Y-88338819D01*
X67428952Y-88338819D02*
X67524190Y-88291200D01*
X67524190Y-88291200D02*
X67571809Y-88243580D01*
X67571809Y-88243580D02*
X67667047Y-88100723D01*
X67667047Y-88100723D02*
X67714666Y-87910247D01*
X67714666Y-87910247D02*
X67714666Y-87529295D01*
X67714666Y-87529295D02*
X67667047Y-87434057D01*
X67667047Y-87434057D02*
X67619428Y-87386438D01*
X67619428Y-87386438D02*
X67524190Y-87338819D01*
X67524190Y-87338819D02*
X67333714Y-87338819D01*
X67333714Y-87338819D02*
X67238476Y-87386438D01*
X67238476Y-87386438D02*
X67190857Y-87434057D01*
X67190857Y-87434057D02*
X67143238Y-87529295D01*
X67143238Y-87529295D02*
X67143238Y-87767390D01*
X67143238Y-87767390D02*
X67190857Y-87862628D01*
X67190857Y-87862628D02*
X67238476Y-87910247D01*
X67238476Y-87910247D02*
X67333714Y-87957866D01*
X67333714Y-87957866D02*
X67524190Y-87957866D01*
X67524190Y-87957866D02*
X67619428Y-87910247D01*
X67619428Y-87910247D02*
X67667047Y-87862628D01*
X67667047Y-87862628D02*
X67714666Y-87767390D01*
X66429095Y-109436819D02*
X67000523Y-109436819D01*
X66714809Y-110436819D02*
X66714809Y-109436819D01*
X67333857Y-110436819D02*
X67333857Y-109436819D01*
X67333857Y-109436819D02*
X67714809Y-109436819D01*
X67714809Y-109436819D02*
X67810047Y-109484438D01*
X67810047Y-109484438D02*
X67857666Y-109532057D01*
X67857666Y-109532057D02*
X67905285Y-109627295D01*
X67905285Y-109627295D02*
X67905285Y-109770152D01*
X67905285Y-109770152D02*
X67857666Y-109865390D01*
X67857666Y-109865390D02*
X67810047Y-109913009D01*
X67810047Y-109913009D02*
X67714809Y-109960628D01*
X67714809Y-109960628D02*
X67333857Y-109960628D01*
X68476714Y-109865390D02*
X68381476Y-109817771D01*
X68381476Y-109817771D02*
X68333857Y-109770152D01*
X68333857Y-109770152D02*
X68286238Y-109674914D01*
X68286238Y-109674914D02*
X68286238Y-109627295D01*
X68286238Y-109627295D02*
X68333857Y-109532057D01*
X68333857Y-109532057D02*
X68381476Y-109484438D01*
X68381476Y-109484438D02*
X68476714Y-109436819D01*
X68476714Y-109436819D02*
X68667190Y-109436819D01*
X68667190Y-109436819D02*
X68762428Y-109484438D01*
X68762428Y-109484438D02*
X68810047Y-109532057D01*
X68810047Y-109532057D02*
X68857666Y-109627295D01*
X68857666Y-109627295D02*
X68857666Y-109674914D01*
X68857666Y-109674914D02*
X68810047Y-109770152D01*
X68810047Y-109770152D02*
X68762428Y-109817771D01*
X68762428Y-109817771D02*
X68667190Y-109865390D01*
X68667190Y-109865390D02*
X68476714Y-109865390D01*
X68476714Y-109865390D02*
X68381476Y-109913009D01*
X68381476Y-109913009D02*
X68333857Y-109960628D01*
X68333857Y-109960628D02*
X68286238Y-110055866D01*
X68286238Y-110055866D02*
X68286238Y-110246342D01*
X68286238Y-110246342D02*
X68333857Y-110341580D01*
X68333857Y-110341580D02*
X68381476Y-110389200D01*
X68381476Y-110389200D02*
X68476714Y-110436819D01*
X68476714Y-110436819D02*
X68667190Y-110436819D01*
X68667190Y-110436819D02*
X68762428Y-110389200D01*
X68762428Y-110389200D02*
X68810047Y-110341580D01*
X68810047Y-110341580D02*
X68857666Y-110246342D01*
X68857666Y-110246342D02*
X68857666Y-110055866D01*
X68857666Y-110055866D02*
X68810047Y-109960628D01*
X68810047Y-109960628D02*
X68762428Y-109913009D01*
X68762428Y-109913009D02*
X68667190Y-109865390D01*
X79337819Y-87113904D02*
X79337819Y-86542476D01*
X80337819Y-86828190D02*
X79337819Y-86828190D01*
X80337819Y-86209142D02*
X79337819Y-86209142D01*
X79337819Y-86209142D02*
X79337819Y-85828190D01*
X79337819Y-85828190D02*
X79385438Y-85732952D01*
X79385438Y-85732952D02*
X79433057Y-85685333D01*
X79433057Y-85685333D02*
X79528295Y-85637714D01*
X79528295Y-85637714D02*
X79671152Y-85637714D01*
X79671152Y-85637714D02*
X79766390Y-85685333D01*
X79766390Y-85685333D02*
X79814009Y-85732952D01*
X79814009Y-85732952D02*
X79861628Y-85828190D01*
X79861628Y-85828190D02*
X79861628Y-86209142D01*
X79337819Y-85304380D02*
X79337819Y-84637714D01*
X79337819Y-84637714D02*
X80337819Y-85066285D01*
X65667095Y-82893819D02*
X66238523Y-82893819D01*
X65952809Y-83893819D02*
X65952809Y-82893819D01*
X66571857Y-83893819D02*
X66571857Y-82893819D01*
X66571857Y-82893819D02*
X66952809Y-82893819D01*
X66952809Y-82893819D02*
X67048047Y-82941438D01*
X67048047Y-82941438D02*
X67095666Y-82989057D01*
X67095666Y-82989057D02*
X67143285Y-83084295D01*
X67143285Y-83084295D02*
X67143285Y-83227152D01*
X67143285Y-83227152D02*
X67095666Y-83322390D01*
X67095666Y-83322390D02*
X67048047Y-83370009D01*
X67048047Y-83370009D02*
X66952809Y-83417628D01*
X66952809Y-83417628D02*
X66571857Y-83417628D01*
X68000428Y-82893819D02*
X67809952Y-82893819D01*
X67809952Y-82893819D02*
X67714714Y-82941438D01*
X67714714Y-82941438D02*
X67667095Y-82989057D01*
X67667095Y-82989057D02*
X67571857Y-83131914D01*
X67571857Y-83131914D02*
X67524238Y-83322390D01*
X67524238Y-83322390D02*
X67524238Y-83703342D01*
X67524238Y-83703342D02*
X67571857Y-83798580D01*
X67571857Y-83798580D02*
X67619476Y-83846200D01*
X67619476Y-83846200D02*
X67714714Y-83893819D01*
X67714714Y-83893819D02*
X67905190Y-83893819D01*
X67905190Y-83893819D02*
X68000428Y-83846200D01*
X68000428Y-83846200D02*
X68048047Y-83798580D01*
X68048047Y-83798580D02*
X68095666Y-83703342D01*
X68095666Y-83703342D02*
X68095666Y-83465247D01*
X68095666Y-83465247D02*
X68048047Y-83370009D01*
X68048047Y-83370009D02*
X68000428Y-83322390D01*
X68000428Y-83322390D02*
X67905190Y-83274771D01*
X67905190Y-83274771D02*
X67714714Y-83274771D01*
X67714714Y-83274771D02*
X67619476Y-83322390D01*
X67619476Y-83322390D02*
X67571857Y-83370009D01*
X67571857Y-83370009D02*
X67524238Y-83465247D01*
X78113095Y-109563819D02*
X78684523Y-109563819D01*
X78398809Y-110563819D02*
X78398809Y-109563819D01*
X79017857Y-110563819D02*
X79017857Y-109563819D01*
X79017857Y-109563819D02*
X79398809Y-109563819D01*
X79398809Y-109563819D02*
X79494047Y-109611438D01*
X79494047Y-109611438D02*
X79541666Y-109659057D01*
X79541666Y-109659057D02*
X79589285Y-109754295D01*
X79589285Y-109754295D02*
X79589285Y-109897152D01*
X79589285Y-109897152D02*
X79541666Y-109992390D01*
X79541666Y-109992390D02*
X79494047Y-110040009D01*
X79494047Y-110040009D02*
X79398809Y-110087628D01*
X79398809Y-110087628D02*
X79017857Y-110087628D01*
X80494047Y-109563819D02*
X80017857Y-109563819D01*
X80017857Y-109563819D02*
X79970238Y-110040009D01*
X79970238Y-110040009D02*
X80017857Y-109992390D01*
X80017857Y-109992390D02*
X80113095Y-109944771D01*
X80113095Y-109944771D02*
X80351190Y-109944771D01*
X80351190Y-109944771D02*
X80446428Y-109992390D01*
X80446428Y-109992390D02*
X80494047Y-110040009D01*
X80494047Y-110040009D02*
X80541666Y-110135247D01*
X80541666Y-110135247D02*
X80541666Y-110373342D01*
X80541666Y-110373342D02*
X80494047Y-110468580D01*
X80494047Y-110468580D02*
X80446428Y-110516200D01*
X80446428Y-110516200D02*
X80351190Y-110563819D01*
X80351190Y-110563819D02*
X80113095Y-110563819D01*
X80113095Y-110563819D02*
X80017857Y-110516200D01*
X80017857Y-110516200D02*
X79970238Y-110468580D01*
X74557095Y-122263819D02*
X75128523Y-122263819D01*
X74842809Y-123263819D02*
X74842809Y-122263819D01*
X75461857Y-123263819D02*
X75461857Y-122263819D01*
X75461857Y-122263819D02*
X75842809Y-122263819D01*
X75842809Y-122263819D02*
X75938047Y-122311438D01*
X75938047Y-122311438D02*
X75985666Y-122359057D01*
X75985666Y-122359057D02*
X76033285Y-122454295D01*
X76033285Y-122454295D02*
X76033285Y-122597152D01*
X76033285Y-122597152D02*
X75985666Y-122692390D01*
X75985666Y-122692390D02*
X75938047Y-122740009D01*
X75938047Y-122740009D02*
X75842809Y-122787628D01*
X75842809Y-122787628D02*
X75461857Y-122787628D01*
X76890428Y-122597152D02*
X76890428Y-123263819D01*
X76652333Y-122216200D02*
X76414238Y-122930485D01*
X76414238Y-122930485D02*
X77033285Y-122930485D01*
X62746095Y-73114819D02*
X63317523Y-73114819D01*
X63031809Y-74114819D02*
X63031809Y-73114819D01*
X63650857Y-74114819D02*
X63650857Y-73114819D01*
X63650857Y-73114819D02*
X64031809Y-73114819D01*
X64031809Y-73114819D02*
X64127047Y-73162438D01*
X64127047Y-73162438D02*
X64174666Y-73210057D01*
X64174666Y-73210057D02*
X64222285Y-73305295D01*
X64222285Y-73305295D02*
X64222285Y-73448152D01*
X64222285Y-73448152D02*
X64174666Y-73543390D01*
X64174666Y-73543390D02*
X64127047Y-73591009D01*
X64127047Y-73591009D02*
X64031809Y-73638628D01*
X64031809Y-73638628D02*
X63650857Y-73638628D01*
X64555619Y-73114819D02*
X65174666Y-73114819D01*
X65174666Y-73114819D02*
X64841333Y-73495771D01*
X64841333Y-73495771D02*
X64984190Y-73495771D01*
X64984190Y-73495771D02*
X65079428Y-73543390D01*
X65079428Y-73543390D02*
X65127047Y-73591009D01*
X65127047Y-73591009D02*
X65174666Y-73686247D01*
X65174666Y-73686247D02*
X65174666Y-73924342D01*
X65174666Y-73924342D02*
X65127047Y-74019580D01*
X65127047Y-74019580D02*
X65079428Y-74067200D01*
X65079428Y-74067200D02*
X64984190Y-74114819D01*
X64984190Y-74114819D02*
X64698476Y-74114819D01*
X64698476Y-74114819D02*
X64603238Y-74067200D01*
X64603238Y-74067200D02*
X64555619Y-74019580D01*
X56396095Y-100419819D02*
X56967523Y-100419819D01*
X56681809Y-101419819D02*
X56681809Y-100419819D01*
X57300857Y-101419819D02*
X57300857Y-100419819D01*
X57300857Y-100419819D02*
X57681809Y-100419819D01*
X57681809Y-100419819D02*
X57777047Y-100467438D01*
X57777047Y-100467438D02*
X57824666Y-100515057D01*
X57824666Y-100515057D02*
X57872285Y-100610295D01*
X57872285Y-100610295D02*
X57872285Y-100753152D01*
X57872285Y-100753152D02*
X57824666Y-100848390D01*
X57824666Y-100848390D02*
X57777047Y-100896009D01*
X57777047Y-100896009D02*
X57681809Y-100943628D01*
X57681809Y-100943628D02*
X57300857Y-100943628D01*
X58253238Y-100515057D02*
X58300857Y-100467438D01*
X58300857Y-100467438D02*
X58396095Y-100419819D01*
X58396095Y-100419819D02*
X58634190Y-100419819D01*
X58634190Y-100419819D02*
X58729428Y-100467438D01*
X58729428Y-100467438D02*
X58777047Y-100515057D01*
X58777047Y-100515057D02*
X58824666Y-100610295D01*
X58824666Y-100610295D02*
X58824666Y-100705533D01*
X58824666Y-100705533D02*
X58777047Y-100848390D01*
X58777047Y-100848390D02*
X58205619Y-101419819D01*
X58205619Y-101419819D02*
X58824666Y-101419819D01*
X52840095Y-110833819D02*
X53411523Y-110833819D01*
X53125809Y-111833819D02*
X53125809Y-110833819D01*
X53744857Y-111833819D02*
X53744857Y-110833819D01*
X53744857Y-110833819D02*
X54125809Y-110833819D01*
X54125809Y-110833819D02*
X54221047Y-110881438D01*
X54221047Y-110881438D02*
X54268666Y-110929057D01*
X54268666Y-110929057D02*
X54316285Y-111024295D01*
X54316285Y-111024295D02*
X54316285Y-111167152D01*
X54316285Y-111167152D02*
X54268666Y-111262390D01*
X54268666Y-111262390D02*
X54221047Y-111310009D01*
X54221047Y-111310009D02*
X54125809Y-111357628D01*
X54125809Y-111357628D02*
X53744857Y-111357628D01*
X55268666Y-111833819D02*
X54697238Y-111833819D01*
X54982952Y-111833819D02*
X54982952Y-110833819D01*
X54982952Y-110833819D02*
X54887714Y-110976676D01*
X54887714Y-110976676D02*
X54792476Y-111071914D01*
X54792476Y-111071914D02*
X54697238Y-111119533D01*
D12*
X56303333Y-98745318D02*
X55698571Y-98745318D01*
X55698571Y-98745318D02*
X55698571Y-97475318D01*
X57391905Y-98745318D02*
X56666190Y-98745318D01*
X57029047Y-98745318D02*
X57029047Y-97475318D01*
X57029047Y-97475318D02*
X56908095Y-97656746D01*
X56908095Y-97656746D02*
X56787143Y-97777699D01*
X56787143Y-97777699D02*
X56666190Y-97838175D01*
D11*
X67270333Y-76667819D02*
X66937000Y-76191628D01*
X66698905Y-76667819D02*
X66698905Y-75667819D01*
X66698905Y-75667819D02*
X67079857Y-75667819D01*
X67079857Y-75667819D02*
X67175095Y-75715438D01*
X67175095Y-75715438D02*
X67222714Y-75763057D01*
X67222714Y-75763057D02*
X67270333Y-75858295D01*
X67270333Y-75858295D02*
X67270333Y-76001152D01*
X67270333Y-76001152D02*
X67222714Y-76096390D01*
X67222714Y-76096390D02*
X67175095Y-76144009D01*
X67175095Y-76144009D02*
X67079857Y-76191628D01*
X67079857Y-76191628D02*
X66698905Y-76191628D01*
X67603667Y-75667819D02*
X68270333Y-75667819D01*
X68270333Y-75667819D02*
X67841762Y-76667819D01*
X52905819Y-104179666D02*
X52429628Y-104512999D01*
X52905819Y-104751094D02*
X51905819Y-104751094D01*
X51905819Y-104751094D02*
X51905819Y-104370142D01*
X51905819Y-104370142D02*
X51953438Y-104274904D01*
X51953438Y-104274904D02*
X52001057Y-104227285D01*
X52001057Y-104227285D02*
X52096295Y-104179666D01*
X52096295Y-104179666D02*
X52239152Y-104179666D01*
X52239152Y-104179666D02*
X52334390Y-104227285D01*
X52334390Y-104227285D02*
X52382009Y-104274904D01*
X52382009Y-104274904D02*
X52429628Y-104370142D01*
X52429628Y-104370142D02*
X52429628Y-104751094D01*
X52001057Y-103798713D02*
X51953438Y-103751094D01*
X51953438Y-103751094D02*
X51905819Y-103655856D01*
X51905819Y-103655856D02*
X51905819Y-103417761D01*
X51905819Y-103417761D02*
X51953438Y-103322523D01*
X51953438Y-103322523D02*
X52001057Y-103274904D01*
X52001057Y-103274904D02*
X52096295Y-103227285D01*
X52096295Y-103227285D02*
X52191533Y-103227285D01*
X52191533Y-103227285D02*
X52334390Y-103274904D01*
X52334390Y-103274904D02*
X52905819Y-103846332D01*
X52905819Y-103846332D02*
X52905819Y-103227285D01*
X67270333Y-79969819D02*
X66937000Y-79493628D01*
X66698905Y-79969819D02*
X66698905Y-78969819D01*
X66698905Y-78969819D02*
X67079857Y-78969819D01*
X67079857Y-78969819D02*
X67175095Y-79017438D01*
X67175095Y-79017438D02*
X67222714Y-79065057D01*
X67222714Y-79065057D02*
X67270333Y-79160295D01*
X67270333Y-79160295D02*
X67270333Y-79303152D01*
X67270333Y-79303152D02*
X67222714Y-79398390D01*
X67222714Y-79398390D02*
X67175095Y-79446009D01*
X67175095Y-79446009D02*
X67079857Y-79493628D01*
X67079857Y-79493628D02*
X66698905Y-79493628D01*
X67746524Y-79969819D02*
X67937000Y-79969819D01*
X67937000Y-79969819D02*
X68032238Y-79922200D01*
X68032238Y-79922200D02*
X68079857Y-79874580D01*
X68079857Y-79874580D02*
X68175095Y-79731723D01*
X68175095Y-79731723D02*
X68222714Y-79541247D01*
X68222714Y-79541247D02*
X68222714Y-79160295D01*
X68222714Y-79160295D02*
X68175095Y-79065057D01*
X68175095Y-79065057D02*
X68127476Y-79017438D01*
X68127476Y-79017438D02*
X68032238Y-78969819D01*
X68032238Y-78969819D02*
X67841762Y-78969819D01*
X67841762Y-78969819D02*
X67746524Y-79017438D01*
X67746524Y-79017438D02*
X67698905Y-79065057D01*
X67698905Y-79065057D02*
X67651286Y-79160295D01*
X67651286Y-79160295D02*
X67651286Y-79398390D01*
X67651286Y-79398390D02*
X67698905Y-79493628D01*
X67698905Y-79493628D02*
X67746524Y-79541247D01*
X67746524Y-79541247D02*
X67841762Y-79588866D01*
X67841762Y-79588866D02*
X68032238Y-79588866D01*
X68032238Y-79588866D02*
X68127476Y-79541247D01*
X68127476Y-79541247D02*
X68175095Y-79493628D01*
X68175095Y-79493628D02*
X68222714Y-79398390D01*
X53768068Y-73621854D02*
X53768068Y-74337422D01*
X53768068Y-74337422D02*
X53720364Y-74480535D01*
X53720364Y-74480535D02*
X53624955Y-74575945D01*
X53624955Y-74575945D02*
X53481841Y-74623649D01*
X53481841Y-74623649D02*
X53386432Y-74623649D01*
X54769863Y-74623649D02*
X54197409Y-74623649D01*
X54483636Y-74623649D02*
X54483636Y-73621854D01*
X54483636Y-73621854D02*
X54388227Y-73764968D01*
X54388227Y-73764968D02*
X54292818Y-73860377D01*
X54292818Y-73860377D02*
X54197409Y-73908081D01*
D13*
X80726095Y-91052951D02*
X80726095Y-91536761D01*
X80726095Y-91536761D02*
X79710095Y-91536761D01*
X80193905Y-90714285D02*
X80193905Y-90375618D01*
X80726095Y-90230475D02*
X80726095Y-90714285D01*
X80726095Y-90714285D02*
X79710095Y-90714285D01*
X79710095Y-90714285D02*
X79710095Y-90230475D01*
X80726095Y-89795047D02*
X79710095Y-89795047D01*
X79710095Y-89795047D02*
X79710095Y-89553142D01*
X79710095Y-89553142D02*
X79758476Y-89407999D01*
X79758476Y-89407999D02*
X79855238Y-89311237D01*
X79855238Y-89311237D02*
X79952000Y-89262856D01*
X79952000Y-89262856D02*
X80145524Y-89214475D01*
X80145524Y-89214475D02*
X80290667Y-89214475D01*
X80290667Y-89214475D02*
X80484191Y-89262856D01*
X80484191Y-89262856D02*
X80580953Y-89311237D01*
X80580953Y-89311237D02*
X80677715Y-89407999D01*
X80677715Y-89407999D02*
X80726095Y-89553142D01*
X80726095Y-89553142D02*
X80726095Y-89795047D01*
X79710095Y-88343618D02*
X79710095Y-88537142D01*
X79710095Y-88537142D02*
X79758476Y-88633904D01*
X79758476Y-88633904D02*
X79806857Y-88682285D01*
X79806857Y-88682285D02*
X79952000Y-88779047D01*
X79952000Y-88779047D02*
X80145524Y-88827428D01*
X80145524Y-88827428D02*
X80532572Y-88827428D01*
X80532572Y-88827428D02*
X80629334Y-88779047D01*
X80629334Y-88779047D02*
X80677715Y-88730666D01*
X80677715Y-88730666D02*
X80726095Y-88633904D01*
X80726095Y-88633904D02*
X80726095Y-88440380D01*
X80726095Y-88440380D02*
X80677715Y-88343618D01*
X80677715Y-88343618D02*
X80629334Y-88295237D01*
X80629334Y-88295237D02*
X80532572Y-88246856D01*
X80532572Y-88246856D02*
X80290667Y-88246856D01*
X80290667Y-88246856D02*
X80193905Y-88295237D01*
X80193905Y-88295237D02*
X80145524Y-88343618D01*
X80145524Y-88343618D02*
X80097143Y-88440380D01*
X80097143Y-88440380D02*
X80097143Y-88633904D01*
X80097143Y-88633904D02*
X80145524Y-88730666D01*
X80145524Y-88730666D02*
X80193905Y-88779047D01*
X80193905Y-88779047D02*
X80290667Y-88827428D01*
X50933048Y-109682095D02*
X50449238Y-109682095D01*
X50449238Y-109682095D02*
X50449238Y-108666095D01*
X51271714Y-109149905D02*
X51610381Y-109149905D01*
X51755524Y-109682095D02*
X51271714Y-109682095D01*
X51271714Y-109682095D02*
X51271714Y-108666095D01*
X51271714Y-108666095D02*
X51755524Y-108666095D01*
X52190952Y-109682095D02*
X52190952Y-108666095D01*
X52190952Y-108666095D02*
X52432857Y-108666095D01*
X52432857Y-108666095D02*
X52578000Y-108714476D01*
X52578000Y-108714476D02*
X52674762Y-108811238D01*
X52674762Y-108811238D02*
X52723143Y-108908000D01*
X52723143Y-108908000D02*
X52771524Y-109101524D01*
X52771524Y-109101524D02*
X52771524Y-109246667D01*
X52771524Y-109246667D02*
X52723143Y-109440191D01*
X52723143Y-109440191D02*
X52674762Y-109536953D01*
X52674762Y-109536953D02*
X52578000Y-109633715D01*
X52578000Y-109633715D02*
X52432857Y-109682095D01*
X52432857Y-109682095D02*
X52190952Y-109682095D01*
X53739143Y-109682095D02*
X53158571Y-109682095D01*
X53448857Y-109682095D02*
X53448857Y-108666095D01*
X53448857Y-108666095D02*
X53352095Y-108811238D01*
X53352095Y-108811238D02*
X53255333Y-108908000D01*
X53255333Y-108908000D02*
X53158571Y-108956381D01*
D11*
X67021580Y-114688857D02*
X67069200Y-114736476D01*
X67069200Y-114736476D02*
X67116819Y-114879333D01*
X67116819Y-114879333D02*
X67116819Y-114974571D01*
X67116819Y-114974571D02*
X67069200Y-115117428D01*
X67069200Y-115117428D02*
X66973961Y-115212666D01*
X66973961Y-115212666D02*
X66878723Y-115260285D01*
X66878723Y-115260285D02*
X66688247Y-115307904D01*
X66688247Y-115307904D02*
X66545390Y-115307904D01*
X66545390Y-115307904D02*
X66354914Y-115260285D01*
X66354914Y-115260285D02*
X66259676Y-115212666D01*
X66259676Y-115212666D02*
X66164438Y-115117428D01*
X66164438Y-115117428D02*
X66116819Y-114974571D01*
X66116819Y-114974571D02*
X66116819Y-114879333D01*
X66116819Y-114879333D02*
X66164438Y-114736476D01*
X66164438Y-114736476D02*
X66212057Y-114688857D01*
X67116819Y-113736476D02*
X67116819Y-114307904D01*
X67116819Y-114022190D02*
X66116819Y-114022190D01*
X66116819Y-114022190D02*
X66259676Y-114117428D01*
X66259676Y-114117428D02*
X66354914Y-114212666D01*
X66354914Y-114212666D02*
X66402533Y-114307904D01*
X66212057Y-113355523D02*
X66164438Y-113307904D01*
X66164438Y-113307904D02*
X66116819Y-113212666D01*
X66116819Y-113212666D02*
X66116819Y-112974571D01*
X66116819Y-112974571D02*
X66164438Y-112879333D01*
X66164438Y-112879333D02*
X66212057Y-112831714D01*
X66212057Y-112831714D02*
X66307295Y-112784095D01*
X66307295Y-112784095D02*
X66402533Y-112784095D01*
X66402533Y-112784095D02*
X66545390Y-112831714D01*
X66545390Y-112831714D02*
X67116819Y-113403142D01*
X67116819Y-113403142D02*
X67116819Y-112784095D01*
X71874142Y-105610819D02*
X71540809Y-105134628D01*
X71302714Y-105610819D02*
X71302714Y-104610819D01*
X71302714Y-104610819D02*
X71683666Y-104610819D01*
X71683666Y-104610819D02*
X71778904Y-104658438D01*
X71778904Y-104658438D02*
X71826523Y-104706057D01*
X71826523Y-104706057D02*
X71874142Y-104801295D01*
X71874142Y-104801295D02*
X71874142Y-104944152D01*
X71874142Y-104944152D02*
X71826523Y-105039390D01*
X71826523Y-105039390D02*
X71778904Y-105087009D01*
X71778904Y-105087009D02*
X71683666Y-105134628D01*
X71683666Y-105134628D02*
X71302714Y-105134628D01*
X72826523Y-105610819D02*
X72255095Y-105610819D01*
X72540809Y-105610819D02*
X72540809Y-104610819D01*
X72540809Y-104610819D02*
X72445571Y-104753676D01*
X72445571Y-104753676D02*
X72350333Y-104848914D01*
X72350333Y-104848914D02*
X72255095Y-104896533D01*
X73397952Y-105039390D02*
X73302714Y-104991771D01*
X73302714Y-104991771D02*
X73255095Y-104944152D01*
X73255095Y-104944152D02*
X73207476Y-104848914D01*
X73207476Y-104848914D02*
X73207476Y-104801295D01*
X73207476Y-104801295D02*
X73255095Y-104706057D01*
X73255095Y-104706057D02*
X73302714Y-104658438D01*
X73302714Y-104658438D02*
X73397952Y-104610819D01*
X73397952Y-104610819D02*
X73588428Y-104610819D01*
X73588428Y-104610819D02*
X73683666Y-104658438D01*
X73683666Y-104658438D02*
X73731285Y-104706057D01*
X73731285Y-104706057D02*
X73778904Y-104801295D01*
X73778904Y-104801295D02*
X73778904Y-104848914D01*
X73778904Y-104848914D02*
X73731285Y-104944152D01*
X73731285Y-104944152D02*
X73683666Y-104991771D01*
X73683666Y-104991771D02*
X73588428Y-105039390D01*
X73588428Y-105039390D02*
X73397952Y-105039390D01*
X73397952Y-105039390D02*
X73302714Y-105087009D01*
X73302714Y-105087009D02*
X73255095Y-105134628D01*
X73255095Y-105134628D02*
X73207476Y-105229866D01*
X73207476Y-105229866D02*
X73207476Y-105420342D01*
X73207476Y-105420342D02*
X73255095Y-105515580D01*
X73255095Y-105515580D02*
X73302714Y-105563200D01*
X73302714Y-105563200D02*
X73397952Y-105610819D01*
X73397952Y-105610819D02*
X73588428Y-105610819D01*
X73588428Y-105610819D02*
X73683666Y-105563200D01*
X73683666Y-105563200D02*
X73731285Y-105515580D01*
X73731285Y-105515580D02*
X73778904Y-105420342D01*
X73778904Y-105420342D02*
X73778904Y-105229866D01*
X73778904Y-105229866D02*
X73731285Y-105134628D01*
X73731285Y-105134628D02*
X73683666Y-105087009D01*
X73683666Y-105087009D02*
X73588428Y-105039390D01*
D13*
X75138095Y-99815951D02*
X75138095Y-100299761D01*
X75138095Y-100299761D02*
X74122095Y-100299761D01*
X74605905Y-99477285D02*
X74605905Y-99138618D01*
X75138095Y-98993475D02*
X75138095Y-99477285D01*
X75138095Y-99477285D02*
X74122095Y-99477285D01*
X74122095Y-99477285D02*
X74122095Y-98993475D01*
X75138095Y-98558047D02*
X74122095Y-98558047D01*
X74122095Y-98558047D02*
X74122095Y-98316142D01*
X74122095Y-98316142D02*
X74170476Y-98170999D01*
X74170476Y-98170999D02*
X74267238Y-98074237D01*
X74267238Y-98074237D02*
X74364000Y-98025856D01*
X74364000Y-98025856D02*
X74557524Y-97977475D01*
X74557524Y-97977475D02*
X74702667Y-97977475D01*
X74702667Y-97977475D02*
X74896191Y-98025856D01*
X74896191Y-98025856D02*
X74992953Y-98074237D01*
X74992953Y-98074237D02*
X75089715Y-98170999D01*
X75089715Y-98170999D02*
X75138095Y-98316142D01*
X75138095Y-98316142D02*
X75138095Y-98558047D01*
X74122095Y-97638809D02*
X74122095Y-97009856D01*
X74122095Y-97009856D02*
X74509143Y-97348523D01*
X74509143Y-97348523D02*
X74509143Y-97203380D01*
X74509143Y-97203380D02*
X74557524Y-97106618D01*
X74557524Y-97106618D02*
X74605905Y-97058237D01*
X74605905Y-97058237D02*
X74702667Y-97009856D01*
X74702667Y-97009856D02*
X74944572Y-97009856D01*
X74944572Y-97009856D02*
X75041334Y-97058237D01*
X75041334Y-97058237D02*
X75089715Y-97106618D01*
X75089715Y-97106618D02*
X75138095Y-97203380D01*
X75138095Y-97203380D02*
X75138095Y-97493666D01*
X75138095Y-97493666D02*
X75089715Y-97590428D01*
X75089715Y-97590428D02*
X75041334Y-97638809D01*
D12*
X63505842Y-80977619D02*
X63566318Y-80796190D01*
X63566318Y-80796190D02*
X63566318Y-80493809D01*
X63566318Y-80493809D02*
X63505842Y-80372857D01*
X63505842Y-80372857D02*
X63445365Y-80312381D01*
X63445365Y-80312381D02*
X63324413Y-80251904D01*
X63324413Y-80251904D02*
X63203461Y-80251904D01*
X63203461Y-80251904D02*
X63082508Y-80312381D01*
X63082508Y-80312381D02*
X63022032Y-80372857D01*
X63022032Y-80372857D02*
X62961556Y-80493809D01*
X62961556Y-80493809D02*
X62901080Y-80735714D01*
X62901080Y-80735714D02*
X62840603Y-80856666D01*
X62840603Y-80856666D02*
X62780127Y-80917143D01*
X62780127Y-80917143D02*
X62659175Y-80977619D01*
X62659175Y-80977619D02*
X62538222Y-80977619D01*
X62538222Y-80977619D02*
X62417270Y-80917143D01*
X62417270Y-80917143D02*
X62356794Y-80856666D01*
X62356794Y-80856666D02*
X62296318Y-80735714D01*
X62296318Y-80735714D02*
X62296318Y-80433333D01*
X62296318Y-80433333D02*
X62356794Y-80251904D01*
X62417270Y-79768095D02*
X62356794Y-79707619D01*
X62356794Y-79707619D02*
X62296318Y-79586666D01*
X62296318Y-79586666D02*
X62296318Y-79284285D01*
X62296318Y-79284285D02*
X62356794Y-79163333D01*
X62356794Y-79163333D02*
X62417270Y-79102857D01*
X62417270Y-79102857D02*
X62538222Y-79042380D01*
X62538222Y-79042380D02*
X62659175Y-79042380D01*
X62659175Y-79042380D02*
X62840603Y-79102857D01*
X62840603Y-79102857D02*
X63566318Y-79828571D01*
X63566318Y-79828571D02*
X63566318Y-79042380D01*
D11*
X53808333Y-103864580D02*
X53760714Y-103912200D01*
X53760714Y-103912200D02*
X53617857Y-103959819D01*
X53617857Y-103959819D02*
X53522619Y-103959819D01*
X53522619Y-103959819D02*
X53379762Y-103912200D01*
X53379762Y-103912200D02*
X53284524Y-103816961D01*
X53284524Y-103816961D02*
X53236905Y-103721723D01*
X53236905Y-103721723D02*
X53189286Y-103531247D01*
X53189286Y-103531247D02*
X53189286Y-103388390D01*
X53189286Y-103388390D02*
X53236905Y-103197914D01*
X53236905Y-103197914D02*
X53284524Y-103102676D01*
X53284524Y-103102676D02*
X53379762Y-103007438D01*
X53379762Y-103007438D02*
X53522619Y-102959819D01*
X53522619Y-102959819D02*
X53617857Y-102959819D01*
X53617857Y-102959819D02*
X53760714Y-103007438D01*
X53760714Y-103007438D02*
X53808333Y-103055057D01*
X54189286Y-103055057D02*
X54236905Y-103007438D01*
X54236905Y-103007438D02*
X54332143Y-102959819D01*
X54332143Y-102959819D02*
X54570238Y-102959819D01*
X54570238Y-102959819D02*
X54665476Y-103007438D01*
X54665476Y-103007438D02*
X54713095Y-103055057D01*
X54713095Y-103055057D02*
X54760714Y-103150295D01*
X54760714Y-103150295D02*
X54760714Y-103245533D01*
X54760714Y-103245533D02*
X54713095Y-103388390D01*
X54713095Y-103388390D02*
X54141667Y-103959819D01*
X54141667Y-103959819D02*
X54760714Y-103959819D01*
X64462819Y-86802666D02*
X63986628Y-87135999D01*
X64462819Y-87374094D02*
X63462819Y-87374094D01*
X63462819Y-87374094D02*
X63462819Y-86993142D01*
X63462819Y-86993142D02*
X63510438Y-86897904D01*
X63510438Y-86897904D02*
X63558057Y-86850285D01*
X63558057Y-86850285D02*
X63653295Y-86802666D01*
X63653295Y-86802666D02*
X63796152Y-86802666D01*
X63796152Y-86802666D02*
X63891390Y-86850285D01*
X63891390Y-86850285D02*
X63939009Y-86897904D01*
X63939009Y-86897904D02*
X63986628Y-86993142D01*
X63986628Y-86993142D02*
X63986628Y-87374094D01*
X63462819Y-86469332D02*
X63462819Y-85850285D01*
X63462819Y-85850285D02*
X63843771Y-86183618D01*
X63843771Y-86183618D02*
X63843771Y-86040761D01*
X63843771Y-86040761D02*
X63891390Y-85945523D01*
X63891390Y-85945523D02*
X63939009Y-85897904D01*
X63939009Y-85897904D02*
X64034247Y-85850285D01*
X64034247Y-85850285D02*
X64272342Y-85850285D01*
X64272342Y-85850285D02*
X64367580Y-85897904D01*
X64367580Y-85897904D02*
X64415200Y-85945523D01*
X64415200Y-85945523D02*
X64462819Y-86040761D01*
X64462819Y-86040761D02*
X64462819Y-86326475D01*
X64462819Y-86326475D02*
X64415200Y-86421713D01*
X64415200Y-86421713D02*
X64367580Y-86469332D01*
X52752666Y-112992819D02*
X52752666Y-113707104D01*
X52752666Y-113707104D02*
X52705047Y-113849961D01*
X52705047Y-113849961D02*
X52609809Y-113945200D01*
X52609809Y-113945200D02*
X52466952Y-113992819D01*
X52466952Y-113992819D02*
X52371714Y-113992819D01*
X53181238Y-113088057D02*
X53228857Y-113040438D01*
X53228857Y-113040438D02*
X53324095Y-112992819D01*
X53324095Y-112992819D02*
X53562190Y-112992819D01*
X53562190Y-112992819D02*
X53657428Y-113040438D01*
X53657428Y-113040438D02*
X53705047Y-113088057D01*
X53705047Y-113088057D02*
X53752666Y-113183295D01*
X53752666Y-113183295D02*
X53752666Y-113278533D01*
X53752666Y-113278533D02*
X53705047Y-113421390D01*
X53705047Y-113421390D02*
X53133619Y-113992819D01*
X53133619Y-113992819D02*
X53752666Y-113992819D01*
X64619394Y-107550580D02*
X64571775Y-107598200D01*
X64571775Y-107598200D02*
X64428918Y-107645819D01*
X64428918Y-107645819D02*
X64333680Y-107645819D01*
X64333680Y-107645819D02*
X64190823Y-107598200D01*
X64190823Y-107598200D02*
X64095585Y-107502961D01*
X64095585Y-107502961D02*
X64047966Y-107407723D01*
X64047966Y-107407723D02*
X64000347Y-107217247D01*
X64000347Y-107217247D02*
X64000347Y-107074390D01*
X64000347Y-107074390D02*
X64047966Y-106883914D01*
X64047966Y-106883914D02*
X64095585Y-106788676D01*
X64095585Y-106788676D02*
X64190823Y-106693438D01*
X64190823Y-106693438D02*
X64333680Y-106645819D01*
X64333680Y-106645819D02*
X64428918Y-106645819D01*
X64428918Y-106645819D02*
X64571775Y-106693438D01*
X64571775Y-106693438D02*
X64619394Y-106741057D01*
X65571775Y-107645819D02*
X65000347Y-107645819D01*
X65286061Y-107645819D02*
X65286061Y-106645819D01*
X65286061Y-106645819D02*
X65190823Y-106788676D01*
X65190823Y-106788676D02*
X65095585Y-106883914D01*
X65095585Y-106883914D02*
X65000347Y-106931533D01*
X66476537Y-106645819D02*
X66000347Y-106645819D01*
X66000347Y-106645819D02*
X65952728Y-107122009D01*
X65952728Y-107122009D02*
X66000347Y-107074390D01*
X66000347Y-107074390D02*
X66095585Y-107026771D01*
X66095585Y-107026771D02*
X66333680Y-107026771D01*
X66333680Y-107026771D02*
X66428918Y-107074390D01*
X66428918Y-107074390D02*
X66476537Y-107122009D01*
X66476537Y-107122009D02*
X66524156Y-107217247D01*
X66524156Y-107217247D02*
X66524156Y-107455342D01*
X66524156Y-107455342D02*
X66476537Y-107550580D01*
X66476537Y-107550580D02*
X66428918Y-107598200D01*
X66428918Y-107598200D02*
X66333680Y-107645819D01*
X66333680Y-107645819D02*
X66095585Y-107645819D01*
X66095585Y-107645819D02*
X66000347Y-107598200D01*
X66000347Y-107598200D02*
X65952728Y-107550580D01*
D12*
X65701333Y-91147318D02*
X65096571Y-91147318D01*
X65096571Y-91147318D02*
X65096571Y-89877318D01*
X66064190Y-89998270D02*
X66124666Y-89937794D01*
X66124666Y-89937794D02*
X66245619Y-89877318D01*
X66245619Y-89877318D02*
X66548000Y-89877318D01*
X66548000Y-89877318D02*
X66668952Y-89937794D01*
X66668952Y-89937794D02*
X66729428Y-89998270D01*
X66729428Y-89998270D02*
X66789905Y-90119222D01*
X66789905Y-90119222D02*
X66789905Y-90240175D01*
X66789905Y-90240175D02*
X66729428Y-90421603D01*
X66729428Y-90421603D02*
X66003714Y-91147318D01*
X66003714Y-91147318D02*
X66789905Y-91147318D01*
D13*
X80726095Y-99815951D02*
X80726095Y-100299761D01*
X80726095Y-100299761D02*
X79710095Y-100299761D01*
X80193905Y-99477285D02*
X80193905Y-99138618D01*
X80726095Y-98993475D02*
X80726095Y-99477285D01*
X80726095Y-99477285D02*
X79710095Y-99477285D01*
X79710095Y-99477285D02*
X79710095Y-98993475D01*
X80726095Y-98558047D02*
X79710095Y-98558047D01*
X79710095Y-98558047D02*
X79710095Y-98316142D01*
X79710095Y-98316142D02*
X79758476Y-98170999D01*
X79758476Y-98170999D02*
X79855238Y-98074237D01*
X79855238Y-98074237D02*
X79952000Y-98025856D01*
X79952000Y-98025856D02*
X80145524Y-97977475D01*
X80145524Y-97977475D02*
X80290667Y-97977475D01*
X80290667Y-97977475D02*
X80484191Y-98025856D01*
X80484191Y-98025856D02*
X80580953Y-98074237D01*
X80580953Y-98074237D02*
X80677715Y-98170999D01*
X80677715Y-98170999D02*
X80726095Y-98316142D01*
X80726095Y-98316142D02*
X80726095Y-98558047D01*
X79806857Y-97590428D02*
X79758476Y-97542047D01*
X79758476Y-97542047D02*
X79710095Y-97445285D01*
X79710095Y-97445285D02*
X79710095Y-97203380D01*
X79710095Y-97203380D02*
X79758476Y-97106618D01*
X79758476Y-97106618D02*
X79806857Y-97058237D01*
X79806857Y-97058237D02*
X79903619Y-97009856D01*
X79903619Y-97009856D02*
X80000381Y-97009856D01*
X80000381Y-97009856D02*
X80145524Y-97058237D01*
X80145524Y-97058237D02*
X80726095Y-97638809D01*
X80726095Y-97638809D02*
X80726095Y-97009856D01*
D11*
X62811819Y-86802666D02*
X62335628Y-87135999D01*
X62811819Y-87374094D02*
X61811819Y-87374094D01*
X61811819Y-87374094D02*
X61811819Y-86993142D01*
X61811819Y-86993142D02*
X61859438Y-86897904D01*
X61859438Y-86897904D02*
X61907057Y-86850285D01*
X61907057Y-86850285D02*
X62002295Y-86802666D01*
X62002295Y-86802666D02*
X62145152Y-86802666D01*
X62145152Y-86802666D02*
X62240390Y-86850285D01*
X62240390Y-86850285D02*
X62288009Y-86897904D01*
X62288009Y-86897904D02*
X62335628Y-86993142D01*
X62335628Y-86993142D02*
X62335628Y-87374094D01*
X62145152Y-85945523D02*
X62811819Y-85945523D01*
X61764200Y-86183618D02*
X62478485Y-86421713D01*
X62478485Y-86421713D02*
X62478485Y-85802666D01*
D13*
X80726095Y-108578951D02*
X80726095Y-109062761D01*
X80726095Y-109062761D02*
X79710095Y-109062761D01*
X80193905Y-108240285D02*
X80193905Y-107901618D01*
X80726095Y-107756475D02*
X80726095Y-108240285D01*
X80726095Y-108240285D02*
X79710095Y-108240285D01*
X79710095Y-108240285D02*
X79710095Y-107756475D01*
X80726095Y-107321047D02*
X79710095Y-107321047D01*
X79710095Y-107321047D02*
X79710095Y-107079142D01*
X79710095Y-107079142D02*
X79758476Y-106933999D01*
X79758476Y-106933999D02*
X79855238Y-106837237D01*
X79855238Y-106837237D02*
X79952000Y-106788856D01*
X79952000Y-106788856D02*
X80145524Y-106740475D01*
X80145524Y-106740475D02*
X80290667Y-106740475D01*
X80290667Y-106740475D02*
X80484191Y-106788856D01*
X80484191Y-106788856D02*
X80580953Y-106837237D01*
X80580953Y-106837237D02*
X80677715Y-106933999D01*
X80677715Y-106933999D02*
X80726095Y-107079142D01*
X80726095Y-107079142D02*
X80726095Y-107321047D01*
X79710095Y-106401809D02*
X79710095Y-105724475D01*
X79710095Y-105724475D02*
X80726095Y-106159904D01*
D12*
X55928380Y-95719318D02*
X55928380Y-96747413D01*
X55928380Y-96747413D02*
X55988857Y-96868365D01*
X55988857Y-96868365D02*
X56049333Y-96928842D01*
X56049333Y-96928842D02*
X56170285Y-96989318D01*
X56170285Y-96989318D02*
X56412190Y-96989318D01*
X56412190Y-96989318D02*
X56533142Y-96928842D01*
X56533142Y-96928842D02*
X56593619Y-96868365D01*
X56593619Y-96868365D02*
X56654095Y-96747413D01*
X56654095Y-96747413D02*
X56654095Y-95719318D01*
X57924095Y-96989318D02*
X57198380Y-96989318D01*
X57561237Y-96989318D02*
X57561237Y-95719318D01*
X57561237Y-95719318D02*
X57440285Y-95900746D01*
X57440285Y-95900746D02*
X57319333Y-96021699D01*
X57319333Y-96021699D02*
X57198380Y-96082175D01*
D11*
X59777333Y-88900580D02*
X59729714Y-88948200D01*
X59729714Y-88948200D02*
X59586857Y-88995819D01*
X59586857Y-88995819D02*
X59491619Y-88995819D01*
X59491619Y-88995819D02*
X59348762Y-88948200D01*
X59348762Y-88948200D02*
X59253524Y-88852961D01*
X59253524Y-88852961D02*
X59205905Y-88757723D01*
X59205905Y-88757723D02*
X59158286Y-88567247D01*
X59158286Y-88567247D02*
X59158286Y-88424390D01*
X59158286Y-88424390D02*
X59205905Y-88233914D01*
X59205905Y-88233914D02*
X59253524Y-88138676D01*
X59253524Y-88138676D02*
X59348762Y-88043438D01*
X59348762Y-88043438D02*
X59491619Y-87995819D01*
X59491619Y-87995819D02*
X59586857Y-87995819D01*
X59586857Y-87995819D02*
X59729714Y-88043438D01*
X59729714Y-88043438D02*
X59777333Y-88091057D01*
X60682095Y-87995819D02*
X60205905Y-87995819D01*
X60205905Y-87995819D02*
X60158286Y-88472009D01*
X60158286Y-88472009D02*
X60205905Y-88424390D01*
X60205905Y-88424390D02*
X60301143Y-88376771D01*
X60301143Y-88376771D02*
X60539238Y-88376771D01*
X60539238Y-88376771D02*
X60634476Y-88424390D01*
X60634476Y-88424390D02*
X60682095Y-88472009D01*
X60682095Y-88472009D02*
X60729714Y-88567247D01*
X60729714Y-88567247D02*
X60729714Y-88805342D01*
X60729714Y-88805342D02*
X60682095Y-88900580D01*
X60682095Y-88900580D02*
X60634476Y-88948200D01*
X60634476Y-88948200D02*
X60539238Y-88995819D01*
X60539238Y-88995819D02*
X60301143Y-88995819D01*
X60301143Y-88995819D02*
X60205905Y-88948200D01*
X60205905Y-88948200D02*
X60158286Y-88900580D01*
X71955819Y-93733857D02*
X71479628Y-94067190D01*
X71955819Y-94305285D02*
X70955819Y-94305285D01*
X70955819Y-94305285D02*
X70955819Y-93924333D01*
X70955819Y-93924333D02*
X71003438Y-93829095D01*
X71003438Y-93829095D02*
X71051057Y-93781476D01*
X71051057Y-93781476D02*
X71146295Y-93733857D01*
X71146295Y-93733857D02*
X71289152Y-93733857D01*
X71289152Y-93733857D02*
X71384390Y-93781476D01*
X71384390Y-93781476D02*
X71432009Y-93829095D01*
X71432009Y-93829095D02*
X71479628Y-93924333D01*
X71479628Y-93924333D02*
X71479628Y-94305285D01*
X71955819Y-92781476D02*
X71955819Y-93352904D01*
X71955819Y-93067190D02*
X70955819Y-93067190D01*
X70955819Y-93067190D02*
X71098676Y-93162428D01*
X71098676Y-93162428D02*
X71193914Y-93257666D01*
X71193914Y-93257666D02*
X71241533Y-93352904D01*
X71955819Y-92305285D02*
X71955819Y-92114809D01*
X71955819Y-92114809D02*
X71908200Y-92019571D01*
X71908200Y-92019571D02*
X71860580Y-91971952D01*
X71860580Y-91971952D02*
X71717723Y-91876714D01*
X71717723Y-91876714D02*
X71527247Y-91829095D01*
X71527247Y-91829095D02*
X71146295Y-91829095D01*
X71146295Y-91829095D02*
X71051057Y-91876714D01*
X71051057Y-91876714D02*
X71003438Y-91924333D01*
X71003438Y-91924333D02*
X70955819Y-92019571D01*
X70955819Y-92019571D02*
X70955819Y-92210047D01*
X70955819Y-92210047D02*
X71003438Y-92305285D01*
X71003438Y-92305285D02*
X71051057Y-92352904D01*
X71051057Y-92352904D02*
X71146295Y-92400523D01*
X71146295Y-92400523D02*
X71384390Y-92400523D01*
X71384390Y-92400523D02*
X71479628Y-92352904D01*
X71479628Y-92352904D02*
X71527247Y-92305285D01*
X71527247Y-92305285D02*
X71574866Y-92210047D01*
X71574866Y-92210047D02*
X71574866Y-92019571D01*
X71574866Y-92019571D02*
X71527247Y-91924333D01*
X71527247Y-91924333D02*
X71479628Y-91876714D01*
X71479628Y-91876714D02*
X71384390Y-91829095D01*
X77589142Y-112087819D02*
X77255809Y-111611628D01*
X77017714Y-112087819D02*
X77017714Y-111087819D01*
X77017714Y-111087819D02*
X77398666Y-111087819D01*
X77398666Y-111087819D02*
X77493904Y-111135438D01*
X77493904Y-111135438D02*
X77541523Y-111183057D01*
X77541523Y-111183057D02*
X77589142Y-111278295D01*
X77589142Y-111278295D02*
X77589142Y-111421152D01*
X77589142Y-111421152D02*
X77541523Y-111516390D01*
X77541523Y-111516390D02*
X77493904Y-111564009D01*
X77493904Y-111564009D02*
X77398666Y-111611628D01*
X77398666Y-111611628D02*
X77017714Y-111611628D01*
X78541523Y-112087819D02*
X77970095Y-112087819D01*
X78255809Y-112087819D02*
X78255809Y-111087819D01*
X78255809Y-111087819D02*
X78160571Y-111230676D01*
X78160571Y-111230676D02*
X78065333Y-111325914D01*
X78065333Y-111325914D02*
X77970095Y-111373533D01*
X79493904Y-112087819D02*
X78922476Y-112087819D01*
X79208190Y-112087819D02*
X79208190Y-111087819D01*
X79208190Y-111087819D02*
X79112952Y-111230676D01*
X79112952Y-111230676D02*
X79017714Y-111325914D01*
X79017714Y-111325914D02*
X78922476Y-111373533D01*
X70431819Y-107957857D02*
X69955628Y-108291190D01*
X70431819Y-108529285D02*
X69431819Y-108529285D01*
X69431819Y-108529285D02*
X69431819Y-108148333D01*
X69431819Y-108148333D02*
X69479438Y-108053095D01*
X69479438Y-108053095D02*
X69527057Y-108005476D01*
X69527057Y-108005476D02*
X69622295Y-107957857D01*
X69622295Y-107957857D02*
X69765152Y-107957857D01*
X69765152Y-107957857D02*
X69860390Y-108005476D01*
X69860390Y-108005476D02*
X69908009Y-108053095D01*
X69908009Y-108053095D02*
X69955628Y-108148333D01*
X69955628Y-108148333D02*
X69955628Y-108529285D01*
X69527057Y-107576904D02*
X69479438Y-107529285D01*
X69479438Y-107529285D02*
X69431819Y-107434047D01*
X69431819Y-107434047D02*
X69431819Y-107195952D01*
X69431819Y-107195952D02*
X69479438Y-107100714D01*
X69479438Y-107100714D02*
X69527057Y-107053095D01*
X69527057Y-107053095D02*
X69622295Y-107005476D01*
X69622295Y-107005476D02*
X69717533Y-107005476D01*
X69717533Y-107005476D02*
X69860390Y-107053095D01*
X69860390Y-107053095D02*
X70431819Y-107624523D01*
X70431819Y-107624523D02*
X70431819Y-107005476D01*
X69431819Y-106386428D02*
X69431819Y-106291190D01*
X69431819Y-106291190D02*
X69479438Y-106195952D01*
X69479438Y-106195952D02*
X69527057Y-106148333D01*
X69527057Y-106148333D02*
X69622295Y-106100714D01*
X69622295Y-106100714D02*
X69812771Y-106053095D01*
X69812771Y-106053095D02*
X70050866Y-106053095D01*
X70050866Y-106053095D02*
X70241342Y-106100714D01*
X70241342Y-106100714D02*
X70336580Y-106148333D01*
X70336580Y-106148333D02*
X70384200Y-106195952D01*
X70384200Y-106195952D02*
X70431819Y-106291190D01*
X70431819Y-106291190D02*
X70431819Y-106386428D01*
X70431819Y-106386428D02*
X70384200Y-106481666D01*
X70384200Y-106481666D02*
X70336580Y-106529285D01*
X70336580Y-106529285D02*
X70241342Y-106576904D01*
X70241342Y-106576904D02*
X70050866Y-106624523D01*
X70050866Y-106624523D02*
X69812771Y-106624523D01*
X69812771Y-106624523D02*
X69622295Y-106576904D01*
X69622295Y-106576904D02*
X69527057Y-106529285D01*
X69527057Y-106529285D02*
X69479438Y-106481666D01*
X69479438Y-106481666D02*
X69431819Y-106386428D01*
X69574580Y-82094666D02*
X69622200Y-82142285D01*
X69622200Y-82142285D02*
X69669819Y-82285142D01*
X69669819Y-82285142D02*
X69669819Y-82380380D01*
X69669819Y-82380380D02*
X69622200Y-82523237D01*
X69622200Y-82523237D02*
X69526961Y-82618475D01*
X69526961Y-82618475D02*
X69431723Y-82666094D01*
X69431723Y-82666094D02*
X69241247Y-82713713D01*
X69241247Y-82713713D02*
X69098390Y-82713713D01*
X69098390Y-82713713D02*
X68907914Y-82666094D01*
X68907914Y-82666094D02*
X68812676Y-82618475D01*
X68812676Y-82618475D02*
X68717438Y-82523237D01*
X68717438Y-82523237D02*
X68669819Y-82380380D01*
X68669819Y-82380380D02*
X68669819Y-82285142D01*
X68669819Y-82285142D02*
X68717438Y-82142285D01*
X68717438Y-82142285D02*
X68765057Y-82094666D01*
X69669819Y-81618475D02*
X69669819Y-81427999D01*
X69669819Y-81427999D02*
X69622200Y-81332761D01*
X69622200Y-81332761D02*
X69574580Y-81285142D01*
X69574580Y-81285142D02*
X69431723Y-81189904D01*
X69431723Y-81189904D02*
X69241247Y-81142285D01*
X69241247Y-81142285D02*
X68860295Y-81142285D01*
X68860295Y-81142285D02*
X68765057Y-81189904D01*
X68765057Y-81189904D02*
X68717438Y-81237523D01*
X68717438Y-81237523D02*
X68669819Y-81332761D01*
X68669819Y-81332761D02*
X68669819Y-81523237D01*
X68669819Y-81523237D02*
X68717438Y-81618475D01*
X68717438Y-81618475D02*
X68765057Y-81666094D01*
X68765057Y-81666094D02*
X68860295Y-81713713D01*
X68860295Y-81713713D02*
X69098390Y-81713713D01*
X69098390Y-81713713D02*
X69193628Y-81666094D01*
X69193628Y-81666094D02*
X69241247Y-81618475D01*
X69241247Y-81618475D02*
X69288866Y-81523237D01*
X69288866Y-81523237D02*
X69288866Y-81332761D01*
X69288866Y-81332761D02*
X69241247Y-81237523D01*
X69241247Y-81237523D02*
X69193628Y-81189904D01*
X69193628Y-81189904D02*
X69098390Y-81142285D01*
X56620580Y-91098666D02*
X56668200Y-91146285D01*
X56668200Y-91146285D02*
X56715819Y-91289142D01*
X56715819Y-91289142D02*
X56715819Y-91384380D01*
X56715819Y-91384380D02*
X56668200Y-91527237D01*
X56668200Y-91527237D02*
X56572961Y-91622475D01*
X56572961Y-91622475D02*
X56477723Y-91670094D01*
X56477723Y-91670094D02*
X56287247Y-91717713D01*
X56287247Y-91717713D02*
X56144390Y-91717713D01*
X56144390Y-91717713D02*
X55953914Y-91670094D01*
X55953914Y-91670094D02*
X55858676Y-91622475D01*
X55858676Y-91622475D02*
X55763438Y-91527237D01*
X55763438Y-91527237D02*
X55715819Y-91384380D01*
X55715819Y-91384380D02*
X55715819Y-91289142D01*
X55715819Y-91289142D02*
X55763438Y-91146285D01*
X55763438Y-91146285D02*
X55811057Y-91098666D01*
X56049152Y-90241523D02*
X56715819Y-90241523D01*
X55668200Y-90479618D02*
X56382485Y-90717713D01*
X56382485Y-90717713D02*
X56382485Y-90098666D01*
X64619394Y-103073819D02*
X64286061Y-102597628D01*
X64047966Y-103073819D02*
X64047966Y-102073819D01*
X64047966Y-102073819D02*
X64428918Y-102073819D01*
X64428918Y-102073819D02*
X64524156Y-102121438D01*
X64524156Y-102121438D02*
X64571775Y-102169057D01*
X64571775Y-102169057D02*
X64619394Y-102264295D01*
X64619394Y-102264295D02*
X64619394Y-102407152D01*
X64619394Y-102407152D02*
X64571775Y-102502390D01*
X64571775Y-102502390D02*
X64524156Y-102550009D01*
X64524156Y-102550009D02*
X64428918Y-102597628D01*
X64428918Y-102597628D02*
X64047966Y-102597628D01*
X65571775Y-103073819D02*
X65000347Y-103073819D01*
X65286061Y-103073819D02*
X65286061Y-102073819D01*
X65286061Y-102073819D02*
X65190823Y-102216676D01*
X65190823Y-102216676D02*
X65095585Y-102311914D01*
X65095585Y-102311914D02*
X65000347Y-102359533D01*
X66428918Y-102407152D02*
X66428918Y-103073819D01*
X66190823Y-102026200D02*
X65952728Y-102740485D01*
X65952728Y-102740485D02*
X66571775Y-102740485D01*
D12*
X76883380Y-85156318D02*
X76883380Y-86184413D01*
X76883380Y-86184413D02*
X76943857Y-86305365D01*
X76943857Y-86305365D02*
X77004333Y-86365842D01*
X77004333Y-86365842D02*
X77125285Y-86426318D01*
X77125285Y-86426318D02*
X77367190Y-86426318D01*
X77367190Y-86426318D02*
X77488142Y-86365842D01*
X77488142Y-86365842D02*
X77548619Y-86305365D01*
X77548619Y-86305365D02*
X77609095Y-86184413D01*
X77609095Y-86184413D02*
X77609095Y-85156318D01*
X78153380Y-85277270D02*
X78213856Y-85216794D01*
X78213856Y-85216794D02*
X78334809Y-85156318D01*
X78334809Y-85156318D02*
X78637190Y-85156318D01*
X78637190Y-85156318D02*
X78758142Y-85216794D01*
X78758142Y-85216794D02*
X78818618Y-85277270D01*
X78818618Y-85277270D02*
X78879095Y-85398222D01*
X78879095Y-85398222D02*
X78879095Y-85519175D01*
X78879095Y-85519175D02*
X78818618Y-85700603D01*
X78818618Y-85700603D02*
X78092904Y-86426318D01*
X78092904Y-86426318D02*
X78879095Y-86426318D01*
D11*
X58774333Y-98229819D02*
X58441000Y-97753628D01*
X58202905Y-98229819D02*
X58202905Y-97229819D01*
X58202905Y-97229819D02*
X58583857Y-97229819D01*
X58583857Y-97229819D02*
X58679095Y-97277438D01*
X58679095Y-97277438D02*
X58726714Y-97325057D01*
X58726714Y-97325057D02*
X58774333Y-97420295D01*
X58774333Y-97420295D02*
X58774333Y-97563152D01*
X58774333Y-97563152D02*
X58726714Y-97658390D01*
X58726714Y-97658390D02*
X58679095Y-97706009D01*
X58679095Y-97706009D02*
X58583857Y-97753628D01*
X58583857Y-97753628D02*
X58202905Y-97753628D01*
X59679095Y-97229819D02*
X59202905Y-97229819D01*
X59202905Y-97229819D02*
X59155286Y-97706009D01*
X59155286Y-97706009D02*
X59202905Y-97658390D01*
X59202905Y-97658390D02*
X59298143Y-97610771D01*
X59298143Y-97610771D02*
X59536238Y-97610771D01*
X59536238Y-97610771D02*
X59631476Y-97658390D01*
X59631476Y-97658390D02*
X59679095Y-97706009D01*
X59679095Y-97706009D02*
X59726714Y-97801247D01*
X59726714Y-97801247D02*
X59726714Y-98039342D01*
X59726714Y-98039342D02*
X59679095Y-98134580D01*
X59679095Y-98134580D02*
X59631476Y-98182200D01*
X59631476Y-98182200D02*
X59536238Y-98229819D01*
X59536238Y-98229819D02*
X59298143Y-98229819D01*
X59298143Y-98229819D02*
X59202905Y-98182200D01*
X59202905Y-98182200D02*
X59155286Y-98134580D01*
D12*
X71313318Y-74392666D02*
X71313318Y-74997428D01*
X71313318Y-74997428D02*
X70043318Y-74997428D01*
X70043318Y-74090285D02*
X70043318Y-73304094D01*
X70043318Y-73304094D02*
X70527127Y-73727428D01*
X70527127Y-73727428D02*
X70527127Y-73545999D01*
X70527127Y-73545999D02*
X70587603Y-73425047D01*
X70587603Y-73425047D02*
X70648080Y-73364571D01*
X70648080Y-73364571D02*
X70769032Y-73304094D01*
X70769032Y-73304094D02*
X71071413Y-73304094D01*
X71071413Y-73304094D02*
X71192365Y-73364571D01*
X71192365Y-73364571D02*
X71252842Y-73425047D01*
X71252842Y-73425047D02*
X71313318Y-73545999D01*
X71313318Y-73545999D02*
X71313318Y-73908856D01*
X71313318Y-73908856D02*
X71252842Y-74029809D01*
X71252842Y-74029809D02*
X71192365Y-74090285D01*
D11*
X67270333Y-78318819D02*
X66937000Y-77842628D01*
X66698905Y-78318819D02*
X66698905Y-77318819D01*
X66698905Y-77318819D02*
X67079857Y-77318819D01*
X67079857Y-77318819D02*
X67175095Y-77366438D01*
X67175095Y-77366438D02*
X67222714Y-77414057D01*
X67222714Y-77414057D02*
X67270333Y-77509295D01*
X67270333Y-77509295D02*
X67270333Y-77652152D01*
X67270333Y-77652152D02*
X67222714Y-77747390D01*
X67222714Y-77747390D02*
X67175095Y-77795009D01*
X67175095Y-77795009D02*
X67079857Y-77842628D01*
X67079857Y-77842628D02*
X66698905Y-77842628D01*
X67841762Y-77747390D02*
X67746524Y-77699771D01*
X67746524Y-77699771D02*
X67698905Y-77652152D01*
X67698905Y-77652152D02*
X67651286Y-77556914D01*
X67651286Y-77556914D02*
X67651286Y-77509295D01*
X67651286Y-77509295D02*
X67698905Y-77414057D01*
X67698905Y-77414057D02*
X67746524Y-77366438D01*
X67746524Y-77366438D02*
X67841762Y-77318819D01*
X67841762Y-77318819D02*
X68032238Y-77318819D01*
X68032238Y-77318819D02*
X68127476Y-77366438D01*
X68127476Y-77366438D02*
X68175095Y-77414057D01*
X68175095Y-77414057D02*
X68222714Y-77509295D01*
X68222714Y-77509295D02*
X68222714Y-77556914D01*
X68222714Y-77556914D02*
X68175095Y-77652152D01*
X68175095Y-77652152D02*
X68127476Y-77699771D01*
X68127476Y-77699771D02*
X68032238Y-77747390D01*
X68032238Y-77747390D02*
X67841762Y-77747390D01*
X67841762Y-77747390D02*
X67746524Y-77795009D01*
X67746524Y-77795009D02*
X67698905Y-77842628D01*
X67698905Y-77842628D02*
X67651286Y-77937866D01*
X67651286Y-77937866D02*
X67651286Y-78128342D01*
X67651286Y-78128342D02*
X67698905Y-78223580D01*
X67698905Y-78223580D02*
X67746524Y-78271200D01*
X67746524Y-78271200D02*
X67841762Y-78318819D01*
X67841762Y-78318819D02*
X68032238Y-78318819D01*
X68032238Y-78318819D02*
X68127476Y-78271200D01*
X68127476Y-78271200D02*
X68175095Y-78223580D01*
X68175095Y-78223580D02*
X68222714Y-78128342D01*
X68222714Y-78128342D02*
X68222714Y-77937866D01*
X68222714Y-77937866D02*
X68175095Y-77842628D01*
X68175095Y-77842628D02*
X68127476Y-77795009D01*
X68127476Y-77795009D02*
X68032238Y-77747390D01*
X58271580Y-91098666D02*
X58319200Y-91146285D01*
X58319200Y-91146285D02*
X58366819Y-91289142D01*
X58366819Y-91289142D02*
X58366819Y-91384380D01*
X58366819Y-91384380D02*
X58319200Y-91527237D01*
X58319200Y-91527237D02*
X58223961Y-91622475D01*
X58223961Y-91622475D02*
X58128723Y-91670094D01*
X58128723Y-91670094D02*
X57938247Y-91717713D01*
X57938247Y-91717713D02*
X57795390Y-91717713D01*
X57795390Y-91717713D02*
X57604914Y-91670094D01*
X57604914Y-91670094D02*
X57509676Y-91622475D01*
X57509676Y-91622475D02*
X57414438Y-91527237D01*
X57414438Y-91527237D02*
X57366819Y-91384380D01*
X57366819Y-91384380D02*
X57366819Y-91289142D01*
X57366819Y-91289142D02*
X57414438Y-91146285D01*
X57414438Y-91146285D02*
X57462057Y-91098666D01*
X57366819Y-90765332D02*
X57366819Y-90146285D01*
X57366819Y-90146285D02*
X57747771Y-90479618D01*
X57747771Y-90479618D02*
X57747771Y-90336761D01*
X57747771Y-90336761D02*
X57795390Y-90241523D01*
X57795390Y-90241523D02*
X57843009Y-90193904D01*
X57843009Y-90193904D02*
X57938247Y-90146285D01*
X57938247Y-90146285D02*
X58176342Y-90146285D01*
X58176342Y-90146285D02*
X58271580Y-90193904D01*
X58271580Y-90193904D02*
X58319200Y-90241523D01*
X58319200Y-90241523D02*
X58366819Y-90336761D01*
X58366819Y-90336761D02*
X58366819Y-90622475D01*
X58366819Y-90622475D02*
X58319200Y-90717713D01*
X58319200Y-90717713D02*
X58271580Y-90765332D01*
X50111819Y-87225666D02*
X49635628Y-87558999D01*
X50111819Y-87797094D02*
X49111819Y-87797094D01*
X49111819Y-87797094D02*
X49111819Y-87416142D01*
X49111819Y-87416142D02*
X49159438Y-87320904D01*
X49159438Y-87320904D02*
X49207057Y-87273285D01*
X49207057Y-87273285D02*
X49302295Y-87225666D01*
X49302295Y-87225666D02*
X49445152Y-87225666D01*
X49445152Y-87225666D02*
X49540390Y-87273285D01*
X49540390Y-87273285D02*
X49588009Y-87320904D01*
X49588009Y-87320904D02*
X49635628Y-87416142D01*
X49635628Y-87416142D02*
X49635628Y-87797094D01*
X50111819Y-86273285D02*
X50111819Y-86844713D01*
X50111819Y-86558999D02*
X49111819Y-86558999D01*
X49111819Y-86558999D02*
X49254676Y-86654237D01*
X49254676Y-86654237D02*
X49349914Y-86749475D01*
X49349914Y-86749475D02*
X49397533Y-86844713D01*
D12*
X65326380Y-118811318D02*
X65326380Y-119839413D01*
X65326380Y-119839413D02*
X65386857Y-119960365D01*
X65386857Y-119960365D02*
X65447333Y-120020842D01*
X65447333Y-120020842D02*
X65568285Y-120081318D01*
X65568285Y-120081318D02*
X65810190Y-120081318D01*
X65810190Y-120081318D02*
X65931142Y-120020842D01*
X65931142Y-120020842D02*
X65991619Y-119960365D01*
X65991619Y-119960365D02*
X66052095Y-119839413D01*
X66052095Y-119839413D02*
X66052095Y-118811318D01*
X66535904Y-118811318D02*
X67322095Y-118811318D01*
X67322095Y-118811318D02*
X66898761Y-119295127D01*
X66898761Y-119295127D02*
X67080190Y-119295127D01*
X67080190Y-119295127D02*
X67201142Y-119355603D01*
X67201142Y-119355603D02*
X67261618Y-119416080D01*
X67261618Y-119416080D02*
X67322095Y-119537032D01*
X67322095Y-119537032D02*
X67322095Y-119839413D01*
X67322095Y-119839413D02*
X67261618Y-119960365D01*
X67261618Y-119960365D02*
X67201142Y-120020842D01*
X67201142Y-120020842D02*
X67080190Y-120081318D01*
X67080190Y-120081318D02*
X66717333Y-120081318D01*
X66717333Y-120081318D02*
X66596380Y-120020842D01*
X66596380Y-120020842D02*
X66535904Y-119960365D01*
D11*
X71588333Y-85957580D02*
X71540714Y-86005200D01*
X71540714Y-86005200D02*
X71397857Y-86052819D01*
X71397857Y-86052819D02*
X71302619Y-86052819D01*
X71302619Y-86052819D02*
X71159762Y-86005200D01*
X71159762Y-86005200D02*
X71064524Y-85909961D01*
X71064524Y-85909961D02*
X71016905Y-85814723D01*
X71016905Y-85814723D02*
X70969286Y-85624247D01*
X70969286Y-85624247D02*
X70969286Y-85481390D01*
X70969286Y-85481390D02*
X71016905Y-85290914D01*
X71016905Y-85290914D02*
X71064524Y-85195676D01*
X71064524Y-85195676D02*
X71159762Y-85100438D01*
X71159762Y-85100438D02*
X71302619Y-85052819D01*
X71302619Y-85052819D02*
X71397857Y-85052819D01*
X71397857Y-85052819D02*
X71540714Y-85100438D01*
X71540714Y-85100438D02*
X71588333Y-85148057D01*
X72159762Y-85481390D02*
X72064524Y-85433771D01*
X72064524Y-85433771D02*
X72016905Y-85386152D01*
X72016905Y-85386152D02*
X71969286Y-85290914D01*
X71969286Y-85290914D02*
X71969286Y-85243295D01*
X71969286Y-85243295D02*
X72016905Y-85148057D01*
X72016905Y-85148057D02*
X72064524Y-85100438D01*
X72064524Y-85100438D02*
X72159762Y-85052819D01*
X72159762Y-85052819D02*
X72350238Y-85052819D01*
X72350238Y-85052819D02*
X72445476Y-85100438D01*
X72445476Y-85100438D02*
X72493095Y-85148057D01*
X72493095Y-85148057D02*
X72540714Y-85243295D01*
X72540714Y-85243295D02*
X72540714Y-85290914D01*
X72540714Y-85290914D02*
X72493095Y-85386152D01*
X72493095Y-85386152D02*
X72445476Y-85433771D01*
X72445476Y-85433771D02*
X72350238Y-85481390D01*
X72350238Y-85481390D02*
X72159762Y-85481390D01*
X72159762Y-85481390D02*
X72064524Y-85529009D01*
X72064524Y-85529009D02*
X72016905Y-85576628D01*
X72016905Y-85576628D02*
X71969286Y-85671866D01*
X71969286Y-85671866D02*
X71969286Y-85862342D01*
X71969286Y-85862342D02*
X72016905Y-85957580D01*
X72016905Y-85957580D02*
X72064524Y-86005200D01*
X72064524Y-86005200D02*
X72159762Y-86052819D01*
X72159762Y-86052819D02*
X72350238Y-86052819D01*
X72350238Y-86052819D02*
X72445476Y-86005200D01*
X72445476Y-86005200D02*
X72493095Y-85957580D01*
X72493095Y-85957580D02*
X72540714Y-85862342D01*
X72540714Y-85862342D02*
X72540714Y-85671866D01*
X72540714Y-85671866D02*
X72493095Y-85576628D01*
X72493095Y-85576628D02*
X72445476Y-85529009D01*
X72445476Y-85529009D02*
X72350238Y-85481390D01*
X58996990Y-80184666D02*
X58996990Y-79851333D01*
X58473180Y-79851333D02*
X59473180Y-79851333D01*
X59473180Y-79851333D02*
X59473180Y-80327523D01*
X58473180Y-81232285D02*
X58473180Y-80660857D01*
X58473180Y-80946571D02*
X59473180Y-80946571D01*
X59473180Y-80946571D02*
X59330323Y-80851333D01*
X59330323Y-80851333D02*
X59235085Y-80756095D01*
X59235085Y-80756095D02*
X59187466Y-80660857D01*
X68445142Y-120247580D02*
X68397523Y-120295200D01*
X68397523Y-120295200D02*
X68254666Y-120342819D01*
X68254666Y-120342819D02*
X68159428Y-120342819D01*
X68159428Y-120342819D02*
X68016571Y-120295200D01*
X68016571Y-120295200D02*
X67921333Y-120199961D01*
X67921333Y-120199961D02*
X67873714Y-120104723D01*
X67873714Y-120104723D02*
X67826095Y-119914247D01*
X67826095Y-119914247D02*
X67826095Y-119771390D01*
X67826095Y-119771390D02*
X67873714Y-119580914D01*
X67873714Y-119580914D02*
X67921333Y-119485676D01*
X67921333Y-119485676D02*
X68016571Y-119390438D01*
X68016571Y-119390438D02*
X68159428Y-119342819D01*
X68159428Y-119342819D02*
X68254666Y-119342819D01*
X68254666Y-119342819D02*
X68397523Y-119390438D01*
X68397523Y-119390438D02*
X68445142Y-119438057D01*
X69397523Y-120342819D02*
X68826095Y-120342819D01*
X69111809Y-120342819D02*
X69111809Y-119342819D01*
X69111809Y-119342819D02*
X69016571Y-119485676D01*
X69016571Y-119485676D02*
X68921333Y-119580914D01*
X68921333Y-119580914D02*
X68826095Y-119628533D01*
X70254666Y-119676152D02*
X70254666Y-120342819D01*
X70016571Y-119295200D02*
X69778476Y-120009485D01*
X69778476Y-120009485D02*
X70397523Y-120009485D01*
X49617333Y-92561580D02*
X49569714Y-92609200D01*
X49569714Y-92609200D02*
X49426857Y-92656819D01*
X49426857Y-92656819D02*
X49331619Y-92656819D01*
X49331619Y-92656819D02*
X49188762Y-92609200D01*
X49188762Y-92609200D02*
X49093524Y-92513961D01*
X49093524Y-92513961D02*
X49045905Y-92418723D01*
X49045905Y-92418723D02*
X48998286Y-92228247D01*
X48998286Y-92228247D02*
X48998286Y-92085390D01*
X48998286Y-92085390D02*
X49045905Y-91894914D01*
X49045905Y-91894914D02*
X49093524Y-91799676D01*
X49093524Y-91799676D02*
X49188762Y-91704438D01*
X49188762Y-91704438D02*
X49331619Y-91656819D01*
X49331619Y-91656819D02*
X49426857Y-91656819D01*
X49426857Y-91656819D02*
X49569714Y-91704438D01*
X49569714Y-91704438D02*
X49617333Y-91752057D01*
X50569714Y-92656819D02*
X49998286Y-92656819D01*
X50284000Y-92656819D02*
X50284000Y-91656819D01*
X50284000Y-91656819D02*
X50188762Y-91799676D01*
X50188762Y-91799676D02*
X50093524Y-91894914D01*
X50093524Y-91894914D02*
X49998286Y-91942533D01*
X68463142Y-121860819D02*
X68129809Y-121384628D01*
X67891714Y-121860819D02*
X67891714Y-120860819D01*
X67891714Y-120860819D02*
X68272666Y-120860819D01*
X68272666Y-120860819D02*
X68367904Y-120908438D01*
X68367904Y-120908438D02*
X68415523Y-120956057D01*
X68415523Y-120956057D02*
X68463142Y-121051295D01*
X68463142Y-121051295D02*
X68463142Y-121194152D01*
X68463142Y-121194152D02*
X68415523Y-121289390D01*
X68415523Y-121289390D02*
X68367904Y-121337009D01*
X68367904Y-121337009D02*
X68272666Y-121384628D01*
X68272666Y-121384628D02*
X67891714Y-121384628D01*
X69415523Y-121860819D02*
X68844095Y-121860819D01*
X69129809Y-121860819D02*
X69129809Y-120860819D01*
X69129809Y-120860819D02*
X69034571Y-121003676D01*
X69034571Y-121003676D02*
X68939333Y-121098914D01*
X68939333Y-121098914D02*
X68844095Y-121146533D01*
X70034571Y-120860819D02*
X70129809Y-120860819D01*
X70129809Y-120860819D02*
X70225047Y-120908438D01*
X70225047Y-120908438D02*
X70272666Y-120956057D01*
X70272666Y-120956057D02*
X70320285Y-121051295D01*
X70320285Y-121051295D02*
X70367904Y-121241771D01*
X70367904Y-121241771D02*
X70367904Y-121479866D01*
X70367904Y-121479866D02*
X70320285Y-121670342D01*
X70320285Y-121670342D02*
X70272666Y-121765580D01*
X70272666Y-121765580D02*
X70225047Y-121813200D01*
X70225047Y-121813200D02*
X70129809Y-121860819D01*
X70129809Y-121860819D02*
X70034571Y-121860819D01*
X70034571Y-121860819D02*
X69939333Y-121813200D01*
X69939333Y-121813200D02*
X69891714Y-121765580D01*
X69891714Y-121765580D02*
X69844095Y-121670342D01*
X69844095Y-121670342D02*
X69796476Y-121479866D01*
X69796476Y-121479866D02*
X69796476Y-121241771D01*
X69796476Y-121241771D02*
X69844095Y-121051295D01*
X69844095Y-121051295D02*
X69891714Y-120956057D01*
X69891714Y-120956057D02*
X69939333Y-120908438D01*
X69939333Y-120908438D02*
X70034571Y-120860819D01*
X78940819Y-82729666D02*
X78464628Y-83062999D01*
X78940819Y-83301094D02*
X77940819Y-83301094D01*
X77940819Y-83301094D02*
X77940819Y-82920142D01*
X77940819Y-82920142D02*
X77988438Y-82824904D01*
X77988438Y-82824904D02*
X78036057Y-82777285D01*
X78036057Y-82777285D02*
X78131295Y-82729666D01*
X78131295Y-82729666D02*
X78274152Y-82729666D01*
X78274152Y-82729666D02*
X78369390Y-82777285D01*
X78369390Y-82777285D02*
X78417009Y-82824904D01*
X78417009Y-82824904D02*
X78464628Y-82920142D01*
X78464628Y-82920142D02*
X78464628Y-83301094D01*
X77940819Y-81872523D02*
X77940819Y-82062999D01*
X77940819Y-82062999D02*
X77988438Y-82158237D01*
X77988438Y-82158237D02*
X78036057Y-82205856D01*
X78036057Y-82205856D02*
X78178914Y-82301094D01*
X78178914Y-82301094D02*
X78369390Y-82348713D01*
X78369390Y-82348713D02*
X78750342Y-82348713D01*
X78750342Y-82348713D02*
X78845580Y-82301094D01*
X78845580Y-82301094D02*
X78893200Y-82253475D01*
X78893200Y-82253475D02*
X78940819Y-82158237D01*
X78940819Y-82158237D02*
X78940819Y-81967761D01*
X78940819Y-81967761D02*
X78893200Y-81872523D01*
X78893200Y-81872523D02*
X78845580Y-81824904D01*
X78845580Y-81824904D02*
X78750342Y-81777285D01*
X78750342Y-81777285D02*
X78512247Y-81777285D01*
X78512247Y-81777285D02*
X78417009Y-81824904D01*
X78417009Y-81824904D02*
X78369390Y-81872523D01*
X78369390Y-81872523D02*
X78321771Y-81967761D01*
X78321771Y-81967761D02*
X78321771Y-82158237D01*
X78321771Y-82158237D02*
X78369390Y-82253475D01*
X78369390Y-82253475D02*
X78417009Y-82301094D01*
X78417009Y-82301094D02*
X78512247Y-82348713D01*
X68672580Y-114688857D02*
X68720200Y-114736476D01*
X68720200Y-114736476D02*
X68767819Y-114879333D01*
X68767819Y-114879333D02*
X68767819Y-114974571D01*
X68767819Y-114974571D02*
X68720200Y-115117428D01*
X68720200Y-115117428D02*
X68624961Y-115212666D01*
X68624961Y-115212666D02*
X68529723Y-115260285D01*
X68529723Y-115260285D02*
X68339247Y-115307904D01*
X68339247Y-115307904D02*
X68196390Y-115307904D01*
X68196390Y-115307904D02*
X68005914Y-115260285D01*
X68005914Y-115260285D02*
X67910676Y-115212666D01*
X67910676Y-115212666D02*
X67815438Y-115117428D01*
X67815438Y-115117428D02*
X67767819Y-114974571D01*
X67767819Y-114974571D02*
X67767819Y-114879333D01*
X67767819Y-114879333D02*
X67815438Y-114736476D01*
X67815438Y-114736476D02*
X67863057Y-114688857D01*
X68767819Y-113736476D02*
X68767819Y-114307904D01*
X68767819Y-114022190D02*
X67767819Y-114022190D01*
X67767819Y-114022190D02*
X67910676Y-114117428D01*
X67910676Y-114117428D02*
X68005914Y-114212666D01*
X68005914Y-114212666D02*
X68053533Y-114307904D01*
X68767819Y-112784095D02*
X68767819Y-113355523D01*
X68767819Y-113069809D02*
X67767819Y-113069809D01*
X67767819Y-113069809D02*
X67910676Y-113165047D01*
X67910676Y-113165047D02*
X68005914Y-113260285D01*
X68005914Y-113260285D02*
X68053533Y-113355523D01*
X77321580Y-83713857D02*
X77369200Y-83761476D01*
X77369200Y-83761476D02*
X77416819Y-83904333D01*
X77416819Y-83904333D02*
X77416819Y-83999571D01*
X77416819Y-83999571D02*
X77369200Y-84142428D01*
X77369200Y-84142428D02*
X77273961Y-84237666D01*
X77273961Y-84237666D02*
X77178723Y-84285285D01*
X77178723Y-84285285D02*
X76988247Y-84332904D01*
X76988247Y-84332904D02*
X76845390Y-84332904D01*
X76845390Y-84332904D02*
X76654914Y-84285285D01*
X76654914Y-84285285D02*
X76559676Y-84237666D01*
X76559676Y-84237666D02*
X76464438Y-84142428D01*
X76464438Y-84142428D02*
X76416819Y-83999571D01*
X76416819Y-83999571D02*
X76416819Y-83904333D01*
X76416819Y-83904333D02*
X76464438Y-83761476D01*
X76464438Y-83761476D02*
X76512057Y-83713857D01*
X77416819Y-82761476D02*
X77416819Y-83332904D01*
X77416819Y-83047190D02*
X76416819Y-83047190D01*
X76416819Y-83047190D02*
X76559676Y-83142428D01*
X76559676Y-83142428D02*
X76654914Y-83237666D01*
X76654914Y-83237666D02*
X76702533Y-83332904D01*
X76416819Y-82142428D02*
X76416819Y-82047190D01*
X76416819Y-82047190D02*
X76464438Y-81951952D01*
X76464438Y-81951952D02*
X76512057Y-81904333D01*
X76512057Y-81904333D02*
X76607295Y-81856714D01*
X76607295Y-81856714D02*
X76797771Y-81809095D01*
X76797771Y-81809095D02*
X77035866Y-81809095D01*
X77035866Y-81809095D02*
X77226342Y-81856714D01*
X77226342Y-81856714D02*
X77321580Y-81904333D01*
X77321580Y-81904333D02*
X77369200Y-81951952D01*
X77369200Y-81951952D02*
X77416819Y-82047190D01*
X77416819Y-82047190D02*
X77416819Y-82142428D01*
X77416819Y-82142428D02*
X77369200Y-82237666D01*
X77369200Y-82237666D02*
X77321580Y-82285285D01*
X77321580Y-82285285D02*
X77226342Y-82332904D01*
X77226342Y-82332904D02*
X77035866Y-82380523D01*
X77035866Y-82380523D02*
X76797771Y-82380523D01*
X76797771Y-82380523D02*
X76607295Y-82332904D01*
X76607295Y-82332904D02*
X76512057Y-82285285D01*
X76512057Y-82285285D02*
X76464438Y-82237666D01*
X76464438Y-82237666D02*
X76416819Y-82142428D01*
D12*
X63505842Y-118061619D02*
X63566318Y-117880190D01*
X63566318Y-117880190D02*
X63566318Y-117577809D01*
X63566318Y-117577809D02*
X63505842Y-117456857D01*
X63505842Y-117456857D02*
X63445365Y-117396381D01*
X63445365Y-117396381D02*
X63324413Y-117335904D01*
X63324413Y-117335904D02*
X63203461Y-117335904D01*
X63203461Y-117335904D02*
X63082508Y-117396381D01*
X63082508Y-117396381D02*
X63022032Y-117456857D01*
X63022032Y-117456857D02*
X62961556Y-117577809D01*
X62961556Y-117577809D02*
X62901080Y-117819714D01*
X62901080Y-117819714D02*
X62840603Y-117940666D01*
X62840603Y-117940666D02*
X62780127Y-118001143D01*
X62780127Y-118001143D02*
X62659175Y-118061619D01*
X62659175Y-118061619D02*
X62538222Y-118061619D01*
X62538222Y-118061619D02*
X62417270Y-118001143D01*
X62417270Y-118001143D02*
X62356794Y-117940666D01*
X62356794Y-117940666D02*
X62296318Y-117819714D01*
X62296318Y-117819714D02*
X62296318Y-117517333D01*
X62296318Y-117517333D02*
X62356794Y-117335904D01*
X63566318Y-116126380D02*
X63566318Y-116852095D01*
X63566318Y-116489238D02*
X62296318Y-116489238D01*
X62296318Y-116489238D02*
X62477746Y-116610190D01*
X62477746Y-116610190D02*
X62598699Y-116731142D01*
X62598699Y-116731142D02*
X62659175Y-116852095D01*
D11*
X58547095Y-101943819D02*
X58547095Y-102753342D01*
X58547095Y-102753342D02*
X58594714Y-102848580D01*
X58594714Y-102848580D02*
X58642333Y-102896200D01*
X58642333Y-102896200D02*
X58737571Y-102943819D01*
X58737571Y-102943819D02*
X58928047Y-102943819D01*
X58928047Y-102943819D02*
X59023285Y-102896200D01*
X59023285Y-102896200D02*
X59070904Y-102848580D01*
X59070904Y-102848580D02*
X59118523Y-102753342D01*
X59118523Y-102753342D02*
X59118523Y-101943819D01*
X60023285Y-102277152D02*
X60023285Y-102943819D01*
X59785190Y-101896200D02*
X59547095Y-102610485D01*
X59547095Y-102610485D02*
X60166142Y-102610485D01*
X70731142Y-110817819D02*
X70397809Y-110341628D01*
X70159714Y-110817819D02*
X70159714Y-109817819D01*
X70159714Y-109817819D02*
X70540666Y-109817819D01*
X70540666Y-109817819D02*
X70635904Y-109865438D01*
X70635904Y-109865438D02*
X70683523Y-109913057D01*
X70683523Y-109913057D02*
X70731142Y-110008295D01*
X70731142Y-110008295D02*
X70731142Y-110151152D01*
X70731142Y-110151152D02*
X70683523Y-110246390D01*
X70683523Y-110246390D02*
X70635904Y-110294009D01*
X70635904Y-110294009D02*
X70540666Y-110341628D01*
X70540666Y-110341628D02*
X70159714Y-110341628D01*
X71683523Y-110817819D02*
X71112095Y-110817819D01*
X71397809Y-110817819D02*
X71397809Y-109817819D01*
X71397809Y-109817819D02*
X71302571Y-109960676D01*
X71302571Y-109960676D02*
X71207333Y-110055914D01*
X71207333Y-110055914D02*
X71112095Y-110103533D01*
X72016857Y-109817819D02*
X72635904Y-109817819D01*
X72635904Y-109817819D02*
X72302571Y-110198771D01*
X72302571Y-110198771D02*
X72445428Y-110198771D01*
X72445428Y-110198771D02*
X72540666Y-110246390D01*
X72540666Y-110246390D02*
X72588285Y-110294009D01*
X72588285Y-110294009D02*
X72635904Y-110389247D01*
X72635904Y-110389247D02*
X72635904Y-110627342D01*
X72635904Y-110627342D02*
X72588285Y-110722580D01*
X72588285Y-110722580D02*
X72540666Y-110770200D01*
X72540666Y-110770200D02*
X72445428Y-110817819D01*
X72445428Y-110817819D02*
X72159714Y-110817819D01*
X72159714Y-110817819D02*
X72064476Y-110770200D01*
X72064476Y-110770200D02*
X72016857Y-110722580D01*
X49889580Y-84994666D02*
X49937200Y-85042285D01*
X49937200Y-85042285D02*
X49984819Y-85185142D01*
X49984819Y-85185142D02*
X49984819Y-85280380D01*
X49984819Y-85280380D02*
X49937200Y-85423237D01*
X49937200Y-85423237D02*
X49841961Y-85518475D01*
X49841961Y-85518475D02*
X49746723Y-85566094D01*
X49746723Y-85566094D02*
X49556247Y-85613713D01*
X49556247Y-85613713D02*
X49413390Y-85613713D01*
X49413390Y-85613713D02*
X49222914Y-85566094D01*
X49222914Y-85566094D02*
X49127676Y-85518475D01*
X49127676Y-85518475D02*
X49032438Y-85423237D01*
X49032438Y-85423237D02*
X48984819Y-85280380D01*
X48984819Y-85280380D02*
X48984819Y-85185142D01*
X48984819Y-85185142D02*
X49032438Y-85042285D01*
X49032438Y-85042285D02*
X49080057Y-84994666D01*
X49984819Y-83994666D02*
X49508628Y-84327999D01*
X49984819Y-84566094D02*
X48984819Y-84566094D01*
X48984819Y-84566094D02*
X48984819Y-84185142D01*
X48984819Y-84185142D02*
X49032438Y-84089904D01*
X49032438Y-84089904D02*
X49080057Y-84042285D01*
X49080057Y-84042285D02*
X49175295Y-83994666D01*
X49175295Y-83994666D02*
X49318152Y-83994666D01*
X49318152Y-83994666D02*
X49413390Y-84042285D01*
X49413390Y-84042285D02*
X49461009Y-84089904D01*
X49461009Y-84089904D02*
X49508628Y-84185142D01*
X49508628Y-84185142D02*
X49508628Y-84566094D01*
X49984819Y-83042285D02*
X49984819Y-83613713D01*
X49984819Y-83327999D02*
X48984819Y-83327999D01*
X48984819Y-83327999D02*
X49127676Y-83423237D01*
X49127676Y-83423237D02*
X49222914Y-83518475D01*
X49222914Y-83518475D02*
X49270533Y-83613713D01*
X73766142Y-110817819D02*
X73432809Y-110341628D01*
X73194714Y-110817819D02*
X73194714Y-109817819D01*
X73194714Y-109817819D02*
X73575666Y-109817819D01*
X73575666Y-109817819D02*
X73670904Y-109865438D01*
X73670904Y-109865438D02*
X73718523Y-109913057D01*
X73718523Y-109913057D02*
X73766142Y-110008295D01*
X73766142Y-110008295D02*
X73766142Y-110151152D01*
X73766142Y-110151152D02*
X73718523Y-110246390D01*
X73718523Y-110246390D02*
X73670904Y-110294009D01*
X73670904Y-110294009D02*
X73575666Y-110341628D01*
X73575666Y-110341628D02*
X73194714Y-110341628D01*
X74718523Y-110817819D02*
X74147095Y-110817819D01*
X74432809Y-110817819D02*
X74432809Y-109817819D01*
X74432809Y-109817819D02*
X74337571Y-109960676D01*
X74337571Y-109960676D02*
X74242333Y-110055914D01*
X74242333Y-110055914D02*
X74147095Y-110103533D01*
X75099476Y-109913057D02*
X75147095Y-109865438D01*
X75147095Y-109865438D02*
X75242333Y-109817819D01*
X75242333Y-109817819D02*
X75480428Y-109817819D01*
X75480428Y-109817819D02*
X75575666Y-109865438D01*
X75575666Y-109865438D02*
X75623285Y-109913057D01*
X75623285Y-109913057D02*
X75670904Y-110008295D01*
X75670904Y-110008295D02*
X75670904Y-110103533D01*
X75670904Y-110103533D02*
X75623285Y-110246390D01*
X75623285Y-110246390D02*
X75051857Y-110817819D01*
X75051857Y-110817819D02*
X75670904Y-110817819D01*
D13*
X75138095Y-91052951D02*
X75138095Y-91536761D01*
X75138095Y-91536761D02*
X74122095Y-91536761D01*
X74605905Y-90714285D02*
X74605905Y-90375618D01*
X75138095Y-90230475D02*
X75138095Y-90714285D01*
X75138095Y-90714285D02*
X74122095Y-90714285D01*
X74122095Y-90714285D02*
X74122095Y-90230475D01*
X75138095Y-89795047D02*
X74122095Y-89795047D01*
X74122095Y-89795047D02*
X74122095Y-89553142D01*
X74122095Y-89553142D02*
X74170476Y-89407999D01*
X74170476Y-89407999D02*
X74267238Y-89311237D01*
X74267238Y-89311237D02*
X74364000Y-89262856D01*
X74364000Y-89262856D02*
X74557524Y-89214475D01*
X74557524Y-89214475D02*
X74702667Y-89214475D01*
X74702667Y-89214475D02*
X74896191Y-89262856D01*
X74896191Y-89262856D02*
X74992953Y-89311237D01*
X74992953Y-89311237D02*
X75089715Y-89407999D01*
X75089715Y-89407999D02*
X75138095Y-89553142D01*
X75138095Y-89553142D02*
X75138095Y-89795047D01*
X74460762Y-88343618D02*
X75138095Y-88343618D01*
X74073715Y-88585523D02*
X74799429Y-88827428D01*
X74799429Y-88827428D02*
X74799429Y-88198475D01*
D11*
X71955819Y-102496857D02*
X71479628Y-102830190D01*
X71955819Y-103068285D02*
X70955819Y-103068285D01*
X70955819Y-103068285D02*
X70955819Y-102687333D01*
X70955819Y-102687333D02*
X71003438Y-102592095D01*
X71003438Y-102592095D02*
X71051057Y-102544476D01*
X71051057Y-102544476D02*
X71146295Y-102496857D01*
X71146295Y-102496857D02*
X71289152Y-102496857D01*
X71289152Y-102496857D02*
X71384390Y-102544476D01*
X71384390Y-102544476D02*
X71432009Y-102592095D01*
X71432009Y-102592095D02*
X71479628Y-102687333D01*
X71479628Y-102687333D02*
X71479628Y-103068285D01*
X71955819Y-101544476D02*
X71955819Y-102115904D01*
X71955819Y-101830190D02*
X70955819Y-101830190D01*
X70955819Y-101830190D02*
X71098676Y-101925428D01*
X71098676Y-101925428D02*
X71193914Y-102020666D01*
X71193914Y-102020666D02*
X71241533Y-102115904D01*
X70955819Y-100639714D02*
X70955819Y-101115904D01*
X70955819Y-101115904D02*
X71432009Y-101163523D01*
X71432009Y-101163523D02*
X71384390Y-101115904D01*
X71384390Y-101115904D02*
X71336771Y-101020666D01*
X71336771Y-101020666D02*
X71336771Y-100782571D01*
X71336771Y-100782571D02*
X71384390Y-100687333D01*
X71384390Y-100687333D02*
X71432009Y-100639714D01*
X71432009Y-100639714D02*
X71527247Y-100592095D01*
X71527247Y-100592095D02*
X71765342Y-100592095D01*
X71765342Y-100592095D02*
X71860580Y-100639714D01*
X71860580Y-100639714D02*
X71908200Y-100687333D01*
X71908200Y-100687333D02*
X71955819Y-100782571D01*
X71955819Y-100782571D02*
X71955819Y-101020666D01*
X71955819Y-101020666D02*
X71908200Y-101115904D01*
X71908200Y-101115904D02*
X71860580Y-101163523D01*
D13*
X54259238Y-84632857D02*
X54162476Y-84584476D01*
X54162476Y-84584476D02*
X54065714Y-84487715D01*
X54065714Y-84487715D02*
X53920571Y-84342572D01*
X53920571Y-84342572D02*
X53823809Y-84294191D01*
X53823809Y-84294191D02*
X53727047Y-84294191D01*
X53775428Y-84536095D02*
X53678666Y-84487715D01*
X53678666Y-84487715D02*
X53581904Y-84390953D01*
X53581904Y-84390953D02*
X53533523Y-84197429D01*
X53533523Y-84197429D02*
X53533523Y-83858762D01*
X53533523Y-83858762D02*
X53581904Y-83665238D01*
X53581904Y-83665238D02*
X53678666Y-83568476D01*
X53678666Y-83568476D02*
X53775428Y-83520095D01*
X53775428Y-83520095D02*
X53968952Y-83520095D01*
X53968952Y-83520095D02*
X54065714Y-83568476D01*
X54065714Y-83568476D02*
X54162476Y-83665238D01*
X54162476Y-83665238D02*
X54210857Y-83858762D01*
X54210857Y-83858762D02*
X54210857Y-84197429D01*
X54210857Y-84197429D02*
X54162476Y-84390953D01*
X54162476Y-84390953D02*
X54065714Y-84487715D01*
X54065714Y-84487715D02*
X53968952Y-84536095D01*
X53968952Y-84536095D02*
X53775428Y-84536095D01*
X55178476Y-84536095D02*
X54597904Y-84536095D01*
X54888190Y-84536095D02*
X54888190Y-83520095D01*
X54888190Y-83520095D02*
X54791428Y-83665238D01*
X54791428Y-83665238D02*
X54694666Y-83762000D01*
X54694666Y-83762000D02*
X54597904Y-83810381D01*
D11*
X73606819Y-93733857D02*
X73130628Y-94067190D01*
X73606819Y-94305285D02*
X72606819Y-94305285D01*
X72606819Y-94305285D02*
X72606819Y-93924333D01*
X72606819Y-93924333D02*
X72654438Y-93829095D01*
X72654438Y-93829095D02*
X72702057Y-93781476D01*
X72702057Y-93781476D02*
X72797295Y-93733857D01*
X72797295Y-93733857D02*
X72940152Y-93733857D01*
X72940152Y-93733857D02*
X73035390Y-93781476D01*
X73035390Y-93781476D02*
X73083009Y-93829095D01*
X73083009Y-93829095D02*
X73130628Y-93924333D01*
X73130628Y-93924333D02*
X73130628Y-94305285D01*
X73606819Y-92781476D02*
X73606819Y-93352904D01*
X73606819Y-93067190D02*
X72606819Y-93067190D01*
X72606819Y-93067190D02*
X72749676Y-93162428D01*
X72749676Y-93162428D02*
X72844914Y-93257666D01*
X72844914Y-93257666D02*
X72892533Y-93352904D01*
X72606819Y-92448142D02*
X72606819Y-91781476D01*
X72606819Y-91781476D02*
X73606819Y-92210047D01*
X73606819Y-102496857D02*
X73130628Y-102830190D01*
X73606819Y-103068285D02*
X72606819Y-103068285D01*
X72606819Y-103068285D02*
X72606819Y-102687333D01*
X72606819Y-102687333D02*
X72654438Y-102592095D01*
X72654438Y-102592095D02*
X72702057Y-102544476D01*
X72702057Y-102544476D02*
X72797295Y-102496857D01*
X72797295Y-102496857D02*
X72940152Y-102496857D01*
X72940152Y-102496857D02*
X73035390Y-102544476D01*
X73035390Y-102544476D02*
X73083009Y-102592095D01*
X73083009Y-102592095D02*
X73130628Y-102687333D01*
X73130628Y-102687333D02*
X73130628Y-103068285D01*
X73606819Y-101544476D02*
X73606819Y-102115904D01*
X73606819Y-101830190D02*
X72606819Y-101830190D01*
X72606819Y-101830190D02*
X72749676Y-101925428D01*
X72749676Y-101925428D02*
X72844914Y-102020666D01*
X72844914Y-102020666D02*
X72892533Y-102115904D01*
X72606819Y-100687333D02*
X72606819Y-100877809D01*
X72606819Y-100877809D02*
X72654438Y-100973047D01*
X72654438Y-100973047D02*
X72702057Y-101020666D01*
X72702057Y-101020666D02*
X72844914Y-101115904D01*
X72844914Y-101115904D02*
X73035390Y-101163523D01*
X73035390Y-101163523D02*
X73416342Y-101163523D01*
X73416342Y-101163523D02*
X73511580Y-101115904D01*
X73511580Y-101115904D02*
X73559200Y-101068285D01*
X73559200Y-101068285D02*
X73606819Y-100973047D01*
X73606819Y-100973047D02*
X73606819Y-100782571D01*
X73606819Y-100782571D02*
X73559200Y-100687333D01*
X73559200Y-100687333D02*
X73511580Y-100639714D01*
X73511580Y-100639714D02*
X73416342Y-100592095D01*
X73416342Y-100592095D02*
X73178247Y-100592095D01*
X73178247Y-100592095D02*
X73083009Y-100639714D01*
X73083009Y-100639714D02*
X73035390Y-100687333D01*
X73035390Y-100687333D02*
X72987771Y-100782571D01*
X72987771Y-100782571D02*
X72987771Y-100973047D01*
X72987771Y-100973047D02*
X73035390Y-101068285D01*
X73035390Y-101068285D02*
X73083009Y-101115904D01*
X73083009Y-101115904D02*
X73178247Y-101163523D01*
D13*
X75138095Y-108578951D02*
X75138095Y-109062761D01*
X75138095Y-109062761D02*
X74122095Y-109062761D01*
X74605905Y-108240285D02*
X74605905Y-107901618D01*
X75138095Y-107756475D02*
X75138095Y-108240285D01*
X75138095Y-108240285D02*
X74122095Y-108240285D01*
X74122095Y-108240285D02*
X74122095Y-107756475D01*
X75138095Y-107321047D02*
X74122095Y-107321047D01*
X74122095Y-107321047D02*
X74122095Y-107079142D01*
X74122095Y-107079142D02*
X74170476Y-106933999D01*
X74170476Y-106933999D02*
X74267238Y-106837237D01*
X74267238Y-106837237D02*
X74364000Y-106788856D01*
X74364000Y-106788856D02*
X74557524Y-106740475D01*
X74557524Y-106740475D02*
X74702667Y-106740475D01*
X74702667Y-106740475D02*
X74896191Y-106788856D01*
X74896191Y-106788856D02*
X74992953Y-106837237D01*
X74992953Y-106837237D02*
X75089715Y-106933999D01*
X75089715Y-106933999D02*
X75138095Y-107079142D01*
X75138095Y-107079142D02*
X75138095Y-107321047D01*
X74122095Y-105821237D02*
X74122095Y-106305047D01*
X74122095Y-106305047D02*
X74605905Y-106353428D01*
X74605905Y-106353428D02*
X74557524Y-106305047D01*
X74557524Y-106305047D02*
X74509143Y-106208285D01*
X74509143Y-106208285D02*
X74509143Y-105966380D01*
X74509143Y-105966380D02*
X74557524Y-105869618D01*
X74557524Y-105869618D02*
X74605905Y-105821237D01*
X74605905Y-105821237D02*
X74702667Y-105772856D01*
X74702667Y-105772856D02*
X74944572Y-105772856D01*
X74944572Y-105772856D02*
X75041334Y-105821237D01*
X75041334Y-105821237D02*
X75089715Y-105869618D01*
X75089715Y-105869618D02*
X75138095Y-105966380D01*
X75138095Y-105966380D02*
X75138095Y-106208285D01*
X75138095Y-106208285D02*
X75089715Y-106305047D01*
X75089715Y-106305047D02*
X75041334Y-106353428D01*
D11*
X71588333Y-84433580D02*
X71540714Y-84481200D01*
X71540714Y-84481200D02*
X71397857Y-84528819D01*
X71397857Y-84528819D02*
X71302619Y-84528819D01*
X71302619Y-84528819D02*
X71159762Y-84481200D01*
X71159762Y-84481200D02*
X71064524Y-84385961D01*
X71064524Y-84385961D02*
X71016905Y-84290723D01*
X71016905Y-84290723D02*
X70969286Y-84100247D01*
X70969286Y-84100247D02*
X70969286Y-83957390D01*
X70969286Y-83957390D02*
X71016905Y-83766914D01*
X71016905Y-83766914D02*
X71064524Y-83671676D01*
X71064524Y-83671676D02*
X71159762Y-83576438D01*
X71159762Y-83576438D02*
X71302619Y-83528819D01*
X71302619Y-83528819D02*
X71397857Y-83528819D01*
X71397857Y-83528819D02*
X71540714Y-83576438D01*
X71540714Y-83576438D02*
X71588333Y-83624057D01*
X71921667Y-83528819D02*
X72588333Y-83528819D01*
X72588333Y-83528819D02*
X72159762Y-84528819D01*
X58888333Y-96647580D02*
X58840714Y-96695200D01*
X58840714Y-96695200D02*
X58697857Y-96742819D01*
X58697857Y-96742819D02*
X58602619Y-96742819D01*
X58602619Y-96742819D02*
X58459762Y-96695200D01*
X58459762Y-96695200D02*
X58364524Y-96599961D01*
X58364524Y-96599961D02*
X58316905Y-96504723D01*
X58316905Y-96504723D02*
X58269286Y-96314247D01*
X58269286Y-96314247D02*
X58269286Y-96171390D01*
X58269286Y-96171390D02*
X58316905Y-95980914D01*
X58316905Y-95980914D02*
X58364524Y-95885676D01*
X58364524Y-95885676D02*
X58459762Y-95790438D01*
X58459762Y-95790438D02*
X58602619Y-95742819D01*
X58602619Y-95742819D02*
X58697857Y-95742819D01*
X58697857Y-95742819D02*
X58840714Y-95790438D01*
X58840714Y-95790438D02*
X58888333Y-95838057D01*
X59745476Y-95742819D02*
X59555000Y-95742819D01*
X59555000Y-95742819D02*
X59459762Y-95790438D01*
X59459762Y-95790438D02*
X59412143Y-95838057D01*
X59412143Y-95838057D02*
X59316905Y-95980914D01*
X59316905Y-95980914D02*
X59269286Y-96171390D01*
X59269286Y-96171390D02*
X59269286Y-96552342D01*
X59269286Y-96552342D02*
X59316905Y-96647580D01*
X59316905Y-96647580D02*
X59364524Y-96695200D01*
X59364524Y-96695200D02*
X59459762Y-96742819D01*
X59459762Y-96742819D02*
X59650238Y-96742819D01*
X59650238Y-96742819D02*
X59745476Y-96695200D01*
X59745476Y-96695200D02*
X59793095Y-96647580D01*
X59793095Y-96647580D02*
X59840714Y-96552342D01*
X59840714Y-96552342D02*
X59840714Y-96314247D01*
X59840714Y-96314247D02*
X59793095Y-96219009D01*
X59793095Y-96219009D02*
X59745476Y-96171390D01*
X59745476Y-96171390D02*
X59650238Y-96123771D01*
X59650238Y-96123771D02*
X59459762Y-96123771D01*
X59459762Y-96123771D02*
X59364524Y-96171390D01*
X59364524Y-96171390D02*
X59316905Y-96219009D01*
X59316905Y-96219009D02*
X59269286Y-96314247D01*
D13*
X51247523Y-87330095D02*
X51924857Y-87330095D01*
X51924857Y-87330095D02*
X51247523Y-88346095D01*
X51247523Y-88346095D02*
X51924857Y-88346095D01*
X52844095Y-88346095D02*
X52263523Y-88346095D01*
X52553809Y-88346095D02*
X52553809Y-87330095D01*
X52553809Y-87330095D02*
X52457047Y-87475238D01*
X52457047Y-87475238D02*
X52360285Y-87572000D01*
X52360285Y-87572000D02*
X52263523Y-87620381D01*
D11*
X69715142Y-112246580D02*
X69667523Y-112294200D01*
X69667523Y-112294200D02*
X69524666Y-112341819D01*
X69524666Y-112341819D02*
X69429428Y-112341819D01*
X69429428Y-112341819D02*
X69286571Y-112294200D01*
X69286571Y-112294200D02*
X69191333Y-112198961D01*
X69191333Y-112198961D02*
X69143714Y-112103723D01*
X69143714Y-112103723D02*
X69096095Y-111913247D01*
X69096095Y-111913247D02*
X69096095Y-111770390D01*
X69096095Y-111770390D02*
X69143714Y-111579914D01*
X69143714Y-111579914D02*
X69191333Y-111484676D01*
X69191333Y-111484676D02*
X69286571Y-111389438D01*
X69286571Y-111389438D02*
X69429428Y-111341819D01*
X69429428Y-111341819D02*
X69524666Y-111341819D01*
X69524666Y-111341819D02*
X69667523Y-111389438D01*
X69667523Y-111389438D02*
X69715142Y-111437057D01*
X70667523Y-112341819D02*
X70096095Y-112341819D01*
X70381809Y-112341819D02*
X70381809Y-111341819D01*
X70381809Y-111341819D02*
X70286571Y-111484676D01*
X70286571Y-111484676D02*
X70191333Y-111579914D01*
X70191333Y-111579914D02*
X70096095Y-111627533D01*
X71000857Y-111341819D02*
X71619904Y-111341819D01*
X71619904Y-111341819D02*
X71286571Y-111722771D01*
X71286571Y-111722771D02*
X71429428Y-111722771D01*
X71429428Y-111722771D02*
X71524666Y-111770390D01*
X71524666Y-111770390D02*
X71572285Y-111818009D01*
X71572285Y-111818009D02*
X71619904Y-111913247D01*
X71619904Y-111913247D02*
X71619904Y-112151342D01*
X71619904Y-112151342D02*
X71572285Y-112246580D01*
X71572285Y-112246580D02*
X71524666Y-112294200D01*
X71524666Y-112294200D02*
X71429428Y-112341819D01*
X71429428Y-112341819D02*
X71143714Y-112341819D01*
X71143714Y-112341819D02*
X71048476Y-112294200D01*
X71048476Y-112294200D02*
X71000857Y-112246580D01*
D12*
X77880333Y-113985318D02*
X77275571Y-113985318D01*
X77275571Y-113985318D02*
X77275571Y-112715318D01*
X78847952Y-113138651D02*
X78847952Y-113985318D01*
X78545571Y-112654842D02*
X78243190Y-113561984D01*
X78243190Y-113561984D02*
X79029381Y-113561984D01*
D14*
X59247000Y-122047000D02*
G75*
G03*
X59247000Y-122047000I-700000J0D01*
G01*
X69407000Y-87757000D02*
G75*
G03*
X69407000Y-87757000I-700000J0D01*
G01*
X68391000Y-111506000D02*
G75*
G03*
X68391000Y-111506000I-700000J0D01*
G01*
X80456000Y-83693000D02*
G75*
G03*
X80456000Y-83693000I-700000J0D01*
G01*
X67629000Y-81788000D02*
G75*
G03*
X67629000Y-81788000I-700000J0D01*
G01*
X77916000Y-110109000D02*
G75*
G03*
X77916000Y-110109000I-700000J0D01*
G01*
X78678000Y-122809000D02*
G75*
G03*
X78678000Y-122809000I-700000J0D01*
G01*
X66867000Y-73533000D02*
G75*
G03*
X66867000Y-73533000I-700000J0D01*
G01*
X60517000Y-100838000D02*
G75*
G03*
X60517000Y-100838000I-700000J0D01*
G01*
X52643000Y-111379000D02*
G75*
G03*
X52643000Y-111379000I-700000J0D01*
G01*
D15*
X54316000Y-94401000D02*
X54316000Y-99401000D01*
X49316000Y-94401000D02*
X49316000Y-99441000D01*
D14*
X69612742Y-75690500D02*
X70087258Y-75690500D01*
X69612742Y-76735500D02*
X70087258Y-76735500D01*
X49938000Y-102716064D02*
X49938000Y-102261936D01*
X51408000Y-102716064D02*
X51408000Y-102261936D01*
X70087258Y-80037500D02*
X69612742Y-80037500D01*
X70087258Y-78992500D02*
X69612742Y-78992500D01*
D16*
X57754000Y-80954000D02*
X55904000Y-80954000D01*
X57754000Y-77904000D02*
X57754000Y-80954000D01*
X57754000Y-71954000D02*
X57754000Y-74904000D01*
X52304000Y-80954000D02*
X43354000Y-80954000D01*
X43354000Y-80954000D02*
X43354000Y-71954000D01*
X43354000Y-71954000D02*
X57754000Y-71954000D01*
D17*
X58854000Y-76454000D02*
G75*
G03*
X58854000Y-76454000I-200000J0D01*
G01*
D18*
X79311000Y-88341000D02*
X77661000Y-88341000D01*
X77661000Y-88341000D02*
X77661000Y-90666000D01*
X79311000Y-90666000D02*
X79311000Y-88341000D01*
X53645000Y-108267000D02*
X53645000Y-106617000D01*
X53645000Y-106617000D02*
X51320000Y-106617000D01*
X51320000Y-108267000D02*
X53645000Y-108267000D01*
D14*
X67172000Y-116826420D02*
X67172000Y-117107580D01*
X66152000Y-116826420D02*
X66152000Y-117107580D01*
X73674500Y-107204742D02*
X73674500Y-107679258D01*
X72629500Y-107204742D02*
X72629500Y-107679258D01*
D18*
X77279000Y-97104000D02*
X75629000Y-97104000D01*
X75629000Y-97104000D02*
X75629000Y-99429000D01*
X77279000Y-99429000D02*
X77279000Y-97104000D01*
X64492000Y-76010000D02*
X64492000Y-76010000D01*
X64292000Y-76010000D02*
X64292000Y-76010000D01*
D15*
X63992000Y-76960000D02*
X64842000Y-77010000D01*
X61992000Y-76960000D02*
X61142000Y-76960000D01*
X61142000Y-76960000D02*
X61142000Y-83060000D01*
X64842000Y-77010000D02*
X64842000Y-83060000D01*
X64842000Y-83060000D02*
X63992000Y-83060000D01*
X61142000Y-83060000D02*
X61992000Y-83060000D01*
D18*
X64292000Y-76010000D02*
G75*
G03*
X64492000Y-76010000I100000J0D01*
G01*
X64492000Y-76010000D02*
G75*
G03*
X64292000Y-76010000I-100000J0D01*
G01*
D14*
X54236252Y-102462000D02*
X53713748Y-102462000D01*
X54236252Y-100992000D02*
X53713748Y-100992000D01*
X64530500Y-88938742D02*
X64530500Y-89413258D01*
X63485500Y-88938742D02*
X63485500Y-89413258D01*
D13*
X49911000Y-122682000D02*
X56261000Y-122682000D01*
X56261000Y-122682000D02*
X56261000Y-121530200D01*
X49911000Y-121530200D02*
X49911000Y-122682000D01*
X56261000Y-118753800D02*
X56261000Y-118355200D01*
X49911000Y-118355200D02*
X49911000Y-118753800D01*
X56261000Y-115578800D02*
X56261000Y-112522000D01*
X49911000Y-112522000D02*
X49911000Y-115578800D01*
X56261000Y-112522000D02*
X49911000Y-112522000D01*
D14*
X65137420Y-105154000D02*
X65418580Y-105154000D01*
X65137420Y-106174000D02*
X65418580Y-106174000D01*
D15*
X69175000Y-92518000D02*
X69175000Y-97518000D01*
X64175000Y-92518000D02*
X64175000Y-97558000D01*
D18*
X79311000Y-97104000D02*
X77661000Y-97104000D01*
X77661000Y-97104000D02*
X77661000Y-99429000D01*
X79311000Y-99429000D02*
X79311000Y-97104000D01*
D14*
X61834500Y-89413258D02*
X61834500Y-88938742D01*
X62879500Y-89413258D02*
X62879500Y-88938742D01*
D18*
X79311000Y-105867000D02*
X77661000Y-105867000D01*
X77661000Y-105867000D02*
X77661000Y-108192000D01*
X79311000Y-108192000D02*
X79311000Y-105867000D01*
D19*
X63582000Y-94374000D02*
G75*
G03*
X63582000Y-94374000I-125000J0D01*
G01*
D14*
X60084580Y-90448000D02*
X59803420Y-90448000D01*
X60084580Y-89428000D02*
X59803420Y-89428000D01*
X72023500Y-89805742D02*
X72023500Y-90280258D01*
X70978500Y-89805742D02*
X70978500Y-90280258D01*
X76582500Y-112284742D02*
X76582500Y-112759258D01*
X75537500Y-112284742D02*
X75537500Y-112759258D01*
X72023500Y-107204742D02*
X72023500Y-107679258D01*
X70978500Y-107204742D02*
X70978500Y-107679258D01*
X71122000Y-81787420D02*
X71122000Y-82068580D01*
X70102000Y-81787420D02*
X70102000Y-82068580D01*
X55751000Y-93485580D02*
X55751000Y-93204420D01*
X56771000Y-93485580D02*
X56771000Y-93204420D01*
X65499510Y-104538500D02*
X65024994Y-104538500D01*
X65499510Y-103493500D02*
X65024994Y-103493500D01*
D19*
X75197000Y-78161000D02*
G75*
G03*
X75197000Y-78161000I-125000J0D01*
G01*
D14*
X61230742Y-97289500D02*
X61705258Y-97289500D01*
X61230742Y-98334500D02*
X61705258Y-98334500D01*
D15*
X72557000Y-72443000D02*
X77557000Y-72443000D01*
X72557000Y-77443000D02*
X77597000Y-77443000D01*
D14*
X70087258Y-78386500D02*
X69612742Y-78386500D01*
X70087258Y-77341500D02*
X69612742Y-77341500D01*
X57402000Y-93485580D02*
X57402000Y-93204420D01*
X58422000Y-93485580D02*
X58422000Y-93204420D01*
X49134500Y-89709258D02*
X49134500Y-89234742D01*
X50179500Y-89709258D02*
X50179500Y-89234742D01*
D19*
X74203000Y-117828000D02*
G75*
G03*
X74203000Y-117828000I-125000J0D01*
G01*
D14*
X74154420Y-85101000D02*
X74435580Y-85101000D01*
X74154420Y-86121000D02*
X74435580Y-86121000D01*
D13*
X56337200Y-83721150D02*
X56337200Y-85442850D01*
X59994800Y-85442850D02*
X59994800Y-83721150D01*
D14*
X72263580Y-120398000D02*
X71982420Y-120398000D01*
X72263580Y-119378000D02*
X71982420Y-119378000D01*
X52712252Y-92937000D02*
X52189748Y-92937000D01*
X52712252Y-91467000D02*
X52189748Y-91467000D01*
X71885742Y-120889500D02*
X72360258Y-120889500D01*
X71885742Y-121934500D02*
X72360258Y-121934500D01*
X77963500Y-80260258D02*
X77963500Y-79785742D01*
X79008500Y-80260258D02*
X79008500Y-79785742D01*
X68823000Y-116826420D02*
X68823000Y-117107580D01*
X67803000Y-116826420D02*
X67803000Y-117107580D01*
X77472000Y-79882420D02*
X77472000Y-80163580D01*
X76452000Y-79882420D02*
X76452000Y-80163580D01*
D18*
X61492000Y-121094000D02*
X61492000Y-121094000D01*
X61692000Y-121094000D02*
X61692000Y-121094000D01*
D15*
X61992000Y-120144000D02*
X61142000Y-120094000D01*
X63992000Y-120144000D02*
X64842000Y-120144000D01*
X64842000Y-120144000D02*
X64842000Y-114044000D01*
X61142000Y-120094000D02*
X61142000Y-114044000D01*
X61142000Y-114044000D02*
X61992000Y-114044000D01*
X64842000Y-114044000D02*
X63992000Y-114044000D01*
D18*
X61692000Y-121094000D02*
G75*
G03*
X61492000Y-121094000I-100000J0D01*
G01*
X61492000Y-121094000D02*
G75*
G03*
X61692000Y-121094000I100000J0D01*
G01*
D14*
X72235500Y-112759258D02*
X72235500Y-112284742D01*
X73280500Y-112759258D02*
X73280500Y-112284742D01*
D13*
X50177700Y-82651600D02*
X50177700Y-86004400D01*
X52438300Y-86004400D02*
X52438300Y-82651600D01*
D14*
X73886500Y-112759258D02*
X73886500Y-112284742D01*
X74931500Y-112759258D02*
X74931500Y-112284742D01*
D18*
X77279000Y-88341000D02*
X75629000Y-88341000D01*
X75629000Y-88341000D02*
X75629000Y-90666000D01*
X77279000Y-90666000D02*
X77279000Y-88341000D01*
D14*
X72023500Y-98568742D02*
X72023500Y-99043258D01*
X70978500Y-98568742D02*
X70978500Y-99043258D01*
D18*
X53106000Y-84093000D02*
X53106000Y-84093000D01*
X53106000Y-84093000D02*
G75*
G03*
X53106000Y-84193000I0J-50000D01*
G01*
X53106000Y-84193000D02*
G75*
G03*
X53106000Y-84093000I0J50000D01*
G01*
D14*
X73674500Y-89805742D02*
X73674500Y-90280258D01*
X72629500Y-89805742D02*
X72629500Y-90280258D01*
X73674500Y-98568742D02*
X73674500Y-99043258D01*
X72629500Y-98568742D02*
X72629500Y-99043258D01*
D18*
X77279000Y-105867000D02*
X75629000Y-105867000D01*
X75629000Y-105867000D02*
X75629000Y-108192000D01*
X77279000Y-108192000D02*
X77279000Y-105867000D01*
D14*
X74154420Y-83450000D02*
X74435580Y-83450000D01*
X74154420Y-84470000D02*
X74435580Y-84470000D01*
X61608580Y-96798000D02*
X61327420Y-96798000D01*
X61608580Y-95778000D02*
X61327420Y-95778000D01*
D18*
X55640000Y-90183000D02*
X51990000Y-90183000D01*
X54690000Y-88633000D02*
X51990000Y-88633000D01*
D14*
X70485580Y-113794000D02*
X70204420Y-113794000D01*
X70485580Y-112774000D02*
X70204420Y-112774000D01*
D15*
X79830000Y-115356000D02*
X79830000Y-120356000D01*
X74830000Y-115356000D02*
X74830000Y-120396000D01*
%LPC*%
D20*
X58547000Y-122047000D03*
X68707000Y-87757000D03*
X67691000Y-111506000D03*
X79756000Y-83693000D03*
X66929000Y-81788000D03*
X77216000Y-110109000D03*
X77978000Y-122809000D03*
X66167000Y-73533000D03*
X59817000Y-100838000D03*
X51943000Y-111379000D03*
D21*
X58674000Y-116459000D03*
X53467000Y-77470000D03*
X81407000Y-75057000D03*
D22*
X51816000Y-95101000D03*
X51816000Y-98701000D03*
D23*
X69025000Y-76213000D03*
X70675000Y-76213000D03*
D24*
X50673000Y-103401500D03*
X50673000Y-101576500D03*
D25*
X70675000Y-79515000D03*
X69025000Y-79515000D03*
D26*
X57054000Y-76454000D03*
X51054000Y-76454000D03*
D27*
X54054000Y-81154000D03*
D28*
X78486000Y-89166000D03*
X78486000Y-90666000D03*
X52820000Y-107442000D03*
X51320000Y-107442000D03*
D29*
X66662000Y-116192000D03*
X66662000Y-117742000D03*
D30*
X73152000Y-106617000D03*
X73152000Y-108267000D03*
D28*
X76454000Y-97929000D03*
X76454000Y-99429000D03*
D31*
X62992000Y-76235000D03*
X62992000Y-83785000D03*
D32*
X54925000Y-101727000D03*
X53025000Y-101727000D03*
D30*
X64008000Y-88351000D03*
X64008000Y-90001000D03*
D33*
X50546000Y-120142000D03*
D34*
X53086000Y-120142000D03*
D33*
X55626000Y-120142000D03*
X50546000Y-116967000D03*
X55626000Y-116967000D03*
D34*
X52070000Y-115062000D03*
X54102000Y-115062000D03*
D35*
X53721000Y-118872000D03*
X52451000Y-118872000D03*
X53721000Y-117602000D03*
X52451000Y-117602000D03*
X53721000Y-116332000D03*
X52451000Y-116332000D03*
D36*
X64503000Y-105664000D03*
X66053000Y-105664000D03*
D22*
X66675000Y-93218000D03*
X66675000Y-96818000D03*
D28*
X78486000Y-97929000D03*
X78486000Y-99429000D03*
D37*
X62357000Y-90001000D03*
X62357000Y-88351000D03*
D28*
X78486000Y-106692000D03*
X78486000Y-108192000D03*
D38*
X62357000Y-93724000D03*
X62357000Y-93224000D03*
X62357000Y-92724000D03*
X62357000Y-92224000D03*
D39*
X61607000Y-91474000D03*
X61107000Y-91474000D03*
X60607000Y-91474000D03*
X60107000Y-91474000D03*
D38*
X59357000Y-92224000D03*
X59357000Y-92724000D03*
X59357000Y-93224000D03*
X59357000Y-93724000D03*
D39*
X60107000Y-94474000D03*
X60607000Y-94474000D03*
X61107000Y-94474000D03*
X61607000Y-94474000D03*
D40*
X60857000Y-92974000D03*
D41*
X60719000Y-89938000D03*
X59169000Y-89938000D03*
D30*
X71501000Y-89218000D03*
X71501000Y-90868000D03*
X76060000Y-111697000D03*
X76060000Y-113347000D03*
X71501000Y-106617000D03*
X71501000Y-108267000D03*
D29*
X70612000Y-81153000D03*
X70612000Y-82703000D03*
D42*
X56261000Y-94120000D03*
X56261000Y-92570000D03*
D25*
X66087252Y-104016000D03*
X64437252Y-104016000D03*
D39*
X74422000Y-79261000D03*
X73922000Y-79261000D03*
X73422000Y-79261000D03*
X72922000Y-79261000D03*
D38*
X72172000Y-80011000D03*
X72172000Y-80511000D03*
X72172000Y-81011000D03*
X72172000Y-81511000D03*
D39*
X72922000Y-82261000D03*
X73422000Y-82261000D03*
X73922000Y-82261000D03*
X74422000Y-82261000D03*
D38*
X75172000Y-81511000D03*
X75172000Y-81011000D03*
X75172000Y-80511000D03*
X75172000Y-80011000D03*
D40*
X73672000Y-80761000D03*
D23*
X60643000Y-97812000D03*
X62293000Y-97812000D03*
D43*
X73257000Y-74943000D03*
X76857000Y-74943000D03*
D25*
X70675000Y-77864000D03*
X69025000Y-77864000D03*
D42*
X57912000Y-94120000D03*
X57912000Y-92570000D03*
D37*
X49657000Y-90297000D03*
X49657000Y-88647000D03*
D38*
X72978000Y-117178000D03*
X72978000Y-116678000D03*
X72978000Y-116178000D03*
X72978000Y-115678000D03*
D39*
X72228000Y-114928000D03*
X71728000Y-114928000D03*
X71228000Y-114928000D03*
X70728000Y-114928000D03*
D38*
X69978000Y-115678000D03*
X69978000Y-116178000D03*
X69978000Y-116678000D03*
X69978000Y-117178000D03*
D39*
X70728000Y-117928000D03*
X71228000Y-117928000D03*
X71728000Y-117928000D03*
X72228000Y-117928000D03*
D40*
X71478000Y-116428000D03*
D36*
X73520000Y-85611000D03*
X75070000Y-85611000D03*
D44*
X60198000Y-74295000D03*
D45*
X58166000Y-82638900D03*
X58166000Y-86525100D03*
D44*
X78359000Y-94234000D03*
D41*
X72898000Y-119888000D03*
X71348000Y-119888000D03*
D44*
X56515000Y-107442000D03*
D32*
X53401000Y-92202000D03*
X51501000Y-92202000D03*
D23*
X71298000Y-121412000D03*
X72948000Y-121412000D03*
D37*
X78486000Y-80848000D03*
X78486000Y-79198000D03*
D29*
X68313000Y-116192000D03*
X68313000Y-117742000D03*
X76962000Y-79248000D03*
X76962000Y-80798000D03*
D31*
X62992000Y-120869000D03*
X62992000Y-113319000D03*
D46*
X63197000Y-106156126D03*
D47*
X63022000Y-105656126D03*
X63022000Y-105156000D03*
X63022000Y-104655874D03*
D48*
X63122000Y-104155748D03*
D49*
X62722252Y-103756000D03*
D50*
X62222126Y-103856000D03*
X61722000Y-103856000D03*
X61221874Y-103856000D03*
D51*
X60721748Y-103756000D03*
D52*
X60322000Y-104155748D03*
D47*
X60422000Y-104655874D03*
X60422000Y-105156000D03*
X60422000Y-105656126D03*
D53*
X60322000Y-106156252D03*
D54*
X60721748Y-106556000D03*
D50*
X61221874Y-106456000D03*
X61722000Y-106456000D03*
X62222126Y-106456000D03*
D55*
X62722252Y-106556000D03*
D37*
X72758000Y-113347000D03*
X72758000Y-111697000D03*
D56*
X51308000Y-82715100D03*
X51308000Y-85940900D03*
D37*
X74409000Y-113347000D03*
X74409000Y-111697000D03*
D28*
X76454000Y-89166000D03*
X76454000Y-90666000D03*
D30*
X71501000Y-97981000D03*
X71501000Y-99631000D03*
D57*
X53421000Y-85443000D03*
X53421000Y-86093000D03*
X53421000Y-86743000D03*
X55291000Y-86743000D03*
X55291000Y-86093000D03*
X55291000Y-85443000D03*
D58*
X54356000Y-85808000D03*
D59*
X54356000Y-86868000D03*
D30*
X73152000Y-89218000D03*
X73152000Y-90868000D03*
D44*
X66167000Y-121666000D03*
D30*
X73152000Y-97981000D03*
X73152000Y-99631000D03*
D28*
X76454000Y-106692000D03*
X76454000Y-108192000D03*
D36*
X73520000Y-83960000D03*
X75070000Y-83960000D03*
D41*
X62243000Y-96288000D03*
X60693000Y-96288000D03*
D60*
X55040000Y-89408000D03*
X51640000Y-89408000D03*
D41*
X71120000Y-113284000D03*
X69570000Y-113284000D03*
D22*
X77330000Y-116056000D03*
X77330000Y-119656000D03*
D61*
X99065000Y-73020000D03*
D62*
X96525000Y-73020000D03*
X99065000Y-75560000D03*
X96525000Y-75560000D03*
D61*
X99065000Y-120015000D03*
D62*
X96525000Y-120015000D03*
X99065000Y-122555000D03*
X96525000Y-122555000D03*
%LPD*%
M02*
