%TF.GenerationSoftware,KiCad,Pcbnew,7.0.7*%
%TF.CreationDate,2023-10-29T23:24:32-05:00*%
%TF.ProjectId,1016 Breadboard Power Supply,31303136-2042-4726-9561-64626f617264,1*%
%TF.SameCoordinates,Original*%
%TF.FileFunction,Copper,L2,Bot*%
%TF.FilePolarity,Positive*%
%FSLAX46Y46*%
G04 Gerber Fmt 4.6, Leading zero omitted, Abs format (unit mm)*
G04 Created by KiCad (PCBNEW 7.0.7) date 2023-10-29 23:24:32*
%MOMM*%
%LPD*%
G01*
G04 APERTURE LIST*
%TA.AperFunction,ComponentPad*%
%ADD10C,1.000000*%
%TD*%
%TA.AperFunction,ComponentPad*%
%ADD11O,1.508000X3.016000*%
%TD*%
%TA.AperFunction,ComponentPad*%
%ADD12O,3.016000X1.508000*%
%TD*%
%TA.AperFunction,ComponentPad*%
%ADD13R,1.700000X1.700000*%
%TD*%
%TA.AperFunction,ComponentPad*%
%ADD14O,1.700000X1.700000*%
%TD*%
%TA.AperFunction,ViaPad*%
%ADD15C,0.508000*%
%TD*%
%TA.AperFunction,ViaPad*%
%ADD16C,0.762000*%
%TD*%
%TA.AperFunction,Conductor*%
%ADD17C,0.203200*%
%TD*%
%TA.AperFunction,Conductor*%
%ADD18C,0.762000*%
%TD*%
G04 APERTURE END LIST*
D10*
X68961000Y-84074000D03*
X60071000Y-104648000D03*
D11*
X60610000Y-76327000D03*
X54610000Y-76327000D03*
D12*
X57610000Y-81027000D03*
D10*
X82550000Y-117475000D03*
X82550000Y-72898000D03*
X61087000Y-112776000D03*
X54229000Y-94361000D03*
X71247000Y-86233000D03*
X72263000Y-75184000D03*
X68580000Y-104394000D03*
X66040000Y-112014000D03*
D13*
X99060000Y-73025000D03*
D14*
X96520000Y-73025000D03*
X99060000Y-75565000D03*
X96520000Y-75565000D03*
D13*
X99060000Y-117475000D03*
D14*
X96520000Y-117475000D03*
X99060000Y-120015000D03*
X96520000Y-120015000D03*
D15*
X95345000Y-118459000D03*
X92805000Y-118459000D03*
X92805000Y-75279000D03*
X90265000Y-118459000D03*
X90265000Y-75279000D03*
X87725000Y-118459000D03*
X87725000Y-75279000D03*
X85185000Y-118459000D03*
X85185000Y-75279000D03*
X80105000Y-87979000D03*
X80105000Y-82899000D03*
X80105000Y-80359000D03*
X80105000Y-77819000D03*
X80105000Y-75279000D03*
X77565000Y-110839000D03*
X77565000Y-100679000D03*
X77565000Y-93059000D03*
X77565000Y-77819000D03*
X75025000Y-110839000D03*
X75025000Y-100679000D03*
X72485000Y-100679000D03*
X72485000Y-95599000D03*
X69945000Y-110839000D03*
X69945000Y-95599000D03*
X69945000Y-85439000D03*
X69945000Y-75279000D03*
X67405000Y-110839000D03*
X67405000Y-108299000D03*
X67405000Y-105759000D03*
X67405000Y-93059000D03*
X67405000Y-82899000D03*
X67405000Y-80359000D03*
X67405000Y-75279000D03*
X67405000Y-72739000D03*
X62325000Y-110839000D03*
X62325000Y-82899000D03*
X62325000Y-75279000D03*
X59785000Y-110839000D03*
X59785000Y-105759000D03*
X59785000Y-100679000D03*
X59785000Y-93059000D03*
X59785000Y-87979000D03*
X59785000Y-80359000D03*
X57245000Y-118459000D03*
X57245000Y-105759000D03*
X57245000Y-77819000D03*
X57245000Y-75279000D03*
X57245000Y-72739000D03*
X54705000Y-108299000D03*
X54705000Y-100679000D03*
X54705000Y-95599000D03*
X54705000Y-93059000D03*
X54705000Y-87979000D03*
X54705000Y-85439000D03*
X54705000Y-72739000D03*
X52165000Y-100679000D03*
X52165000Y-87979000D03*
X52165000Y-85439000D03*
X52165000Y-80359000D03*
X52165000Y-77819000D03*
X52165000Y-75279000D03*
X52165000Y-72739000D03*
X49625000Y-93059000D03*
X49625000Y-90519000D03*
X49625000Y-87979000D03*
X49625000Y-85439000D03*
X49625000Y-80359000D03*
X49625000Y-77819000D03*
X49625000Y-72739000D03*
X60579000Y-98298000D03*
X60706000Y-102235000D03*
X50292000Y-105664000D03*
X64135000Y-104267000D03*
X65532000Y-100330000D03*
X66548000Y-99441000D03*
X66548000Y-98298000D03*
X66548000Y-95885000D03*
X65151000Y-94742000D03*
X64008000Y-94107000D03*
X63398400Y-94750529D03*
X62865000Y-94107000D03*
X61595000Y-94742000D03*
D16*
X80010000Y-100076000D03*
X65405000Y-120142000D03*
X67310000Y-88011000D03*
D15*
X61595000Y-86487000D03*
D16*
X55372000Y-98552000D03*
X79946000Y-104965000D03*
X67056000Y-114046000D03*
X71755000Y-83947000D03*
D15*
X50165000Y-109093000D03*
D16*
X49022000Y-114300000D03*
X53594000Y-103124000D03*
X56896000Y-88392000D03*
X56769000Y-84328000D03*
X49784000Y-83185000D03*
X78994000Y-85725000D03*
X78994000Y-84074000D03*
X78613000Y-82042000D03*
X50292000Y-95885000D03*
X68961000Y-106553000D03*
X53213000Y-113538000D03*
X51689000Y-119761000D03*
X50038000Y-119761000D03*
X53594000Y-119634000D03*
X68326000Y-119888000D03*
X66675000Y-119888000D03*
X70231000Y-119507000D03*
D15*
X69977000Y-117983000D03*
X73025000Y-114935000D03*
X74930000Y-108458000D03*
X74930000Y-106426000D03*
X74930000Y-90932000D03*
X74930000Y-88900000D03*
X76962000Y-82423000D03*
X73914000Y-79375000D03*
X53213000Y-114935000D03*
X56261000Y-117983000D03*
X54991000Y-116967000D03*
X54991000Y-115951000D03*
X55245000Y-116459000D03*
X54229000Y-116967000D03*
X54483000Y-116459000D03*
X54229000Y-115951000D03*
X71755000Y-115951000D03*
X72009000Y-116459000D03*
X71755000Y-116967000D03*
X70993000Y-116967000D03*
X71374000Y-116459000D03*
X70993000Y-115951000D03*
X69977000Y-114935000D03*
X73025000Y-117983000D03*
X73914000Y-82410000D03*
X76962000Y-79362000D03*
X74930000Y-81013000D03*
X75438000Y-81394000D03*
X75946000Y-81013000D03*
X75946000Y-80378000D03*
X75438000Y-80759000D03*
X74930000Y-80378000D03*
D17*
X61849000Y-103251000D02*
X61341000Y-102743000D01*
X64389000Y-103251000D02*
X61849000Y-103251000D01*
X61341000Y-102743000D02*
X61341000Y-101092000D01*
X64897000Y-103759000D02*
X64389000Y-103251000D01*
X61341000Y-101092000D02*
X60579000Y-100330000D01*
X60579000Y-100330000D02*
X60579000Y-98298000D01*
X66040000Y-112014000D02*
X64897000Y-110871000D01*
X64897000Y-110871000D02*
X64897000Y-103759000D01*
X71247000Y-86868000D02*
X71247000Y-86233000D01*
X73152000Y-86233000D02*
X71247000Y-86233000D01*
X76962000Y-82423000D02*
X73152000Y-86233000D01*
X64008000Y-100960160D02*
X64008000Y-94107000D01*
X68275200Y-116281200D02*
X68275200Y-105227360D01*
X68275200Y-105227360D02*
X64008000Y-100960160D01*
X69977000Y-117983000D02*
X68275200Y-116281200D01*
X51308000Y-104648000D02*
X57404000Y-104648000D01*
X57404000Y-104648000D02*
X59817000Y-102235000D01*
X59817000Y-102235000D02*
X60706000Y-102235000D01*
X50292000Y-105664000D02*
X51308000Y-104648000D01*
X59275000Y-109127000D02*
X64135000Y-104267000D01*
X50199000Y-109127000D02*
X59275000Y-109127000D01*
X50165000Y-109093000D02*
X50199000Y-109127000D01*
X68580000Y-103378000D02*
X65532000Y-100330000D01*
X68580000Y-104394000D02*
X68580000Y-103378000D01*
X73025000Y-114935000D02*
X73025000Y-108839000D01*
X73025000Y-108839000D02*
X68580000Y-104394000D01*
X69850000Y-104206134D02*
X69850000Y-102743000D01*
X69850000Y-102743000D02*
X66548000Y-99441000D01*
X74101866Y-108458000D02*
X69850000Y-104206134D01*
X74930000Y-108458000D02*
X74101866Y-108458000D01*
X74930000Y-105597866D02*
X67630134Y-98298000D01*
X67630134Y-98298000D02*
X66548000Y-98298000D01*
X74930000Y-106426000D02*
X74930000Y-105597866D01*
X71501000Y-90932000D02*
X66548000Y-95885000D01*
X74930000Y-90932000D02*
X71501000Y-90932000D01*
X65151000Y-94107000D02*
X65151000Y-94742000D01*
X70358000Y-88900000D02*
X65151000Y-94107000D01*
X61595000Y-86487000D02*
X61595000Y-94742000D01*
X74930000Y-88900000D02*
X70358000Y-88900000D01*
X63449200Y-94699729D02*
X63398400Y-94750529D01*
X63449200Y-90723960D02*
X63449200Y-94699729D01*
X73914000Y-80259160D02*
X63449200Y-90723960D01*
X73914000Y-79375000D02*
X73914000Y-80259160D01*
X71247000Y-86868000D02*
X64008000Y-94107000D01*
X62865000Y-90170000D02*
X62865000Y-94107000D01*
X68961000Y-84074000D02*
X62865000Y-90170000D01*
D18*
X80010000Y-100076000D02*
X80010000Y-104901000D01*
X65405000Y-120523000D02*
X65405000Y-120142000D01*
X65024000Y-120904000D02*
X65405000Y-120523000D01*
X49784000Y-120904000D02*
X65024000Y-120904000D01*
X49022000Y-120142000D02*
X49784000Y-120904000D01*
X49022000Y-114300000D02*
X49022000Y-120142000D01*
X55372000Y-98552000D02*
X50038000Y-98552000D01*
X49022000Y-99568000D02*
X49022000Y-114300000D01*
X50038000Y-98552000D02*
X49022000Y-99568000D01*
%TA.AperFunction,Conductor*%
G36*
X99956811Y-71756737D02*
G01*
X100011604Y-71765415D01*
X100041530Y-71775139D01*
X100083806Y-71796679D01*
X100109269Y-71815179D01*
X100134353Y-71840263D01*
X100162579Y-71895661D01*
X100152853Y-71957069D01*
X100108889Y-72001033D01*
X100047481Y-72010759D01*
X100007328Y-71995044D01*
X99989480Y-71983119D01*
X99989481Y-71983119D01*
X99959771Y-71977209D01*
X99930064Y-71971300D01*
X98189936Y-71971300D01*
X98180078Y-71973260D01*
X98130520Y-71983118D01*
X98063140Y-72028140D01*
X98018118Y-72095520D01*
X98008348Y-72144642D01*
X98006300Y-72154936D01*
X98006300Y-73895064D01*
X98008348Y-73905358D01*
X98018118Y-73954479D01*
X98018119Y-73954480D01*
X98063140Y-74021860D01*
X98130520Y-74066881D01*
X98189936Y-74078700D01*
X98189937Y-74078700D01*
X99930063Y-74078700D01*
X99930064Y-74078700D01*
X99989480Y-74066881D01*
X100046012Y-74029108D01*
X100105849Y-74012233D01*
X100164181Y-74033752D01*
X100198723Y-74085448D01*
X100202500Y-74112755D01*
X100202500Y-75066637D01*
X100183287Y-75125768D01*
X100132987Y-75162313D01*
X100070813Y-75162313D01*
X100020513Y-75125768D01*
X100013179Y-75114059D01*
X99939945Y-74977048D01*
X99939936Y-74977035D01*
X99808332Y-74816677D01*
X99808322Y-74816667D01*
X99647964Y-74685063D01*
X99647951Y-74685054D01*
X99464994Y-74587262D01*
X99464986Y-74587259D01*
X99266466Y-74527039D01*
X99266459Y-74527038D01*
X99161601Y-74516709D01*
X99161600Y-74516710D01*
X99161600Y-74964400D01*
X99142387Y-75023531D01*
X99092087Y-75060076D01*
X99061000Y-75065000D01*
X99059000Y-75065000D01*
X98999869Y-75045787D01*
X98963324Y-74995487D01*
X98958400Y-74964400D01*
X98958400Y-74516710D01*
X98958398Y-74516709D01*
X98853540Y-74527038D01*
X98853533Y-74527039D01*
X98655013Y-74587259D01*
X98655005Y-74587262D01*
X98472048Y-74685054D01*
X98472035Y-74685063D01*
X98311677Y-74816667D01*
X98311667Y-74816677D01*
X98180063Y-74977035D01*
X98180054Y-74977048D01*
X98082262Y-75160005D01*
X98082259Y-75160013D01*
X98022040Y-75358532D01*
X98011711Y-75463400D01*
X98459400Y-75463400D01*
X98518531Y-75482613D01*
X98555076Y-75532913D01*
X98560000Y-75564000D01*
X98560000Y-75566000D01*
X98540787Y-75625131D01*
X98490487Y-75661676D01*
X98459400Y-75666600D01*
X98011712Y-75666600D01*
X98022040Y-75771467D01*
X98082259Y-75969986D01*
X98082262Y-75969994D01*
X98180054Y-76152951D01*
X98180063Y-76152964D01*
X98311667Y-76313322D01*
X98311677Y-76313332D01*
X98472035Y-76444936D01*
X98472048Y-76444945D01*
X98655005Y-76542737D01*
X98655013Y-76542740D01*
X98853532Y-76602959D01*
X98958400Y-76613288D01*
X98958400Y-76165600D01*
X98977613Y-76106469D01*
X99027913Y-76069924D01*
X99059000Y-76065000D01*
X99061000Y-76065000D01*
X99120131Y-76084213D01*
X99156676Y-76134513D01*
X99161600Y-76165600D01*
X99161600Y-76613287D01*
X99266467Y-76602959D01*
X99464986Y-76542740D01*
X99464994Y-76542737D01*
X99647951Y-76444945D01*
X99647964Y-76444936D01*
X99808322Y-76313332D01*
X99808332Y-76313322D01*
X99939936Y-76152964D01*
X99939945Y-76152951D01*
X100013179Y-76015940D01*
X100057997Y-75972847D01*
X100119585Y-75964329D01*
X100174418Y-75993637D01*
X100201551Y-76049578D01*
X100202500Y-76063362D01*
X100202500Y-76573085D01*
X100201261Y-76588823D01*
X100192585Y-76643599D01*
X100182859Y-76673532D01*
X100161320Y-76715805D01*
X100142820Y-76741269D01*
X100109269Y-76774820D01*
X100083805Y-76793320D01*
X100041532Y-76814859D01*
X100011599Y-76824585D01*
X99972320Y-76830806D01*
X99956821Y-76833261D01*
X99941086Y-76834500D01*
X82069002Y-76834500D01*
X81871496Y-76865782D01*
X81871480Y-76865786D01*
X81681296Y-76927580D01*
X81503112Y-77018371D01*
X81341326Y-77135915D01*
X81199915Y-77277326D01*
X81082371Y-77439112D01*
X80991580Y-77617296D01*
X80929786Y-77807480D01*
X80929782Y-77807496D01*
X80898500Y-78005002D01*
X80898500Y-115034997D01*
X80929782Y-115232503D01*
X80929786Y-115232519D01*
X80991580Y-115422703D01*
X81082371Y-115600887D01*
X81199915Y-115762673D01*
X81341326Y-115904084D01*
X81503112Y-116021628D01*
X81503111Y-116021628D01*
X81681296Y-116112419D01*
X81871480Y-116174213D01*
X81871483Y-116174213D01*
X81871490Y-116174216D01*
X81871495Y-116174216D01*
X81871496Y-116174217D01*
X82069002Y-116205499D01*
X82069007Y-116205500D01*
X82069009Y-116205500D01*
X82105339Y-116205500D01*
X99894149Y-116205500D01*
X99941086Y-116205500D01*
X99956811Y-116206737D01*
X100011604Y-116215415D01*
X100041530Y-116225139D01*
X100083806Y-116246679D01*
X100109269Y-116265179D01*
X100134353Y-116290263D01*
X100162579Y-116345661D01*
X100152853Y-116407069D01*
X100108889Y-116451033D01*
X100047481Y-116460759D01*
X100007328Y-116445044D01*
X99989480Y-116433119D01*
X99989481Y-116433119D01*
X99959201Y-116427096D01*
X99930064Y-116421300D01*
X98189936Y-116421300D01*
X98180078Y-116423260D01*
X98130520Y-116433118D01*
X98063140Y-116478140D01*
X98018118Y-116545520D01*
X98008348Y-116594642D01*
X98006300Y-116604936D01*
X98006300Y-118345064D01*
X98008348Y-118355358D01*
X98018118Y-118404479D01*
X98018119Y-118404480D01*
X98063140Y-118471860D01*
X98130520Y-118516881D01*
X98189936Y-118528700D01*
X98189937Y-118528700D01*
X99930063Y-118528700D01*
X99930064Y-118528700D01*
X99989480Y-118516881D01*
X100046012Y-118479108D01*
X100105849Y-118462233D01*
X100164181Y-118483752D01*
X100198723Y-118535448D01*
X100202500Y-118562755D01*
X100202500Y-119516637D01*
X100183287Y-119575768D01*
X100132987Y-119612313D01*
X100070813Y-119612313D01*
X100020513Y-119575768D01*
X100013179Y-119564059D01*
X99939945Y-119427048D01*
X99939936Y-119427035D01*
X99808332Y-119266677D01*
X99808322Y-119266667D01*
X99647964Y-119135063D01*
X99647951Y-119135054D01*
X99464994Y-119037262D01*
X99464986Y-119037259D01*
X99266466Y-118977039D01*
X99266459Y-118977038D01*
X99161601Y-118966709D01*
X99161600Y-118966710D01*
X99161600Y-119414400D01*
X99142387Y-119473531D01*
X99092087Y-119510076D01*
X99061000Y-119515000D01*
X99059000Y-119515000D01*
X98999869Y-119495787D01*
X98963324Y-119445487D01*
X98958400Y-119414400D01*
X98958400Y-118966710D01*
X98958398Y-118966709D01*
X98853540Y-118977038D01*
X98853533Y-118977039D01*
X98655013Y-119037259D01*
X98655005Y-119037262D01*
X98472048Y-119135054D01*
X98472035Y-119135063D01*
X98311677Y-119266667D01*
X98311667Y-119266677D01*
X98180063Y-119427035D01*
X98180054Y-119427048D01*
X98082262Y-119610005D01*
X98082259Y-119610013D01*
X98022040Y-119808532D01*
X98011711Y-119913400D01*
X98459400Y-119913400D01*
X98518531Y-119932613D01*
X98555076Y-119982913D01*
X98560000Y-120014000D01*
X98560000Y-120016000D01*
X98540787Y-120075131D01*
X98490487Y-120111676D01*
X98459400Y-120116600D01*
X98011712Y-120116600D01*
X98022040Y-120221467D01*
X98082259Y-120419986D01*
X98082262Y-120419994D01*
X98180054Y-120602951D01*
X98180063Y-120602964D01*
X98311667Y-120763322D01*
X98311677Y-120763332D01*
X98472035Y-120894936D01*
X98472048Y-120894945D01*
X98655005Y-120992737D01*
X98655013Y-120992740D01*
X98853532Y-121052959D01*
X98958400Y-121063288D01*
X98958400Y-120615600D01*
X98977613Y-120556469D01*
X99027913Y-120519924D01*
X99059000Y-120515000D01*
X99061000Y-120515000D01*
X99120131Y-120534213D01*
X99156676Y-120584513D01*
X99161600Y-120615600D01*
X99161600Y-121063287D01*
X99266467Y-121052959D01*
X99464986Y-120992740D01*
X99464994Y-120992737D01*
X99647951Y-120894945D01*
X99647964Y-120894936D01*
X99808322Y-120763332D01*
X99808332Y-120763322D01*
X99939936Y-120602964D01*
X99939945Y-120602951D01*
X100013179Y-120465940D01*
X100057997Y-120422847D01*
X100119585Y-120414329D01*
X100174418Y-120443637D01*
X100201551Y-120499578D01*
X100202500Y-120513362D01*
X100202500Y-121023085D01*
X100201261Y-121038823D01*
X100192585Y-121093599D01*
X100182859Y-121123532D01*
X100161320Y-121165805D01*
X100142820Y-121191269D01*
X100109269Y-121224820D01*
X100083805Y-121243320D01*
X100041532Y-121264859D01*
X100011599Y-121274585D01*
X99972320Y-121280806D01*
X99956821Y-121283261D01*
X99941086Y-121284500D01*
X65713260Y-121284500D01*
X65654129Y-121265287D01*
X65617584Y-121214987D01*
X65617584Y-121152813D01*
X65642125Y-121112765D01*
X65701931Y-121052959D01*
X65789020Y-120965869D01*
X65793966Y-120961533D01*
X65822013Y-120940013D01*
X65849646Y-120904000D01*
X65915734Y-120817873D01*
X65959733Y-120711650D01*
X65974650Y-120675637D01*
X65989700Y-120561321D01*
X65989700Y-120561319D01*
X65994745Y-120523000D01*
X65990128Y-120487935D01*
X65989700Y-120481396D01*
X65989700Y-120183601D01*
X65990128Y-120177065D01*
X65994745Y-120142000D01*
X65994745Y-120141997D01*
X65994745Y-120141996D01*
X65974650Y-119989363D01*
X65943185Y-119913400D01*
X95471711Y-119913400D01*
X95919400Y-119913400D01*
X95978531Y-119932613D01*
X96015076Y-119982913D01*
X96020000Y-120014000D01*
X96020000Y-120016000D01*
X96000787Y-120075131D01*
X95950487Y-120111676D01*
X95919400Y-120116600D01*
X95471712Y-120116600D01*
X95482040Y-120221467D01*
X95542259Y-120419986D01*
X95542262Y-120419994D01*
X95640054Y-120602951D01*
X95640063Y-120602964D01*
X95771667Y-120763322D01*
X95771677Y-120763332D01*
X95932035Y-120894936D01*
X95932048Y-120894945D01*
X96115005Y-120992737D01*
X96115013Y-120992740D01*
X96313532Y-121052959D01*
X96418400Y-121063288D01*
X96418400Y-120615600D01*
X96437613Y-120556469D01*
X96487913Y-120519924D01*
X96519000Y-120515000D01*
X96521000Y-120515000D01*
X96580131Y-120534213D01*
X96616676Y-120584513D01*
X96621600Y-120615600D01*
X96621600Y-121063287D01*
X96726467Y-121052959D01*
X96924986Y-120992740D01*
X96924994Y-120992737D01*
X97107951Y-120894945D01*
X97107964Y-120894936D01*
X97268322Y-120763332D01*
X97268332Y-120763322D01*
X97399936Y-120602964D01*
X97399945Y-120602951D01*
X97497737Y-120419994D01*
X97497740Y-120419986D01*
X97557959Y-120221467D01*
X97568288Y-120116600D01*
X97120600Y-120116600D01*
X97061469Y-120097387D01*
X97024924Y-120047087D01*
X97020000Y-120016000D01*
X97020000Y-120014000D01*
X97039213Y-119954869D01*
X97089513Y-119918324D01*
X97120600Y-119913400D01*
X97568288Y-119913400D01*
X97557959Y-119808532D01*
X97497740Y-119610013D01*
X97497737Y-119610005D01*
X97399945Y-119427048D01*
X97399936Y-119427035D01*
X97268332Y-119266677D01*
X97268322Y-119266667D01*
X97107964Y-119135063D01*
X97107951Y-119135054D01*
X96924994Y-119037262D01*
X96924986Y-119037259D01*
X96726466Y-118977039D01*
X96726459Y-118977038D01*
X96621601Y-118966709D01*
X96621600Y-118966710D01*
X96621600Y-119414400D01*
X96602387Y-119473531D01*
X96552087Y-119510076D01*
X96521000Y-119515000D01*
X96519000Y-119515000D01*
X96459869Y-119495787D01*
X96423324Y-119445487D01*
X96418400Y-119414400D01*
X96418400Y-118966710D01*
X96418398Y-118966709D01*
X96313540Y-118977038D01*
X96313533Y-118977039D01*
X96115013Y-119037259D01*
X96115005Y-119037262D01*
X95932048Y-119135054D01*
X95932035Y-119135063D01*
X95771677Y-119266667D01*
X95771667Y-119266677D01*
X95640063Y-119427035D01*
X95640054Y-119427048D01*
X95542262Y-119610005D01*
X95542259Y-119610013D01*
X95482040Y-119808532D01*
X95471711Y-119913400D01*
X65943185Y-119913400D01*
X65915734Y-119847128D01*
X65822013Y-119724987D01*
X65699870Y-119631264D01*
X65699868Y-119631263D01*
X65557637Y-119572349D01*
X65405003Y-119552255D01*
X65404997Y-119552255D01*
X65252363Y-119572349D01*
X65110128Y-119631265D01*
X64987987Y-119724987D01*
X64894265Y-119847128D01*
X64835349Y-119989363D01*
X64815255Y-120141996D01*
X64815255Y-120141997D01*
X64815255Y-120142000D01*
X64819868Y-120177042D01*
X64819869Y-120177044D01*
X64820300Y-120183617D01*
X64820300Y-120218700D01*
X64801087Y-120277831D01*
X64750787Y-120314376D01*
X64719700Y-120319300D01*
X50067861Y-120319300D01*
X50008730Y-120300087D01*
X49996726Y-120289835D01*
X49636165Y-119929274D01*
X49607939Y-119873876D01*
X49606700Y-119858139D01*
X49606700Y-114341617D01*
X49607131Y-114335044D01*
X49611745Y-114300001D01*
X49611745Y-114299997D01*
X49607131Y-114264953D01*
X49606700Y-114258380D01*
X49606700Y-112775999D01*
X60378132Y-112775999D01*
X60398730Y-112945642D01*
X60459329Y-113105427D01*
X60459329Y-113105428D01*
X60556404Y-113246065D01*
X60556408Y-113246069D01*
X60684314Y-113359385D01*
X60684315Y-113359386D01*
X60684317Y-113359387D01*
X60835628Y-113438801D01*
X60835629Y-113438801D01*
X60835632Y-113438803D01*
X61001555Y-113479700D01*
X61001559Y-113479700D01*
X61172441Y-113479700D01*
X61172445Y-113479700D01*
X61338368Y-113438803D01*
X61489683Y-113359387D01*
X61617595Y-113246066D01*
X61714671Y-113105427D01*
X61775270Y-112945643D01*
X61795868Y-112776000D01*
X61775270Y-112606357D01*
X61714671Y-112446573D01*
X61617595Y-112305934D01*
X61617591Y-112305930D01*
X61489685Y-112192614D01*
X61489684Y-112192613D01*
X61338370Y-112113198D01*
X61338372Y-112113198D01*
X61172445Y-112072300D01*
X61001555Y-112072300D01*
X61001554Y-112072300D01*
X60835628Y-112113198D01*
X60684315Y-112192613D01*
X60684314Y-112192614D01*
X60556408Y-112305930D01*
X60556404Y-112305934D01*
X60459329Y-112446571D01*
X60459329Y-112446572D01*
X60398730Y-112606357D01*
X60378132Y-112775999D01*
X49606700Y-112775999D01*
X49606700Y-110956977D01*
X49893936Y-110956977D01*
X49904220Y-111120418D01*
X49904221Y-111120426D01*
X49930041Y-111199892D01*
X49954829Y-111276185D01*
X49954829Y-111276186D01*
X50042582Y-111414459D01*
X50042584Y-111414462D01*
X50106276Y-111474273D01*
X50161970Y-111526574D01*
X50305479Y-111605469D01*
X50305482Y-111605469D01*
X50305485Y-111605471D01*
X50404236Y-111630826D01*
X50464112Y-111646200D01*
X50464113Y-111646200D01*
X50586776Y-111646200D01*
X50586783Y-111646200D01*
X50708482Y-111630826D01*
X50860755Y-111570537D01*
X50993250Y-111474273D01*
X51097643Y-111348084D01*
X51167375Y-111199897D01*
X51198063Y-111039024D01*
X51196282Y-111010725D01*
X51192901Y-110956977D01*
X51925936Y-110956977D01*
X51936220Y-111120418D01*
X51936221Y-111120426D01*
X51962041Y-111199892D01*
X51986829Y-111276185D01*
X51986829Y-111276186D01*
X52074582Y-111414459D01*
X52074584Y-111414462D01*
X52138276Y-111474273D01*
X52193970Y-111526574D01*
X52337479Y-111605469D01*
X52337482Y-111605469D01*
X52337485Y-111605471D01*
X52436236Y-111630826D01*
X52496112Y-111646200D01*
X52496113Y-111646200D01*
X52618776Y-111646200D01*
X52618783Y-111646200D01*
X52740482Y-111630826D01*
X52892755Y-111570537D01*
X53025250Y-111474273D01*
X53129643Y-111348084D01*
X53199375Y-111199897D01*
X53230063Y-111039024D01*
X53228282Y-111010725D01*
X53224901Y-110956976D01*
X53219779Y-110875574D01*
X53169171Y-110719816D01*
X53169170Y-110719814D01*
X53169170Y-110719813D01*
X53081417Y-110581540D01*
X53081416Y-110581538D01*
X52962031Y-110469427D01*
X52962029Y-110469425D01*
X52818520Y-110390530D01*
X52818515Y-110390529D01*
X52659887Y-110349800D01*
X52537217Y-110349800D01*
X52537212Y-110349800D01*
X52415522Y-110365173D01*
X52415520Y-110365173D01*
X52415518Y-110365174D01*
X52365917Y-110384812D01*
X52263247Y-110425461D01*
X52263242Y-110425465D01*
X52130752Y-110521724D01*
X52026356Y-110647917D01*
X51956625Y-110796102D01*
X51956623Y-110796107D01*
X51925937Y-110956976D01*
X51925936Y-110956977D01*
X51192901Y-110956977D01*
X51192901Y-110956976D01*
X51187779Y-110875574D01*
X51137171Y-110719816D01*
X51137170Y-110719814D01*
X51137170Y-110719813D01*
X51049417Y-110581540D01*
X51049416Y-110581538D01*
X50930031Y-110469427D01*
X50930029Y-110469425D01*
X50786520Y-110390530D01*
X50786515Y-110390529D01*
X50627887Y-110349800D01*
X50505217Y-110349800D01*
X50505212Y-110349800D01*
X50383522Y-110365173D01*
X50383520Y-110365173D01*
X50383518Y-110365174D01*
X50333917Y-110384812D01*
X50231247Y-110425461D01*
X50231242Y-110425465D01*
X50098752Y-110521724D01*
X49994356Y-110647917D01*
X49924625Y-110796102D01*
X49924623Y-110796107D01*
X49893937Y-110956976D01*
X49893936Y-110956977D01*
X49606700Y-110956977D01*
X49606700Y-109417334D01*
X49625913Y-109358203D01*
X49676213Y-109321658D01*
X49738387Y-109321658D01*
X49783328Y-109351455D01*
X49855381Y-109434609D01*
X49862188Y-109442464D01*
X49972909Y-109513620D01*
X50099193Y-109550700D01*
X50230807Y-109550700D01*
X50357091Y-109513620D01*
X50458778Y-109448269D01*
X50513166Y-109432300D01*
X59208789Y-109432300D01*
X59222685Y-109434567D01*
X59222859Y-109433322D01*
X59232085Y-109434608D01*
X59232090Y-109434610D01*
X59261538Y-109433248D01*
X59280896Y-109432354D01*
X59283219Y-109432300D01*
X59303284Y-109432300D01*
X59303289Y-109432300D01*
X59306837Y-109431636D01*
X59313748Y-109430834D01*
X59346109Y-109429338D01*
X59355235Y-109425308D01*
X59377387Y-109418448D01*
X59387197Y-109416615D01*
X59414735Y-109399562D01*
X59420894Y-109396315D01*
X59450525Y-109383234D01*
X59457579Y-109376178D01*
X59475759Y-109361778D01*
X59484242Y-109356527D01*
X59503764Y-109330673D01*
X59508334Y-109325424D01*
X64079594Y-104754165D01*
X64134992Y-104725939D01*
X64150729Y-104724700D01*
X64200807Y-104724700D01*
X64327091Y-104687620D01*
X64436715Y-104617168D01*
X64496842Y-104601364D01*
X64554780Y-104623921D01*
X64588395Y-104676225D01*
X64591700Y-104701800D01*
X64591700Y-110804788D01*
X64589444Y-110818686D01*
X64590678Y-110818858D01*
X64589390Y-110828090D01*
X64591646Y-110876896D01*
X64591700Y-110879219D01*
X64591700Y-110899294D01*
X64592362Y-110902833D01*
X64593164Y-110909753D01*
X64594661Y-110942104D01*
X64594662Y-110942109D01*
X64598692Y-110951237D01*
X64605550Y-110973382D01*
X64607384Y-110983196D01*
X64607385Y-110983197D01*
X64624436Y-111010735D01*
X64627683Y-111016896D01*
X64640765Y-111046524D01*
X64647823Y-111053582D01*
X64662219Y-111071757D01*
X64667472Y-111080241D01*
X64693315Y-111099757D01*
X64698576Y-111104335D01*
X65329623Y-111735382D01*
X65357849Y-111790780D01*
X65352945Y-111838391D01*
X65353186Y-111838451D01*
X65352762Y-111840167D01*
X65352556Y-111842176D01*
X65351731Y-111844350D01*
X65351730Y-111844353D01*
X65351730Y-111844357D01*
X65331132Y-112014000D01*
X65351730Y-112183643D01*
X65398108Y-112305930D01*
X65412329Y-112343427D01*
X65412329Y-112343428D01*
X65509404Y-112484065D01*
X65509408Y-112484069D01*
X65637314Y-112597385D01*
X65637315Y-112597386D01*
X65637317Y-112597387D01*
X65788628Y-112676801D01*
X65788629Y-112676801D01*
X65788632Y-112676803D01*
X65954555Y-112717700D01*
X65954559Y-112717700D01*
X66125441Y-112717700D01*
X66125445Y-112717700D01*
X66291368Y-112676803D01*
X66442683Y-112597387D01*
X66570595Y-112484066D01*
X66667671Y-112343427D01*
X66728270Y-112183643D01*
X66748868Y-112014000D01*
X66728270Y-111844357D01*
X66667671Y-111684573D01*
X66641183Y-111646199D01*
X66570595Y-111543934D01*
X66570591Y-111543930D01*
X66442685Y-111430614D01*
X66442684Y-111430613D01*
X66291370Y-111351198D01*
X66291372Y-111351198D01*
X66275062Y-111347178D01*
X66125445Y-111310300D01*
X65954555Y-111310300D01*
X65954552Y-111310300D01*
X65860026Y-111333599D01*
X65798015Y-111329095D01*
X65764816Y-111307057D01*
X65231765Y-110774006D01*
X65203539Y-110718608D01*
X65202300Y-110702871D01*
X65202300Y-103825209D01*
X65204567Y-103811316D01*
X65203321Y-103811143D01*
X65204607Y-103801914D01*
X65204609Y-103801910D01*
X65202571Y-103757818D01*
X65202354Y-103753115D01*
X65202300Y-103750793D01*
X65202300Y-103730714D01*
X65202300Y-103730711D01*
X65201635Y-103727160D01*
X65200833Y-103720238D01*
X65200489Y-103712816D01*
X65199338Y-103687891D01*
X65195308Y-103678764D01*
X65188447Y-103656606D01*
X65186615Y-103646802D01*
X65169563Y-103619264D01*
X65166310Y-103613092D01*
X65153234Y-103583475D01*
X65146176Y-103576417D01*
X65131781Y-103558244D01*
X65126527Y-103549758D01*
X65121721Y-103546129D01*
X65115388Y-103541346D01*
X65100683Y-103530241D01*
X65095425Y-103525666D01*
X64651699Y-103081940D01*
X64643480Y-103070507D01*
X64642473Y-103071269D01*
X64636853Y-103063827D01*
X64600750Y-103030915D01*
X64599069Y-103029310D01*
X64584875Y-103015116D01*
X64581901Y-103013079D01*
X64576442Y-103008755D01*
X64552504Y-102986933D01*
X64552502Y-102986932D01*
X64543197Y-102983327D01*
X64522687Y-102972516D01*
X64514453Y-102966876D01*
X64482928Y-102959461D01*
X64476266Y-102957398D01*
X64472110Y-102955788D01*
X64446070Y-102945700D01*
X64446069Y-102945700D01*
X64436091Y-102945700D01*
X64413059Y-102943028D01*
X64403344Y-102940743D01*
X64403343Y-102940743D01*
X64391192Y-102942438D01*
X64371270Y-102945217D01*
X64364316Y-102945700D01*
X62017129Y-102945700D01*
X61957998Y-102926487D01*
X61945994Y-102916235D01*
X61675765Y-102646006D01*
X61647539Y-102590608D01*
X61646300Y-102574871D01*
X61646300Y-101885536D01*
X61646300Y-101158205D01*
X61648603Y-101144321D01*
X61647322Y-101144143D01*
X61648608Y-101134914D01*
X61648610Y-101134910D01*
X61646991Y-101099885D01*
X61646354Y-101086093D01*
X61646300Y-101083771D01*
X61646300Y-101063714D01*
X61646300Y-101063711D01*
X61645637Y-101060164D01*
X61644835Y-101053257D01*
X61643339Y-101020891D01*
X61639306Y-101011759D01*
X61632446Y-100989602D01*
X61630615Y-100979804D01*
X61630612Y-100979798D01*
X61613567Y-100952269D01*
X61610314Y-100946098D01*
X61597235Y-100916477D01*
X61597235Y-100916476D01*
X61590174Y-100909415D01*
X61575780Y-100891242D01*
X61570527Y-100882758D01*
X61544686Y-100863244D01*
X61539425Y-100858666D01*
X60913764Y-100233005D01*
X60885538Y-100177607D01*
X60884299Y-100161882D01*
X60884299Y-98682114D01*
X60903512Y-98622984D01*
X60908871Y-98616235D01*
X60908872Y-98616234D01*
X60968002Y-98547996D01*
X61022676Y-98428275D01*
X61041407Y-98298000D01*
X61022676Y-98167725D01*
X60968002Y-98048004D01*
X60881812Y-97948536D01*
X60826451Y-97912957D01*
X60771090Y-97877379D01*
X60644807Y-97840300D01*
X60513193Y-97840300D01*
X60386910Y-97877379D01*
X60386909Y-97877379D01*
X60276186Y-97948537D01*
X60189998Y-98048003D01*
X60136269Y-98165656D01*
X60135324Y-98167725D01*
X60116593Y-98298000D01*
X60135324Y-98428275D01*
X60189998Y-98547996D01*
X60249128Y-98616235D01*
X60273331Y-98673504D01*
X60273700Y-98682114D01*
X60273700Y-100263788D01*
X60271444Y-100277686D01*
X60272678Y-100277858D01*
X60271390Y-100287090D01*
X60273646Y-100335896D01*
X60273700Y-100338219D01*
X60273700Y-100358294D01*
X60274362Y-100361833D01*
X60275164Y-100368753D01*
X60276661Y-100401104D01*
X60276662Y-100401109D01*
X60280692Y-100410237D01*
X60287550Y-100432382D01*
X60289384Y-100442196D01*
X60289385Y-100442197D01*
X60306436Y-100469735D01*
X60309683Y-100475896D01*
X60322765Y-100505524D01*
X60329823Y-100512582D01*
X60344219Y-100530757D01*
X60349472Y-100539241D01*
X60375315Y-100558757D01*
X60380576Y-100563335D01*
X61006234Y-101188994D01*
X61034460Y-101244392D01*
X61035699Y-101260129D01*
X61035699Y-101720687D01*
X61016486Y-101779818D01*
X60966186Y-101816363D01*
X60905008Y-101816363D01*
X60904995Y-101816407D01*
X60904845Y-101816363D01*
X60904012Y-101816363D01*
X60901456Y-101815367D01*
X60771807Y-101777300D01*
X60640193Y-101777300D01*
X60513910Y-101814379D01*
X60513909Y-101814379D01*
X60403187Y-101885536D01*
X60395004Y-101894981D01*
X60341761Y-101927086D01*
X60318977Y-101929700D01*
X59883211Y-101929700D01*
X59869314Y-101927432D01*
X59869141Y-101928678D01*
X59859910Y-101927390D01*
X59811104Y-101929646D01*
X59808781Y-101929700D01*
X59788707Y-101929700D01*
X59785154Y-101930363D01*
X59778241Y-101931165D01*
X59745895Y-101932661D01*
X59745890Y-101932662D01*
X59736758Y-101936694D01*
X59714618Y-101943549D01*
X59704806Y-101945383D01*
X59704804Y-101945384D01*
X59677267Y-101962434D01*
X59671098Y-101965685D01*
X59641474Y-101978766D01*
X59634409Y-101985830D01*
X59616250Y-102000213D01*
X59607761Y-102005469D01*
X59607759Y-102005471D01*
X59588242Y-102031315D01*
X59583665Y-102036574D01*
X57307006Y-104313235D01*
X57251608Y-104341461D01*
X57235871Y-104342700D01*
X51374211Y-104342700D01*
X51360314Y-104340432D01*
X51360141Y-104341678D01*
X51350910Y-104340390D01*
X51302104Y-104342646D01*
X51299781Y-104342700D01*
X51279707Y-104342700D01*
X51276154Y-104343363D01*
X51269241Y-104344165D01*
X51236895Y-104345661D01*
X51236890Y-104345662D01*
X51227758Y-104349694D01*
X51205618Y-104356549D01*
X51195806Y-104358383D01*
X51195804Y-104358384D01*
X51168267Y-104375434D01*
X51162098Y-104378685D01*
X51132474Y-104391766D01*
X51125409Y-104398830D01*
X51107250Y-104413213D01*
X51098761Y-104418469D01*
X51098759Y-104418471D01*
X51079242Y-104444315D01*
X51074665Y-104449574D01*
X50347406Y-105176835D01*
X50292008Y-105205061D01*
X50276271Y-105206300D01*
X50226193Y-105206300D01*
X50099910Y-105243379D01*
X50099909Y-105243379D01*
X49989186Y-105314537D01*
X49902998Y-105414003D01*
X49848324Y-105533724D01*
X49831605Y-105650009D01*
X49829593Y-105664000D01*
X49848324Y-105794275D01*
X49902998Y-105913996D01*
X49989188Y-106013464D01*
X50099909Y-106084620D01*
X50226193Y-106121700D01*
X50357807Y-106121700D01*
X50484091Y-106084620D01*
X50594812Y-106013464D01*
X50681002Y-105913996D01*
X50717730Y-105833570D01*
X50759770Y-105787764D01*
X50820706Y-105775417D01*
X50877262Y-105801244D01*
X50907835Y-105855382D01*
X50908889Y-105870699D01*
X50909539Y-105870659D01*
X50920220Y-106040418D01*
X50920221Y-106040426D01*
X50939908Y-106101016D01*
X50970829Y-106196185D01*
X50970829Y-106196186D01*
X51034000Y-106295725D01*
X51058584Y-106334462D01*
X51122276Y-106394273D01*
X51177970Y-106446574D01*
X51321479Y-106525469D01*
X51321482Y-106525469D01*
X51321485Y-106525471D01*
X51420236Y-106550826D01*
X51480112Y-106566200D01*
X51480113Y-106566200D01*
X51602776Y-106566200D01*
X51602783Y-106566200D01*
X51724482Y-106550826D01*
X51876755Y-106490537D01*
X52009250Y-106394273D01*
X52113643Y-106268084D01*
X52183375Y-106119897D01*
X52214063Y-105959024D01*
X52203779Y-105795574D01*
X52153171Y-105639816D01*
X52153170Y-105639814D01*
X52153170Y-105639813D01*
X52075629Y-105517631D01*
X52065416Y-105501538D01*
X51946031Y-105389427D01*
X51946029Y-105389425D01*
X51802520Y-105310530D01*
X51802515Y-105310529D01*
X51643887Y-105269800D01*
X51521217Y-105269800D01*
X51521212Y-105269800D01*
X51399521Y-105285173D01*
X51359629Y-105300967D01*
X51297577Y-105304870D01*
X51245082Y-105271555D01*
X51222195Y-105213746D01*
X51237658Y-105153526D01*
X51251459Y-105136299D01*
X51404993Y-104982765D01*
X51460392Y-104954539D01*
X51476129Y-104953300D01*
X57337789Y-104953300D01*
X57351685Y-104955567D01*
X57351859Y-104954322D01*
X57361085Y-104955608D01*
X57361090Y-104955610D01*
X57390538Y-104954248D01*
X57409896Y-104953354D01*
X57412219Y-104953300D01*
X57432284Y-104953300D01*
X57432289Y-104953300D01*
X57435837Y-104952636D01*
X57442748Y-104951834D01*
X57475109Y-104950338D01*
X57484235Y-104946308D01*
X57506387Y-104939448D01*
X57516197Y-104937615D01*
X57543735Y-104920562D01*
X57549894Y-104917315D01*
X57579525Y-104904234D01*
X57586579Y-104897178D01*
X57604759Y-104882778D01*
X57613242Y-104877527D01*
X57632764Y-104851673D01*
X57637327Y-104846430D01*
X57835758Y-104647999D01*
X59362635Y-104647999D01*
X59383219Y-104817521D01*
X59443774Y-104977194D01*
X59443774Y-104977195D01*
X59506804Y-105068509D01*
X59747782Y-104827532D01*
X59803180Y-104799306D01*
X59864588Y-104809032D01*
X59890052Y-104827532D01*
X59891466Y-104828946D01*
X59919692Y-104884344D01*
X59909966Y-104945752D01*
X59891466Y-104971216D01*
X59649040Y-105213642D01*
X59668602Y-105230973D01*
X59819810Y-105310333D01*
X59985613Y-105351199D01*
X59985620Y-105351200D01*
X60156380Y-105351200D01*
X60156386Y-105351199D01*
X60322187Y-105310333D01*
X60473398Y-105230971D01*
X60492957Y-105213641D01*
X60250533Y-104971217D01*
X60222307Y-104915819D01*
X60232033Y-104854411D01*
X60250508Y-104828972D01*
X60251238Y-104828241D01*
X60251240Y-104828240D01*
X60251241Y-104828238D01*
X60251921Y-104827558D01*
X60307309Y-104799312D01*
X60368721Y-104809017D01*
X60394216Y-104827533D01*
X60635193Y-105068509D01*
X60698223Y-104977197D01*
X60698226Y-104977193D01*
X60758780Y-104817521D01*
X60779364Y-104648000D01*
X60758780Y-104478478D01*
X60698226Y-104318807D01*
X60635193Y-104227489D01*
X60394216Y-104468466D01*
X60338818Y-104496692D01*
X60277409Y-104486966D01*
X60251946Y-104468466D01*
X60250532Y-104467052D01*
X60222306Y-104411654D01*
X60232032Y-104350246D01*
X60250532Y-104324782D01*
X60492958Y-104082356D01*
X60473397Y-104065026D01*
X60322189Y-103985666D01*
X60156386Y-103944800D01*
X59985613Y-103944800D01*
X59819810Y-103985666D01*
X59668603Y-104065026D01*
X59649041Y-104082357D01*
X59891467Y-104324782D01*
X59919693Y-104380180D01*
X59909967Y-104441588D01*
X59891492Y-104467027D01*
X59890078Y-104468442D01*
X59834690Y-104496688D01*
X59773278Y-104486983D01*
X59747783Y-104468467D01*
X59506805Y-104227489D01*
X59506804Y-104227489D01*
X59443774Y-104318804D01*
X59443774Y-104318805D01*
X59383219Y-104478478D01*
X59362635Y-104647999D01*
X57835758Y-104647999D01*
X59913994Y-102569765D01*
X59969393Y-102541539D01*
X59985130Y-102540300D01*
X60318977Y-102540300D01*
X60378108Y-102559513D01*
X60395002Y-102575017D01*
X60403188Y-102584464D01*
X60513909Y-102655620D01*
X60640193Y-102692700D01*
X60771807Y-102692700D01*
X60898091Y-102655620D01*
X60898090Y-102655620D01*
X60904995Y-102653593D01*
X60905824Y-102656417D01*
X60954922Y-102650776D01*
X61009065Y-102681340D01*
X61034903Y-102737891D01*
X61035454Y-102744728D01*
X61035646Y-102748894D01*
X61035700Y-102751218D01*
X61035700Y-102771294D01*
X61036362Y-102774833D01*
X61037164Y-102781753D01*
X61038661Y-102814104D01*
X61038662Y-102814109D01*
X61042692Y-102823237D01*
X61049550Y-102845382D01*
X61051384Y-102855196D01*
X61051385Y-102855197D01*
X61068436Y-102882735D01*
X61071683Y-102888896D01*
X61084765Y-102918524D01*
X61091823Y-102925582D01*
X61106219Y-102943757D01*
X61111472Y-102952241D01*
X61137315Y-102971757D01*
X61142576Y-102976335D01*
X61586303Y-103420063D01*
X61594535Y-103431484D01*
X61595529Y-103430734D01*
X61601144Y-103438169D01*
X61601145Y-103438171D01*
X61637237Y-103471073D01*
X61638918Y-103472678D01*
X61653123Y-103486883D01*
X61656099Y-103488922D01*
X61661559Y-103493246D01*
X61685496Y-103515067D01*
X61685497Y-103515067D01*
X61685498Y-103515068D01*
X61690116Y-103516856D01*
X61694796Y-103518669D01*
X61715311Y-103529483D01*
X61723544Y-103535123D01*
X61723545Y-103535123D01*
X61723546Y-103535124D01*
X61755073Y-103542538D01*
X61761728Y-103544599D01*
X61791930Y-103556300D01*
X61801913Y-103556300D01*
X61824944Y-103558972D01*
X61834652Y-103561255D01*
X61834656Y-103561256D01*
X61866724Y-103556782D01*
X61873678Y-103556300D01*
X64220871Y-103556300D01*
X64280002Y-103575513D01*
X64292006Y-103585765D01*
X64367665Y-103661424D01*
X64395891Y-103716822D01*
X64386165Y-103778230D01*
X64342201Y-103822194D01*
X64280793Y-103831920D01*
X64268189Y-103829084D01*
X64200810Y-103809300D01*
X64200807Y-103809300D01*
X64069193Y-103809300D01*
X63942910Y-103846379D01*
X63942909Y-103846379D01*
X63832186Y-103917537D01*
X63745998Y-104017003D01*
X63691324Y-104136724D01*
X63672211Y-104269652D01*
X63644778Y-104325446D01*
X63643770Y-104326469D01*
X59178006Y-108792235D01*
X59122608Y-108820461D01*
X59106871Y-108821700D01*
X57206122Y-108821700D01*
X57146991Y-108802487D01*
X57110446Y-108752187D01*
X57110446Y-108690013D01*
X57131778Y-108653326D01*
X57155722Y-108627061D01*
X57225047Y-108551015D01*
X57342405Y-108361476D01*
X57355481Y-108327724D01*
X57363019Y-108308263D01*
X57422936Y-108153599D01*
X57463900Y-107934465D01*
X57463900Y-107711535D01*
X57422936Y-107492401D01*
X57390723Y-107409250D01*
X57342408Y-107284530D01*
X57342404Y-107284523D01*
X57225046Y-107094984D01*
X57225042Y-107094979D01*
X57074860Y-106930238D01*
X57074859Y-106930237D01*
X56896958Y-106795893D01*
X56896954Y-106795891D01*
X56896953Y-106795890D01*
X56697402Y-106696525D01*
X56697401Y-106696524D01*
X56574357Y-106661515D01*
X56482979Y-106635516D01*
X56482976Y-106635515D01*
X56482974Y-106635515D01*
X56384568Y-106626397D01*
X56316611Y-106620100D01*
X56205389Y-106620100D01*
X56143728Y-106625813D01*
X56039025Y-106635515D01*
X56039024Y-106635515D01*
X55824598Y-106696524D01*
X55824597Y-106696525D01*
X55625046Y-106795890D01*
X55625045Y-106795891D01*
X55447139Y-106930238D01*
X55296957Y-107094979D01*
X55296953Y-107094984D01*
X55179595Y-107284523D01*
X55179591Y-107284530D01*
X55099065Y-107492397D01*
X55099064Y-107492399D01*
X55099064Y-107492401D01*
X55058100Y-107711535D01*
X55058100Y-107934465D01*
X55098407Y-108150086D01*
X55099065Y-108153602D01*
X55179591Y-108361469D01*
X55179595Y-108361476D01*
X55296953Y-108551015D01*
X55296957Y-108551020D01*
X55390222Y-108653326D01*
X55415860Y-108709968D01*
X55403309Y-108770862D01*
X55357362Y-108812749D01*
X55315878Y-108821700D01*
X50581484Y-108821700D01*
X50522353Y-108802487D01*
X50505456Y-108786979D01*
X50467813Y-108743537D01*
X50467812Y-108743536D01*
X50412451Y-108707958D01*
X50357090Y-108672379D01*
X50230807Y-108635300D01*
X50099193Y-108635300D01*
X49972910Y-108672379D01*
X49972909Y-108672379D01*
X49862186Y-108743537D01*
X49783328Y-108834544D01*
X49730085Y-108866651D01*
X49668139Y-108861330D01*
X49621151Y-108820614D01*
X49606700Y-108768665D01*
X49606700Y-99851860D01*
X49625913Y-99792729D01*
X49636165Y-99780725D01*
X50250725Y-99166165D01*
X50306123Y-99137939D01*
X50321860Y-99136700D01*
X55330382Y-99136700D01*
X55336951Y-99137130D01*
X55350054Y-99138855D01*
X55371998Y-99141745D01*
X55372000Y-99141745D01*
X55372003Y-99141745D01*
X55524637Y-99121650D01*
X55666868Y-99062736D01*
X55666867Y-99062736D01*
X55666873Y-99062734D01*
X55789013Y-98969013D01*
X55882734Y-98846873D01*
X55941650Y-98704637D01*
X55949555Y-98644592D01*
X55961745Y-98552003D01*
X55961745Y-98551996D01*
X55941650Y-98399363D01*
X55882734Y-98257128D01*
X55789013Y-98134987D01*
X55767226Y-98118269D01*
X55666873Y-98041266D01*
X55666872Y-98041265D01*
X55666870Y-98041264D01*
X55666868Y-98041263D01*
X55524637Y-97982349D01*
X55372003Y-97962255D01*
X55371998Y-97962255D01*
X55350054Y-97965144D01*
X55336951Y-97966869D01*
X55330382Y-97967300D01*
X50079617Y-97967300D01*
X50073046Y-97966869D01*
X50052818Y-97964206D01*
X50038001Y-97962255D01*
X50037997Y-97962255D01*
X50004620Y-97966649D01*
X50004602Y-97966652D01*
X49885366Y-97982348D01*
X49809253Y-98013876D01*
X49794534Y-98019973D01*
X49743135Y-98041263D01*
X49743125Y-98041267D01*
X49715954Y-98062117D01*
X49620986Y-98134987D01*
X49620985Y-98134988D01*
X49599462Y-98163037D01*
X49595120Y-98167988D01*
X48813235Y-98949874D01*
X48757837Y-98978100D01*
X48696429Y-98968374D01*
X48652465Y-98924411D01*
X48641500Y-98878739D01*
X48641500Y-94361000D01*
X53520132Y-94361000D01*
X53540730Y-94530643D01*
X53580010Y-94634213D01*
X53601329Y-94690427D01*
X53601329Y-94690428D01*
X53698404Y-94831065D01*
X53698408Y-94831069D01*
X53826314Y-94944385D01*
X53826315Y-94944386D01*
X53826317Y-94944387D01*
X53977628Y-95023801D01*
X53977629Y-95023801D01*
X53977632Y-95023803D01*
X54143555Y-95064700D01*
X54143559Y-95064700D01*
X54314441Y-95064700D01*
X54314445Y-95064700D01*
X54480368Y-95023803D01*
X54631683Y-94944387D01*
X54759595Y-94831066D01*
X54821073Y-94742000D01*
X61132593Y-94742000D01*
X61151324Y-94872275D01*
X61205998Y-94991996D01*
X61292188Y-95091464D01*
X61402909Y-95162620D01*
X61529193Y-95199700D01*
X61660807Y-95199700D01*
X61787091Y-95162620D01*
X61897812Y-95091464D01*
X61984002Y-94991996D01*
X62038676Y-94872275D01*
X62057407Y-94742000D01*
X62038676Y-94611725D01*
X61984002Y-94492004D01*
X61924870Y-94423762D01*
X61900669Y-94366494D01*
X61900300Y-94357885D01*
X61900300Y-94106999D01*
X62402593Y-94106999D01*
X62421324Y-94237275D01*
X62475998Y-94356996D01*
X62509281Y-94395407D01*
X62562188Y-94456464D01*
X62672909Y-94527620D01*
X62799193Y-94564700D01*
X62846613Y-94564700D01*
X62905744Y-94583913D01*
X62942289Y-94634213D01*
X62946188Y-94679615D01*
X62937219Y-94741999D01*
X62935993Y-94750529D01*
X62954724Y-94880804D01*
X63009398Y-95000525D01*
X63088197Y-95091464D01*
X63095588Y-95099993D01*
X63206309Y-95171149D01*
X63332593Y-95208229D01*
X63464207Y-95208229D01*
X63573758Y-95176062D01*
X63635907Y-95177837D01*
X63685142Y-95215804D01*
X63702700Y-95272587D01*
X63702700Y-100893947D01*
X63700444Y-100907845D01*
X63701678Y-100908017D01*
X63700390Y-100917250D01*
X63702645Y-100966055D01*
X63702699Y-100968375D01*
X63702699Y-100988450D01*
X63703362Y-100991994D01*
X63704164Y-100998914D01*
X63705660Y-101031264D01*
X63705662Y-101031269D01*
X63709692Y-101040397D01*
X63716550Y-101062542D01*
X63718384Y-101072356D01*
X63718385Y-101072357D01*
X63735436Y-101099895D01*
X63738683Y-101106056D01*
X63751765Y-101135684D01*
X63758823Y-101142742D01*
X63773219Y-101160917D01*
X63778472Y-101169401D01*
X63804315Y-101188917D01*
X63809576Y-101193495D01*
X67940435Y-105324354D01*
X67968661Y-105379752D01*
X67969900Y-105395489D01*
X67969900Y-116214988D01*
X67967644Y-116228886D01*
X67968878Y-116229058D01*
X67967590Y-116238290D01*
X67969846Y-116287096D01*
X67969900Y-116289419D01*
X67969900Y-116309494D01*
X67970562Y-116313033D01*
X67971364Y-116319953D01*
X67972861Y-116352304D01*
X67972862Y-116352309D01*
X67976892Y-116361437D01*
X67983750Y-116383582D01*
X67985584Y-116393396D01*
X67985585Y-116393397D01*
X68002636Y-116420935D01*
X68005883Y-116427096D01*
X68018965Y-116456724D01*
X68026023Y-116463782D01*
X68040419Y-116481957D01*
X68045672Y-116490441D01*
X68071515Y-116509957D01*
X68076776Y-116514535D01*
X69485770Y-117923529D01*
X69513996Y-117978927D01*
X69514211Y-117980347D01*
X69533323Y-118113274D01*
X69563202Y-118178700D01*
X69587998Y-118232996D01*
X69674188Y-118332464D01*
X69784909Y-118403620D01*
X69911193Y-118440700D01*
X70042807Y-118440700D01*
X70169091Y-118403620D01*
X70279812Y-118332464D01*
X70366002Y-118232996D01*
X70420676Y-118113275D01*
X70439407Y-117983000D01*
X70420676Y-117852725D01*
X70366002Y-117733004D01*
X70289436Y-117644643D01*
X70279813Y-117633537D01*
X70279812Y-117633536D01*
X70224451Y-117597957D01*
X70169090Y-117562379D01*
X70042807Y-117525300D01*
X69992730Y-117525300D01*
X69933599Y-117506087D01*
X69921595Y-117495835D01*
X69900760Y-117475000D01*
X81841132Y-117475000D01*
X81861730Y-117644643D01*
X81922329Y-117804426D01*
X81922329Y-117804427D01*
X81922329Y-117804428D01*
X82019404Y-117945065D01*
X82019408Y-117945069D01*
X82147314Y-118058385D01*
X82147315Y-118058386D01*
X82147317Y-118058387D01*
X82298628Y-118137801D01*
X82298629Y-118137801D01*
X82298632Y-118137803D01*
X82464555Y-118178700D01*
X82464559Y-118178700D01*
X82635441Y-118178700D01*
X82635445Y-118178700D01*
X82801368Y-118137803D01*
X82952683Y-118058387D01*
X83080595Y-117945066D01*
X83177671Y-117804427D01*
X83238270Y-117644643D01*
X83258868Y-117475000D01*
X95461202Y-117475000D01*
X95481547Y-117681561D01*
X95481547Y-117681563D01*
X95481548Y-117681566D01*
X95541795Y-117880179D01*
X95541798Y-117880186D01*
X95639637Y-118063230D01*
X95639642Y-118063237D01*
X95771316Y-118223682D01*
X95771317Y-118223683D01*
X95931762Y-118355357D01*
X95931769Y-118355362D01*
X96114813Y-118453201D01*
X96114820Y-118453204D01*
X96276458Y-118502235D01*
X96313439Y-118513453D01*
X96520000Y-118533798D01*
X96726561Y-118513453D01*
X96839779Y-118479109D01*
X96925179Y-118453204D01*
X96925186Y-118453201D01*
X97108230Y-118355362D01*
X97108231Y-118355360D01*
X97108237Y-118355358D01*
X97268683Y-118223683D01*
X97400358Y-118063237D01*
X97402951Y-118058387D01*
X97498201Y-117880186D01*
X97498204Y-117880179D01*
X97558451Y-117681566D01*
X97558453Y-117681561D01*
X97578798Y-117475000D01*
X97558453Y-117268439D01*
X97547235Y-117231458D01*
X97498204Y-117069820D01*
X97498201Y-117069813D01*
X97400362Y-116886769D01*
X97400357Y-116886762D01*
X97268683Y-116726317D01*
X97268682Y-116726316D01*
X97108237Y-116594642D01*
X97108230Y-116594637D01*
X96925186Y-116496798D01*
X96925179Y-116496795D01*
X96726566Y-116436548D01*
X96726563Y-116436547D01*
X96726561Y-116436547D01*
X96520000Y-116416202D01*
X96313439Y-116436547D01*
X96313437Y-116436547D01*
X96313433Y-116436548D01*
X96114820Y-116496795D01*
X96114813Y-116496798D01*
X95931769Y-116594637D01*
X95931762Y-116594642D01*
X95771317Y-116726316D01*
X95771316Y-116726317D01*
X95639642Y-116886762D01*
X95639637Y-116886769D01*
X95541798Y-117069813D01*
X95541795Y-117069820D01*
X95481548Y-117268433D01*
X95481547Y-117268437D01*
X95481547Y-117268439D01*
X95461202Y-117475000D01*
X83258868Y-117475000D01*
X83238270Y-117305357D01*
X83177671Y-117145573D01*
X83080595Y-117004934D01*
X83080591Y-117004930D01*
X82952685Y-116891614D01*
X82952684Y-116891613D01*
X82801370Y-116812198D01*
X82801372Y-116812198D01*
X82635445Y-116771300D01*
X82464555Y-116771300D01*
X82464554Y-116771300D01*
X82298628Y-116812198D01*
X82147315Y-116891613D01*
X82147314Y-116891614D01*
X82019408Y-117004930D01*
X82019404Y-117004934D01*
X81922329Y-117145571D01*
X81922329Y-117145572D01*
X81922329Y-117145573D01*
X81861730Y-117305357D01*
X81841132Y-117475000D01*
X69900760Y-117475000D01*
X68609965Y-116184205D01*
X68581739Y-116128807D01*
X68580500Y-116113070D01*
X68580500Y-105293571D01*
X68582767Y-105279674D01*
X68581522Y-105279501D01*
X68582808Y-105270275D01*
X68582810Y-105270270D01*
X68580993Y-105230971D01*
X68580554Y-105221463D01*
X68580500Y-105219140D01*
X68580500Y-105197138D01*
X68599713Y-105138007D01*
X68650013Y-105101462D01*
X68659582Y-105099347D01*
X68659536Y-105099157D01*
X68705222Y-105087895D01*
X68759971Y-105074400D01*
X68821981Y-105078902D01*
X68855182Y-105100941D01*
X72690235Y-108935994D01*
X72718461Y-108991392D01*
X72719700Y-109007129D01*
X72719700Y-114550885D01*
X72700487Y-114610016D01*
X72695134Y-114616756D01*
X72647616Y-114671595D01*
X72635997Y-114685005D01*
X72581324Y-114804724D01*
X72562592Y-114934999D01*
X72562593Y-114935000D01*
X72581324Y-115065275D01*
X72635998Y-115184996D01*
X72722188Y-115284464D01*
X72832909Y-115355620D01*
X72959193Y-115392700D01*
X73090807Y-115392700D01*
X73217091Y-115355620D01*
X73327812Y-115284464D01*
X73414002Y-115184996D01*
X73468676Y-115065275D01*
X73487407Y-114935000D01*
X73468676Y-114804725D01*
X73414002Y-114685004D01*
X73354870Y-114616762D01*
X73330669Y-114559494D01*
X73330300Y-114550885D01*
X73330300Y-108905215D01*
X73332567Y-108891320D01*
X73331322Y-108891147D01*
X73332609Y-108881914D01*
X73332608Y-108881913D01*
X73332610Y-108881910D01*
X73330811Y-108843004D01*
X73330354Y-108833103D01*
X73330300Y-108830780D01*
X73330300Y-108810711D01*
X73329636Y-108807164D01*
X73328834Y-108800240D01*
X73328451Y-108791983D01*
X73327338Y-108767891D01*
X73323307Y-108758762D01*
X73316447Y-108736606D01*
X73314615Y-108726803D01*
X73297563Y-108699264D01*
X73294310Y-108693092D01*
X73287683Y-108678083D01*
X73281234Y-108663475D01*
X73274176Y-108656417D01*
X73259781Y-108638244D01*
X73254527Y-108629758D01*
X73228683Y-108610241D01*
X73223425Y-108605666D01*
X69290376Y-104672617D01*
X69262150Y-104617219D01*
X69267057Y-104569612D01*
X69266813Y-104569552D01*
X69267243Y-104567803D01*
X69267450Y-104565805D01*
X69268268Y-104563647D01*
X69268270Y-104563643D01*
X69288868Y-104394000D01*
X69268270Y-104224357D01*
X69207671Y-104064573D01*
X69200194Y-104053741D01*
X69110595Y-103923934D01*
X69110591Y-103923930D01*
X68982683Y-103810612D01*
X68939149Y-103787764D01*
X68895719Y-103743272D01*
X68885300Y-103698687D01*
X68885300Y-103444211D01*
X68887567Y-103430314D01*
X68886322Y-103430141D01*
X68887608Y-103420915D01*
X68887610Y-103420910D01*
X68886273Y-103392008D01*
X68885354Y-103372103D01*
X68885300Y-103369780D01*
X68885300Y-103349711D01*
X68884636Y-103346164D01*
X68883834Y-103339240D01*
X68882856Y-103318100D01*
X68882338Y-103306891D01*
X68878307Y-103297762D01*
X68871447Y-103275606D01*
X68869615Y-103265803D01*
X68852563Y-103238264D01*
X68849310Y-103232092D01*
X68836234Y-103202475D01*
X68829176Y-103195417D01*
X68814781Y-103177244D01*
X68809527Y-103168758D01*
X68783683Y-103149241D01*
X68778425Y-103144666D01*
X66023229Y-100389470D01*
X65995003Y-100334072D01*
X65994788Y-100332652D01*
X65987246Y-100280197D01*
X65975676Y-100199725D01*
X65921002Y-100080004D01*
X65834812Y-99980536D01*
X65737369Y-99917913D01*
X65724090Y-99909379D01*
X65597807Y-99872300D01*
X65466193Y-99872300D01*
X65339910Y-99909379D01*
X65339909Y-99909379D01*
X65229186Y-99980537D01*
X65142998Y-100080003D01*
X65098425Y-100177607D01*
X65088324Y-100199725D01*
X65069593Y-100330000D01*
X65088324Y-100460275D01*
X65142998Y-100579996D01*
X65229188Y-100679464D01*
X65339909Y-100750620D01*
X65466193Y-100787700D01*
X65516271Y-100787700D01*
X65575402Y-100806913D01*
X65587406Y-100817165D01*
X68245235Y-103474994D01*
X68273461Y-103530392D01*
X68274700Y-103546129D01*
X68274700Y-103698687D01*
X68255487Y-103757818D01*
X68220851Y-103787764D01*
X68177316Y-103810612D01*
X68049408Y-103923930D01*
X68049404Y-103923934D01*
X67952329Y-104064571D01*
X67952326Y-104064577D01*
X67895272Y-104215015D01*
X67856339Y-104263490D01*
X67796349Y-104279823D01*
X67738215Y-104257776D01*
X67730075Y-104250476D01*
X66039112Y-102559513D01*
X64342762Y-100863163D01*
X64314538Y-100807768D01*
X64313300Y-100792043D01*
X64313300Y-99441000D01*
X66085593Y-99441000D01*
X66104324Y-99571275D01*
X66158998Y-99690996D01*
X66245188Y-99790464D01*
X66355909Y-99861620D01*
X66482193Y-99898700D01*
X66532271Y-99898700D01*
X66591402Y-99917913D01*
X66603406Y-99928165D01*
X69515235Y-102839994D01*
X69543461Y-102895392D01*
X69544700Y-102911129D01*
X69544700Y-104139922D01*
X69542444Y-104153820D01*
X69543678Y-104153992D01*
X69542390Y-104163224D01*
X69544646Y-104212030D01*
X69544700Y-104214353D01*
X69544700Y-104234428D01*
X69545362Y-104237967D01*
X69546164Y-104244887D01*
X69547661Y-104277238D01*
X69547662Y-104277243D01*
X69551692Y-104286371D01*
X69558550Y-104308516D01*
X69560384Y-104318330D01*
X69565273Y-104326226D01*
X69577436Y-104345869D01*
X69580683Y-104352030D01*
X69593765Y-104381658D01*
X69600823Y-104388716D01*
X69615219Y-104406891D01*
X69619133Y-104413213D01*
X69620473Y-104415376D01*
X69624574Y-104418473D01*
X69646315Y-104434891D01*
X69651576Y-104439469D01*
X73839168Y-108627061D01*
X73847401Y-108638484D01*
X73848395Y-108637734D01*
X73854012Y-108645172D01*
X73890114Y-108678083D01*
X73891795Y-108679688D01*
X73905990Y-108693883D01*
X73908962Y-108695919D01*
X73914425Y-108700246D01*
X73938362Y-108722067D01*
X73947670Y-108725673D01*
X73968181Y-108736485D01*
X73976413Y-108742124D01*
X74007947Y-108749540D01*
X74014586Y-108751596D01*
X74044796Y-108763300D01*
X74054776Y-108763300D01*
X74077807Y-108765971D01*
X74087523Y-108768257D01*
X74119598Y-108763782D01*
X74126552Y-108763300D01*
X74542977Y-108763300D01*
X74602108Y-108782513D01*
X74619002Y-108798017D01*
X74627188Y-108807464D01*
X74737909Y-108878620D01*
X74864193Y-108915700D01*
X74995807Y-108915700D01*
X75122091Y-108878620D01*
X75232812Y-108807464D01*
X75319002Y-108707996D01*
X75373676Y-108588275D01*
X75392407Y-108458000D01*
X75373676Y-108327725D01*
X75319002Y-108208004D01*
X75271081Y-108152700D01*
X75232813Y-108108537D01*
X75232812Y-108108536D01*
X75177451Y-108072957D01*
X75122090Y-108037379D01*
X74995807Y-108000300D01*
X74864193Y-108000300D01*
X74737910Y-108037379D01*
X74737909Y-108037379D01*
X74627187Y-108108536D01*
X74619004Y-108117981D01*
X74565761Y-108150086D01*
X74542977Y-108152700D01*
X74269996Y-108152700D01*
X74210865Y-108133487D01*
X74198861Y-108123235D01*
X73170605Y-107094979D01*
X71971259Y-105895634D01*
X71943034Y-105840237D01*
X71952760Y-105778829D01*
X71996724Y-105734865D01*
X72042395Y-105723900D01*
X72064607Y-105723900D01*
X72064611Y-105723900D01*
X72230979Y-105708484D01*
X72445399Y-105647476D01*
X72644958Y-105548107D01*
X72822860Y-105413762D01*
X72973047Y-105249015D01*
X73090405Y-105059476D01*
X73170936Y-104851599D01*
X73211900Y-104632465D01*
X73211900Y-104554394D01*
X73231113Y-104495264D01*
X73281413Y-104458719D01*
X73343587Y-104458719D01*
X73383635Y-104483260D01*
X74595234Y-105694859D01*
X74623460Y-105750257D01*
X74624699Y-105765994D01*
X74624700Y-106041885D01*
X74605487Y-106101016D01*
X74600134Y-106107756D01*
X74588054Y-106121699D01*
X74540997Y-106176005D01*
X74498947Y-106268084D01*
X74486324Y-106295725D01*
X74467593Y-106426000D01*
X74486324Y-106556275D01*
X74540998Y-106675996D01*
X74627188Y-106775464D01*
X74737909Y-106846620D01*
X74864193Y-106883700D01*
X74995807Y-106883700D01*
X75122091Y-106846620D01*
X75232812Y-106775464D01*
X75319002Y-106675996D01*
X75373676Y-106556275D01*
X75392407Y-106426000D01*
X75373676Y-106295725D01*
X75319002Y-106176004D01*
X75259870Y-106107762D01*
X75235669Y-106050494D01*
X75235300Y-106041885D01*
X75235300Y-105664078D01*
X75237567Y-105650182D01*
X75236322Y-105650009D01*
X75237608Y-105640780D01*
X75237610Y-105640776D01*
X75236291Y-105612256D01*
X75235354Y-105591959D01*
X75235300Y-105589637D01*
X75235300Y-105569580D01*
X75235300Y-105569577D01*
X75234637Y-105566030D01*
X75233835Y-105559123D01*
X75232339Y-105526758D01*
X75228305Y-105517622D01*
X75221449Y-105495483D01*
X75219615Y-105485669D01*
X75219613Y-105485666D01*
X75219613Y-105485664D01*
X75202567Y-105458136D01*
X75199318Y-105451973D01*
X75186235Y-105422341D01*
X75179174Y-105415280D01*
X75164776Y-105397102D01*
X75163777Y-105395489D01*
X75159527Y-105388624D01*
X75133687Y-105369110D01*
X75128429Y-105364535D01*
X74728897Y-104965003D01*
X79356255Y-104965003D01*
X79376349Y-105117637D01*
X79435263Y-105259868D01*
X79435267Y-105259875D01*
X79474136Y-105310530D01*
X79528987Y-105382013D01*
X79561587Y-105407028D01*
X79651124Y-105475732D01*
X79651131Y-105475736D01*
X79793362Y-105534650D01*
X79945997Y-105554745D01*
X79946000Y-105554745D01*
X79946003Y-105554745D01*
X80098637Y-105534650D01*
X80178572Y-105501540D01*
X80240873Y-105475734D01*
X80363013Y-105382013D01*
X80382737Y-105356306D01*
X80401307Y-105337737D01*
X80427013Y-105318013D01*
X80520734Y-105195872D01*
X80579650Y-105053637D01*
X80579650Y-105053636D01*
X80594700Y-104939322D01*
X80594700Y-100117617D01*
X80595131Y-100111044D01*
X80599745Y-100076001D01*
X80599745Y-100075996D01*
X80579650Y-99923363D01*
X80520734Y-99781128D01*
X80427013Y-99658987D01*
X80304870Y-99565264D01*
X80304868Y-99565263D01*
X80162637Y-99506349D01*
X80010003Y-99486255D01*
X80009997Y-99486255D01*
X79857363Y-99506349D01*
X79715128Y-99565265D01*
X79592987Y-99658987D01*
X79499265Y-99781128D01*
X79440349Y-99923363D01*
X79420255Y-100075996D01*
X79420255Y-100076001D01*
X79424869Y-100111044D01*
X79425300Y-100117617D01*
X79425300Y-104674176D01*
X79417642Y-104712674D01*
X79376349Y-104812362D01*
X79356255Y-104964996D01*
X79356255Y-104965003D01*
X74728897Y-104965003D01*
X67892833Y-98128940D01*
X67884614Y-98117507D01*
X67883607Y-98118269D01*
X67877987Y-98110827D01*
X67841884Y-98077915D01*
X67840203Y-98076310D01*
X67826009Y-98062116D01*
X67823035Y-98060079D01*
X67817576Y-98055755D01*
X67793638Y-98033933D01*
X67793636Y-98033932D01*
X67784331Y-98030327D01*
X67763821Y-98019516D01*
X67755587Y-98013876D01*
X67724062Y-98006461D01*
X67717400Y-98004398D01*
X67713244Y-98002788D01*
X67687204Y-97992700D01*
X67687203Y-97992700D01*
X67677225Y-97992700D01*
X67654193Y-97990028D01*
X67644478Y-97987743D01*
X67644477Y-97987743D01*
X67632326Y-97989438D01*
X67612404Y-97992217D01*
X67605450Y-97992700D01*
X66935023Y-97992700D01*
X66875892Y-97973487D01*
X66858996Y-97957981D01*
X66850812Y-97948536D01*
X66740090Y-97877379D01*
X66613807Y-97840300D01*
X66482193Y-97840300D01*
X66355910Y-97877379D01*
X66355909Y-97877379D01*
X66245186Y-97948537D01*
X66158998Y-98048003D01*
X66104324Y-98167724D01*
X66085593Y-98298000D01*
X66104324Y-98428275D01*
X66158998Y-98547996D01*
X66209184Y-98605914D01*
X66245188Y-98647464D01*
X66355909Y-98718620D01*
X66482193Y-98755700D01*
X66613807Y-98755700D01*
X66740091Y-98718620D01*
X66850812Y-98647464D01*
X66858996Y-98638018D01*
X66912239Y-98605914D01*
X66935023Y-98603300D01*
X67462005Y-98603300D01*
X67521136Y-98622513D01*
X67533140Y-98632765D01*
X72046740Y-103146365D01*
X72074966Y-103201763D01*
X72065240Y-103263171D01*
X72021276Y-103307135D01*
X71975605Y-103318100D01*
X71953389Y-103318100D01*
X71891728Y-103323813D01*
X71787025Y-103333515D01*
X71787024Y-103333515D01*
X71572598Y-103394524D01*
X71572597Y-103394525D01*
X71373046Y-103493890D01*
X71373045Y-103493891D01*
X71373043Y-103493892D01*
X71373042Y-103493893D01*
X71345004Y-103515066D01*
X71195139Y-103628238D01*
X71044957Y-103792979D01*
X71044953Y-103792984D01*
X70927595Y-103982523D01*
X70927591Y-103982530D01*
X70847065Y-104190397D01*
X70847064Y-104190399D01*
X70847064Y-104190401D01*
X70840165Y-104227307D01*
X70806100Y-104409533D01*
X70806100Y-104487604D01*
X70786887Y-104546735D01*
X70736587Y-104583280D01*
X70674413Y-104583280D01*
X70634365Y-104558739D01*
X70184765Y-104109139D01*
X70156539Y-104053741D01*
X70155300Y-104038004D01*
X70155300Y-102809211D01*
X70157567Y-102795314D01*
X70156322Y-102795141D01*
X70157608Y-102785915D01*
X70157610Y-102785910D01*
X70155952Y-102750049D01*
X70155354Y-102737103D01*
X70155300Y-102734780D01*
X70155300Y-102714711D01*
X70154636Y-102711164D01*
X70153834Y-102704240D01*
X70153300Y-102692699D01*
X70152338Y-102671891D01*
X70148307Y-102662762D01*
X70141447Y-102640606D01*
X70139615Y-102630803D01*
X70122563Y-102603264D01*
X70119310Y-102597092D01*
X70116447Y-102590608D01*
X70106234Y-102567475D01*
X70099176Y-102560417D01*
X70084781Y-102542244D01*
X70079527Y-102533758D01*
X70053683Y-102514241D01*
X70048425Y-102509666D01*
X67039229Y-99500470D01*
X67011003Y-99445072D01*
X67010788Y-99443652D01*
X67010407Y-99441000D01*
X66991676Y-99310725D01*
X66937002Y-99191004D01*
X66850812Y-99091536D01*
X66795451Y-99055958D01*
X66740090Y-99020379D01*
X66613807Y-98983300D01*
X66482193Y-98983300D01*
X66355910Y-99020379D01*
X66355909Y-99020379D01*
X66245186Y-99091537D01*
X66158998Y-99191003D01*
X66158998Y-99191004D01*
X66104324Y-99310725D01*
X66085593Y-99441000D01*
X64313300Y-99441000D01*
X64313300Y-95885000D01*
X66085593Y-95885000D01*
X66104324Y-96015275D01*
X66158998Y-96134996D01*
X66245188Y-96234464D01*
X66355909Y-96305620D01*
X66482193Y-96342700D01*
X66613807Y-96342700D01*
X66740091Y-96305620D01*
X66850812Y-96234464D01*
X66937002Y-96134996D01*
X66991676Y-96015275D01*
X67010407Y-95885000D01*
X67010406Y-95884997D01*
X67010788Y-95882346D01*
X67038220Y-95826551D01*
X67039156Y-95825601D01*
X71597993Y-91266765D01*
X71653392Y-91238539D01*
X71669129Y-91237300D01*
X74542977Y-91237300D01*
X74602108Y-91256513D01*
X74619002Y-91272017D01*
X74627188Y-91281464D01*
X74737909Y-91352620D01*
X74864193Y-91389700D01*
X74995807Y-91389700D01*
X75122091Y-91352620D01*
X75232812Y-91281464D01*
X75319002Y-91181996D01*
X75373676Y-91062275D01*
X75392407Y-90932000D01*
X75373676Y-90801725D01*
X75319002Y-90682004D01*
X75269079Y-90624390D01*
X75232813Y-90582537D01*
X75232812Y-90582536D01*
X75124721Y-90513070D01*
X75122090Y-90511379D01*
X74995807Y-90474300D01*
X74864193Y-90474300D01*
X74737910Y-90511379D01*
X74737909Y-90511379D01*
X74627187Y-90582536D01*
X74619004Y-90591981D01*
X74565761Y-90624086D01*
X74542977Y-90626700D01*
X71567212Y-90626700D01*
X71553316Y-90624432D01*
X71553143Y-90625678D01*
X71543911Y-90624390D01*
X71543910Y-90624390D01*
X71540875Y-90624530D01*
X71495095Y-90626646D01*
X71492773Y-90626700D01*
X71472711Y-90626700D01*
X71472708Y-90626700D01*
X71472698Y-90626701D01*
X71469162Y-90627362D01*
X71462247Y-90628164D01*
X71429895Y-90629660D01*
X71429891Y-90629661D01*
X71420757Y-90633694D01*
X71398615Y-90640550D01*
X71388806Y-90642383D01*
X71388801Y-90642385D01*
X71361268Y-90659432D01*
X71355102Y-90662682D01*
X71325476Y-90675765D01*
X71325471Y-90675769D01*
X71318411Y-90682828D01*
X71300248Y-90697215D01*
X71291760Y-90702471D01*
X71291759Y-90702471D01*
X71272242Y-90728315D01*
X71267665Y-90733574D01*
X66603406Y-95397835D01*
X66548008Y-95426061D01*
X66532271Y-95427300D01*
X66482193Y-95427300D01*
X66355910Y-95464379D01*
X66355909Y-95464379D01*
X66245186Y-95535537D01*
X66158998Y-95635003D01*
X66158998Y-95635004D01*
X66104324Y-95754725D01*
X66085593Y-95885000D01*
X64313300Y-95885000D01*
X64313300Y-94491113D01*
X64332513Y-94431983D01*
X64337864Y-94425243D01*
X64397002Y-94356996D01*
X64451676Y-94237275D01*
X64470407Y-94107000D01*
X64470406Y-94106997D01*
X64470788Y-94104346D01*
X64498220Y-94048551D01*
X64499156Y-94047601D01*
X64734999Y-93811758D01*
X64790395Y-93783534D01*
X64851803Y-93793260D01*
X64895767Y-93837224D01*
X64905493Y-93898632D01*
X64891666Y-93935850D01*
X64886932Y-93943495D01*
X64883322Y-93952813D01*
X64872517Y-93973311D01*
X64866878Y-93981542D01*
X64866875Y-93981550D01*
X64859460Y-94013074D01*
X64857397Y-94019734D01*
X64845699Y-94049930D01*
X64845699Y-94059913D01*
X64843028Y-94082934D01*
X64840743Y-94092651D01*
X64840742Y-94092655D01*
X64845217Y-94124725D01*
X64845700Y-94131683D01*
X64845700Y-94357885D01*
X64826487Y-94417016D01*
X64821134Y-94423756D01*
X64792794Y-94456464D01*
X64761997Y-94492005D01*
X64728799Y-94564700D01*
X64707324Y-94611725D01*
X64688593Y-94742000D01*
X64707324Y-94872275D01*
X64761998Y-94991996D01*
X64848188Y-95091464D01*
X64958909Y-95162620D01*
X65085193Y-95199700D01*
X65216807Y-95199700D01*
X65343091Y-95162620D01*
X65453812Y-95091464D01*
X65540002Y-94991996D01*
X65594676Y-94872275D01*
X65613407Y-94742000D01*
X65594676Y-94611725D01*
X65540002Y-94492004D01*
X65480870Y-94423762D01*
X65456669Y-94366494D01*
X65456300Y-94357885D01*
X65456300Y-94275128D01*
X65475513Y-94215997D01*
X65485765Y-94203993D01*
X70454994Y-89234765D01*
X70510392Y-89206539D01*
X70526129Y-89205300D01*
X74542977Y-89205300D01*
X74602108Y-89224513D01*
X74619002Y-89240017D01*
X74627188Y-89249464D01*
X74737909Y-89320620D01*
X74864193Y-89357700D01*
X74995807Y-89357700D01*
X75122091Y-89320620D01*
X75232812Y-89249464D01*
X75319002Y-89149996D01*
X75373676Y-89030275D01*
X75392407Y-88900000D01*
X75373676Y-88769725D01*
X75319002Y-88650004D01*
X75269079Y-88592390D01*
X75232813Y-88550537D01*
X75232812Y-88550536D01*
X75161594Y-88504767D01*
X75122090Y-88479379D01*
X74995807Y-88442300D01*
X74864193Y-88442300D01*
X74737910Y-88479379D01*
X74737909Y-88479379D01*
X74627187Y-88550536D01*
X74619004Y-88559981D01*
X74565761Y-88592086D01*
X74542977Y-88594700D01*
X70424211Y-88594700D01*
X70410314Y-88592432D01*
X70410141Y-88593678D01*
X70400910Y-88592390D01*
X70352104Y-88594646D01*
X70349781Y-88594700D01*
X70329707Y-88594700D01*
X70326154Y-88595363D01*
X70319241Y-88596165D01*
X70286895Y-88597661D01*
X70286890Y-88597662D01*
X70277758Y-88601694D01*
X70255618Y-88608549D01*
X70245806Y-88610383D01*
X70245803Y-88610384D01*
X70218266Y-88627434D01*
X70212097Y-88630686D01*
X70174326Y-88647363D01*
X70112473Y-88653672D01*
X70058725Y-88622419D01*
X70033611Y-88565542D01*
X70046725Y-88504767D01*
X70062553Y-88484204D01*
X71416059Y-87130698D01*
X71427499Y-87122495D01*
X71426729Y-87121475D01*
X71434169Y-87115856D01*
X71434169Y-87115855D01*
X71434171Y-87115855D01*
X71467107Y-87079724D01*
X71468668Y-87078089D01*
X71482883Y-87063876D01*
X71484920Y-87060900D01*
X71489245Y-87055441D01*
X71511065Y-87031506D01*
X71511064Y-87031506D01*
X71511067Y-87031504D01*
X71514672Y-87022196D01*
X71525484Y-87001685D01*
X71531124Y-86993453D01*
X71538538Y-86961926D01*
X71540599Y-86955270D01*
X71552300Y-86925069D01*
X71554013Y-86915907D01*
X71556197Y-86916315D01*
X71571513Y-86869181D01*
X71606148Y-86839235D01*
X71649683Y-86816387D01*
X71777595Y-86703066D01*
X71861331Y-86581752D01*
X71910733Y-86544003D01*
X71944123Y-86538300D01*
X73085789Y-86538300D01*
X73099685Y-86540567D01*
X73099859Y-86539322D01*
X73109085Y-86540608D01*
X73109090Y-86540610D01*
X73138538Y-86539248D01*
X73157896Y-86538354D01*
X73160219Y-86538300D01*
X73180284Y-86538300D01*
X73180289Y-86538300D01*
X73183837Y-86537636D01*
X73190748Y-86536834D01*
X73223109Y-86535338D01*
X73232235Y-86531308D01*
X73254387Y-86524448D01*
X73264197Y-86522615D01*
X73291735Y-86505562D01*
X73297894Y-86502315D01*
X73327525Y-86489234D01*
X73334579Y-86482178D01*
X73352759Y-86467778D01*
X73361242Y-86462527D01*
X73380764Y-86436673D01*
X73385334Y-86431424D01*
X76906594Y-82910165D01*
X76961992Y-82881939D01*
X76977729Y-82880700D01*
X77027807Y-82880700D01*
X77154091Y-82843620D01*
X77264812Y-82772464D01*
X77351002Y-82672996D01*
X77405676Y-82553275D01*
X77424407Y-82423000D01*
X77405676Y-82292725D01*
X77351002Y-82173004D01*
X77264812Y-82073536D01*
X77209451Y-82037958D01*
X77154090Y-82002379D01*
X77027807Y-81965300D01*
X76896193Y-81965300D01*
X76769910Y-82002379D01*
X76769909Y-82002379D01*
X76659186Y-82073537D01*
X76572998Y-82173003D01*
X76518324Y-82292724D01*
X76499211Y-82425651D01*
X76471778Y-82481446D01*
X76470770Y-82482468D01*
X73055006Y-85898235D01*
X72999608Y-85926461D01*
X72983871Y-85927700D01*
X71944123Y-85927700D01*
X71884992Y-85908487D01*
X71861331Y-85884247D01*
X71777595Y-85762934D01*
X71777591Y-85762930D01*
X71649685Y-85649614D01*
X71649684Y-85649613D01*
X71498370Y-85570198D01*
X71498372Y-85570198D01*
X71332445Y-85529300D01*
X71161555Y-85529300D01*
X71161554Y-85529300D01*
X70995628Y-85570198D01*
X70844315Y-85649613D01*
X70844314Y-85649614D01*
X70716408Y-85762930D01*
X70716404Y-85762934D01*
X70619329Y-85903571D01*
X70619329Y-85903572D01*
X70571646Y-86029300D01*
X70558730Y-86063357D01*
X70538132Y-86233000D01*
X70558730Y-86402643D01*
X70611054Y-86540609D01*
X70619329Y-86562427D01*
X70619329Y-86562428D01*
X70716404Y-86703065D01*
X70716408Y-86703070D01*
X70776274Y-86756107D01*
X70807793Y-86809699D01*
X70801792Y-86871583D01*
X70780698Y-86902541D01*
X64063406Y-93619835D01*
X64008008Y-93648061D01*
X63992271Y-93649300D01*
X63942189Y-93649300D01*
X63883440Y-93666550D01*
X63821291Y-93664774D01*
X63772056Y-93626807D01*
X63754499Y-93570025D01*
X63754499Y-92344533D01*
X63754499Y-90892085D01*
X63773712Y-90832958D01*
X63783958Y-90820960D01*
X74083059Y-80521858D01*
X74094499Y-80513655D01*
X74093729Y-80512635D01*
X74101169Y-80507016D01*
X74101169Y-80507015D01*
X74101171Y-80507015D01*
X74134107Y-80470884D01*
X74135668Y-80469249D01*
X74149883Y-80455036D01*
X74151918Y-80452064D01*
X74156241Y-80446604D01*
X74178067Y-80422664D01*
X74181670Y-80413362D01*
X74192482Y-80392849D01*
X74198124Y-80384614D01*
X74205539Y-80353083D01*
X74207597Y-80346435D01*
X74219300Y-80316230D01*
X74219300Y-80306246D01*
X74221971Y-80283217D01*
X74224256Y-80273504D01*
X74219782Y-80241436D01*
X74219300Y-80234481D01*
X74219300Y-79759114D01*
X74238513Y-79699983D01*
X74243864Y-79693243D01*
X74303002Y-79624996D01*
X74357676Y-79505275D01*
X74376407Y-79375000D01*
X74357676Y-79244725D01*
X74303002Y-79125004D01*
X74216812Y-79025536D01*
X74161451Y-78989958D01*
X74106090Y-78954379D01*
X73979807Y-78917300D01*
X73848193Y-78917300D01*
X73721910Y-78954379D01*
X73721909Y-78954379D01*
X73611186Y-79025537D01*
X73524998Y-79125003D01*
X73524998Y-79125004D01*
X73470324Y-79244725D01*
X73451593Y-79375000D01*
X73470324Y-79505275D01*
X73524998Y-79624996D01*
X73584128Y-79693235D01*
X73608331Y-79750504D01*
X73608700Y-79759114D01*
X73608700Y-80091030D01*
X73589487Y-80150161D01*
X73579235Y-80162165D01*
X69810924Y-83930475D01*
X69755526Y-83958701D01*
X69694118Y-83948975D01*
X69650154Y-83905011D01*
X69645727Y-83895014D01*
X69588673Y-83744577D01*
X69588670Y-83744571D01*
X69491595Y-83603934D01*
X69491591Y-83603930D01*
X69363685Y-83490614D01*
X69363684Y-83490613D01*
X69212370Y-83411198D01*
X69212372Y-83411198D01*
X69046445Y-83370300D01*
X68875555Y-83370300D01*
X68875554Y-83370300D01*
X68709628Y-83411198D01*
X68558315Y-83490613D01*
X68558314Y-83490614D01*
X68430408Y-83603930D01*
X68430404Y-83603934D01*
X68333329Y-83744571D01*
X68333329Y-83744572D01*
X68272730Y-83904357D01*
X68252132Y-84074000D01*
X68272730Y-84243645D01*
X68273553Y-84245814D01*
X68273623Y-84247265D01*
X68274186Y-84249549D01*
X68273738Y-84249659D01*
X68276553Y-84307916D01*
X68250623Y-84352616D01*
X62695936Y-89907303D01*
X62684528Y-89915545D01*
X62685269Y-89916526D01*
X62677827Y-89922146D01*
X62644915Y-89958248D01*
X62643313Y-89959926D01*
X62629114Y-89974126D01*
X62629113Y-89974126D01*
X62627070Y-89977109D01*
X62622750Y-89982562D01*
X62600935Y-90006493D01*
X62600930Y-90006500D01*
X62597322Y-90015813D01*
X62586517Y-90036311D01*
X62580878Y-90044542D01*
X62580875Y-90044548D01*
X62573459Y-90076076D01*
X62571397Y-90082734D01*
X62559700Y-90112929D01*
X62559700Y-90122908D01*
X62557028Y-90145939D01*
X62554743Y-90155652D01*
X62554743Y-90155658D01*
X62559217Y-90187725D01*
X62559700Y-90194684D01*
X62559700Y-93722885D01*
X62540487Y-93782016D01*
X62535134Y-93788756D01*
X62493138Y-93837224D01*
X62475997Y-93857005D01*
X62421324Y-93976724D01*
X62402593Y-94106999D01*
X61900300Y-94106999D01*
X61900300Y-86871114D01*
X61919513Y-86811983D01*
X61924864Y-86805243D01*
X61984002Y-86736996D01*
X62038676Y-86617275D01*
X62057407Y-86487000D01*
X62038676Y-86356725D01*
X61984002Y-86237004D01*
X61897812Y-86137536D01*
X61842451Y-86101957D01*
X61787090Y-86066379D01*
X61660807Y-86029300D01*
X61529193Y-86029300D01*
X61402910Y-86066379D01*
X61402909Y-86066379D01*
X61292186Y-86137537D01*
X61205998Y-86237003D01*
X61205998Y-86237004D01*
X61151324Y-86356725D01*
X61132593Y-86487000D01*
X61151324Y-86617275D01*
X61205998Y-86736996D01*
X61265128Y-86805235D01*
X61289331Y-86862504D01*
X61289700Y-86871114D01*
X61289700Y-94357885D01*
X61270487Y-94417016D01*
X61265134Y-94423756D01*
X61236794Y-94456464D01*
X61205997Y-94492005D01*
X61172799Y-94564700D01*
X61151324Y-94611725D01*
X61132593Y-94742000D01*
X54821073Y-94742000D01*
X54856671Y-94690427D01*
X54917270Y-94530643D01*
X54937868Y-94361000D01*
X54917270Y-94191357D01*
X54856671Y-94031573D01*
X54846248Y-94016473D01*
X54759595Y-93890934D01*
X54759591Y-93890930D01*
X54631685Y-93777614D01*
X54631684Y-93777613D01*
X54480370Y-93698198D01*
X54480372Y-93698198D01*
X54314445Y-93657300D01*
X54143555Y-93657300D01*
X54143554Y-93657300D01*
X53977628Y-93698198D01*
X53826315Y-93777613D01*
X53826314Y-93777614D01*
X53698408Y-93890930D01*
X53698404Y-93890934D01*
X53601329Y-94031571D01*
X53601329Y-94031572D01*
X53564687Y-94128189D01*
X53540730Y-94191357D01*
X53520132Y-94361000D01*
X48641500Y-94361000D01*
X48641500Y-92567466D01*
X56836100Y-92567466D01*
X56877065Y-92786602D01*
X56957591Y-92994469D01*
X56957595Y-92994476D01*
X57074953Y-93184015D01*
X57074957Y-93184020D01*
X57225139Y-93348761D01*
X57225140Y-93348762D01*
X57403042Y-93483107D01*
X57403045Y-93483108D01*
X57403046Y-93483109D01*
X57602597Y-93582474D01*
X57602598Y-93582475D01*
X57602600Y-93582475D01*
X57602601Y-93582476D01*
X57817021Y-93643484D01*
X57983389Y-93658900D01*
X57983393Y-93658900D01*
X58094607Y-93658900D01*
X58094611Y-93658900D01*
X58260979Y-93643484D01*
X58475399Y-93582476D01*
X58674958Y-93483107D01*
X58852860Y-93348762D01*
X59003047Y-93184015D01*
X59120405Y-92994476D01*
X59200936Y-92786599D01*
X59241900Y-92567465D01*
X59241900Y-92344535D01*
X59200936Y-92125401D01*
X59168723Y-92042250D01*
X59120408Y-91917530D01*
X59120404Y-91917523D01*
X59003046Y-91727984D01*
X59003042Y-91727979D01*
X58852860Y-91563238D01*
X58674958Y-91428893D01*
X58674954Y-91428891D01*
X58674953Y-91428890D01*
X58475402Y-91329525D01*
X58475401Y-91329524D01*
X58306486Y-91281464D01*
X58260979Y-91268516D01*
X58260976Y-91268515D01*
X58260974Y-91268515D01*
X58162568Y-91259397D01*
X58094611Y-91253100D01*
X57983389Y-91253100D01*
X57921728Y-91258813D01*
X57817025Y-91268515D01*
X57817024Y-91268515D01*
X57602598Y-91329524D01*
X57602597Y-91329525D01*
X57403046Y-91428890D01*
X57403045Y-91428891D01*
X57225139Y-91563238D01*
X57074957Y-91727979D01*
X57074953Y-91727984D01*
X56957595Y-91917523D01*
X56957591Y-91917530D01*
X56877065Y-92125397D01*
X56836100Y-92344533D01*
X56836100Y-92567466D01*
X48641500Y-92567466D01*
X48641500Y-81075757D01*
X55894597Y-81075757D01*
X55909458Y-81172770D01*
X55924091Y-81268288D01*
X55991738Y-81450941D01*
X56094768Y-81616237D01*
X56228963Y-81757410D01*
X56388829Y-81868680D01*
X56388831Y-81868681D01*
X56388833Y-81868682D01*
X56460425Y-81899404D01*
X56567821Y-81945492D01*
X56758611Y-81984700D01*
X58412571Y-81984700D01*
X58485173Y-81977316D01*
X58557778Y-81969934D01*
X58557779Y-81969933D01*
X58557783Y-81969933D01*
X58646138Y-81942210D01*
X58743622Y-81911625D01*
X58913925Y-81817099D01*
X59061714Y-81690226D01*
X59180938Y-81536201D01*
X59266717Y-81361330D01*
X59315538Y-81172770D01*
X59325403Y-80978243D01*
X59295909Y-80785712D01*
X59228262Y-80603059D01*
X59125232Y-80437763D01*
X59091689Y-80402476D01*
X58991039Y-80296592D01*
X58991038Y-80296591D01*
X58991037Y-80296590D01*
X58831171Y-80185320D01*
X58831169Y-80185319D01*
X58831166Y-80185317D01*
X58652184Y-80108510D01*
X58652181Y-80108509D01*
X58652179Y-80108508D01*
X58652177Y-80108507D01*
X58652173Y-80108506D01*
X58461389Y-80069300D01*
X56807430Y-80069300D01*
X56807429Y-80069300D01*
X56662222Y-80084065D01*
X56662216Y-80084066D01*
X56476379Y-80142374D01*
X56306074Y-80236901D01*
X56306073Y-80236902D01*
X56158287Y-80363772D01*
X56039062Y-80517798D01*
X55953283Y-80692670D01*
X55953282Y-80692671D01*
X55904462Y-80881230D01*
X55894597Y-81075754D01*
X55894597Y-81075757D01*
X48641500Y-81075757D01*
X48641500Y-77129541D01*
X53652800Y-77129541D01*
X53667558Y-77274676D01*
X53667559Y-77274681D01*
X53725834Y-77460414D01*
X53725841Y-77460429D01*
X53820311Y-77630634D01*
X53820315Y-77630639D01*
X53947118Y-77778347D01*
X54101064Y-77897510D01*
X54275844Y-77983244D01*
X54275846Y-77983245D01*
X54464310Y-78032041D01*
X54508397Y-78034276D01*
X54508399Y-78034275D01*
X54508400Y-77227600D01*
X54527613Y-77168469D01*
X54577913Y-77131924D01*
X54609000Y-77127000D01*
X54611000Y-77127000D01*
X54670131Y-77146213D01*
X54706676Y-77196513D01*
X54711600Y-77227600D01*
X54711600Y-78033800D01*
X54851161Y-78012421D01*
X54851168Y-78012419D01*
X55033716Y-77944810D01*
X55198930Y-77841832D01*
X55340028Y-77707709D01*
X55451239Y-77547925D01*
X55528010Y-77369029D01*
X55528012Y-77369024D01*
X55567199Y-77178337D01*
X55567199Y-77129571D01*
X59652300Y-77129571D01*
X59667065Y-77274777D01*
X59667066Y-77274783D01*
X59725314Y-77460429D01*
X59725375Y-77460622D01*
X59819901Y-77630925D01*
X59946774Y-77778714D01*
X60100799Y-77897938D01*
X60275670Y-77983717D01*
X60464230Y-78032538D01*
X60658757Y-78042403D01*
X60851288Y-78012909D01*
X61033941Y-77945262D01*
X61199237Y-77842232D01*
X61340410Y-77708037D01*
X61451680Y-77548171D01*
X61528492Y-77369179D01*
X61567700Y-77178389D01*
X61567700Y-75524430D01*
X61563744Y-75485531D01*
X61552934Y-75379222D01*
X61552933Y-75379216D01*
X61494625Y-75193379D01*
X61494625Y-75193378D01*
X61489420Y-75184000D01*
X71554132Y-75184000D01*
X71574730Y-75353643D01*
X71620987Y-75475610D01*
X71635329Y-75513427D01*
X71635329Y-75513428D01*
X71732404Y-75654065D01*
X71732408Y-75654069D01*
X71860314Y-75767385D01*
X71860315Y-75767386D01*
X71860317Y-75767387D01*
X72011628Y-75846801D01*
X72011629Y-75846801D01*
X72011632Y-75846803D01*
X72177555Y-75887700D01*
X72177559Y-75887700D01*
X72348441Y-75887700D01*
X72348445Y-75887700D01*
X72514368Y-75846803D01*
X72665683Y-75767387D01*
X72793595Y-75654066D01*
X72890671Y-75513427D01*
X72909644Y-75463400D01*
X95471711Y-75463400D01*
X95919400Y-75463400D01*
X95978531Y-75482613D01*
X96015076Y-75532913D01*
X96020000Y-75564000D01*
X96020000Y-75566000D01*
X96000787Y-75625131D01*
X95950487Y-75661676D01*
X95919400Y-75666600D01*
X95471712Y-75666600D01*
X95482040Y-75771467D01*
X95542259Y-75969986D01*
X95542262Y-75969994D01*
X95640054Y-76152951D01*
X95640063Y-76152964D01*
X95771667Y-76313322D01*
X95771677Y-76313332D01*
X95932035Y-76444936D01*
X95932048Y-76444945D01*
X96115005Y-76542737D01*
X96115013Y-76542740D01*
X96313532Y-76602959D01*
X96418400Y-76613288D01*
X96418400Y-76165600D01*
X96437613Y-76106469D01*
X96487913Y-76069924D01*
X96519000Y-76065000D01*
X96521000Y-76065000D01*
X96580131Y-76084213D01*
X96616676Y-76134513D01*
X96621600Y-76165600D01*
X96621600Y-76613287D01*
X96726467Y-76602959D01*
X96924986Y-76542740D01*
X96924994Y-76542737D01*
X97107951Y-76444945D01*
X97107964Y-76444936D01*
X97268322Y-76313332D01*
X97268332Y-76313322D01*
X97399936Y-76152964D01*
X97399945Y-76152951D01*
X97497737Y-75969994D01*
X97497740Y-75969986D01*
X97557959Y-75771467D01*
X97568288Y-75666600D01*
X97120600Y-75666600D01*
X97061469Y-75647387D01*
X97024924Y-75597087D01*
X97020000Y-75566000D01*
X97020000Y-75564000D01*
X97039213Y-75504869D01*
X97089513Y-75468324D01*
X97120600Y-75463400D01*
X97568288Y-75463400D01*
X97557959Y-75358532D01*
X97497740Y-75160013D01*
X97497737Y-75160005D01*
X97399945Y-74977048D01*
X97399936Y-74977035D01*
X97268332Y-74816677D01*
X97268322Y-74816667D01*
X97107964Y-74685063D01*
X97107951Y-74685054D01*
X96924994Y-74587262D01*
X96924986Y-74587259D01*
X96726466Y-74527039D01*
X96726459Y-74527038D01*
X96621601Y-74516709D01*
X96621600Y-74516710D01*
X96621600Y-74964400D01*
X96602387Y-75023531D01*
X96552087Y-75060076D01*
X96521000Y-75065000D01*
X96519000Y-75065000D01*
X96459869Y-75045787D01*
X96423324Y-74995487D01*
X96418400Y-74964400D01*
X96418400Y-74516710D01*
X96418398Y-74516709D01*
X96313540Y-74527038D01*
X96313533Y-74527039D01*
X96115013Y-74587259D01*
X96115005Y-74587262D01*
X95932048Y-74685054D01*
X95932035Y-74685063D01*
X95771677Y-74816667D01*
X95771667Y-74816677D01*
X95640063Y-74977035D01*
X95640054Y-74977048D01*
X95542262Y-75160005D01*
X95542259Y-75160013D01*
X95482040Y-75358532D01*
X95471711Y-75463400D01*
X72909644Y-75463400D01*
X72951270Y-75353643D01*
X72971868Y-75184000D01*
X72951270Y-75014357D01*
X72890671Y-74854573D01*
X72864513Y-74816677D01*
X72793595Y-74713934D01*
X72793591Y-74713930D01*
X72665685Y-74600614D01*
X72665684Y-74600613D01*
X72514370Y-74521198D01*
X72514372Y-74521198D01*
X72348445Y-74480300D01*
X72177555Y-74480300D01*
X72177554Y-74480300D01*
X72011628Y-74521198D01*
X71860315Y-74600613D01*
X71860314Y-74600614D01*
X71732408Y-74713930D01*
X71732404Y-74713934D01*
X71635329Y-74854571D01*
X71635329Y-74854572D01*
X71588880Y-74977048D01*
X71574730Y-75014357D01*
X71554132Y-75184000D01*
X61489420Y-75184000D01*
X61400099Y-75023075D01*
X61273226Y-74875286D01*
X61119201Y-74756062D01*
X60944330Y-74670283D01*
X60944328Y-74670282D01*
X60821646Y-74638518D01*
X60755770Y-74621462D01*
X60690927Y-74618173D01*
X60561245Y-74611597D01*
X60561242Y-74611597D01*
X60368710Y-74641091D01*
X60186061Y-74708737D01*
X60186059Y-74708737D01*
X60186059Y-74708738D01*
X60177723Y-74713934D01*
X60020763Y-74811767D01*
X59879592Y-74945960D01*
X59768317Y-75105833D01*
X59691510Y-75284815D01*
X59691506Y-75284826D01*
X59652300Y-75475610D01*
X59652300Y-77129571D01*
X55567199Y-77129571D01*
X55567200Y-76428600D01*
X55210600Y-76428600D01*
X55151469Y-76409387D01*
X55114924Y-76359087D01*
X55110000Y-76328000D01*
X55110000Y-76326000D01*
X55129213Y-76266869D01*
X55179513Y-76230324D01*
X55210600Y-76225400D01*
X55567200Y-76225400D01*
X55567200Y-75524458D01*
X55552441Y-75379323D01*
X55552440Y-75379318D01*
X55494165Y-75193585D01*
X55494158Y-75193570D01*
X55399688Y-75023365D01*
X55399684Y-75023360D01*
X55272881Y-74875652D01*
X55118935Y-74756489D01*
X54944155Y-74670755D01*
X54944153Y-74670754D01*
X54755693Y-74621959D01*
X54755694Y-74621959D01*
X54711599Y-74619722D01*
X54711600Y-75426400D01*
X54692387Y-75485531D01*
X54642087Y-75522076D01*
X54611000Y-75527000D01*
X54609000Y-75527000D01*
X54549869Y-75507787D01*
X54513324Y-75457487D01*
X54508400Y-75426400D01*
X54508400Y-74620198D01*
X54368835Y-74641578D01*
X54186283Y-74709189D01*
X54021069Y-74812167D01*
X53879971Y-74946290D01*
X53768760Y-75106074D01*
X53691989Y-75284970D01*
X53691987Y-75284975D01*
X53652800Y-75475662D01*
X53652800Y-76225400D01*
X54009400Y-76225400D01*
X54068531Y-76244613D01*
X54105076Y-76294913D01*
X54110000Y-76326000D01*
X54110000Y-76328000D01*
X54090787Y-76387131D01*
X54040487Y-76423676D01*
X54009400Y-76428600D01*
X53652800Y-76428600D01*
X53652800Y-77129541D01*
X48641500Y-77129541D01*
X48641500Y-73771466D01*
X68012100Y-73771466D01*
X68024330Y-73836890D01*
X68037129Y-73905358D01*
X68053065Y-73990602D01*
X68133591Y-74198469D01*
X68133595Y-74198476D01*
X68250953Y-74388015D01*
X68250957Y-74388020D01*
X68377689Y-74527038D01*
X68401140Y-74552762D01*
X68579042Y-74687107D01*
X68579045Y-74687108D01*
X68579046Y-74687109D01*
X68778597Y-74786474D01*
X68778598Y-74786475D01*
X68778600Y-74786475D01*
X68778601Y-74786476D01*
X68993021Y-74847484D01*
X69159389Y-74862900D01*
X69159393Y-74862900D01*
X69270607Y-74862900D01*
X69270611Y-74862900D01*
X69436979Y-74847484D01*
X69651399Y-74786476D01*
X69850958Y-74687107D01*
X70028860Y-74552762D01*
X70179047Y-74388015D01*
X70296405Y-74198476D01*
X70376936Y-73990599D01*
X70413190Y-73796657D01*
X70417900Y-73771466D01*
X70417900Y-73548533D01*
X70395776Y-73430186D01*
X70376936Y-73329401D01*
X70337432Y-73227427D01*
X70296408Y-73121530D01*
X70296404Y-73121523D01*
X70263043Y-73067642D01*
X70179047Y-72931985D01*
X70148065Y-72898000D01*
X81841132Y-72898000D01*
X81861730Y-73067643D01*
X81882165Y-73121524D01*
X81922329Y-73227427D01*
X81922329Y-73227428D01*
X82019404Y-73368065D01*
X82019408Y-73368069D01*
X82147314Y-73481385D01*
X82147315Y-73481386D01*
X82147317Y-73481387D01*
X82298628Y-73560801D01*
X82298629Y-73560801D01*
X82298632Y-73560803D01*
X82464555Y-73601700D01*
X82464559Y-73601700D01*
X82635441Y-73601700D01*
X82635445Y-73601700D01*
X82801368Y-73560803D01*
X82952683Y-73481387D01*
X83080595Y-73368066D01*
X83177671Y-73227427D01*
X83238270Y-73067643D01*
X83243448Y-73025000D01*
X95461202Y-73025000D01*
X95481547Y-73231561D01*
X95481547Y-73231563D01*
X95481548Y-73231566D01*
X95541795Y-73430179D01*
X95541798Y-73430186D01*
X95639637Y-73613230D01*
X95639642Y-73613237D01*
X95771316Y-73773682D01*
X95771317Y-73773683D01*
X95931762Y-73905357D01*
X95931769Y-73905362D01*
X96114813Y-74003201D01*
X96114820Y-74003204D01*
X96276458Y-74052235D01*
X96313439Y-74063453D01*
X96520000Y-74083798D01*
X96726561Y-74063453D01*
X96839779Y-74029109D01*
X96925179Y-74003204D01*
X96925186Y-74003201D01*
X97108230Y-73905362D01*
X97108231Y-73905360D01*
X97108237Y-73905358D01*
X97268683Y-73773683D01*
X97400358Y-73613237D01*
X97470834Y-73481387D01*
X97498201Y-73430186D01*
X97498204Y-73430179D01*
X97558451Y-73231566D01*
X97558453Y-73231561D01*
X97578798Y-73025000D01*
X97558453Y-72818439D01*
X97505538Y-72643999D01*
X97498204Y-72619820D01*
X97498201Y-72619813D01*
X97400362Y-72436769D01*
X97400357Y-72436762D01*
X97268683Y-72276317D01*
X97268682Y-72276316D01*
X97108237Y-72144642D01*
X97108230Y-72144637D01*
X96925186Y-72046798D01*
X96925179Y-72046795D01*
X96726566Y-71986548D01*
X96726563Y-71986547D01*
X96726561Y-71986547D01*
X96520000Y-71966202D01*
X96313439Y-71986547D01*
X96313437Y-71986547D01*
X96313433Y-71986548D01*
X96114820Y-72046795D01*
X96114813Y-72046798D01*
X95931769Y-72144637D01*
X95931762Y-72144642D01*
X95771317Y-72276316D01*
X95771316Y-72276317D01*
X95639642Y-72436762D01*
X95639637Y-72436769D01*
X95541798Y-72619813D01*
X95541795Y-72619820D01*
X95481548Y-72818433D01*
X95481547Y-72818437D01*
X95481547Y-72818439D01*
X95461202Y-73025000D01*
X83243448Y-73025000D01*
X83258868Y-72898000D01*
X83238270Y-72728357D01*
X83177671Y-72568573D01*
X83153478Y-72533524D01*
X83080595Y-72427934D01*
X83080591Y-72427930D01*
X82952685Y-72314614D01*
X82952684Y-72314613D01*
X82801370Y-72235198D01*
X82801372Y-72235198D01*
X82635445Y-72194300D01*
X82464555Y-72194300D01*
X82464554Y-72194300D01*
X82298628Y-72235198D01*
X82147315Y-72314613D01*
X82147314Y-72314614D01*
X82019408Y-72427930D01*
X82019404Y-72427934D01*
X81922329Y-72568571D01*
X81922329Y-72568572D01*
X81902896Y-72619813D01*
X81861730Y-72728357D01*
X81841132Y-72898000D01*
X70148065Y-72898000D01*
X70075530Y-72818433D01*
X70028860Y-72767238D01*
X69977373Y-72728357D01*
X69850958Y-72632893D01*
X69850954Y-72632891D01*
X69850953Y-72632890D01*
X69651402Y-72533525D01*
X69651401Y-72533524D01*
X69528357Y-72498515D01*
X69436979Y-72472516D01*
X69436976Y-72472515D01*
X69436974Y-72472515D01*
X69338568Y-72463397D01*
X69270611Y-72457100D01*
X69159389Y-72457100D01*
X69097729Y-72462813D01*
X68993025Y-72472515D01*
X68993024Y-72472515D01*
X68778598Y-72533524D01*
X68778597Y-72533525D01*
X68579046Y-72632890D01*
X68579045Y-72632891D01*
X68579043Y-72632892D01*
X68579042Y-72632893D01*
X68532768Y-72667836D01*
X68401139Y-72767238D01*
X68250957Y-72931979D01*
X68250953Y-72931984D01*
X68133595Y-73121523D01*
X68133591Y-73121530D01*
X68053065Y-73329397D01*
X68012100Y-73548533D01*
X68012100Y-73771466D01*
X48641500Y-73771466D01*
X48641500Y-72646475D01*
X48641742Y-72641542D01*
X48643882Y-72619813D01*
X48657602Y-72480509D01*
X48661445Y-72461189D01*
X48706259Y-72313459D01*
X48713801Y-72295251D01*
X48786570Y-72159110D01*
X48797523Y-72142719D01*
X48895451Y-72023395D01*
X48909395Y-72009451D01*
X49028719Y-71911523D01*
X49045110Y-71900570D01*
X49181251Y-71827801D01*
X49199459Y-71820259D01*
X49347179Y-71775448D01*
X49366519Y-71771601D01*
X49527542Y-71755742D01*
X49532476Y-71755500D01*
X49584851Y-71755500D01*
X99894149Y-71755500D01*
X99941086Y-71755500D01*
X99956811Y-71756737D01*
G37*
%TD.AperFunction*%
M02*
