%TF.GenerationSoftware,KiCad,Pcbnew,7.0.7*%
%TF.CreationDate,2023-10-29T23:24:32-05:00*%
%TF.ProjectId,1016 Breadboard Power Supply,31303136-2042-4726-9561-64626f617264,1*%
%TF.SameCoordinates,Original*%
%TF.FileFunction,Legend,Top*%
%TF.FilePolarity,Positive*%
%FSLAX46Y46*%
G04 Gerber Fmt 4.6, Leading zero omitted, Abs format (unit mm)*
G04 Created by KiCad (PCBNEW 7.0.7) date 2023-10-29 23:24:32*
%MOMM*%
%LPD*%
G01*
G04 APERTURE LIST*
G04 Aperture macros list*
%AMRoundRect*
0 Rectangle with rounded corners*
0 $1 Rounding radius*
0 $2 $3 $4 $5 $6 $7 $8 $9 X,Y pos of 4 corners*
0 Add a 4 corners polygon primitive as box body*
4,1,4,$2,$3,$4,$5,$6,$7,$8,$9,$2,$3,0*
0 Add four circle primitives for the rounded corners*
1,1,$1+$1,$2,$3*
1,1,$1+$1,$4,$5*
1,1,$1+$1,$6,$7*
1,1,$1+$1,$8,$9*
0 Add four rect primitives between the rounded corners*
20,1,$1+$1,$2,$3,$4,$5,0*
20,1,$1+$1,$4,$5,$6,$7,0*
20,1,$1+$1,$6,$7,$8,$9,0*
20,1,$1+$1,$8,$9,$2,$3,0*%
%AMFreePoly0*
4,1,8,0.325000,0.000126,0.325000,-0.149874,0.175000,-0.149874,0.175000,-0.150126,-0.175000,-0.150126,-0.175000,0.150126,0.175000,0.150126,0.325000,0.000126,0.325000,0.000126,$1*%
%AMFreePoly1*
4,1,6,0.250000,0.000000,0.100000,-0.150000,-0.250000,-0.150000,-0.250000,0.150000,0.250000,0.150000,0.250000,0.000000,0.250000,0.000000,$1*%
%AMFreePoly2*
4,1,6,0.250000,0.000000,0.250000,-0.150000,-0.250000,-0.150000,-0.250000,0.150000,0.100000,0.150000,0.250000,0.000000,0.250000,0.000000,$1*%
%AMFreePoly3*
4,1,6,0.250000,-0.150000,-0.100000,-0.150000,-0.250000,0.000000,-0.250000,0.150000,0.250000,0.150000,0.250000,-0.150000,0.250000,-0.150000,$1*%
%AMFreePoly4*
4,1,6,0.250000,-0.150000,-0.250000,-0.150000,-0.250000,0.000000,-0.100000,0.150000,0.250000,0.150000,0.250000,-0.150000,0.250000,-0.150000,$1*%
G04 Aperture macros list end*
%ADD10C,0.177800*%
%ADD11C,0.254000*%
%ADD12C,0.150000*%
%ADD13C,0.152400*%
%ADD14C,0.200000*%
%ADD15C,0.100000*%
%ADD16C,0.317500*%
%ADD17C,0.120000*%
%ADD18C,0.127000*%
%ADD19C,0.400000*%
%ADD20C,0.250000*%
%ADD21R,1.650000X2.100000*%
%ADD22C,0.990600*%
%ADD23C,0.787400*%
%ADD24RoundRect,0.200000X0.275000X-0.200000X0.275000X0.200000X-0.275000X0.200000X-0.275000X-0.200000X0*%
%ADD25RoundRect,0.200000X-0.275000X0.200000X-0.275000X-0.200000X0.275000X-0.200000X0.275000X0.200000X0*%
%ADD26RoundRect,0.200000X-0.200000X-0.275000X0.200000X-0.275000X0.200000X0.275000X-0.200000X0.275000X0*%
%ADD27C,1.000000*%
%ADD28R,4.000000X1.500000*%
%ADD29RoundRect,0.250000X-0.262500X-0.450000X0.262500X-0.450000X0.262500X0.450000X-0.262500X0.450000X0*%
%ADD30O,1.508000X3.016000*%
%ADD31O,3.016000X1.508000*%
%ADD32R,0.950000X0.950000*%
%ADD33RoundRect,0.225000X-0.250000X0.225000X-0.250000X-0.225000X0.250000X-0.225000X0.250000X0.225000X0*%
%ADD34RoundRect,0.250000X0.250000X0.475000X-0.250000X0.475000X-0.250000X-0.475000X0.250000X-0.475000X0*%
%ADD35RoundRect,0.225000X-0.225000X-0.250000X0.225000X-0.250000X0.225000X0.250000X-0.225000X0.250000X0*%
%ADD36R,1.750000X1.750000*%
%ADD37R,0.300000X0.800000*%
%ADD38R,0.800000X0.300000*%
%ADD39RoundRect,0.200000X0.200000X0.275000X-0.200000X0.275000X-0.200000X-0.275000X0.200000X-0.275000X0*%
%ADD40C,2.000000*%
%ADD41R,1.500000X4.000000*%
%ADD42C,2.100000*%
%ADD43R,3.403600X1.549400*%
%ADD44RoundRect,0.225000X0.225000X0.250000X-0.225000X0.250000X-0.225000X-0.250000X0.225000X-0.250000X0*%
%ADD45RoundRect,0.250000X-0.475000X0.250000X-0.475000X-0.250000X0.475000X-0.250000X0.475000X0.250000X0*%
%ADD46FreePoly0,90.000000*%
%ADD47R,0.300000X0.700000*%
%ADD48FreePoly1,90.000000*%
%ADD49FreePoly2,180.000000*%
%ADD50R,0.700000X0.300000*%
%ADD51FreePoly1,180.000000*%
%ADD52FreePoly3,90.000000*%
%ADD53FreePoly4,90.000000*%
%ADD54FreePoly3,180.000000*%
%ADD55FreePoly4,180.000000*%
%ADD56R,1.092200X1.193800*%
%ADD57R,0.430000X0.350000*%
%ADD58R,1.100000X1.250000*%
%ADD59R,0.660000X0.350000*%
%ADD60R,1.200000X0.750000*%
%ADD61R,1.700000X1.700000*%
%ADD62O,1.700000X1.700000*%
G04 APERTURE END LIST*
D10*
X66040000Y-115951000D02*
X66421000Y-116332000D01*
X68326000Y-120269000D02*
X68326000Y-119634000D01*
D11*
X64310380Y-108717842D02*
X64491809Y-108778318D01*
X64491809Y-108778318D02*
X64794190Y-108778318D01*
X64794190Y-108778318D02*
X64915142Y-108717842D01*
X64915142Y-108717842D02*
X64975618Y-108657365D01*
X64975618Y-108657365D02*
X65036095Y-108536413D01*
X65036095Y-108536413D02*
X65036095Y-108415461D01*
X65036095Y-108415461D02*
X64975618Y-108294508D01*
X64975618Y-108294508D02*
X64915142Y-108234032D01*
X64915142Y-108234032D02*
X64794190Y-108173556D01*
X64794190Y-108173556D02*
X64552285Y-108113080D01*
X64552285Y-108113080D02*
X64431333Y-108052603D01*
X64431333Y-108052603D02*
X64370856Y-107992127D01*
X64370856Y-107992127D02*
X64310380Y-107871175D01*
X64310380Y-107871175D02*
X64310380Y-107750222D01*
X64310380Y-107750222D02*
X64370856Y-107629270D01*
X64370856Y-107629270D02*
X64431333Y-107568794D01*
X64431333Y-107568794D02*
X64552285Y-107508318D01*
X64552285Y-107508318D02*
X64854666Y-107508318D01*
X64854666Y-107508318D02*
X65036095Y-107568794D01*
X66245619Y-108778318D02*
X65519904Y-108778318D01*
X65882761Y-108778318D02*
X65882761Y-107508318D01*
X65882761Y-107508318D02*
X65761809Y-107689746D01*
X65761809Y-107689746D02*
X65640857Y-107810699D01*
X65640857Y-107810699D02*
X65519904Y-107871175D01*
X64310380Y-88524842D02*
X64491809Y-88585318D01*
X64491809Y-88585318D02*
X64794190Y-88585318D01*
X64794190Y-88585318D02*
X64915142Y-88524842D01*
X64915142Y-88524842D02*
X64975618Y-88464365D01*
X64975618Y-88464365D02*
X65036095Y-88343413D01*
X65036095Y-88343413D02*
X65036095Y-88222461D01*
X65036095Y-88222461D02*
X64975618Y-88101508D01*
X64975618Y-88101508D02*
X64915142Y-88041032D01*
X64915142Y-88041032D02*
X64794190Y-87980556D01*
X64794190Y-87980556D02*
X64552285Y-87920080D01*
X64552285Y-87920080D02*
X64431333Y-87859603D01*
X64431333Y-87859603D02*
X64370856Y-87799127D01*
X64370856Y-87799127D02*
X64310380Y-87678175D01*
X64310380Y-87678175D02*
X64310380Y-87557222D01*
X64310380Y-87557222D02*
X64370856Y-87436270D01*
X64370856Y-87436270D02*
X64431333Y-87375794D01*
X64431333Y-87375794D02*
X64552285Y-87315318D01*
X64552285Y-87315318D02*
X64854666Y-87315318D01*
X64854666Y-87315318D02*
X65036095Y-87375794D01*
X65519904Y-87436270D02*
X65580380Y-87375794D01*
X65580380Y-87375794D02*
X65701333Y-87315318D01*
X65701333Y-87315318D02*
X66003714Y-87315318D01*
X66003714Y-87315318D02*
X66124666Y-87375794D01*
X66124666Y-87375794D02*
X66185142Y-87436270D01*
X66185142Y-87436270D02*
X66245619Y-87557222D01*
X66245619Y-87557222D02*
X66245619Y-87678175D01*
X66245619Y-87678175D02*
X66185142Y-87859603D01*
X66185142Y-87859603D02*
X65459428Y-88585318D01*
X65459428Y-88585318D02*
X66245619Y-88585318D01*
D12*
X53514666Y-109182819D02*
X53514666Y-109897104D01*
X53514666Y-109897104D02*
X53467047Y-110039961D01*
X53467047Y-110039961D02*
X53371809Y-110135200D01*
X53371809Y-110135200D02*
X53228952Y-110182819D01*
X53228952Y-110182819D02*
X53133714Y-110182819D01*
X53943238Y-109278057D02*
X53990857Y-109230438D01*
X53990857Y-109230438D02*
X54086095Y-109182819D01*
X54086095Y-109182819D02*
X54324190Y-109182819D01*
X54324190Y-109182819D02*
X54419428Y-109230438D01*
X54419428Y-109230438D02*
X54467047Y-109278057D01*
X54467047Y-109278057D02*
X54514666Y-109373295D01*
X54514666Y-109373295D02*
X54514666Y-109468533D01*
X54514666Y-109468533D02*
X54467047Y-109611390D01*
X54467047Y-109611390D02*
X53895619Y-110182819D01*
X53895619Y-110182819D02*
X54514666Y-110182819D01*
X59255819Y-110094857D02*
X58779628Y-110428190D01*
X59255819Y-110666285D02*
X58255819Y-110666285D01*
X58255819Y-110666285D02*
X58255819Y-110285333D01*
X58255819Y-110285333D02*
X58303438Y-110190095D01*
X58303438Y-110190095D02*
X58351057Y-110142476D01*
X58351057Y-110142476D02*
X58446295Y-110094857D01*
X58446295Y-110094857D02*
X58589152Y-110094857D01*
X58589152Y-110094857D02*
X58684390Y-110142476D01*
X58684390Y-110142476D02*
X58732009Y-110190095D01*
X58732009Y-110190095D02*
X58779628Y-110285333D01*
X58779628Y-110285333D02*
X58779628Y-110666285D01*
X59255819Y-109142476D02*
X59255819Y-109713904D01*
X59255819Y-109428190D02*
X58255819Y-109428190D01*
X58255819Y-109428190D02*
X58398676Y-109523428D01*
X58398676Y-109523428D02*
X58493914Y-109618666D01*
X58493914Y-109618666D02*
X58541533Y-109713904D01*
X58255819Y-108523428D02*
X58255819Y-108428190D01*
X58255819Y-108428190D02*
X58303438Y-108332952D01*
X58303438Y-108332952D02*
X58351057Y-108285333D01*
X58351057Y-108285333D02*
X58446295Y-108237714D01*
X58446295Y-108237714D02*
X58636771Y-108190095D01*
X58636771Y-108190095D02*
X58874866Y-108190095D01*
X58874866Y-108190095D02*
X59065342Y-108237714D01*
X59065342Y-108237714D02*
X59160580Y-108285333D01*
X59160580Y-108285333D02*
X59208200Y-108332952D01*
X59208200Y-108332952D02*
X59255819Y-108428190D01*
X59255819Y-108428190D02*
X59255819Y-108523428D01*
X59255819Y-108523428D02*
X59208200Y-108618666D01*
X59208200Y-108618666D02*
X59160580Y-108666285D01*
X59160580Y-108666285D02*
X59065342Y-108713904D01*
X59065342Y-108713904D02*
X58874866Y-108761523D01*
X58874866Y-108761523D02*
X58636771Y-108761523D01*
X58636771Y-108761523D02*
X58446295Y-108713904D01*
X58446295Y-108713904D02*
X58351057Y-108666285D01*
X58351057Y-108666285D02*
X58303438Y-108618666D01*
X58303438Y-108618666D02*
X58255819Y-108523428D01*
X77416819Y-112815666D02*
X76940628Y-113148999D01*
X77416819Y-113387094D02*
X76416819Y-113387094D01*
X76416819Y-113387094D02*
X76416819Y-113006142D01*
X76416819Y-113006142D02*
X76464438Y-112910904D01*
X76464438Y-112910904D02*
X76512057Y-112863285D01*
X76512057Y-112863285D02*
X76607295Y-112815666D01*
X76607295Y-112815666D02*
X76750152Y-112815666D01*
X76750152Y-112815666D02*
X76845390Y-112863285D01*
X76845390Y-112863285D02*
X76893009Y-112910904D01*
X76893009Y-112910904D02*
X76940628Y-113006142D01*
X76940628Y-113006142D02*
X76940628Y-113387094D01*
X76416819Y-111958523D02*
X76416819Y-112148999D01*
X76416819Y-112148999D02*
X76464438Y-112244237D01*
X76464438Y-112244237D02*
X76512057Y-112291856D01*
X76512057Y-112291856D02*
X76654914Y-112387094D01*
X76654914Y-112387094D02*
X76845390Y-112434713D01*
X76845390Y-112434713D02*
X77226342Y-112434713D01*
X77226342Y-112434713D02*
X77321580Y-112387094D01*
X77321580Y-112387094D02*
X77369200Y-112339475D01*
X77369200Y-112339475D02*
X77416819Y-112244237D01*
X77416819Y-112244237D02*
X77416819Y-112053761D01*
X77416819Y-112053761D02*
X77369200Y-111958523D01*
X77369200Y-111958523D02*
X77321580Y-111910904D01*
X77321580Y-111910904D02*
X77226342Y-111863285D01*
X77226342Y-111863285D02*
X76988247Y-111863285D01*
X76988247Y-111863285D02*
X76893009Y-111910904D01*
X76893009Y-111910904D02*
X76845390Y-111958523D01*
X76845390Y-111958523D02*
X76797771Y-112053761D01*
X76797771Y-112053761D02*
X76797771Y-112244237D01*
X76797771Y-112244237D02*
X76845390Y-112339475D01*
X76845390Y-112339475D02*
X76893009Y-112387094D01*
X76893009Y-112387094D02*
X76988247Y-112434713D01*
X68794333Y-77403819D02*
X68461000Y-76927628D01*
X68222905Y-77403819D02*
X68222905Y-76403819D01*
X68222905Y-76403819D02*
X68603857Y-76403819D01*
X68603857Y-76403819D02*
X68699095Y-76451438D01*
X68699095Y-76451438D02*
X68746714Y-76499057D01*
X68746714Y-76499057D02*
X68794333Y-76594295D01*
X68794333Y-76594295D02*
X68794333Y-76737152D01*
X68794333Y-76737152D02*
X68746714Y-76832390D01*
X68746714Y-76832390D02*
X68699095Y-76880009D01*
X68699095Y-76880009D02*
X68603857Y-76927628D01*
X68603857Y-76927628D02*
X68222905Y-76927628D01*
X69699095Y-76403819D02*
X69222905Y-76403819D01*
X69222905Y-76403819D02*
X69175286Y-76880009D01*
X69175286Y-76880009D02*
X69222905Y-76832390D01*
X69222905Y-76832390D02*
X69318143Y-76784771D01*
X69318143Y-76784771D02*
X69556238Y-76784771D01*
X69556238Y-76784771D02*
X69651476Y-76832390D01*
X69651476Y-76832390D02*
X69699095Y-76880009D01*
X69699095Y-76880009D02*
X69746714Y-76975247D01*
X69746714Y-76975247D02*
X69746714Y-77213342D01*
X69746714Y-77213342D02*
X69699095Y-77308580D01*
X69699095Y-77308580D02*
X69651476Y-77356200D01*
X69651476Y-77356200D02*
X69556238Y-77403819D01*
X69556238Y-77403819D02*
X69318143Y-77403819D01*
X69318143Y-77403819D02*
X69222905Y-77356200D01*
X69222905Y-77356200D02*
X69175286Y-77308580D01*
X65667095Y-84163819D02*
X66238523Y-84163819D01*
X65952809Y-85163819D02*
X65952809Y-84163819D01*
X66571857Y-85163819D02*
X66571857Y-84163819D01*
X66571857Y-84163819D02*
X66952809Y-84163819D01*
X66952809Y-84163819D02*
X67048047Y-84211438D01*
X67048047Y-84211438D02*
X67095666Y-84259057D01*
X67095666Y-84259057D02*
X67143285Y-84354295D01*
X67143285Y-84354295D02*
X67143285Y-84497152D01*
X67143285Y-84497152D02*
X67095666Y-84592390D01*
X67095666Y-84592390D02*
X67048047Y-84640009D01*
X67048047Y-84640009D02*
X66952809Y-84687628D01*
X66952809Y-84687628D02*
X66571857Y-84687628D01*
X68000428Y-84163819D02*
X67809952Y-84163819D01*
X67809952Y-84163819D02*
X67714714Y-84211438D01*
X67714714Y-84211438D02*
X67667095Y-84259057D01*
X67667095Y-84259057D02*
X67571857Y-84401914D01*
X67571857Y-84401914D02*
X67524238Y-84592390D01*
X67524238Y-84592390D02*
X67524238Y-84973342D01*
X67524238Y-84973342D02*
X67571857Y-85068580D01*
X67571857Y-85068580D02*
X67619476Y-85116200D01*
X67619476Y-85116200D02*
X67714714Y-85163819D01*
X67714714Y-85163819D02*
X67905190Y-85163819D01*
X67905190Y-85163819D02*
X68000428Y-85116200D01*
X68000428Y-85116200D02*
X68048047Y-85068580D01*
X68048047Y-85068580D02*
X68095666Y-84973342D01*
X68095666Y-84973342D02*
X68095666Y-84735247D01*
X68095666Y-84735247D02*
X68048047Y-84640009D01*
X68048047Y-84640009D02*
X68000428Y-84592390D01*
X68000428Y-84592390D02*
X67905190Y-84544771D01*
X67905190Y-84544771D02*
X67714714Y-84544771D01*
X67714714Y-84544771D02*
X67619476Y-84592390D01*
X67619476Y-84592390D02*
X67571857Y-84640009D01*
X67571857Y-84640009D02*
X67524238Y-84735247D01*
D11*
X52747333Y-89220318D02*
X52142571Y-89220318D01*
X52142571Y-89220318D02*
X52142571Y-87950318D01*
X53835905Y-89220318D02*
X53110190Y-89220318D01*
X53473047Y-89220318D02*
X53473047Y-87950318D01*
X53473047Y-87950318D02*
X53352095Y-88131746D01*
X53352095Y-88131746D02*
X53231143Y-88252699D01*
X53231143Y-88252699D02*
X53110190Y-88313175D01*
D12*
X68794333Y-79054819D02*
X68461000Y-78578628D01*
X68222905Y-79054819D02*
X68222905Y-78054819D01*
X68222905Y-78054819D02*
X68603857Y-78054819D01*
X68603857Y-78054819D02*
X68699095Y-78102438D01*
X68699095Y-78102438D02*
X68746714Y-78150057D01*
X68746714Y-78150057D02*
X68794333Y-78245295D01*
X68794333Y-78245295D02*
X68794333Y-78388152D01*
X68794333Y-78388152D02*
X68746714Y-78483390D01*
X68746714Y-78483390D02*
X68699095Y-78531009D01*
X68699095Y-78531009D02*
X68603857Y-78578628D01*
X68603857Y-78578628D02*
X68222905Y-78578628D01*
X69127667Y-78054819D02*
X69794333Y-78054819D01*
X69794333Y-78054819D02*
X69365762Y-79054819D01*
X55538905Y-104104819D02*
X56110333Y-104104819D01*
X55824619Y-105104819D02*
X55824619Y-104104819D01*
X56443667Y-105104819D02*
X56443667Y-104104819D01*
X56443667Y-104104819D02*
X56824619Y-104104819D01*
X56824619Y-104104819D02*
X56919857Y-104152438D01*
X56919857Y-104152438D02*
X56967476Y-104200057D01*
X56967476Y-104200057D02*
X57015095Y-104295295D01*
X57015095Y-104295295D02*
X57015095Y-104438152D01*
X57015095Y-104438152D02*
X56967476Y-104533390D01*
X56967476Y-104533390D02*
X56919857Y-104581009D01*
X56919857Y-104581009D02*
X56824619Y-104628628D01*
X56824619Y-104628628D02*
X56443667Y-104628628D01*
X57967476Y-105104819D02*
X57396048Y-105104819D01*
X57681762Y-105104819D02*
X57681762Y-104104819D01*
X57681762Y-104104819D02*
X57586524Y-104247676D01*
X57586524Y-104247676D02*
X57491286Y-104342914D01*
X57491286Y-104342914D02*
X57396048Y-104390533D01*
X58586524Y-104104819D02*
X58681762Y-104104819D01*
X58681762Y-104104819D02*
X58777000Y-104152438D01*
X58777000Y-104152438D02*
X58824619Y-104200057D01*
X58824619Y-104200057D02*
X58872238Y-104295295D01*
X58872238Y-104295295D02*
X58919857Y-104485771D01*
X58919857Y-104485771D02*
X58919857Y-104723866D01*
X58919857Y-104723866D02*
X58872238Y-104914342D01*
X58872238Y-104914342D02*
X58824619Y-105009580D01*
X58824619Y-105009580D02*
X58777000Y-105057200D01*
X58777000Y-105057200D02*
X58681762Y-105104819D01*
X58681762Y-105104819D02*
X58586524Y-105104819D01*
X58586524Y-105104819D02*
X58491286Y-105057200D01*
X58491286Y-105057200D02*
X58443667Y-105009580D01*
X58443667Y-105009580D02*
X58396048Y-104914342D01*
X58396048Y-104914342D02*
X58348429Y-104723866D01*
X58348429Y-104723866D02*
X58348429Y-104485771D01*
X58348429Y-104485771D02*
X58396048Y-104295295D01*
X58396048Y-104295295D02*
X58443667Y-104200057D01*
X58443667Y-104200057D02*
X58491286Y-104152438D01*
X58491286Y-104152438D02*
X58586524Y-104104819D01*
X53681333Y-103705819D02*
X53348000Y-103229628D01*
X53109905Y-103705819D02*
X53109905Y-102705819D01*
X53109905Y-102705819D02*
X53490857Y-102705819D01*
X53490857Y-102705819D02*
X53586095Y-102753438D01*
X53586095Y-102753438D02*
X53633714Y-102801057D01*
X53633714Y-102801057D02*
X53681333Y-102896295D01*
X53681333Y-102896295D02*
X53681333Y-103039152D01*
X53681333Y-103039152D02*
X53633714Y-103134390D01*
X53633714Y-103134390D02*
X53586095Y-103182009D01*
X53586095Y-103182009D02*
X53490857Y-103229628D01*
X53490857Y-103229628D02*
X53109905Y-103229628D01*
X54062286Y-102801057D02*
X54109905Y-102753438D01*
X54109905Y-102753438D02*
X54205143Y-102705819D01*
X54205143Y-102705819D02*
X54443238Y-102705819D01*
X54443238Y-102705819D02*
X54538476Y-102753438D01*
X54538476Y-102753438D02*
X54586095Y-102801057D01*
X54586095Y-102801057D02*
X54633714Y-102896295D01*
X54633714Y-102896295D02*
X54633714Y-102991533D01*
X54633714Y-102991533D02*
X54586095Y-103134390D01*
X54586095Y-103134390D02*
X54014667Y-103705819D01*
X54014667Y-103705819D02*
X54633714Y-103705819D01*
X68794333Y-82610819D02*
X68461000Y-82134628D01*
X68222905Y-82610819D02*
X68222905Y-81610819D01*
X68222905Y-81610819D02*
X68603857Y-81610819D01*
X68603857Y-81610819D02*
X68699095Y-81658438D01*
X68699095Y-81658438D02*
X68746714Y-81706057D01*
X68746714Y-81706057D02*
X68794333Y-81801295D01*
X68794333Y-81801295D02*
X68794333Y-81944152D01*
X68794333Y-81944152D02*
X68746714Y-82039390D01*
X68746714Y-82039390D02*
X68699095Y-82087009D01*
X68699095Y-82087009D02*
X68603857Y-82134628D01*
X68603857Y-82134628D02*
X68222905Y-82134628D01*
X69270524Y-82610819D02*
X69461000Y-82610819D01*
X69461000Y-82610819D02*
X69556238Y-82563200D01*
X69556238Y-82563200D02*
X69603857Y-82515580D01*
X69603857Y-82515580D02*
X69699095Y-82372723D01*
X69699095Y-82372723D02*
X69746714Y-82182247D01*
X69746714Y-82182247D02*
X69746714Y-81801295D01*
X69746714Y-81801295D02*
X69699095Y-81706057D01*
X69699095Y-81706057D02*
X69651476Y-81658438D01*
X69651476Y-81658438D02*
X69556238Y-81610819D01*
X69556238Y-81610819D02*
X69365762Y-81610819D01*
X69365762Y-81610819D02*
X69270524Y-81658438D01*
X69270524Y-81658438D02*
X69222905Y-81706057D01*
X69222905Y-81706057D02*
X69175286Y-81801295D01*
X69175286Y-81801295D02*
X69175286Y-82039390D01*
X69175286Y-82039390D02*
X69222905Y-82134628D01*
X69222905Y-82134628D02*
X69270524Y-82182247D01*
X69270524Y-82182247D02*
X69365762Y-82229866D01*
X69365762Y-82229866D02*
X69556238Y-82229866D01*
X69556238Y-82229866D02*
X69651476Y-82182247D01*
X69651476Y-82182247D02*
X69699095Y-82134628D01*
X69699095Y-82134628D02*
X69746714Y-82039390D01*
X57197068Y-75780854D02*
X57197068Y-76496422D01*
X57197068Y-76496422D02*
X57149364Y-76639535D01*
X57149364Y-76639535D02*
X57053955Y-76734945D01*
X57053955Y-76734945D02*
X56910841Y-76782649D01*
X56910841Y-76782649D02*
X56815432Y-76782649D01*
X58198863Y-76782649D02*
X57626409Y-76782649D01*
X57912636Y-76782649D02*
X57912636Y-75780854D01*
X57912636Y-75780854D02*
X57817227Y-75923968D01*
X57817227Y-75923968D02*
X57721818Y-76019377D01*
X57721818Y-76019377D02*
X57626409Y-76067081D01*
D13*
X80472095Y-91306951D02*
X80472095Y-91790761D01*
X80472095Y-91790761D02*
X79456095Y-91790761D01*
X79939905Y-90968285D02*
X79939905Y-90629618D01*
X80472095Y-90484475D02*
X80472095Y-90968285D01*
X80472095Y-90968285D02*
X79456095Y-90968285D01*
X79456095Y-90968285D02*
X79456095Y-90484475D01*
X80472095Y-90049047D02*
X79456095Y-90049047D01*
X79456095Y-90049047D02*
X79456095Y-89807142D01*
X79456095Y-89807142D02*
X79504476Y-89661999D01*
X79504476Y-89661999D02*
X79601238Y-89565237D01*
X79601238Y-89565237D02*
X79698000Y-89516856D01*
X79698000Y-89516856D02*
X79891524Y-89468475D01*
X79891524Y-89468475D02*
X80036667Y-89468475D01*
X80036667Y-89468475D02*
X80230191Y-89516856D01*
X80230191Y-89516856D02*
X80326953Y-89565237D01*
X80326953Y-89565237D02*
X80423715Y-89661999D01*
X80423715Y-89661999D02*
X80472095Y-89807142D01*
X80472095Y-89807142D02*
X80472095Y-90049047D01*
X79456095Y-88597618D02*
X79456095Y-88791142D01*
X79456095Y-88791142D02*
X79504476Y-88887904D01*
X79504476Y-88887904D02*
X79552857Y-88936285D01*
X79552857Y-88936285D02*
X79698000Y-89033047D01*
X79698000Y-89033047D02*
X79891524Y-89081428D01*
X79891524Y-89081428D02*
X80278572Y-89081428D01*
X80278572Y-89081428D02*
X80375334Y-89033047D01*
X80375334Y-89033047D02*
X80423715Y-88984666D01*
X80423715Y-88984666D02*
X80472095Y-88887904D01*
X80472095Y-88887904D02*
X80472095Y-88694380D01*
X80472095Y-88694380D02*
X80423715Y-88597618D01*
X80423715Y-88597618D02*
X80375334Y-88549237D01*
X80375334Y-88549237D02*
X80278572Y-88500856D01*
X80278572Y-88500856D02*
X80036667Y-88500856D01*
X80036667Y-88500856D02*
X79939905Y-88549237D01*
X79939905Y-88549237D02*
X79891524Y-88597618D01*
X79891524Y-88597618D02*
X79843143Y-88694380D01*
X79843143Y-88694380D02*
X79843143Y-88887904D01*
X79843143Y-88887904D02*
X79891524Y-88984666D01*
X79891524Y-88984666D02*
X79939905Y-89033047D01*
X79939905Y-89033047D02*
X80036667Y-89081428D01*
X51441048Y-100792095D02*
X50957238Y-100792095D01*
X50957238Y-100792095D02*
X50957238Y-99776095D01*
X51779714Y-100259905D02*
X52118381Y-100259905D01*
X52263524Y-100792095D02*
X51779714Y-100792095D01*
X51779714Y-100792095D02*
X51779714Y-99776095D01*
X51779714Y-99776095D02*
X52263524Y-99776095D01*
X52698952Y-100792095D02*
X52698952Y-99776095D01*
X52698952Y-99776095D02*
X52940857Y-99776095D01*
X52940857Y-99776095D02*
X53086000Y-99824476D01*
X53086000Y-99824476D02*
X53182762Y-99921238D01*
X53182762Y-99921238D02*
X53231143Y-100018000D01*
X53231143Y-100018000D02*
X53279524Y-100211524D01*
X53279524Y-100211524D02*
X53279524Y-100356667D01*
X53279524Y-100356667D02*
X53231143Y-100550191D01*
X53231143Y-100550191D02*
X53182762Y-100646953D01*
X53182762Y-100646953D02*
X53086000Y-100743715D01*
X53086000Y-100743715D02*
X52940857Y-100792095D01*
X52940857Y-100792095D02*
X52698952Y-100792095D01*
X54247143Y-100792095D02*
X53666571Y-100792095D01*
X53956857Y-100792095D02*
X53956857Y-99776095D01*
X53956857Y-99776095D02*
X53860095Y-99921238D01*
X53860095Y-99921238D02*
X53763333Y-100018000D01*
X53763333Y-100018000D02*
X53666571Y-100066381D01*
D12*
X66018580Y-115196857D02*
X66066200Y-115244476D01*
X66066200Y-115244476D02*
X66113819Y-115387333D01*
X66113819Y-115387333D02*
X66113819Y-115482571D01*
X66113819Y-115482571D02*
X66066200Y-115625428D01*
X66066200Y-115625428D02*
X65970961Y-115720666D01*
X65970961Y-115720666D02*
X65875723Y-115768285D01*
X65875723Y-115768285D02*
X65685247Y-115815904D01*
X65685247Y-115815904D02*
X65542390Y-115815904D01*
X65542390Y-115815904D02*
X65351914Y-115768285D01*
X65351914Y-115768285D02*
X65256676Y-115720666D01*
X65256676Y-115720666D02*
X65161438Y-115625428D01*
X65161438Y-115625428D02*
X65113819Y-115482571D01*
X65113819Y-115482571D02*
X65113819Y-115387333D01*
X65113819Y-115387333D02*
X65161438Y-115244476D01*
X65161438Y-115244476D02*
X65209057Y-115196857D01*
X66113819Y-114244476D02*
X66113819Y-114815904D01*
X66113819Y-114530190D02*
X65113819Y-114530190D01*
X65113819Y-114530190D02*
X65256676Y-114625428D01*
X65256676Y-114625428D02*
X65351914Y-114720666D01*
X65351914Y-114720666D02*
X65399533Y-114815904D01*
X65209057Y-113863523D02*
X65161438Y-113815904D01*
X65161438Y-113815904D02*
X65113819Y-113720666D01*
X65113819Y-113720666D02*
X65113819Y-113482571D01*
X65113819Y-113482571D02*
X65161438Y-113387333D01*
X65161438Y-113387333D02*
X65209057Y-113339714D01*
X65209057Y-113339714D02*
X65304295Y-113292095D01*
X65304295Y-113292095D02*
X65399533Y-113292095D01*
X65399533Y-113292095D02*
X65542390Y-113339714D01*
X65542390Y-113339714D02*
X66113819Y-113911142D01*
X66113819Y-113911142D02*
X66113819Y-113292095D01*
X75176142Y-102054819D02*
X74842809Y-101578628D01*
X74604714Y-102054819D02*
X74604714Y-101054819D01*
X74604714Y-101054819D02*
X74985666Y-101054819D01*
X74985666Y-101054819D02*
X75080904Y-101102438D01*
X75080904Y-101102438D02*
X75128523Y-101150057D01*
X75128523Y-101150057D02*
X75176142Y-101245295D01*
X75176142Y-101245295D02*
X75176142Y-101388152D01*
X75176142Y-101388152D02*
X75128523Y-101483390D01*
X75128523Y-101483390D02*
X75080904Y-101531009D01*
X75080904Y-101531009D02*
X74985666Y-101578628D01*
X74985666Y-101578628D02*
X74604714Y-101578628D01*
X76128523Y-102054819D02*
X75557095Y-102054819D01*
X75842809Y-102054819D02*
X75842809Y-101054819D01*
X75842809Y-101054819D02*
X75747571Y-101197676D01*
X75747571Y-101197676D02*
X75652333Y-101292914D01*
X75652333Y-101292914D02*
X75557095Y-101340533D01*
X76699952Y-101483390D02*
X76604714Y-101435771D01*
X76604714Y-101435771D02*
X76557095Y-101388152D01*
X76557095Y-101388152D02*
X76509476Y-101292914D01*
X76509476Y-101292914D02*
X76509476Y-101245295D01*
X76509476Y-101245295D02*
X76557095Y-101150057D01*
X76557095Y-101150057D02*
X76604714Y-101102438D01*
X76604714Y-101102438D02*
X76699952Y-101054819D01*
X76699952Y-101054819D02*
X76890428Y-101054819D01*
X76890428Y-101054819D02*
X76985666Y-101102438D01*
X76985666Y-101102438D02*
X77033285Y-101150057D01*
X77033285Y-101150057D02*
X77080904Y-101245295D01*
X77080904Y-101245295D02*
X77080904Y-101292914D01*
X77080904Y-101292914D02*
X77033285Y-101388152D01*
X77033285Y-101388152D02*
X76985666Y-101435771D01*
X76985666Y-101435771D02*
X76890428Y-101483390D01*
X76890428Y-101483390D02*
X76699952Y-101483390D01*
X76699952Y-101483390D02*
X76604714Y-101531009D01*
X76604714Y-101531009D02*
X76557095Y-101578628D01*
X76557095Y-101578628D02*
X76509476Y-101673866D01*
X76509476Y-101673866D02*
X76509476Y-101864342D01*
X76509476Y-101864342D02*
X76557095Y-101959580D01*
X76557095Y-101959580D02*
X76604714Y-102007200D01*
X76604714Y-102007200D02*
X76699952Y-102054819D01*
X76699952Y-102054819D02*
X76890428Y-102054819D01*
X76890428Y-102054819D02*
X76985666Y-102007200D01*
X76985666Y-102007200D02*
X77033285Y-101959580D01*
X77033285Y-101959580D02*
X77080904Y-101864342D01*
X77080904Y-101864342D02*
X77080904Y-101673866D01*
X77080904Y-101673866D02*
X77033285Y-101578628D01*
X77033285Y-101578628D02*
X76985666Y-101531009D01*
X76985666Y-101531009D02*
X76890428Y-101483390D01*
D13*
X72777048Y-100157095D02*
X72293238Y-100157095D01*
X72293238Y-100157095D02*
X72293238Y-99141095D01*
X73115714Y-99624905D02*
X73454381Y-99624905D01*
X73599524Y-100157095D02*
X73115714Y-100157095D01*
X73115714Y-100157095D02*
X73115714Y-99141095D01*
X73115714Y-99141095D02*
X73599524Y-99141095D01*
X74034952Y-100157095D02*
X74034952Y-99141095D01*
X74034952Y-99141095D02*
X74276857Y-99141095D01*
X74276857Y-99141095D02*
X74422000Y-99189476D01*
X74422000Y-99189476D02*
X74518762Y-99286238D01*
X74518762Y-99286238D02*
X74567143Y-99383000D01*
X74567143Y-99383000D02*
X74615524Y-99576524D01*
X74615524Y-99576524D02*
X74615524Y-99721667D01*
X74615524Y-99721667D02*
X74567143Y-99915191D01*
X74567143Y-99915191D02*
X74518762Y-100011953D01*
X74518762Y-100011953D02*
X74422000Y-100108715D01*
X74422000Y-100108715D02*
X74276857Y-100157095D01*
X74276857Y-100157095D02*
X74034952Y-100157095D01*
X74954190Y-99141095D02*
X75583143Y-99141095D01*
X75583143Y-99141095D02*
X75244476Y-99528143D01*
X75244476Y-99528143D02*
X75389619Y-99528143D01*
X75389619Y-99528143D02*
X75486381Y-99576524D01*
X75486381Y-99576524D02*
X75534762Y-99624905D01*
X75534762Y-99624905D02*
X75583143Y-99721667D01*
X75583143Y-99721667D02*
X75583143Y-99963572D01*
X75583143Y-99963572D02*
X75534762Y-100060334D01*
X75534762Y-100060334D02*
X75486381Y-100108715D01*
X75486381Y-100108715D02*
X75389619Y-100157095D01*
X75389619Y-100157095D02*
X75099333Y-100157095D01*
X75099333Y-100157095D02*
X75002571Y-100108715D01*
X75002571Y-100108715D02*
X74954190Y-100060334D01*
D12*
X51014333Y-93196580D02*
X50966714Y-93244200D01*
X50966714Y-93244200D02*
X50823857Y-93291819D01*
X50823857Y-93291819D02*
X50728619Y-93291819D01*
X50728619Y-93291819D02*
X50585762Y-93244200D01*
X50585762Y-93244200D02*
X50490524Y-93148961D01*
X50490524Y-93148961D02*
X50442905Y-93053723D01*
X50442905Y-93053723D02*
X50395286Y-92863247D01*
X50395286Y-92863247D02*
X50395286Y-92720390D01*
X50395286Y-92720390D02*
X50442905Y-92529914D01*
X50442905Y-92529914D02*
X50490524Y-92434676D01*
X50490524Y-92434676D02*
X50585762Y-92339438D01*
X50585762Y-92339438D02*
X50728619Y-92291819D01*
X50728619Y-92291819D02*
X50823857Y-92291819D01*
X50823857Y-92291819D02*
X50966714Y-92339438D01*
X50966714Y-92339438D02*
X51014333Y-92387057D01*
X51395286Y-92387057D02*
X51442905Y-92339438D01*
X51442905Y-92339438D02*
X51538143Y-92291819D01*
X51538143Y-92291819D02*
X51776238Y-92291819D01*
X51776238Y-92291819D02*
X51871476Y-92339438D01*
X51871476Y-92339438D02*
X51919095Y-92387057D01*
X51919095Y-92387057D02*
X51966714Y-92482295D01*
X51966714Y-92482295D02*
X51966714Y-92577533D01*
X51966714Y-92577533D02*
X51919095Y-92720390D01*
X51919095Y-92720390D02*
X51347667Y-93291819D01*
X51347667Y-93291819D02*
X51966714Y-93291819D01*
X57604819Y-110126666D02*
X57128628Y-110459999D01*
X57604819Y-110698094D02*
X56604819Y-110698094D01*
X56604819Y-110698094D02*
X56604819Y-110317142D01*
X56604819Y-110317142D02*
X56652438Y-110221904D01*
X56652438Y-110221904D02*
X56700057Y-110174285D01*
X56700057Y-110174285D02*
X56795295Y-110126666D01*
X56795295Y-110126666D02*
X56938152Y-110126666D01*
X56938152Y-110126666D02*
X57033390Y-110174285D01*
X57033390Y-110174285D02*
X57081009Y-110221904D01*
X57081009Y-110221904D02*
X57128628Y-110317142D01*
X57128628Y-110317142D02*
X57128628Y-110698094D01*
X56604819Y-109793332D02*
X56604819Y-109174285D01*
X56604819Y-109174285D02*
X56985771Y-109507618D01*
X56985771Y-109507618D02*
X56985771Y-109364761D01*
X56985771Y-109364761D02*
X57033390Y-109269523D01*
X57033390Y-109269523D02*
X57081009Y-109221904D01*
X57081009Y-109221904D02*
X57176247Y-109174285D01*
X57176247Y-109174285D02*
X57414342Y-109174285D01*
X57414342Y-109174285D02*
X57509580Y-109221904D01*
X57509580Y-109221904D02*
X57557200Y-109269523D01*
X57557200Y-109269523D02*
X57604819Y-109364761D01*
X57604819Y-109364761D02*
X57604819Y-109650475D01*
X57604819Y-109650475D02*
X57557200Y-109745713D01*
X57557200Y-109745713D02*
X57509580Y-109793332D01*
X59555142Y-100943580D02*
X59507523Y-100991200D01*
X59507523Y-100991200D02*
X59364666Y-101038819D01*
X59364666Y-101038819D02*
X59269428Y-101038819D01*
X59269428Y-101038819D02*
X59126571Y-100991200D01*
X59126571Y-100991200D02*
X59031333Y-100895961D01*
X59031333Y-100895961D02*
X58983714Y-100800723D01*
X58983714Y-100800723D02*
X58936095Y-100610247D01*
X58936095Y-100610247D02*
X58936095Y-100467390D01*
X58936095Y-100467390D02*
X58983714Y-100276914D01*
X58983714Y-100276914D02*
X59031333Y-100181676D01*
X59031333Y-100181676D02*
X59126571Y-100086438D01*
X59126571Y-100086438D02*
X59269428Y-100038819D01*
X59269428Y-100038819D02*
X59364666Y-100038819D01*
X59364666Y-100038819D02*
X59507523Y-100086438D01*
X59507523Y-100086438D02*
X59555142Y-100134057D01*
X60507523Y-101038819D02*
X59936095Y-101038819D01*
X60221809Y-101038819D02*
X60221809Y-100038819D01*
X60221809Y-100038819D02*
X60126571Y-100181676D01*
X60126571Y-100181676D02*
X60031333Y-100276914D01*
X60031333Y-100276914D02*
X59936095Y-100324533D01*
X61412285Y-100038819D02*
X60936095Y-100038819D01*
X60936095Y-100038819D02*
X60888476Y-100515009D01*
X60888476Y-100515009D02*
X60936095Y-100467390D01*
X60936095Y-100467390D02*
X61031333Y-100419771D01*
X61031333Y-100419771D02*
X61269428Y-100419771D01*
X61269428Y-100419771D02*
X61364666Y-100467390D01*
X61364666Y-100467390D02*
X61412285Y-100515009D01*
X61412285Y-100515009D02*
X61459904Y-100610247D01*
X61459904Y-100610247D02*
X61459904Y-100848342D01*
X61459904Y-100848342D02*
X61412285Y-100943580D01*
X61412285Y-100943580D02*
X61364666Y-100991200D01*
X61364666Y-100991200D02*
X61269428Y-101038819D01*
X61269428Y-101038819D02*
X61031333Y-101038819D01*
X61031333Y-101038819D02*
X60936095Y-100991200D01*
X60936095Y-100991200D02*
X60888476Y-100943580D01*
D11*
X60367333Y-118557318D02*
X59762571Y-118557318D01*
X59762571Y-118557318D02*
X59762571Y-117287318D01*
X60730190Y-117408270D02*
X60790666Y-117347794D01*
X60790666Y-117347794D02*
X60911619Y-117287318D01*
X60911619Y-117287318D02*
X61214000Y-117287318D01*
X61214000Y-117287318D02*
X61334952Y-117347794D01*
X61334952Y-117347794D02*
X61395428Y-117408270D01*
X61395428Y-117408270D02*
X61455905Y-117529222D01*
X61455905Y-117529222D02*
X61455905Y-117650175D01*
X61455905Y-117650175D02*
X61395428Y-117831603D01*
X61395428Y-117831603D02*
X60669714Y-118557318D01*
X60669714Y-118557318D02*
X61455905Y-118557318D01*
D13*
X72777048Y-98125095D02*
X72293238Y-98125095D01*
X72293238Y-98125095D02*
X72293238Y-97109095D01*
X73115714Y-97592905D02*
X73454381Y-97592905D01*
X73599524Y-98125095D02*
X73115714Y-98125095D01*
X73115714Y-98125095D02*
X73115714Y-97109095D01*
X73115714Y-97109095D02*
X73599524Y-97109095D01*
X74034952Y-98125095D02*
X74034952Y-97109095D01*
X74034952Y-97109095D02*
X74276857Y-97109095D01*
X74276857Y-97109095D02*
X74422000Y-97157476D01*
X74422000Y-97157476D02*
X74518762Y-97254238D01*
X74518762Y-97254238D02*
X74567143Y-97351000D01*
X74567143Y-97351000D02*
X74615524Y-97544524D01*
X74615524Y-97544524D02*
X74615524Y-97689667D01*
X74615524Y-97689667D02*
X74567143Y-97883191D01*
X74567143Y-97883191D02*
X74518762Y-97979953D01*
X74518762Y-97979953D02*
X74422000Y-98076715D01*
X74422000Y-98076715D02*
X74276857Y-98125095D01*
X74276857Y-98125095D02*
X74034952Y-98125095D01*
X75002571Y-97205857D02*
X75050952Y-97157476D01*
X75050952Y-97157476D02*
X75147714Y-97109095D01*
X75147714Y-97109095D02*
X75389619Y-97109095D01*
X75389619Y-97109095D02*
X75486381Y-97157476D01*
X75486381Y-97157476D02*
X75534762Y-97205857D01*
X75534762Y-97205857D02*
X75583143Y-97302619D01*
X75583143Y-97302619D02*
X75583143Y-97399381D01*
X75583143Y-97399381D02*
X75534762Y-97544524D01*
X75534762Y-97544524D02*
X74954190Y-98125095D01*
X74954190Y-98125095D02*
X75583143Y-98125095D01*
D12*
X55953819Y-110126666D02*
X55477628Y-110459999D01*
X55953819Y-110698094D02*
X54953819Y-110698094D01*
X54953819Y-110698094D02*
X54953819Y-110317142D01*
X54953819Y-110317142D02*
X55001438Y-110221904D01*
X55001438Y-110221904D02*
X55049057Y-110174285D01*
X55049057Y-110174285D02*
X55144295Y-110126666D01*
X55144295Y-110126666D02*
X55287152Y-110126666D01*
X55287152Y-110126666D02*
X55382390Y-110174285D01*
X55382390Y-110174285D02*
X55430009Y-110221904D01*
X55430009Y-110221904D02*
X55477628Y-110317142D01*
X55477628Y-110317142D02*
X55477628Y-110698094D01*
X55287152Y-109269523D02*
X55953819Y-109269523D01*
X54906200Y-109507618D02*
X55620485Y-109745713D01*
X55620485Y-109745713D02*
X55620485Y-109126666D01*
D13*
X72777048Y-108920095D02*
X72293238Y-108920095D01*
X72293238Y-108920095D02*
X72293238Y-107904095D01*
X73115714Y-108387905D02*
X73454381Y-108387905D01*
X73599524Y-108920095D02*
X73115714Y-108920095D01*
X73115714Y-108920095D02*
X73115714Y-107904095D01*
X73115714Y-107904095D02*
X73599524Y-107904095D01*
X74034952Y-108920095D02*
X74034952Y-107904095D01*
X74034952Y-107904095D02*
X74276857Y-107904095D01*
X74276857Y-107904095D02*
X74422000Y-107952476D01*
X74422000Y-107952476D02*
X74518762Y-108049238D01*
X74518762Y-108049238D02*
X74567143Y-108146000D01*
X74567143Y-108146000D02*
X74615524Y-108339524D01*
X74615524Y-108339524D02*
X74615524Y-108484667D01*
X74615524Y-108484667D02*
X74567143Y-108678191D01*
X74567143Y-108678191D02*
X74518762Y-108774953D01*
X74518762Y-108774953D02*
X74422000Y-108871715D01*
X74422000Y-108871715D02*
X74276857Y-108920095D01*
X74276857Y-108920095D02*
X74034952Y-108920095D01*
X74954190Y-107904095D02*
X75631524Y-107904095D01*
X75631524Y-107904095D02*
X75196095Y-108920095D01*
D11*
X52517318Y-120982619D02*
X53545413Y-120982619D01*
X53545413Y-120982619D02*
X53666365Y-120922142D01*
X53666365Y-120922142D02*
X53726842Y-120861666D01*
X53726842Y-120861666D02*
X53787318Y-120740714D01*
X53787318Y-120740714D02*
X53787318Y-120498809D01*
X53787318Y-120498809D02*
X53726842Y-120377857D01*
X53726842Y-120377857D02*
X53666365Y-120317380D01*
X53666365Y-120317380D02*
X53545413Y-120256904D01*
X53545413Y-120256904D02*
X52517318Y-120256904D01*
X53787318Y-118986904D02*
X53787318Y-119712619D01*
X53787318Y-119349762D02*
X52517318Y-119349762D01*
X52517318Y-119349762D02*
X52698746Y-119470714D01*
X52698746Y-119470714D02*
X52819699Y-119591666D01*
X52819699Y-119591666D02*
X52880175Y-119712619D01*
D12*
X50651580Y-114825666D02*
X50699200Y-114873285D01*
X50699200Y-114873285D02*
X50746819Y-115016142D01*
X50746819Y-115016142D02*
X50746819Y-115111380D01*
X50746819Y-115111380D02*
X50699200Y-115254237D01*
X50699200Y-115254237D02*
X50603961Y-115349475D01*
X50603961Y-115349475D02*
X50508723Y-115397094D01*
X50508723Y-115397094D02*
X50318247Y-115444713D01*
X50318247Y-115444713D02*
X50175390Y-115444713D01*
X50175390Y-115444713D02*
X49984914Y-115397094D01*
X49984914Y-115397094D02*
X49889676Y-115349475D01*
X49889676Y-115349475D02*
X49794438Y-115254237D01*
X49794438Y-115254237D02*
X49746819Y-115111380D01*
X49746819Y-115111380D02*
X49746819Y-115016142D01*
X49746819Y-115016142D02*
X49794438Y-114873285D01*
X49794438Y-114873285D02*
X49842057Y-114825666D01*
X49746819Y-113920904D02*
X49746819Y-114397094D01*
X49746819Y-114397094D02*
X50223009Y-114444713D01*
X50223009Y-114444713D02*
X50175390Y-114397094D01*
X50175390Y-114397094D02*
X50127771Y-114301856D01*
X50127771Y-114301856D02*
X50127771Y-114063761D01*
X50127771Y-114063761D02*
X50175390Y-113968523D01*
X50175390Y-113968523D02*
X50223009Y-113920904D01*
X50223009Y-113920904D02*
X50318247Y-113873285D01*
X50318247Y-113873285D02*
X50556342Y-113873285D01*
X50556342Y-113873285D02*
X50651580Y-113920904D01*
X50651580Y-113920904D02*
X50699200Y-113968523D01*
X50699200Y-113968523D02*
X50746819Y-114063761D01*
X50746819Y-114063761D02*
X50746819Y-114301856D01*
X50746819Y-114301856D02*
X50699200Y-114397094D01*
X50699200Y-114397094D02*
X50651580Y-114444713D01*
X78351142Y-93418819D02*
X78017809Y-92942628D01*
X77779714Y-93418819D02*
X77779714Y-92418819D01*
X77779714Y-92418819D02*
X78160666Y-92418819D01*
X78160666Y-92418819D02*
X78255904Y-92466438D01*
X78255904Y-92466438D02*
X78303523Y-92514057D01*
X78303523Y-92514057D02*
X78351142Y-92609295D01*
X78351142Y-92609295D02*
X78351142Y-92752152D01*
X78351142Y-92752152D02*
X78303523Y-92847390D01*
X78303523Y-92847390D02*
X78255904Y-92895009D01*
X78255904Y-92895009D02*
X78160666Y-92942628D01*
X78160666Y-92942628D02*
X77779714Y-92942628D01*
X79303523Y-93418819D02*
X78732095Y-93418819D01*
X79017809Y-93418819D02*
X79017809Y-92418819D01*
X79017809Y-92418819D02*
X78922571Y-92561676D01*
X78922571Y-92561676D02*
X78827333Y-92656914D01*
X78827333Y-92656914D02*
X78732095Y-92704533D01*
X79779714Y-93418819D02*
X79970190Y-93418819D01*
X79970190Y-93418819D02*
X80065428Y-93371200D01*
X80065428Y-93371200D02*
X80113047Y-93323580D01*
X80113047Y-93323580D02*
X80208285Y-93180723D01*
X80208285Y-93180723D02*
X80255904Y-92990247D01*
X80255904Y-92990247D02*
X80255904Y-92609295D01*
X80255904Y-92609295D02*
X80208285Y-92514057D01*
X80208285Y-92514057D02*
X80160666Y-92466438D01*
X80160666Y-92466438D02*
X80065428Y-92418819D01*
X80065428Y-92418819D02*
X79874952Y-92418819D01*
X79874952Y-92418819D02*
X79779714Y-92466438D01*
X79779714Y-92466438D02*
X79732095Y-92514057D01*
X79732095Y-92514057D02*
X79684476Y-92609295D01*
X79684476Y-92609295D02*
X79684476Y-92847390D01*
X79684476Y-92847390D02*
X79732095Y-92942628D01*
X79732095Y-92942628D02*
X79779714Y-92990247D01*
X79779714Y-92990247D02*
X79874952Y-93037866D01*
X79874952Y-93037866D02*
X80065428Y-93037866D01*
X80065428Y-93037866D02*
X80160666Y-92990247D01*
X80160666Y-92990247D02*
X80208285Y-92942628D01*
X80208285Y-92942628D02*
X80255904Y-92847390D01*
X83701095Y-116929819D02*
X84272523Y-116929819D01*
X83986809Y-117929819D02*
X83986809Y-116929819D01*
X84605857Y-117929819D02*
X84605857Y-116929819D01*
X84605857Y-116929819D02*
X84986809Y-116929819D01*
X84986809Y-116929819D02*
X85082047Y-116977438D01*
X85082047Y-116977438D02*
X85129666Y-117025057D01*
X85129666Y-117025057D02*
X85177285Y-117120295D01*
X85177285Y-117120295D02*
X85177285Y-117263152D01*
X85177285Y-117263152D02*
X85129666Y-117358390D01*
X85129666Y-117358390D02*
X85082047Y-117406009D01*
X85082047Y-117406009D02*
X84986809Y-117453628D01*
X84986809Y-117453628D02*
X84605857Y-117453628D01*
X86034428Y-117263152D02*
X86034428Y-117929819D01*
X85796333Y-116882200D02*
X85558238Y-117596485D01*
X85558238Y-117596485D02*
X86177285Y-117596485D01*
X83701095Y-72352819D02*
X84272523Y-72352819D01*
X83986809Y-73352819D02*
X83986809Y-72352819D01*
X84605857Y-73352819D02*
X84605857Y-72352819D01*
X84605857Y-72352819D02*
X84986809Y-72352819D01*
X84986809Y-72352819D02*
X85082047Y-72400438D01*
X85082047Y-72400438D02*
X85129666Y-72448057D01*
X85129666Y-72448057D02*
X85177285Y-72543295D01*
X85177285Y-72543295D02*
X85177285Y-72686152D01*
X85177285Y-72686152D02*
X85129666Y-72781390D01*
X85129666Y-72781390D02*
X85082047Y-72829009D01*
X85082047Y-72829009D02*
X84986809Y-72876628D01*
X84986809Y-72876628D02*
X84605857Y-72876628D01*
X85510619Y-72352819D02*
X86129666Y-72352819D01*
X86129666Y-72352819D02*
X85796333Y-72733771D01*
X85796333Y-72733771D02*
X85939190Y-72733771D01*
X85939190Y-72733771D02*
X86034428Y-72781390D01*
X86034428Y-72781390D02*
X86082047Y-72829009D01*
X86082047Y-72829009D02*
X86129666Y-72924247D01*
X86129666Y-72924247D02*
X86129666Y-73162342D01*
X86129666Y-73162342D02*
X86082047Y-73257580D01*
X86082047Y-73257580D02*
X86034428Y-73305200D01*
X86034428Y-73305200D02*
X85939190Y-73352819D01*
X85939190Y-73352819D02*
X85653476Y-73352819D01*
X85653476Y-73352819D02*
X85558238Y-73305200D01*
X85558238Y-73305200D02*
X85510619Y-73257580D01*
X73652142Y-110944819D02*
X73318809Y-110468628D01*
X73080714Y-110944819D02*
X73080714Y-109944819D01*
X73080714Y-109944819D02*
X73461666Y-109944819D01*
X73461666Y-109944819D02*
X73556904Y-109992438D01*
X73556904Y-109992438D02*
X73604523Y-110040057D01*
X73604523Y-110040057D02*
X73652142Y-110135295D01*
X73652142Y-110135295D02*
X73652142Y-110278152D01*
X73652142Y-110278152D02*
X73604523Y-110373390D01*
X73604523Y-110373390D02*
X73556904Y-110421009D01*
X73556904Y-110421009D02*
X73461666Y-110468628D01*
X73461666Y-110468628D02*
X73080714Y-110468628D01*
X74604523Y-110944819D02*
X74033095Y-110944819D01*
X74318809Y-110944819D02*
X74318809Y-109944819D01*
X74318809Y-109944819D02*
X74223571Y-110087676D01*
X74223571Y-110087676D02*
X74128333Y-110182914D01*
X74128333Y-110182914D02*
X74033095Y-110230533D01*
X75556904Y-110944819D02*
X74985476Y-110944819D01*
X75271190Y-110944819D02*
X75271190Y-109944819D01*
X75271190Y-109944819D02*
X75175952Y-110087676D01*
X75175952Y-110087676D02*
X75080714Y-110182914D01*
X75080714Y-110182914D02*
X74985476Y-110230533D01*
X78478142Y-113738819D02*
X78144809Y-113262628D01*
X77906714Y-113738819D02*
X77906714Y-112738819D01*
X77906714Y-112738819D02*
X78287666Y-112738819D01*
X78287666Y-112738819D02*
X78382904Y-112786438D01*
X78382904Y-112786438D02*
X78430523Y-112834057D01*
X78430523Y-112834057D02*
X78478142Y-112929295D01*
X78478142Y-112929295D02*
X78478142Y-113072152D01*
X78478142Y-113072152D02*
X78430523Y-113167390D01*
X78430523Y-113167390D02*
X78382904Y-113215009D01*
X78382904Y-113215009D02*
X78287666Y-113262628D01*
X78287666Y-113262628D02*
X77906714Y-113262628D01*
X78859095Y-112834057D02*
X78906714Y-112786438D01*
X78906714Y-112786438D02*
X79001952Y-112738819D01*
X79001952Y-112738819D02*
X79240047Y-112738819D01*
X79240047Y-112738819D02*
X79335285Y-112786438D01*
X79335285Y-112786438D02*
X79382904Y-112834057D01*
X79382904Y-112834057D02*
X79430523Y-112929295D01*
X79430523Y-112929295D02*
X79430523Y-113024533D01*
X79430523Y-113024533D02*
X79382904Y-113167390D01*
X79382904Y-113167390D02*
X78811476Y-113738819D01*
X78811476Y-113738819D02*
X79430523Y-113738819D01*
X80049571Y-112738819D02*
X80144809Y-112738819D01*
X80144809Y-112738819D02*
X80240047Y-112786438D01*
X80240047Y-112786438D02*
X80287666Y-112834057D01*
X80287666Y-112834057D02*
X80335285Y-112929295D01*
X80335285Y-112929295D02*
X80382904Y-113119771D01*
X80382904Y-113119771D02*
X80382904Y-113357866D01*
X80382904Y-113357866D02*
X80335285Y-113548342D01*
X80335285Y-113548342D02*
X80287666Y-113643580D01*
X80287666Y-113643580D02*
X80240047Y-113691200D01*
X80240047Y-113691200D02*
X80144809Y-113738819D01*
X80144809Y-113738819D02*
X80049571Y-113738819D01*
X80049571Y-113738819D02*
X79954333Y-113691200D01*
X79954333Y-113691200D02*
X79906714Y-113643580D01*
X79906714Y-113643580D02*
X79859095Y-113548342D01*
X79859095Y-113548342D02*
X79811476Y-113357866D01*
X79811476Y-113357866D02*
X79811476Y-113119771D01*
X79811476Y-113119771D02*
X79859095Y-112929295D01*
X79859095Y-112929295D02*
X79906714Y-112834057D01*
X79906714Y-112834057D02*
X79954333Y-112786438D01*
X79954333Y-112786438D02*
X80049571Y-112738819D01*
X71080333Y-84420580D02*
X71032714Y-84468200D01*
X71032714Y-84468200D02*
X70889857Y-84515819D01*
X70889857Y-84515819D02*
X70794619Y-84515819D01*
X70794619Y-84515819D02*
X70651762Y-84468200D01*
X70651762Y-84468200D02*
X70556524Y-84372961D01*
X70556524Y-84372961D02*
X70508905Y-84277723D01*
X70508905Y-84277723D02*
X70461286Y-84087247D01*
X70461286Y-84087247D02*
X70461286Y-83944390D01*
X70461286Y-83944390D02*
X70508905Y-83753914D01*
X70508905Y-83753914D02*
X70556524Y-83658676D01*
X70556524Y-83658676D02*
X70651762Y-83563438D01*
X70651762Y-83563438D02*
X70794619Y-83515819D01*
X70794619Y-83515819D02*
X70889857Y-83515819D01*
X70889857Y-83515819D02*
X71032714Y-83563438D01*
X71032714Y-83563438D02*
X71080333Y-83611057D01*
X71556524Y-84515819D02*
X71747000Y-84515819D01*
X71747000Y-84515819D02*
X71842238Y-84468200D01*
X71842238Y-84468200D02*
X71889857Y-84420580D01*
X71889857Y-84420580D02*
X71985095Y-84277723D01*
X71985095Y-84277723D02*
X72032714Y-84087247D01*
X72032714Y-84087247D02*
X72032714Y-83706295D01*
X72032714Y-83706295D02*
X71985095Y-83611057D01*
X71985095Y-83611057D02*
X71937476Y-83563438D01*
X71937476Y-83563438D02*
X71842238Y-83515819D01*
X71842238Y-83515819D02*
X71651762Y-83515819D01*
X71651762Y-83515819D02*
X71556524Y-83563438D01*
X71556524Y-83563438D02*
X71508905Y-83611057D01*
X71508905Y-83611057D02*
X71461286Y-83706295D01*
X71461286Y-83706295D02*
X71461286Y-83944390D01*
X71461286Y-83944390D02*
X71508905Y-84039628D01*
X71508905Y-84039628D02*
X71556524Y-84087247D01*
X71556524Y-84087247D02*
X71651762Y-84134866D01*
X71651762Y-84134866D02*
X71842238Y-84134866D01*
X71842238Y-84134866D02*
X71937476Y-84087247D01*
X71937476Y-84087247D02*
X71985095Y-84039628D01*
X71985095Y-84039628D02*
X72032714Y-83944390D01*
X50397580Y-120540666D02*
X50445200Y-120588285D01*
X50445200Y-120588285D02*
X50492819Y-120731142D01*
X50492819Y-120731142D02*
X50492819Y-120826380D01*
X50492819Y-120826380D02*
X50445200Y-120969237D01*
X50445200Y-120969237D02*
X50349961Y-121064475D01*
X50349961Y-121064475D02*
X50254723Y-121112094D01*
X50254723Y-121112094D02*
X50064247Y-121159713D01*
X50064247Y-121159713D02*
X49921390Y-121159713D01*
X49921390Y-121159713D02*
X49730914Y-121112094D01*
X49730914Y-121112094D02*
X49635676Y-121064475D01*
X49635676Y-121064475D02*
X49540438Y-120969237D01*
X49540438Y-120969237D02*
X49492819Y-120826380D01*
X49492819Y-120826380D02*
X49492819Y-120731142D01*
X49492819Y-120731142D02*
X49540438Y-120588285D01*
X49540438Y-120588285D02*
X49588057Y-120540666D01*
X49826152Y-119683523D02*
X50492819Y-119683523D01*
X49445200Y-119921618D02*
X50159485Y-120159713D01*
X50159485Y-120159713D02*
X50159485Y-119540666D01*
X59555142Y-102689819D02*
X59221809Y-102213628D01*
X58983714Y-102689819D02*
X58983714Y-101689819D01*
X58983714Y-101689819D02*
X59364666Y-101689819D01*
X59364666Y-101689819D02*
X59459904Y-101737438D01*
X59459904Y-101737438D02*
X59507523Y-101785057D01*
X59507523Y-101785057D02*
X59555142Y-101880295D01*
X59555142Y-101880295D02*
X59555142Y-102023152D01*
X59555142Y-102023152D02*
X59507523Y-102118390D01*
X59507523Y-102118390D02*
X59459904Y-102166009D01*
X59459904Y-102166009D02*
X59364666Y-102213628D01*
X59364666Y-102213628D02*
X58983714Y-102213628D01*
X60507523Y-102689819D02*
X59936095Y-102689819D01*
X60221809Y-102689819D02*
X60221809Y-101689819D01*
X60221809Y-101689819D02*
X60126571Y-101832676D01*
X60126571Y-101832676D02*
X60031333Y-101927914D01*
X60031333Y-101927914D02*
X59936095Y-101975533D01*
X61364666Y-102023152D02*
X61364666Y-102689819D01*
X61126571Y-101642200D02*
X60888476Y-102356485D01*
X60888476Y-102356485D02*
X61507523Y-102356485D01*
D11*
X78026380Y-81841318D02*
X78026380Y-82869413D01*
X78026380Y-82869413D02*
X78086857Y-82990365D01*
X78086857Y-82990365D02*
X78147333Y-83050842D01*
X78147333Y-83050842D02*
X78268285Y-83111318D01*
X78268285Y-83111318D02*
X78510190Y-83111318D01*
X78510190Y-83111318D02*
X78631142Y-83050842D01*
X78631142Y-83050842D02*
X78691619Y-82990365D01*
X78691619Y-82990365D02*
X78752095Y-82869413D01*
X78752095Y-82869413D02*
X78752095Y-81841318D01*
X79296380Y-81962270D02*
X79356856Y-81901794D01*
X79356856Y-81901794D02*
X79477809Y-81841318D01*
X79477809Y-81841318D02*
X79780190Y-81841318D01*
X79780190Y-81841318D02*
X79901142Y-81901794D01*
X79901142Y-81901794D02*
X79961618Y-81962270D01*
X79961618Y-81962270D02*
X80022095Y-82083222D01*
X80022095Y-82083222D02*
X80022095Y-82204175D01*
X80022095Y-82204175D02*
X79961618Y-82385603D01*
X79961618Y-82385603D02*
X79235904Y-83111318D01*
X79235904Y-83111318D02*
X80022095Y-83111318D01*
X77536318Y-75268666D02*
X77536318Y-75873428D01*
X77536318Y-75873428D02*
X76266318Y-75873428D01*
X76266318Y-74966285D02*
X76266318Y-74180094D01*
X76266318Y-74180094D02*
X76750127Y-74603428D01*
X76750127Y-74603428D02*
X76750127Y-74421999D01*
X76750127Y-74421999D02*
X76810603Y-74301047D01*
X76810603Y-74301047D02*
X76871080Y-74240571D01*
X76871080Y-74240571D02*
X76992032Y-74180094D01*
X76992032Y-74180094D02*
X77294413Y-74180094D01*
X77294413Y-74180094D02*
X77415365Y-74240571D01*
X77415365Y-74240571D02*
X77475842Y-74301047D01*
X77475842Y-74301047D02*
X77536318Y-74421999D01*
X77536318Y-74421999D02*
X77536318Y-74784856D01*
X77536318Y-74784856D02*
X77475842Y-74905809D01*
X77475842Y-74905809D02*
X77415365Y-74966285D01*
D12*
X62111095Y-113119819D02*
X62682523Y-113119819D01*
X62396809Y-114119819D02*
X62396809Y-113119819D01*
X63015857Y-114119819D02*
X63015857Y-113119819D01*
X63015857Y-113119819D02*
X63396809Y-113119819D01*
X63396809Y-113119819D02*
X63492047Y-113167438D01*
X63492047Y-113167438D02*
X63539666Y-113215057D01*
X63539666Y-113215057D02*
X63587285Y-113310295D01*
X63587285Y-113310295D02*
X63587285Y-113453152D01*
X63587285Y-113453152D02*
X63539666Y-113548390D01*
X63539666Y-113548390D02*
X63492047Y-113596009D01*
X63492047Y-113596009D02*
X63396809Y-113643628D01*
X63396809Y-113643628D02*
X63015857Y-113643628D01*
X63968238Y-113215057D02*
X64015857Y-113167438D01*
X64015857Y-113167438D02*
X64111095Y-113119819D01*
X64111095Y-113119819D02*
X64349190Y-113119819D01*
X64349190Y-113119819D02*
X64444428Y-113167438D01*
X64444428Y-113167438D02*
X64492047Y-113215057D01*
X64492047Y-113215057D02*
X64539666Y-113310295D01*
X64539666Y-113310295D02*
X64539666Y-113405533D01*
X64539666Y-113405533D02*
X64492047Y-113548390D01*
X64492047Y-113548390D02*
X63920619Y-114119819D01*
X63920619Y-114119819D02*
X64539666Y-114119819D01*
X68794333Y-80705819D02*
X68461000Y-80229628D01*
X68222905Y-80705819D02*
X68222905Y-79705819D01*
X68222905Y-79705819D02*
X68603857Y-79705819D01*
X68603857Y-79705819D02*
X68699095Y-79753438D01*
X68699095Y-79753438D02*
X68746714Y-79801057D01*
X68746714Y-79801057D02*
X68794333Y-79896295D01*
X68794333Y-79896295D02*
X68794333Y-80039152D01*
X68794333Y-80039152D02*
X68746714Y-80134390D01*
X68746714Y-80134390D02*
X68699095Y-80182009D01*
X68699095Y-80182009D02*
X68603857Y-80229628D01*
X68603857Y-80229628D02*
X68222905Y-80229628D01*
X69365762Y-80134390D02*
X69270524Y-80086771D01*
X69270524Y-80086771D02*
X69222905Y-80039152D01*
X69222905Y-80039152D02*
X69175286Y-79943914D01*
X69175286Y-79943914D02*
X69175286Y-79896295D01*
X69175286Y-79896295D02*
X69222905Y-79801057D01*
X69222905Y-79801057D02*
X69270524Y-79753438D01*
X69270524Y-79753438D02*
X69365762Y-79705819D01*
X69365762Y-79705819D02*
X69556238Y-79705819D01*
X69556238Y-79705819D02*
X69651476Y-79753438D01*
X69651476Y-79753438D02*
X69699095Y-79801057D01*
X69699095Y-79801057D02*
X69746714Y-79896295D01*
X69746714Y-79896295D02*
X69746714Y-79943914D01*
X69746714Y-79943914D02*
X69699095Y-80039152D01*
X69699095Y-80039152D02*
X69651476Y-80086771D01*
X69651476Y-80086771D02*
X69556238Y-80134390D01*
X69556238Y-80134390D02*
X69365762Y-80134390D01*
X69365762Y-80134390D02*
X69270524Y-80182009D01*
X69270524Y-80182009D02*
X69222905Y-80229628D01*
X69222905Y-80229628D02*
X69175286Y-80324866D01*
X69175286Y-80324866D02*
X69175286Y-80515342D01*
X69175286Y-80515342D02*
X69222905Y-80610580D01*
X69222905Y-80610580D02*
X69270524Y-80658200D01*
X69270524Y-80658200D02*
X69365762Y-80705819D01*
X69365762Y-80705819D02*
X69556238Y-80705819D01*
X69556238Y-80705819D02*
X69651476Y-80658200D01*
X69651476Y-80658200D02*
X69699095Y-80610580D01*
X69699095Y-80610580D02*
X69746714Y-80515342D01*
X69746714Y-80515342D02*
X69746714Y-80324866D01*
X69746714Y-80324866D02*
X69699095Y-80229628D01*
X69699095Y-80229628D02*
X69651476Y-80182009D01*
X69651476Y-80182009D02*
X69556238Y-80134390D01*
X52048580Y-120540666D02*
X52096200Y-120588285D01*
X52096200Y-120588285D02*
X52143819Y-120731142D01*
X52143819Y-120731142D02*
X52143819Y-120826380D01*
X52143819Y-120826380D02*
X52096200Y-120969237D01*
X52096200Y-120969237D02*
X52000961Y-121064475D01*
X52000961Y-121064475D02*
X51905723Y-121112094D01*
X51905723Y-121112094D02*
X51715247Y-121159713D01*
X51715247Y-121159713D02*
X51572390Y-121159713D01*
X51572390Y-121159713D02*
X51381914Y-121112094D01*
X51381914Y-121112094D02*
X51286676Y-121064475D01*
X51286676Y-121064475D02*
X51191438Y-120969237D01*
X51191438Y-120969237D02*
X51143819Y-120826380D01*
X51143819Y-120826380D02*
X51143819Y-120731142D01*
X51143819Y-120731142D02*
X51191438Y-120588285D01*
X51191438Y-120588285D02*
X51239057Y-120540666D01*
X51143819Y-120207332D02*
X51143819Y-119588285D01*
X51143819Y-119588285D02*
X51524771Y-119921618D01*
X51524771Y-119921618D02*
X51524771Y-119778761D01*
X51524771Y-119778761D02*
X51572390Y-119683523D01*
X51572390Y-119683523D02*
X51620009Y-119635904D01*
X51620009Y-119635904D02*
X51715247Y-119588285D01*
X51715247Y-119588285D02*
X51953342Y-119588285D01*
X51953342Y-119588285D02*
X52048580Y-119635904D01*
X52048580Y-119635904D02*
X52096200Y-119683523D01*
X52096200Y-119683523D02*
X52143819Y-119778761D01*
X52143819Y-119778761D02*
X52143819Y-120064475D01*
X52143819Y-120064475D02*
X52096200Y-120159713D01*
X52096200Y-120159713D02*
X52048580Y-120207332D01*
X52967095Y-92291819D02*
X53538523Y-92291819D01*
X53252809Y-93291819D02*
X53252809Y-92291819D01*
X53871857Y-93291819D02*
X53871857Y-92291819D01*
X53871857Y-92291819D02*
X54252809Y-92291819D01*
X54252809Y-92291819D02*
X54348047Y-92339438D01*
X54348047Y-92339438D02*
X54395666Y-92387057D01*
X54395666Y-92387057D02*
X54443285Y-92482295D01*
X54443285Y-92482295D02*
X54443285Y-92625152D01*
X54443285Y-92625152D02*
X54395666Y-92720390D01*
X54395666Y-92720390D02*
X54348047Y-92768009D01*
X54348047Y-92768009D02*
X54252809Y-92815628D01*
X54252809Y-92815628D02*
X53871857Y-92815628D01*
X55395666Y-93291819D02*
X54824238Y-93291819D01*
X55109952Y-93291819D02*
X55109952Y-92291819D01*
X55109952Y-92291819D02*
X55014714Y-92434676D01*
X55014714Y-92434676D02*
X54919476Y-92529914D01*
X54919476Y-92529914D02*
X54824238Y-92577533D01*
X58380333Y-85163819D02*
X58047000Y-84687628D01*
X57808905Y-85163819D02*
X57808905Y-84163819D01*
X57808905Y-84163819D02*
X58189857Y-84163819D01*
X58189857Y-84163819D02*
X58285095Y-84211438D01*
X58285095Y-84211438D02*
X58332714Y-84259057D01*
X58332714Y-84259057D02*
X58380333Y-84354295D01*
X58380333Y-84354295D02*
X58380333Y-84497152D01*
X58380333Y-84497152D02*
X58332714Y-84592390D01*
X58332714Y-84592390D02*
X58285095Y-84640009D01*
X58285095Y-84640009D02*
X58189857Y-84687628D01*
X58189857Y-84687628D02*
X57808905Y-84687628D01*
X59332714Y-85163819D02*
X58761286Y-85163819D01*
X59047000Y-85163819D02*
X59047000Y-84163819D01*
X59047000Y-84163819D02*
X58951762Y-84306676D01*
X58951762Y-84306676D02*
X58856524Y-84401914D01*
X58856524Y-84401914D02*
X58761286Y-84449533D01*
D11*
X69281318Y-120855619D02*
X70309413Y-120855619D01*
X70309413Y-120855619D02*
X70430365Y-120795142D01*
X70430365Y-120795142D02*
X70490842Y-120734666D01*
X70490842Y-120734666D02*
X70551318Y-120613714D01*
X70551318Y-120613714D02*
X70551318Y-120371809D01*
X70551318Y-120371809D02*
X70490842Y-120250857D01*
X70490842Y-120250857D02*
X70430365Y-120190380D01*
X70430365Y-120190380D02*
X70309413Y-120129904D01*
X70309413Y-120129904D02*
X69281318Y-120129904D01*
X69281318Y-119646095D02*
X69281318Y-118859904D01*
X69281318Y-118859904D02*
X69765127Y-119283238D01*
X69765127Y-119283238D02*
X69765127Y-119101809D01*
X69765127Y-119101809D02*
X69825603Y-118980857D01*
X69825603Y-118980857D02*
X69886080Y-118920381D01*
X69886080Y-118920381D02*
X70007032Y-118859904D01*
X70007032Y-118859904D02*
X70309413Y-118859904D01*
X70309413Y-118859904D02*
X70430365Y-118920381D01*
X70430365Y-118920381D02*
X70490842Y-118980857D01*
X70490842Y-118980857D02*
X70551318Y-119101809D01*
X70551318Y-119101809D02*
X70551318Y-119464666D01*
X70551318Y-119464666D02*
X70490842Y-119585619D01*
X70490842Y-119585619D02*
X70430365Y-119646095D01*
D12*
X79335333Y-86071580D02*
X79287714Y-86119200D01*
X79287714Y-86119200D02*
X79144857Y-86166819D01*
X79144857Y-86166819D02*
X79049619Y-86166819D01*
X79049619Y-86166819D02*
X78906762Y-86119200D01*
X78906762Y-86119200D02*
X78811524Y-86023961D01*
X78811524Y-86023961D02*
X78763905Y-85928723D01*
X78763905Y-85928723D02*
X78716286Y-85738247D01*
X78716286Y-85738247D02*
X78716286Y-85595390D01*
X78716286Y-85595390D02*
X78763905Y-85404914D01*
X78763905Y-85404914D02*
X78811524Y-85309676D01*
X78811524Y-85309676D02*
X78906762Y-85214438D01*
X78906762Y-85214438D02*
X79049619Y-85166819D01*
X79049619Y-85166819D02*
X79144857Y-85166819D01*
X79144857Y-85166819D02*
X79287714Y-85214438D01*
X79287714Y-85214438D02*
X79335333Y-85262057D01*
X79906762Y-85595390D02*
X79811524Y-85547771D01*
X79811524Y-85547771D02*
X79763905Y-85500152D01*
X79763905Y-85500152D02*
X79716286Y-85404914D01*
X79716286Y-85404914D02*
X79716286Y-85357295D01*
X79716286Y-85357295D02*
X79763905Y-85262057D01*
X79763905Y-85262057D02*
X79811524Y-85214438D01*
X79811524Y-85214438D02*
X79906762Y-85166819D01*
X79906762Y-85166819D02*
X80097238Y-85166819D01*
X80097238Y-85166819D02*
X80192476Y-85214438D01*
X80192476Y-85214438D02*
X80240095Y-85262057D01*
X80240095Y-85262057D02*
X80287714Y-85357295D01*
X80287714Y-85357295D02*
X80287714Y-85404914D01*
X80287714Y-85404914D02*
X80240095Y-85500152D01*
X80240095Y-85500152D02*
X80192476Y-85547771D01*
X80192476Y-85547771D02*
X80097238Y-85595390D01*
X80097238Y-85595390D02*
X79906762Y-85595390D01*
X79906762Y-85595390D02*
X79811524Y-85643009D01*
X79811524Y-85643009D02*
X79763905Y-85690628D01*
X79763905Y-85690628D02*
X79716286Y-85785866D01*
X79716286Y-85785866D02*
X79716286Y-85976342D01*
X79716286Y-85976342D02*
X79763905Y-86071580D01*
X79763905Y-86071580D02*
X79811524Y-86119200D01*
X79811524Y-86119200D02*
X79906762Y-86166819D01*
X79906762Y-86166819D02*
X80097238Y-86166819D01*
X80097238Y-86166819D02*
X80192476Y-86119200D01*
X80192476Y-86119200D02*
X80240095Y-86071580D01*
X80240095Y-86071580D02*
X80287714Y-85976342D01*
X80287714Y-85976342D02*
X80287714Y-85785866D01*
X80287714Y-85785866D02*
X80240095Y-85690628D01*
X80240095Y-85690628D02*
X80192476Y-85643009D01*
X80192476Y-85643009D02*
X80097238Y-85595390D01*
X67484666Y-75496009D02*
X67151333Y-75496009D01*
X67151333Y-76019819D02*
X67151333Y-75019819D01*
X67151333Y-75019819D02*
X67627523Y-75019819D01*
X68532285Y-76019819D02*
X67960857Y-76019819D01*
X68246571Y-76019819D02*
X68246571Y-75019819D01*
X68246571Y-75019819D02*
X68151333Y-75162676D01*
X68151333Y-75162676D02*
X68056095Y-75257914D01*
X68056095Y-75257914D02*
X67960857Y-75305533D01*
X71620142Y-121263580D02*
X71572523Y-121311200D01*
X71572523Y-121311200D02*
X71429666Y-121358819D01*
X71429666Y-121358819D02*
X71334428Y-121358819D01*
X71334428Y-121358819D02*
X71191571Y-121311200D01*
X71191571Y-121311200D02*
X71096333Y-121215961D01*
X71096333Y-121215961D02*
X71048714Y-121120723D01*
X71048714Y-121120723D02*
X71001095Y-120930247D01*
X71001095Y-120930247D02*
X71001095Y-120787390D01*
X71001095Y-120787390D02*
X71048714Y-120596914D01*
X71048714Y-120596914D02*
X71096333Y-120501676D01*
X71096333Y-120501676D02*
X71191571Y-120406438D01*
X71191571Y-120406438D02*
X71334428Y-120358819D01*
X71334428Y-120358819D02*
X71429666Y-120358819D01*
X71429666Y-120358819D02*
X71572523Y-120406438D01*
X71572523Y-120406438D02*
X71620142Y-120454057D01*
X72572523Y-121358819D02*
X72001095Y-121358819D01*
X72286809Y-121358819D02*
X72286809Y-120358819D01*
X72286809Y-120358819D02*
X72191571Y-120501676D01*
X72191571Y-120501676D02*
X72096333Y-120596914D01*
X72096333Y-120596914D02*
X72001095Y-120644533D01*
X73429666Y-120692152D02*
X73429666Y-121358819D01*
X73191571Y-120311200D02*
X72953476Y-121025485D01*
X72953476Y-121025485D02*
X73572523Y-121025485D01*
X58779580Y-90209666D02*
X58827200Y-90257285D01*
X58827200Y-90257285D02*
X58874819Y-90400142D01*
X58874819Y-90400142D02*
X58874819Y-90495380D01*
X58874819Y-90495380D02*
X58827200Y-90638237D01*
X58827200Y-90638237D02*
X58731961Y-90733475D01*
X58731961Y-90733475D02*
X58636723Y-90781094D01*
X58636723Y-90781094D02*
X58446247Y-90828713D01*
X58446247Y-90828713D02*
X58303390Y-90828713D01*
X58303390Y-90828713D02*
X58112914Y-90781094D01*
X58112914Y-90781094D02*
X58017676Y-90733475D01*
X58017676Y-90733475D02*
X57922438Y-90638237D01*
X57922438Y-90638237D02*
X57874819Y-90495380D01*
X57874819Y-90495380D02*
X57874819Y-90400142D01*
X57874819Y-90400142D02*
X57922438Y-90257285D01*
X57922438Y-90257285D02*
X57970057Y-90209666D01*
X58874819Y-89257285D02*
X58874819Y-89828713D01*
X58874819Y-89542999D02*
X57874819Y-89542999D01*
X57874819Y-89542999D02*
X58017676Y-89638237D01*
X58017676Y-89638237D02*
X58112914Y-89733475D01*
X58112914Y-89733475D02*
X58160533Y-89828713D01*
X67175142Y-121263580D02*
X67127523Y-121311200D01*
X67127523Y-121311200D02*
X66984666Y-121358819D01*
X66984666Y-121358819D02*
X66889428Y-121358819D01*
X66889428Y-121358819D02*
X66746571Y-121311200D01*
X66746571Y-121311200D02*
X66651333Y-121215961D01*
X66651333Y-121215961D02*
X66603714Y-121120723D01*
X66603714Y-121120723D02*
X66556095Y-120930247D01*
X66556095Y-120930247D02*
X66556095Y-120787390D01*
X66556095Y-120787390D02*
X66603714Y-120596914D01*
X66603714Y-120596914D02*
X66651333Y-120501676D01*
X66651333Y-120501676D02*
X66746571Y-120406438D01*
X66746571Y-120406438D02*
X66889428Y-120358819D01*
X66889428Y-120358819D02*
X66984666Y-120358819D01*
X66984666Y-120358819D02*
X67127523Y-120406438D01*
X67127523Y-120406438D02*
X67175142Y-120454057D01*
X68127523Y-121358819D02*
X67556095Y-121358819D01*
X67841809Y-121358819D02*
X67841809Y-120358819D01*
X67841809Y-120358819D02*
X67746571Y-120501676D01*
X67746571Y-120501676D02*
X67651333Y-120596914D01*
X67651333Y-120596914D02*
X67556095Y-120644533D01*
X69079904Y-121358819D02*
X68508476Y-121358819D01*
X68794190Y-121358819D02*
X68794190Y-120358819D01*
X68794190Y-120358819D02*
X68698952Y-120501676D01*
X68698952Y-120501676D02*
X68603714Y-120596914D01*
X68603714Y-120596914D02*
X68508476Y-120644533D01*
X80496580Y-80766857D02*
X80544200Y-80814476D01*
X80544200Y-80814476D02*
X80591819Y-80957333D01*
X80591819Y-80957333D02*
X80591819Y-81052571D01*
X80591819Y-81052571D02*
X80544200Y-81195428D01*
X80544200Y-81195428D02*
X80448961Y-81290666D01*
X80448961Y-81290666D02*
X80353723Y-81338285D01*
X80353723Y-81338285D02*
X80163247Y-81385904D01*
X80163247Y-81385904D02*
X80020390Y-81385904D01*
X80020390Y-81385904D02*
X79829914Y-81338285D01*
X79829914Y-81338285D02*
X79734676Y-81290666D01*
X79734676Y-81290666D02*
X79639438Y-81195428D01*
X79639438Y-81195428D02*
X79591819Y-81052571D01*
X79591819Y-81052571D02*
X79591819Y-80957333D01*
X79591819Y-80957333D02*
X79639438Y-80814476D01*
X79639438Y-80814476D02*
X79687057Y-80766857D01*
X80591819Y-79814476D02*
X80591819Y-80385904D01*
X80591819Y-80100190D02*
X79591819Y-80100190D01*
X79591819Y-80100190D02*
X79734676Y-80195428D01*
X79734676Y-80195428D02*
X79829914Y-80290666D01*
X79829914Y-80290666D02*
X79877533Y-80385904D01*
X79591819Y-79195428D02*
X79591819Y-79100190D01*
X79591819Y-79100190D02*
X79639438Y-79004952D01*
X79639438Y-79004952D02*
X79687057Y-78957333D01*
X79687057Y-78957333D02*
X79782295Y-78909714D01*
X79782295Y-78909714D02*
X79972771Y-78862095D01*
X79972771Y-78862095D02*
X80210866Y-78862095D01*
X80210866Y-78862095D02*
X80401342Y-78909714D01*
X80401342Y-78909714D02*
X80496580Y-78957333D01*
X80496580Y-78957333D02*
X80544200Y-79004952D01*
X80544200Y-79004952D02*
X80591819Y-79100190D01*
X80591819Y-79100190D02*
X80591819Y-79195428D01*
X80591819Y-79195428D02*
X80544200Y-79290666D01*
X80544200Y-79290666D02*
X80496580Y-79338285D01*
X80496580Y-79338285D02*
X80401342Y-79385904D01*
X80401342Y-79385904D02*
X80210866Y-79433523D01*
X80210866Y-79433523D02*
X79972771Y-79433523D01*
X79972771Y-79433523D02*
X79782295Y-79385904D01*
X79782295Y-79385904D02*
X79687057Y-79338285D01*
X79687057Y-79338285D02*
X79639438Y-79290666D01*
X79639438Y-79290666D02*
X79591819Y-79195428D01*
D11*
X59357380Y-94554318D02*
X59357380Y-95582413D01*
X59357380Y-95582413D02*
X59417857Y-95703365D01*
X59417857Y-95703365D02*
X59478333Y-95763842D01*
X59478333Y-95763842D02*
X59599285Y-95824318D01*
X59599285Y-95824318D02*
X59841190Y-95824318D01*
X59841190Y-95824318D02*
X59962142Y-95763842D01*
X59962142Y-95763842D02*
X60022619Y-95703365D01*
X60022619Y-95703365D02*
X60083095Y-95582413D01*
X60083095Y-95582413D02*
X60083095Y-94554318D01*
X61232142Y-94977651D02*
X61232142Y-95824318D01*
X60929761Y-94493842D02*
X60627380Y-95400984D01*
X60627380Y-95400984D02*
X61413571Y-95400984D01*
D12*
X69288819Y-112529857D02*
X68812628Y-112863190D01*
X69288819Y-113101285D02*
X68288819Y-113101285D01*
X68288819Y-113101285D02*
X68288819Y-112720333D01*
X68288819Y-112720333D02*
X68336438Y-112625095D01*
X68336438Y-112625095D02*
X68384057Y-112577476D01*
X68384057Y-112577476D02*
X68479295Y-112529857D01*
X68479295Y-112529857D02*
X68622152Y-112529857D01*
X68622152Y-112529857D02*
X68717390Y-112577476D01*
X68717390Y-112577476D02*
X68765009Y-112625095D01*
X68765009Y-112625095D02*
X68812628Y-112720333D01*
X68812628Y-112720333D02*
X68812628Y-113101285D01*
X69288819Y-111577476D02*
X69288819Y-112148904D01*
X69288819Y-111863190D02*
X68288819Y-111863190D01*
X68288819Y-111863190D02*
X68431676Y-111958428D01*
X68431676Y-111958428D02*
X68526914Y-112053666D01*
X68526914Y-112053666D02*
X68574533Y-112148904D01*
X68288819Y-111244142D02*
X68288819Y-110625095D01*
X68288819Y-110625095D02*
X68669771Y-110958428D01*
X68669771Y-110958428D02*
X68669771Y-110815571D01*
X68669771Y-110815571D02*
X68717390Y-110720333D01*
X68717390Y-110720333D02*
X68765009Y-110672714D01*
X68765009Y-110672714D02*
X68860247Y-110625095D01*
X68860247Y-110625095D02*
X69098342Y-110625095D01*
X69098342Y-110625095D02*
X69193580Y-110672714D01*
X69193580Y-110672714D02*
X69241200Y-110720333D01*
X69241200Y-110720333D02*
X69288819Y-110815571D01*
X69288819Y-110815571D02*
X69288819Y-111101285D01*
X69288819Y-111101285D02*
X69241200Y-111196523D01*
X69241200Y-111196523D02*
X69193580Y-111244142D01*
X49889580Y-83851666D02*
X49937200Y-83899285D01*
X49937200Y-83899285D02*
X49984819Y-84042142D01*
X49984819Y-84042142D02*
X49984819Y-84137380D01*
X49984819Y-84137380D02*
X49937200Y-84280237D01*
X49937200Y-84280237D02*
X49841961Y-84375475D01*
X49841961Y-84375475D02*
X49746723Y-84423094D01*
X49746723Y-84423094D02*
X49556247Y-84470713D01*
X49556247Y-84470713D02*
X49413390Y-84470713D01*
X49413390Y-84470713D02*
X49222914Y-84423094D01*
X49222914Y-84423094D02*
X49127676Y-84375475D01*
X49127676Y-84375475D02*
X49032438Y-84280237D01*
X49032438Y-84280237D02*
X48984819Y-84137380D01*
X48984819Y-84137380D02*
X48984819Y-84042142D01*
X48984819Y-84042142D02*
X49032438Y-83899285D01*
X49032438Y-83899285D02*
X49080057Y-83851666D01*
X49984819Y-82851666D02*
X49508628Y-83184999D01*
X49984819Y-83423094D02*
X48984819Y-83423094D01*
X48984819Y-83423094D02*
X48984819Y-83042142D01*
X48984819Y-83042142D02*
X49032438Y-82946904D01*
X49032438Y-82946904D02*
X49080057Y-82899285D01*
X49080057Y-82899285D02*
X49175295Y-82851666D01*
X49175295Y-82851666D02*
X49318152Y-82851666D01*
X49318152Y-82851666D02*
X49413390Y-82899285D01*
X49413390Y-82899285D02*
X49461009Y-82946904D01*
X49461009Y-82946904D02*
X49508628Y-83042142D01*
X49508628Y-83042142D02*
X49508628Y-83423094D01*
X49984819Y-81899285D02*
X49984819Y-82470713D01*
X49984819Y-82184999D02*
X48984819Y-82184999D01*
X48984819Y-82184999D02*
X49127676Y-82280237D01*
X49127676Y-82280237D02*
X49222914Y-82375475D01*
X49222914Y-82375475D02*
X49270533Y-82470713D01*
X72398095Y-85814819D02*
X72969523Y-85814819D01*
X72683809Y-86814819D02*
X72683809Y-85814819D01*
X73302857Y-86814819D02*
X73302857Y-85814819D01*
X73302857Y-85814819D02*
X73683809Y-85814819D01*
X73683809Y-85814819D02*
X73779047Y-85862438D01*
X73779047Y-85862438D02*
X73826666Y-85910057D01*
X73826666Y-85910057D02*
X73874285Y-86005295D01*
X73874285Y-86005295D02*
X73874285Y-86148152D01*
X73874285Y-86148152D02*
X73826666Y-86243390D01*
X73826666Y-86243390D02*
X73779047Y-86291009D01*
X73779047Y-86291009D02*
X73683809Y-86338628D01*
X73683809Y-86338628D02*
X73302857Y-86338628D01*
X74207619Y-85814819D02*
X74874285Y-85814819D01*
X74874285Y-85814819D02*
X74445714Y-86814819D01*
X70858142Y-110944819D02*
X70524809Y-110468628D01*
X70286714Y-110944819D02*
X70286714Y-109944819D01*
X70286714Y-109944819D02*
X70667666Y-109944819D01*
X70667666Y-109944819D02*
X70762904Y-109992438D01*
X70762904Y-109992438D02*
X70810523Y-110040057D01*
X70810523Y-110040057D02*
X70858142Y-110135295D01*
X70858142Y-110135295D02*
X70858142Y-110278152D01*
X70858142Y-110278152D02*
X70810523Y-110373390D01*
X70810523Y-110373390D02*
X70762904Y-110421009D01*
X70762904Y-110421009D02*
X70667666Y-110468628D01*
X70667666Y-110468628D02*
X70286714Y-110468628D01*
X71810523Y-110944819D02*
X71239095Y-110944819D01*
X71524809Y-110944819D02*
X71524809Y-109944819D01*
X71524809Y-109944819D02*
X71429571Y-110087676D01*
X71429571Y-110087676D02*
X71334333Y-110182914D01*
X71334333Y-110182914D02*
X71239095Y-110230533D01*
X72191476Y-110040057D02*
X72239095Y-109992438D01*
X72239095Y-109992438D02*
X72334333Y-109944819D01*
X72334333Y-109944819D02*
X72572428Y-109944819D01*
X72572428Y-109944819D02*
X72667666Y-109992438D01*
X72667666Y-109992438D02*
X72715285Y-110040057D01*
X72715285Y-110040057D02*
X72762904Y-110135295D01*
X72762904Y-110135295D02*
X72762904Y-110230533D01*
X72762904Y-110230533D02*
X72715285Y-110373390D01*
X72715285Y-110373390D02*
X72143857Y-110944819D01*
X72143857Y-110944819D02*
X72762904Y-110944819D01*
X71844819Y-74159904D02*
X71844819Y-73588476D01*
X72844819Y-73874190D02*
X71844819Y-73874190D01*
X72844819Y-73255142D02*
X71844819Y-73255142D01*
X71844819Y-73255142D02*
X71844819Y-72874190D01*
X71844819Y-72874190D02*
X71892438Y-72778952D01*
X71892438Y-72778952D02*
X71940057Y-72731333D01*
X71940057Y-72731333D02*
X72035295Y-72683714D01*
X72035295Y-72683714D02*
X72178152Y-72683714D01*
X72178152Y-72683714D02*
X72273390Y-72731333D01*
X72273390Y-72731333D02*
X72321009Y-72778952D01*
X72321009Y-72778952D02*
X72368628Y-72874190D01*
X72368628Y-72874190D02*
X72368628Y-73255142D01*
X72844819Y-72207523D02*
X72844819Y-72017047D01*
X72844819Y-72017047D02*
X72797200Y-71921809D01*
X72797200Y-71921809D02*
X72749580Y-71874190D01*
X72749580Y-71874190D02*
X72606723Y-71778952D01*
X72606723Y-71778952D02*
X72416247Y-71731333D01*
X72416247Y-71731333D02*
X72035295Y-71731333D01*
X72035295Y-71731333D02*
X71940057Y-71778952D01*
X71940057Y-71778952D02*
X71892438Y-71826571D01*
X71892438Y-71826571D02*
X71844819Y-71921809D01*
X71844819Y-71921809D02*
X71844819Y-72112285D01*
X71844819Y-72112285D02*
X71892438Y-72207523D01*
X71892438Y-72207523D02*
X71940057Y-72255142D01*
X71940057Y-72255142D02*
X72035295Y-72302761D01*
X72035295Y-72302761D02*
X72273390Y-72302761D01*
X72273390Y-72302761D02*
X72368628Y-72255142D01*
X72368628Y-72255142D02*
X72416247Y-72207523D01*
X72416247Y-72207523D02*
X72463866Y-72112285D01*
X72463866Y-72112285D02*
X72463866Y-71921809D01*
X72463866Y-71921809D02*
X72416247Y-71826571D01*
X72416247Y-71826571D02*
X72368628Y-71778952D01*
X72368628Y-71778952D02*
X72273390Y-71731333D01*
D13*
X76333048Y-87711095D02*
X75849238Y-87711095D01*
X75849238Y-87711095D02*
X75849238Y-86695095D01*
X76671714Y-87178905D02*
X77010381Y-87178905D01*
X77155524Y-87711095D02*
X76671714Y-87711095D01*
X76671714Y-87711095D02*
X76671714Y-86695095D01*
X76671714Y-86695095D02*
X77155524Y-86695095D01*
X77590952Y-87711095D02*
X77590952Y-86695095D01*
X77590952Y-86695095D02*
X77832857Y-86695095D01*
X77832857Y-86695095D02*
X77978000Y-86743476D01*
X77978000Y-86743476D02*
X78074762Y-86840238D01*
X78074762Y-86840238D02*
X78123143Y-86937000D01*
X78123143Y-86937000D02*
X78171524Y-87130524D01*
X78171524Y-87130524D02*
X78171524Y-87275667D01*
X78171524Y-87275667D02*
X78123143Y-87469191D01*
X78123143Y-87469191D02*
X78074762Y-87565953D01*
X78074762Y-87565953D02*
X77978000Y-87662715D01*
X77978000Y-87662715D02*
X77832857Y-87711095D01*
X77832857Y-87711095D02*
X77590952Y-87711095D01*
X79042381Y-87033762D02*
X79042381Y-87711095D01*
X78800476Y-86646715D02*
X78558571Y-87372429D01*
X78558571Y-87372429D02*
X79187524Y-87372429D01*
D12*
X75176142Y-93418819D02*
X74842809Y-92942628D01*
X74604714Y-93418819D02*
X74604714Y-92418819D01*
X74604714Y-92418819D02*
X74985666Y-92418819D01*
X74985666Y-92418819D02*
X75080904Y-92466438D01*
X75080904Y-92466438D02*
X75128523Y-92514057D01*
X75128523Y-92514057D02*
X75176142Y-92609295D01*
X75176142Y-92609295D02*
X75176142Y-92752152D01*
X75176142Y-92752152D02*
X75128523Y-92847390D01*
X75128523Y-92847390D02*
X75080904Y-92895009D01*
X75080904Y-92895009D02*
X74985666Y-92942628D01*
X74985666Y-92942628D02*
X74604714Y-92942628D01*
X76128523Y-93418819D02*
X75557095Y-93418819D01*
X75842809Y-93418819D02*
X75842809Y-92418819D01*
X75842809Y-92418819D02*
X75747571Y-92561676D01*
X75747571Y-92561676D02*
X75652333Y-92656914D01*
X75652333Y-92656914D02*
X75557095Y-92704533D01*
X77033285Y-92418819D02*
X76557095Y-92418819D01*
X76557095Y-92418819D02*
X76509476Y-92895009D01*
X76509476Y-92895009D02*
X76557095Y-92847390D01*
X76557095Y-92847390D02*
X76652333Y-92799771D01*
X76652333Y-92799771D02*
X76890428Y-92799771D01*
X76890428Y-92799771D02*
X76985666Y-92847390D01*
X76985666Y-92847390D02*
X77033285Y-92895009D01*
X77033285Y-92895009D02*
X77080904Y-92990247D01*
X77080904Y-92990247D02*
X77080904Y-93228342D01*
X77080904Y-93228342D02*
X77033285Y-93323580D01*
X77033285Y-93323580D02*
X76985666Y-93371200D01*
X76985666Y-93371200D02*
X76890428Y-93418819D01*
X76890428Y-93418819D02*
X76652333Y-93418819D01*
X76652333Y-93418819D02*
X76557095Y-93371200D01*
X76557095Y-93371200D02*
X76509476Y-93323580D01*
D13*
X66924238Y-80187857D02*
X66827476Y-80139476D01*
X66827476Y-80139476D02*
X66730714Y-80042715D01*
X66730714Y-80042715D02*
X66585571Y-79897572D01*
X66585571Y-79897572D02*
X66488809Y-79849191D01*
X66488809Y-79849191D02*
X66392047Y-79849191D01*
X66440428Y-80091095D02*
X66343666Y-80042715D01*
X66343666Y-80042715D02*
X66246904Y-79945953D01*
X66246904Y-79945953D02*
X66198523Y-79752429D01*
X66198523Y-79752429D02*
X66198523Y-79413762D01*
X66198523Y-79413762D02*
X66246904Y-79220238D01*
X66246904Y-79220238D02*
X66343666Y-79123476D01*
X66343666Y-79123476D02*
X66440428Y-79075095D01*
X66440428Y-79075095D02*
X66633952Y-79075095D01*
X66633952Y-79075095D02*
X66730714Y-79123476D01*
X66730714Y-79123476D02*
X66827476Y-79220238D01*
X66827476Y-79220238D02*
X66875857Y-79413762D01*
X66875857Y-79413762D02*
X66875857Y-79752429D01*
X66875857Y-79752429D02*
X66827476Y-79945953D01*
X66827476Y-79945953D02*
X66730714Y-80042715D01*
X66730714Y-80042715D02*
X66633952Y-80091095D01*
X66633952Y-80091095D02*
X66440428Y-80091095D01*
X67843476Y-80091095D02*
X67262904Y-80091095D01*
X67553190Y-80091095D02*
X67553190Y-79075095D01*
X67553190Y-79075095D02*
X67456428Y-79220238D01*
X67456428Y-79220238D02*
X67359666Y-79317000D01*
X67359666Y-79317000D02*
X67262904Y-79365381D01*
D12*
X72336819Y-90304857D02*
X71860628Y-90638190D01*
X72336819Y-90876285D02*
X71336819Y-90876285D01*
X71336819Y-90876285D02*
X71336819Y-90495333D01*
X71336819Y-90495333D02*
X71384438Y-90400095D01*
X71384438Y-90400095D02*
X71432057Y-90352476D01*
X71432057Y-90352476D02*
X71527295Y-90304857D01*
X71527295Y-90304857D02*
X71670152Y-90304857D01*
X71670152Y-90304857D02*
X71765390Y-90352476D01*
X71765390Y-90352476D02*
X71813009Y-90400095D01*
X71813009Y-90400095D02*
X71860628Y-90495333D01*
X71860628Y-90495333D02*
X71860628Y-90876285D01*
X72336819Y-89352476D02*
X72336819Y-89923904D01*
X72336819Y-89638190D02*
X71336819Y-89638190D01*
X71336819Y-89638190D02*
X71479676Y-89733428D01*
X71479676Y-89733428D02*
X71574914Y-89828666D01*
X71574914Y-89828666D02*
X71622533Y-89923904D01*
X71336819Y-89019142D02*
X71336819Y-88352476D01*
X71336819Y-88352476D02*
X72336819Y-88781047D01*
X64905095Y-103848819D02*
X65476523Y-103848819D01*
X65190809Y-104848819D02*
X65190809Y-103848819D01*
X65809857Y-104848819D02*
X65809857Y-103848819D01*
X65809857Y-103848819D02*
X66190809Y-103848819D01*
X66190809Y-103848819D02*
X66286047Y-103896438D01*
X66286047Y-103896438D02*
X66333666Y-103944057D01*
X66333666Y-103944057D02*
X66381285Y-104039295D01*
X66381285Y-104039295D02*
X66381285Y-104182152D01*
X66381285Y-104182152D02*
X66333666Y-104277390D01*
X66333666Y-104277390D02*
X66286047Y-104325009D01*
X66286047Y-104325009D02*
X66190809Y-104372628D01*
X66190809Y-104372628D02*
X65809857Y-104372628D01*
X66952714Y-104277390D02*
X66857476Y-104229771D01*
X66857476Y-104229771D02*
X66809857Y-104182152D01*
X66809857Y-104182152D02*
X66762238Y-104086914D01*
X66762238Y-104086914D02*
X66762238Y-104039295D01*
X66762238Y-104039295D02*
X66809857Y-103944057D01*
X66809857Y-103944057D02*
X66857476Y-103896438D01*
X66857476Y-103896438D02*
X66952714Y-103848819D01*
X66952714Y-103848819D02*
X67143190Y-103848819D01*
X67143190Y-103848819D02*
X67238428Y-103896438D01*
X67238428Y-103896438D02*
X67286047Y-103944057D01*
X67286047Y-103944057D02*
X67333666Y-104039295D01*
X67333666Y-104039295D02*
X67333666Y-104086914D01*
X67333666Y-104086914D02*
X67286047Y-104182152D01*
X67286047Y-104182152D02*
X67238428Y-104229771D01*
X67238428Y-104229771D02*
X67143190Y-104277390D01*
X67143190Y-104277390D02*
X66952714Y-104277390D01*
X66952714Y-104277390D02*
X66857476Y-104325009D01*
X66857476Y-104325009D02*
X66809857Y-104372628D01*
X66809857Y-104372628D02*
X66762238Y-104467866D01*
X66762238Y-104467866D02*
X66762238Y-104658342D01*
X66762238Y-104658342D02*
X66809857Y-104753580D01*
X66809857Y-104753580D02*
X66857476Y-104801200D01*
X66857476Y-104801200D02*
X66952714Y-104848819D01*
X66952714Y-104848819D02*
X67143190Y-104848819D01*
X67143190Y-104848819D02*
X67238428Y-104801200D01*
X67238428Y-104801200D02*
X67286047Y-104753580D01*
X67286047Y-104753580D02*
X67333666Y-104658342D01*
X67333666Y-104658342D02*
X67333666Y-104467866D01*
X67333666Y-104467866D02*
X67286047Y-104372628D01*
X67286047Y-104372628D02*
X67238428Y-104325009D01*
X67238428Y-104325009D02*
X67143190Y-104277390D01*
X78351142Y-102054819D02*
X78017809Y-101578628D01*
X77779714Y-102054819D02*
X77779714Y-101054819D01*
X77779714Y-101054819D02*
X78160666Y-101054819D01*
X78160666Y-101054819D02*
X78255904Y-101102438D01*
X78255904Y-101102438D02*
X78303523Y-101150057D01*
X78303523Y-101150057D02*
X78351142Y-101245295D01*
X78351142Y-101245295D02*
X78351142Y-101388152D01*
X78351142Y-101388152D02*
X78303523Y-101483390D01*
X78303523Y-101483390D02*
X78255904Y-101531009D01*
X78255904Y-101531009D02*
X78160666Y-101578628D01*
X78160666Y-101578628D02*
X77779714Y-101578628D01*
X79303523Y-102054819D02*
X78732095Y-102054819D01*
X79017809Y-102054819D02*
X79017809Y-101054819D01*
X79017809Y-101054819D02*
X78922571Y-101197676D01*
X78922571Y-101197676D02*
X78827333Y-101292914D01*
X78827333Y-101292914D02*
X78732095Y-101340533D01*
X80160666Y-101054819D02*
X79970190Y-101054819D01*
X79970190Y-101054819D02*
X79874952Y-101102438D01*
X79874952Y-101102438D02*
X79827333Y-101150057D01*
X79827333Y-101150057D02*
X79732095Y-101292914D01*
X79732095Y-101292914D02*
X79684476Y-101483390D01*
X79684476Y-101483390D02*
X79684476Y-101864342D01*
X79684476Y-101864342D02*
X79732095Y-101959580D01*
X79732095Y-101959580D02*
X79779714Y-102007200D01*
X79779714Y-102007200D02*
X79874952Y-102054819D01*
X79874952Y-102054819D02*
X80065428Y-102054819D01*
X80065428Y-102054819D02*
X80160666Y-102007200D01*
X80160666Y-102007200D02*
X80208285Y-101959580D01*
X80208285Y-101959580D02*
X80255904Y-101864342D01*
X80255904Y-101864342D02*
X80255904Y-101626247D01*
X80255904Y-101626247D02*
X80208285Y-101531009D01*
X80208285Y-101531009D02*
X80160666Y-101483390D01*
X80160666Y-101483390D02*
X80065428Y-101435771D01*
X80065428Y-101435771D02*
X79874952Y-101435771D01*
X79874952Y-101435771D02*
X79779714Y-101483390D01*
X79779714Y-101483390D02*
X79732095Y-101531009D01*
X79732095Y-101531009D02*
X79684476Y-101626247D01*
D13*
X72777048Y-107015095D02*
X72293238Y-107015095D01*
X72293238Y-107015095D02*
X72293238Y-105999095D01*
X73115714Y-106482905D02*
X73454381Y-106482905D01*
X73599524Y-107015095D02*
X73115714Y-107015095D01*
X73115714Y-107015095D02*
X73115714Y-105999095D01*
X73115714Y-105999095D02*
X73599524Y-105999095D01*
X74034952Y-107015095D02*
X74034952Y-105999095D01*
X74034952Y-105999095D02*
X74276857Y-105999095D01*
X74276857Y-105999095D02*
X74422000Y-106047476D01*
X74422000Y-106047476D02*
X74518762Y-106144238D01*
X74518762Y-106144238D02*
X74567143Y-106241000D01*
X74567143Y-106241000D02*
X74615524Y-106434524D01*
X74615524Y-106434524D02*
X74615524Y-106579667D01*
X74615524Y-106579667D02*
X74567143Y-106773191D01*
X74567143Y-106773191D02*
X74518762Y-106869953D01*
X74518762Y-106869953D02*
X74422000Y-106966715D01*
X74422000Y-106966715D02*
X74276857Y-107015095D01*
X74276857Y-107015095D02*
X74034952Y-107015095D01*
X75534762Y-105999095D02*
X75050952Y-105999095D01*
X75050952Y-105999095D02*
X75002571Y-106482905D01*
X75002571Y-106482905D02*
X75050952Y-106434524D01*
X75050952Y-106434524D02*
X75147714Y-106386143D01*
X75147714Y-106386143D02*
X75389619Y-106386143D01*
X75389619Y-106386143D02*
X75486381Y-106434524D01*
X75486381Y-106434524D02*
X75534762Y-106482905D01*
X75534762Y-106482905D02*
X75583143Y-106579667D01*
X75583143Y-106579667D02*
X75583143Y-106821572D01*
X75583143Y-106821572D02*
X75534762Y-106918334D01*
X75534762Y-106918334D02*
X75486381Y-106966715D01*
X75486381Y-106966715D02*
X75389619Y-107015095D01*
X75389619Y-107015095D02*
X75147714Y-107015095D01*
X75147714Y-107015095D02*
X75050952Y-106966715D01*
X75050952Y-106966715D02*
X75002571Y-106918334D01*
D12*
X79335333Y-84420580D02*
X79287714Y-84468200D01*
X79287714Y-84468200D02*
X79144857Y-84515819D01*
X79144857Y-84515819D02*
X79049619Y-84515819D01*
X79049619Y-84515819D02*
X78906762Y-84468200D01*
X78906762Y-84468200D02*
X78811524Y-84372961D01*
X78811524Y-84372961D02*
X78763905Y-84277723D01*
X78763905Y-84277723D02*
X78716286Y-84087247D01*
X78716286Y-84087247D02*
X78716286Y-83944390D01*
X78716286Y-83944390D02*
X78763905Y-83753914D01*
X78763905Y-83753914D02*
X78811524Y-83658676D01*
X78811524Y-83658676D02*
X78906762Y-83563438D01*
X78906762Y-83563438D02*
X79049619Y-83515819D01*
X79049619Y-83515819D02*
X79144857Y-83515819D01*
X79144857Y-83515819D02*
X79287714Y-83563438D01*
X79287714Y-83563438D02*
X79335333Y-83611057D01*
X79668667Y-83515819D02*
X80335333Y-83515819D01*
X80335333Y-83515819D02*
X79906762Y-84515819D01*
X62492095Y-111468819D02*
X63063523Y-111468819D01*
X62777809Y-112468819D02*
X62777809Y-111468819D01*
X63396857Y-112468819D02*
X63396857Y-111468819D01*
X63396857Y-111468819D02*
X63777809Y-111468819D01*
X63777809Y-111468819D02*
X63873047Y-111516438D01*
X63873047Y-111516438D02*
X63920666Y-111564057D01*
X63920666Y-111564057D02*
X63968285Y-111659295D01*
X63968285Y-111659295D02*
X63968285Y-111802152D01*
X63968285Y-111802152D02*
X63920666Y-111897390D01*
X63920666Y-111897390D02*
X63873047Y-111945009D01*
X63873047Y-111945009D02*
X63777809Y-111992628D01*
X63777809Y-111992628D02*
X63396857Y-111992628D01*
X64873047Y-111468819D02*
X64396857Y-111468819D01*
X64396857Y-111468819D02*
X64349238Y-111945009D01*
X64349238Y-111945009D02*
X64396857Y-111897390D01*
X64396857Y-111897390D02*
X64492095Y-111849771D01*
X64492095Y-111849771D02*
X64730190Y-111849771D01*
X64730190Y-111849771D02*
X64825428Y-111897390D01*
X64825428Y-111897390D02*
X64873047Y-111945009D01*
X64873047Y-111945009D02*
X64920666Y-112040247D01*
X64920666Y-112040247D02*
X64920666Y-112278342D01*
X64920666Y-112278342D02*
X64873047Y-112373580D01*
X64873047Y-112373580D02*
X64825428Y-112421200D01*
X64825428Y-112421200D02*
X64730190Y-112468819D01*
X64730190Y-112468819D02*
X64492095Y-112468819D01*
X64492095Y-112468819D02*
X64396857Y-112421200D01*
X64396857Y-112421200D02*
X64349238Y-112373580D01*
X55332333Y-121263580D02*
X55284714Y-121311200D01*
X55284714Y-121311200D02*
X55141857Y-121358819D01*
X55141857Y-121358819D02*
X55046619Y-121358819D01*
X55046619Y-121358819D02*
X54903762Y-121311200D01*
X54903762Y-121311200D02*
X54808524Y-121215961D01*
X54808524Y-121215961D02*
X54760905Y-121120723D01*
X54760905Y-121120723D02*
X54713286Y-120930247D01*
X54713286Y-120930247D02*
X54713286Y-120787390D01*
X54713286Y-120787390D02*
X54760905Y-120596914D01*
X54760905Y-120596914D02*
X54808524Y-120501676D01*
X54808524Y-120501676D02*
X54903762Y-120406438D01*
X54903762Y-120406438D02*
X55046619Y-120358819D01*
X55046619Y-120358819D02*
X55141857Y-120358819D01*
X55141857Y-120358819D02*
X55284714Y-120406438D01*
X55284714Y-120406438D02*
X55332333Y-120454057D01*
X56189476Y-120358819D02*
X55999000Y-120358819D01*
X55999000Y-120358819D02*
X55903762Y-120406438D01*
X55903762Y-120406438D02*
X55856143Y-120454057D01*
X55856143Y-120454057D02*
X55760905Y-120596914D01*
X55760905Y-120596914D02*
X55713286Y-120787390D01*
X55713286Y-120787390D02*
X55713286Y-121168342D01*
X55713286Y-121168342D02*
X55760905Y-121263580D01*
X55760905Y-121263580D02*
X55808524Y-121311200D01*
X55808524Y-121311200D02*
X55903762Y-121358819D01*
X55903762Y-121358819D02*
X56094238Y-121358819D01*
X56094238Y-121358819D02*
X56189476Y-121311200D01*
X56189476Y-121311200D02*
X56237095Y-121263580D01*
X56237095Y-121263580D02*
X56284714Y-121168342D01*
X56284714Y-121168342D02*
X56284714Y-120930247D01*
X56284714Y-120930247D02*
X56237095Y-120835009D01*
X56237095Y-120835009D02*
X56189476Y-120787390D01*
X56189476Y-120787390D02*
X56094238Y-120739771D01*
X56094238Y-120739771D02*
X55903762Y-120739771D01*
X55903762Y-120739771D02*
X55808524Y-120787390D01*
X55808524Y-120787390D02*
X55760905Y-120835009D01*
X55760905Y-120835009D02*
X55713286Y-120930247D01*
D13*
X65598523Y-81742095D02*
X66275857Y-81742095D01*
X66275857Y-81742095D02*
X65598523Y-82758095D01*
X65598523Y-82758095D02*
X66275857Y-82758095D01*
X67195095Y-82758095D02*
X66614523Y-82758095D01*
X66904809Y-82758095D02*
X66904809Y-81742095D01*
X66904809Y-81742095D02*
X66808047Y-81887238D01*
X66808047Y-81887238D02*
X66711285Y-81984000D01*
X66711285Y-81984000D02*
X66614523Y-82032381D01*
D12*
X67288580Y-115196857D02*
X67336200Y-115244476D01*
X67336200Y-115244476D02*
X67383819Y-115387333D01*
X67383819Y-115387333D02*
X67383819Y-115482571D01*
X67383819Y-115482571D02*
X67336200Y-115625428D01*
X67336200Y-115625428D02*
X67240961Y-115720666D01*
X67240961Y-115720666D02*
X67145723Y-115768285D01*
X67145723Y-115768285D02*
X66955247Y-115815904D01*
X66955247Y-115815904D02*
X66812390Y-115815904D01*
X66812390Y-115815904D02*
X66621914Y-115768285D01*
X66621914Y-115768285D02*
X66526676Y-115720666D01*
X66526676Y-115720666D02*
X66431438Y-115625428D01*
X66431438Y-115625428D02*
X66383819Y-115482571D01*
X66383819Y-115482571D02*
X66383819Y-115387333D01*
X66383819Y-115387333D02*
X66431438Y-115244476D01*
X66431438Y-115244476D02*
X66479057Y-115196857D01*
X67383819Y-114244476D02*
X67383819Y-114815904D01*
X67383819Y-114530190D02*
X66383819Y-114530190D01*
X66383819Y-114530190D02*
X66526676Y-114625428D01*
X66526676Y-114625428D02*
X66621914Y-114720666D01*
X66621914Y-114720666D02*
X66669533Y-114815904D01*
X66383819Y-113911142D02*
X66383819Y-113292095D01*
X66383819Y-113292095D02*
X66764771Y-113625428D01*
X66764771Y-113625428D02*
X66764771Y-113482571D01*
X66764771Y-113482571D02*
X66812390Y-113387333D01*
X66812390Y-113387333D02*
X66860009Y-113339714D01*
X66860009Y-113339714D02*
X66955247Y-113292095D01*
X66955247Y-113292095D02*
X67193342Y-113292095D01*
X67193342Y-113292095D02*
X67288580Y-113339714D01*
X67288580Y-113339714D02*
X67336200Y-113387333D01*
X67336200Y-113387333D02*
X67383819Y-113482571D01*
X67383819Y-113482571D02*
X67383819Y-113768285D01*
X67383819Y-113768285D02*
X67336200Y-113863523D01*
X67336200Y-113863523D02*
X67288580Y-113911142D01*
D11*
X77131333Y-118557318D02*
X76526571Y-118557318D01*
X76526571Y-118557318D02*
X76526571Y-117287318D01*
X78098952Y-117710651D02*
X78098952Y-118557318D01*
X77796571Y-117226842D02*
X77494190Y-118133984D01*
X77494190Y-118133984D02*
X78280381Y-118133984D01*
D14*
X69278000Y-109704000D02*
X69278000Y-109704000D01*
X69278000Y-109504000D02*
X69278000Y-109504000D01*
D15*
X68328000Y-106354000D02*
X62228000Y-106354000D01*
X68326000Y-110054000D02*
X62228000Y-110054000D01*
X68326000Y-109347000D02*
X68326000Y-110054000D01*
X68326000Y-107061000D02*
X68328000Y-106354000D01*
X62228000Y-110054000D02*
X62228000Y-109347000D01*
X62228000Y-106354000D02*
X62228000Y-107061000D01*
D14*
X69278000Y-109504000D02*
G75*
G03*
X69278000Y-109704000I0J-100000D01*
G01*
X69278000Y-109704000D02*
G75*
G03*
X69278000Y-109504000I0J100000D01*
G01*
X69278000Y-89511000D02*
X69278000Y-89511000D01*
X69278000Y-89311000D02*
X69278000Y-89311000D01*
D15*
X68328000Y-86161000D02*
X62228000Y-86161000D01*
X68326000Y-89861000D02*
X62228000Y-89861000D01*
X68326000Y-89154000D02*
X68326000Y-89861000D01*
X68326000Y-86868000D02*
X68328000Y-86161000D01*
X62228000Y-89861000D02*
X62228000Y-89154000D01*
X62228000Y-86161000D02*
X62228000Y-86868000D01*
D14*
X69278000Y-89311000D02*
G75*
G03*
X69278000Y-89511000I0J-100000D01*
G01*
X69278000Y-89511000D02*
G75*
G03*
X69278000Y-89311000I0J100000D01*
G01*
D13*
X53467000Y-104648000D02*
X49657000Y-104648000D01*
X49657000Y-104648000D02*
X49657000Y-105918000D01*
X53467000Y-105918000D02*
X53467000Y-104648000D01*
X49657000Y-110998000D02*
X49657000Y-112268000D01*
X53467000Y-112268000D02*
X53467000Y-110998000D01*
X49657000Y-112268000D02*
X53467000Y-112268000D01*
D16*
X50323750Y-106553000D02*
G75*
G03*
X50323750Y-106553000I-158750J0D01*
G01*
D17*
X59323500Y-112737258D02*
X59323500Y-112262742D01*
X58278500Y-112737258D02*
X58278500Y-112262742D01*
X74915500Y-112411742D02*
X74915500Y-112886258D01*
X75960500Y-112411742D02*
X75960500Y-112886258D01*
X71263742Y-77471500D02*
X71738258Y-77471500D01*
X71263742Y-76426500D02*
X71738258Y-76426500D01*
X69661000Y-84074000D02*
G75*
G03*
X69661000Y-84074000I-700000J0D01*
G01*
D15*
X55459000Y-86041000D02*
X55459000Y-91041000D01*
X50459000Y-86041000D02*
X50459000Y-91081000D01*
D17*
X71263742Y-78077500D02*
X71738258Y-78077500D01*
X71263742Y-79122500D02*
X71738258Y-79122500D01*
X60771000Y-104648000D02*
G75*
G03*
X60771000Y-104648000I-700000J0D01*
G01*
X50953936Y-102389000D02*
X51408064Y-102389000D01*
X50953936Y-103859000D02*
X51408064Y-103859000D01*
X71263742Y-81633500D02*
X71738258Y-81633500D01*
X71263742Y-82678500D02*
X71738258Y-82678500D01*
D18*
X61310000Y-80827000D02*
X59460000Y-80827000D01*
X61310000Y-77777000D02*
X61310000Y-80827000D01*
X61310000Y-71827000D02*
X61310000Y-74777000D01*
X55860000Y-80827000D02*
X46910000Y-80827000D01*
X46910000Y-80827000D02*
X46910000Y-71827000D01*
X46910000Y-71827000D02*
X61310000Y-71827000D01*
D19*
X62410000Y-76327000D02*
G75*
G03*
X62410000Y-76327000I-200000J0D01*
G01*
D14*
X79045000Y-91757000D02*
X79045000Y-90107000D01*
X79045000Y-90107000D02*
X76720000Y-90107000D01*
X76720000Y-91757000D02*
X79045000Y-91757000D01*
X54153000Y-99377000D02*
X54153000Y-97727000D01*
X54153000Y-97727000D02*
X51828000Y-97727000D01*
X51828000Y-99377000D02*
X54153000Y-99377000D01*
D17*
X67185000Y-117842420D02*
X67185000Y-118123580D01*
X66165000Y-117842420D02*
X66165000Y-118123580D01*
X75581742Y-102474500D02*
X76056258Y-102474500D01*
X75581742Y-103519500D02*
X76056258Y-103519500D01*
D14*
X79045000Y-100520000D02*
X79045000Y-98870000D01*
X79045000Y-98870000D02*
X76720000Y-98870000D01*
X76720000Y-100520000D02*
X79045000Y-100520000D01*
D17*
X51442252Y-95096000D02*
X50919748Y-95096000D01*
X51442252Y-93626000D02*
X50919748Y-93626000D01*
X57672500Y-112262742D02*
X57672500Y-112737258D01*
X56627500Y-112262742D02*
X56627500Y-112737258D01*
X62978420Y-100074000D02*
X63259580Y-100074000D01*
X62978420Y-101094000D02*
X63259580Y-101094000D01*
D15*
X58079000Y-115356000D02*
X58079000Y-120396000D01*
X63079000Y-115356000D02*
X63079000Y-120356000D01*
D14*
X79045000Y-98488000D02*
X79045000Y-96838000D01*
X79045000Y-96838000D02*
X76720000Y-96838000D01*
X76720000Y-98488000D02*
X79045000Y-98488000D01*
D17*
X54976500Y-112737258D02*
X54976500Y-112262742D01*
X56021500Y-112737258D02*
X56021500Y-112262742D01*
D14*
X79045000Y-109283000D02*
X79045000Y-107633000D01*
X79045000Y-107633000D02*
X76720000Y-107633000D01*
X76720000Y-109283000D02*
X79045000Y-109283000D01*
D20*
X57486000Y-117825000D02*
G75*
G03*
X57486000Y-117825000I-125000J0D01*
G01*
D17*
X52199000Y-114518420D02*
X52199000Y-114799580D01*
X51179000Y-114518420D02*
X51179000Y-114799580D01*
X79231258Y-94883500D02*
X78756742Y-94883500D01*
X79231258Y-93838500D02*
X78756742Y-93838500D01*
X83250000Y-117475000D02*
G75*
G03*
X83250000Y-117475000I-700000J0D01*
G01*
X83250000Y-72898000D02*
G75*
G03*
X83250000Y-72898000I-700000J0D01*
G01*
X74309500Y-112411742D02*
X74309500Y-112886258D01*
X73264500Y-112411742D02*
X73264500Y-112886258D01*
X78883742Y-111237500D02*
X79358258Y-111237500D01*
X78883742Y-112282500D02*
X79358258Y-112282500D01*
X73646420Y-83551000D02*
X73927580Y-83551000D01*
X73646420Y-84571000D02*
X73927580Y-84571000D01*
X50548000Y-117693420D02*
X50548000Y-117974580D01*
X49528000Y-117693420D02*
X49528000Y-117974580D01*
X62881742Y-101712500D02*
X63356258Y-101712500D01*
X62881742Y-102757500D02*
X63356258Y-102757500D01*
D20*
X76975000Y-78275000D02*
G75*
G03*
X76975000Y-78275000I-125000J0D01*
G01*
D15*
X74335000Y-72557000D02*
X79335000Y-72557000D01*
X74335000Y-77557000D02*
X79375000Y-77557000D01*
D17*
X61787000Y-112776000D02*
G75*
G03*
X61787000Y-112776000I-700000J0D01*
G01*
X71738258Y-80773500D02*
X71263742Y-80773500D01*
X71738258Y-79728500D02*
X71263742Y-79728500D01*
X52199000Y-117693420D02*
X52199000Y-117974580D01*
X51179000Y-117693420D02*
X51179000Y-117974580D01*
X54929000Y-94361000D02*
G75*
G03*
X54929000Y-94361000I-700000J0D01*
G01*
X58784258Y-83707500D02*
X58309742Y-83707500D01*
X58784258Y-82662500D02*
X58309742Y-82662500D01*
D20*
X74203000Y-117828000D02*
G75*
G03*
X74203000Y-117828000I-125000J0D01*
G01*
D17*
X76821420Y-85202000D02*
X77102580Y-85202000D01*
X76821420Y-86222000D02*
X77102580Y-86222000D01*
D13*
X63068200Y-73815150D02*
X63068200Y-75536850D01*
X66725800Y-75536850D02*
X66725800Y-73815150D01*
D17*
X72403580Y-120017000D02*
X72122420Y-120017000D01*
X72403580Y-118997000D02*
X72122420Y-118997000D01*
X59155000Y-87114748D02*
X59155000Y-87637252D01*
X57685000Y-87114748D02*
X57685000Y-87637252D01*
X68836000Y-117842420D02*
X68836000Y-118123580D01*
X67816000Y-117842420D02*
X67816000Y-118123580D01*
X79123000Y-79996420D02*
X79123000Y-80277580D01*
X78103000Y-79996420D02*
X78103000Y-80277580D01*
X70753500Y-112411742D02*
X70753500Y-112886258D01*
X69708500Y-112411742D02*
X69708500Y-112886258D01*
D13*
X54508400Y-82054700D02*
X51155600Y-82054700D01*
X51155600Y-84315300D02*
X54508400Y-84315300D01*
D17*
X71947000Y-86233000D02*
G75*
G03*
X71947000Y-86233000I-700000J0D01*
G01*
X71613500Y-112886258D02*
X71613500Y-112411742D01*
X72658500Y-112886258D02*
X72658500Y-112411742D01*
X72963000Y-75184000D02*
G75*
G03*
X72963000Y-75184000I-700000J0D01*
G01*
D14*
X79045000Y-89725000D02*
X79045000Y-88075000D01*
X79045000Y-88075000D02*
X76720000Y-88075000D01*
X76720000Y-89725000D02*
X79045000Y-89725000D01*
D17*
X75581742Y-93838500D02*
X76056258Y-93838500D01*
X75581742Y-94883500D02*
X76056258Y-94883500D01*
D14*
X63185000Y-77644000D02*
X63185000Y-77644000D01*
X63185000Y-77644000D02*
G75*
G03*
X63185000Y-77744000I0J-50000D01*
G01*
X63185000Y-77744000D02*
G75*
G03*
X63185000Y-77644000I0J50000D01*
G01*
D17*
X73801500Y-89424742D02*
X73801500Y-89899258D01*
X72756500Y-89424742D02*
X72756500Y-89899258D01*
X69280000Y-104394000D02*
G75*
G03*
X69280000Y-104394000I-700000J0D01*
G01*
X79231258Y-103519500D02*
X78756742Y-103519500D01*
X79231258Y-102474500D02*
X78756742Y-102474500D01*
D14*
X79045000Y-107251000D02*
X79045000Y-105601000D01*
X79045000Y-105601000D02*
X76720000Y-105601000D01*
X76720000Y-107251000D02*
X79045000Y-107251000D01*
D17*
X76821420Y-83551000D02*
X77102580Y-83551000D01*
X76821420Y-84571000D02*
X77102580Y-84571000D01*
X66740000Y-112014000D02*
G75*
G03*
X66740000Y-112014000I-700000J0D01*
G01*
X55639580Y-119124000D02*
X55358420Y-119124000D01*
X55639580Y-120144000D02*
X55358420Y-120144000D01*
D14*
X65165000Y-83960000D02*
X61515000Y-83960000D01*
X64215000Y-82410000D02*
X61515000Y-82410000D01*
D17*
X67816000Y-114667420D02*
X67816000Y-114948580D01*
X68836000Y-114667420D02*
X68836000Y-114948580D01*
D15*
X74830000Y-115356000D02*
X74830000Y-120396000D01*
X79830000Y-115356000D02*
X79830000Y-120356000D01*
%LPC*%
D21*
X68953000Y-108204000D03*
X61603000Y-108204000D03*
X68953000Y-88011000D03*
X61603000Y-88011000D03*
D22*
X51562000Y-105918000D03*
X52578000Y-110998000D03*
X50546000Y-110998000D03*
D23*
X50927000Y-107188000D03*
X52197000Y-107188000D03*
X50927000Y-108458000D03*
X52197000Y-108458000D03*
X50927000Y-109728000D03*
X52197000Y-109728000D03*
D24*
X58801000Y-113325000D03*
X58801000Y-111675000D03*
D25*
X75438000Y-111824000D03*
X75438000Y-113474000D03*
D26*
X70676000Y-76949000D03*
X72326000Y-76949000D03*
D27*
X68961000Y-84074000D03*
D28*
X52959000Y-86741000D03*
X52959000Y-90341000D03*
D26*
X70676000Y-78600000D03*
X72326000Y-78600000D03*
D27*
X60071000Y-104648000D03*
D29*
X50268500Y-103124000D03*
X52093500Y-103124000D03*
D26*
X70676000Y-82156000D03*
X72326000Y-82156000D03*
D30*
X60610000Y-76327000D03*
X54610000Y-76327000D03*
D31*
X57610000Y-81027000D03*
D32*
X78220000Y-90932000D03*
X76720000Y-90932000D03*
X53328000Y-98552000D03*
X51828000Y-98552000D03*
D33*
X66675000Y-117208000D03*
X66675000Y-118758000D03*
D26*
X74994000Y-102997000D03*
X76644000Y-102997000D03*
D32*
X78220000Y-99695000D03*
X76720000Y-99695000D03*
D34*
X52131000Y-94361000D03*
X50231000Y-94361000D03*
D25*
X57150000Y-111675000D03*
X57150000Y-113325000D03*
D35*
X62344000Y-100584000D03*
X63894000Y-100584000D03*
D28*
X60579000Y-119656000D03*
X60579000Y-116056000D03*
D32*
X78220000Y-97663000D03*
X76720000Y-97663000D03*
D24*
X55499000Y-113325000D03*
X55499000Y-111675000D03*
D32*
X78220000Y-108458000D03*
X76720000Y-108458000D03*
D36*
X54761000Y-116425000D03*
D37*
X55511000Y-117925000D03*
X55011000Y-117925000D03*
X54511000Y-117925000D03*
X54011000Y-117925000D03*
D38*
X53261000Y-117175000D03*
X53261000Y-116675000D03*
X53261000Y-116175000D03*
X53261000Y-115675000D03*
D37*
X54011000Y-114925000D03*
X54511000Y-114925000D03*
X55011000Y-114925000D03*
X55511000Y-114925000D03*
D38*
X56261000Y-115675000D03*
X56261000Y-116175000D03*
X56261000Y-116675000D03*
X56261000Y-117175000D03*
D33*
X51689000Y-113884000D03*
X51689000Y-115434000D03*
D39*
X79819000Y-94361000D03*
X78169000Y-94361000D03*
D27*
X82550000Y-117475000D03*
X82550000Y-72898000D03*
D25*
X73787000Y-111824000D03*
X73787000Y-113474000D03*
D26*
X78296000Y-111760000D03*
X79946000Y-111760000D03*
D40*
X50800000Y-75565000D03*
D35*
X73012000Y-84061000D03*
X74562000Y-84061000D03*
D33*
X50038000Y-117059000D03*
X50038000Y-118609000D03*
D40*
X82550000Y-120015000D03*
D26*
X62294000Y-102235000D03*
X63944000Y-102235000D03*
D37*
X76200000Y-79375000D03*
X75700000Y-79375000D03*
X75200000Y-79375000D03*
X74700000Y-79375000D03*
D38*
X73950000Y-80125000D03*
X73950000Y-80625000D03*
X73950000Y-81125000D03*
X73950000Y-81625000D03*
D37*
X74700000Y-82375000D03*
X75200000Y-82375000D03*
X75700000Y-82375000D03*
X76200000Y-82375000D03*
D38*
X76950000Y-81625000D03*
X76950000Y-81125000D03*
X76950000Y-80625000D03*
X76950000Y-80125000D03*
D36*
X75450000Y-80875000D03*
D41*
X75035000Y-75057000D03*
X78635000Y-75057000D03*
D27*
X61087000Y-112776000D03*
D39*
X72326000Y-80251000D03*
X70676000Y-80251000D03*
D33*
X51689000Y-117059000D03*
X51689000Y-118609000D03*
D27*
X54229000Y-94361000D03*
D39*
X59372000Y-83185000D03*
X57722000Y-83185000D03*
D38*
X72978000Y-117178000D03*
X72978000Y-116678000D03*
X72978000Y-116178000D03*
X72978000Y-115678000D03*
D37*
X72228000Y-114928000D03*
X71728000Y-114928000D03*
X71228000Y-114928000D03*
X70728000Y-114928000D03*
D38*
X69978000Y-115678000D03*
X69978000Y-116178000D03*
X69978000Y-116678000D03*
X69978000Y-117178000D03*
D37*
X70728000Y-117928000D03*
X71228000Y-117928000D03*
X71728000Y-117928000D03*
X72228000Y-117928000D03*
D36*
X71478000Y-116428000D03*
D35*
X76187000Y-85712000D03*
X77737000Y-85712000D03*
D40*
X82550000Y-75565000D03*
D42*
X69215000Y-73660000D03*
D43*
X64897000Y-72732900D03*
X64897000Y-76619100D03*
D42*
X56261000Y-107823000D03*
D44*
X73038000Y-119507000D03*
X71488000Y-119507000D03*
D42*
X72009000Y-104521000D03*
D45*
X58420000Y-86426000D03*
X58420000Y-88326000D03*
D33*
X68326000Y-117208000D03*
X68326000Y-118758000D03*
X78613000Y-79362000D03*
X78613000Y-80912000D03*
D46*
X62372874Y-99138000D03*
D47*
X62872874Y-98963000D03*
X63373000Y-98963000D03*
X63873126Y-98963000D03*
D48*
X64373252Y-99063000D03*
D49*
X64773000Y-98663252D03*
D50*
X64673000Y-98163126D03*
X64673000Y-97663000D03*
X64673000Y-97162874D03*
D51*
X64773000Y-96662748D03*
D52*
X64373252Y-96263000D03*
D47*
X63873126Y-96363000D03*
X63373000Y-96363000D03*
X62872874Y-96363000D03*
D53*
X62372748Y-96263000D03*
D54*
X61973000Y-96662748D03*
D50*
X62073000Y-97162874D03*
X62073000Y-97663000D03*
X62073000Y-98163126D03*
D55*
X61973000Y-98663252D03*
D25*
X70231000Y-111824000D03*
X70231000Y-113474000D03*
D56*
X54444900Y-83185000D03*
X51219100Y-83185000D03*
D27*
X71247000Y-86233000D03*
D24*
X72136000Y-113474000D03*
X72136000Y-111824000D03*
D27*
X72263000Y-75184000D03*
D32*
X78220000Y-88900000D03*
X76720000Y-88900000D03*
D26*
X74994000Y-94361000D03*
X76644000Y-94361000D03*
D57*
X63500000Y-78994000D03*
X63500000Y-79644000D03*
X63500000Y-80294000D03*
X65370000Y-80294000D03*
X65370000Y-79644000D03*
X65370000Y-78994000D03*
D58*
X64435000Y-79359000D03*
D59*
X64435000Y-80419000D03*
D25*
X73279000Y-88837000D03*
X73279000Y-90487000D03*
D27*
X68580000Y-104394000D03*
D42*
X58039000Y-92456000D03*
D39*
X79819000Y-102997000D03*
X78169000Y-102997000D03*
D32*
X78220000Y-106426000D03*
X76720000Y-106426000D03*
D35*
X76187000Y-84061000D03*
X77737000Y-84061000D03*
D27*
X66040000Y-112014000D03*
D44*
X54724000Y-119634000D03*
X56274000Y-119634000D03*
D60*
X64565000Y-83185000D03*
X61165000Y-83185000D03*
D33*
X68326000Y-115583000D03*
X68326000Y-114033000D03*
D28*
X77330000Y-119656000D03*
X77330000Y-116056000D03*
D61*
X99060000Y-73025000D03*
D62*
X96520000Y-73025000D03*
X99060000Y-75565000D03*
X96520000Y-75565000D03*
D61*
X99060000Y-117475000D03*
D62*
X96520000Y-117475000D03*
X99060000Y-120015000D03*
X96520000Y-120015000D03*
%LPD*%
M02*
