%TF.GenerationSoftware,KiCad,Pcbnew,7.0.7*%
%TF.CreationDate,2023-10-08T11:51:16-05:00*%
%TF.ProjectId,1016 Breadboard Power Supply,31303136-2042-4726-9561-64626f617264,1*%
%TF.SameCoordinates,Original*%
%TF.FileFunction,Paste,Top*%
%TF.FilePolarity,Positive*%
%FSLAX46Y46*%
G04 Gerber Fmt 4.6, Leading zero omitted, Abs format (unit mm)*
G04 Created by KiCad (PCBNEW 7.0.7) date 2023-10-08 11:51:16*
%MOMM*%
%LPD*%
G01*
G04 APERTURE LIST*
G04 Aperture macros list*
%AMRoundRect*
0 Rectangle with rounded corners*
0 $1 Rounding radius*
0 $2 $3 $4 $5 $6 $7 $8 $9 X,Y pos of 4 corners*
0 Add a 4 corners polygon primitive as box body*
4,1,4,$2,$3,$4,$5,$6,$7,$8,$9,$2,$3,0*
0 Add four circle primitives for the rounded corners*
1,1,$1+$1,$2,$3*
1,1,$1+$1,$4,$5*
1,1,$1+$1,$6,$7*
1,1,$1+$1,$8,$9*
0 Add four rect primitives between the rounded corners*
20,1,$1+$1,$2,$3,$4,$5,0*
20,1,$1+$1,$4,$5,$6,$7,0*
20,1,$1+$1,$6,$7,$8,$9,0*
20,1,$1+$1,$8,$9,$2,$3,0*%
%AMFreePoly0*
4,1,8,0.325000,0.000126,0.325000,-0.149874,0.175000,-0.149874,0.175000,-0.150126,-0.175000,-0.150126,-0.175000,0.150126,0.175000,0.150126,0.325000,0.000126,0.325000,0.000126,$1*%
%AMFreePoly1*
4,1,6,0.250000,0.000000,0.100000,-0.150000,-0.250000,-0.150000,-0.250000,0.150000,0.250000,0.150000,0.250000,0.000000,0.250000,0.000000,$1*%
%AMFreePoly2*
4,1,6,0.250000,0.000000,0.250000,-0.150000,-0.250000,-0.150000,-0.250000,0.150000,0.100000,0.150000,0.250000,0.000000,0.250000,0.000000,$1*%
%AMFreePoly3*
4,1,6,0.250000,-0.150000,-0.100000,-0.150000,-0.250000,0.000000,-0.250000,0.150000,0.250000,0.150000,0.250000,-0.150000,0.250000,-0.150000,$1*%
%AMFreePoly4*
4,1,6,0.250000,-0.150000,-0.250000,-0.150000,-0.250000,0.000000,-0.100000,0.150000,0.250000,0.150000,0.250000,-0.150000,0.250000,-0.150000,$1*%
G04 Aperture macros list end*
%ADD10C,0.120000*%
%ADD11R,4.000000X1.500000*%
%ADD12RoundRect,0.200000X-0.200000X-0.275000X0.200000X-0.275000X0.200000X0.275000X-0.200000X0.275000X0*%
%ADD13RoundRect,0.250000X0.450000X-0.262500X0.450000X0.262500X-0.450000X0.262500X-0.450000X-0.262500X0*%
%ADD14RoundRect,0.200000X0.200000X0.275000X-0.200000X0.275000X-0.200000X-0.275000X0.200000X-0.275000X0*%
%ADD15R,0.950000X0.950000*%
%ADD16RoundRect,0.225000X-0.250000X0.225000X-0.250000X-0.225000X0.250000X-0.225000X0.250000X0.225000X0*%
%ADD17RoundRect,0.200000X-0.275000X0.200000X-0.275000X-0.200000X0.275000X-0.200000X0.275000X0.200000X0*%
%ADD18R,1.000000X1.450000*%
%ADD19RoundRect,0.250000X0.250000X0.475000X-0.250000X0.475000X-0.250000X-0.475000X0.250000X-0.475000X0*%
%ADD20C,0.787400*%
%ADD21RoundRect,0.225000X-0.225000X-0.250000X0.225000X-0.250000X0.225000X0.250000X-0.225000X0.250000X0*%
%ADD22RoundRect,0.200000X0.275000X-0.200000X0.275000X0.200000X-0.275000X0.200000X-0.275000X-0.200000X0*%
%ADD23R,0.800000X0.300000*%
%ADD24R,0.300000X0.800000*%
%ADD25R,1.750000X1.750000*%
%ADD26RoundRect,0.225000X0.225000X0.250000X-0.225000X0.250000X-0.225000X-0.250000X0.225000X-0.250000X0*%
%ADD27RoundRect,0.225000X0.250000X-0.225000X0.250000X0.225000X-0.250000X0.225000X-0.250000X-0.225000X0*%
%ADD28R,1.500000X4.000000*%
%ADD29R,3.403600X1.549400*%
%ADD30FreePoly0,180.000000*%
%ADD31R,0.700000X0.300000*%
%ADD32FreePoly1,180.000000*%
%ADD33FreePoly2,270.000000*%
%ADD34R,0.300000X0.700000*%
%ADD35FreePoly1,270.000000*%
%ADD36FreePoly3,180.000000*%
%ADD37FreePoly4,180.000000*%
%ADD38FreePoly3,270.000000*%
%ADD39FreePoly4,270.000000*%
%ADD40R,1.193800X1.092200*%
%ADD41R,0.430000X0.350000*%
%ADD42R,1.100000X1.250000*%
%ADD43R,0.660000X0.350000*%
%ADD44R,1.200000X0.750000*%
G04 APERTURE END LIST*
D10*
X90005000Y-132931000D02*
X92555000Y-132931000D01*
X92555000Y-132931000D02*
X92555000Y-135481000D01*
X92555000Y-135481000D02*
X90005000Y-135481000D01*
X90005000Y-135481000D02*
X90005000Y-132931000D01*
G36*
X90005000Y-132931000D02*
G01*
X92555000Y-132931000D01*
X92555000Y-135481000D01*
X90005000Y-135481000D01*
X90005000Y-132931000D01*
G37*
X36985000Y-60099000D02*
X39535000Y-60099000D01*
X39535000Y-60099000D02*
X39535000Y-62649000D01*
X39535000Y-62649000D02*
X36985000Y-62649000D01*
X36985000Y-62649000D02*
X36985000Y-60099000D01*
G36*
X36985000Y-60099000D02*
G01*
X39535000Y-60099000D01*
X39535000Y-62649000D01*
X36985000Y-62649000D01*
X36985000Y-60099000D01*
G37*
D11*
X51816000Y-95101000D03*
X51816000Y-98701000D03*
D12*
X69025000Y-76213000D03*
X70675000Y-76213000D03*
D13*
X50673000Y-103401500D03*
X50673000Y-101576500D03*
D14*
X70675000Y-79515000D03*
X69025000Y-79515000D03*
D15*
X78486000Y-89166000D03*
X78486000Y-90666000D03*
X52820000Y-107442000D03*
X51320000Y-107442000D03*
D16*
X66662000Y-116192000D03*
X66662000Y-117742000D03*
D17*
X73152000Y-106617000D03*
X73152000Y-108267000D03*
D15*
X76454000Y-97929000D03*
X76454000Y-99429000D03*
D18*
X62992000Y-76235000D03*
X62992000Y-83785000D03*
D19*
X54925000Y-101727000D03*
X53025000Y-101727000D03*
D17*
X64008000Y-88351000D03*
X64008000Y-90001000D03*
D20*
X53721000Y-118872000D03*
X52451000Y-118872000D03*
X53721000Y-117602000D03*
X52451000Y-117602000D03*
X53721000Y-116332000D03*
X52451000Y-116332000D03*
D21*
X64503000Y-105664000D03*
X66053000Y-105664000D03*
D11*
X66675000Y-93218000D03*
X66675000Y-96818000D03*
D15*
X78486000Y-97929000D03*
X78486000Y-99429000D03*
D22*
X62357000Y-90001000D03*
X62357000Y-88351000D03*
D15*
X78486000Y-106692000D03*
X78486000Y-108192000D03*
D23*
X62357000Y-93724000D03*
X62357000Y-93224000D03*
X62357000Y-92724000D03*
X62357000Y-92224000D03*
D24*
X61607000Y-91474000D03*
X61107000Y-91474000D03*
X60607000Y-91474000D03*
X60107000Y-91474000D03*
D23*
X59357000Y-92224000D03*
X59357000Y-92724000D03*
X59357000Y-93224000D03*
X59357000Y-93724000D03*
D24*
X60107000Y-94474000D03*
X60607000Y-94474000D03*
X61107000Y-94474000D03*
X61607000Y-94474000D03*
D25*
X60857000Y-92974000D03*
D26*
X60719000Y-89938000D03*
X59169000Y-89938000D03*
D17*
X71501000Y-89218000D03*
X71501000Y-90868000D03*
X76060000Y-111697000D03*
X76060000Y-113347000D03*
X71501000Y-106617000D03*
X71501000Y-108267000D03*
D16*
X70612000Y-81153000D03*
X70612000Y-82703000D03*
D27*
X56261000Y-94120000D03*
X56261000Y-92570000D03*
D14*
X66087252Y-104016000D03*
X64437252Y-104016000D03*
D24*
X74422000Y-79261000D03*
X73922000Y-79261000D03*
X73422000Y-79261000D03*
X72922000Y-79261000D03*
D23*
X72172000Y-80011000D03*
X72172000Y-80511000D03*
X72172000Y-81011000D03*
X72172000Y-81511000D03*
D24*
X72922000Y-82261000D03*
X73422000Y-82261000D03*
X73922000Y-82261000D03*
X74422000Y-82261000D03*
D23*
X75172000Y-81511000D03*
X75172000Y-81011000D03*
X75172000Y-80511000D03*
X75172000Y-80011000D03*
D25*
X73672000Y-80761000D03*
D12*
X60643000Y-97812000D03*
X62293000Y-97812000D03*
D28*
X73257000Y-74943000D03*
X76857000Y-74943000D03*
D14*
X70675000Y-77864000D03*
X69025000Y-77864000D03*
D27*
X57912000Y-94120000D03*
X57912000Y-92570000D03*
D22*
X49657000Y-90297000D03*
X49657000Y-88647000D03*
D23*
X72978000Y-117178000D03*
X72978000Y-116678000D03*
X72978000Y-116178000D03*
X72978000Y-115678000D03*
D24*
X72228000Y-114928000D03*
X71728000Y-114928000D03*
X71228000Y-114928000D03*
X70728000Y-114928000D03*
D23*
X69978000Y-115678000D03*
X69978000Y-116178000D03*
X69978000Y-116678000D03*
X69978000Y-117178000D03*
D24*
X70728000Y-117928000D03*
X71228000Y-117928000D03*
X71728000Y-117928000D03*
X72228000Y-117928000D03*
D25*
X71478000Y-116428000D03*
D21*
X73520000Y-85611000D03*
X75070000Y-85611000D03*
D29*
X58166000Y-82638900D03*
X58166000Y-86525100D03*
D26*
X72898000Y-119888000D03*
X71348000Y-119888000D03*
D19*
X53401000Y-92202000D03*
X51501000Y-92202000D03*
D12*
X71298000Y-121412000D03*
X72948000Y-121412000D03*
D22*
X78486000Y-80848000D03*
X78486000Y-79198000D03*
D16*
X68313000Y-116192000D03*
X68313000Y-117742000D03*
X76962000Y-79248000D03*
X76962000Y-80798000D03*
D18*
X62992000Y-120869000D03*
X62992000Y-113319000D03*
D30*
X63197000Y-106156126D03*
D31*
X63022000Y-105656126D03*
X63022000Y-105156000D03*
X63022000Y-104655874D03*
D32*
X63122000Y-104155748D03*
D33*
X62722252Y-103756000D03*
D34*
X62222126Y-103856000D03*
X61722000Y-103856000D03*
X61221874Y-103856000D03*
D35*
X60721748Y-103756000D03*
D36*
X60322000Y-104155748D03*
D31*
X60422000Y-104655874D03*
X60422000Y-105156000D03*
X60422000Y-105656126D03*
D37*
X60322000Y-106156252D03*
D38*
X60721748Y-106556000D03*
D34*
X61221874Y-106456000D03*
X61722000Y-106456000D03*
X62222126Y-106456000D03*
D39*
X62722252Y-106556000D03*
D22*
X72758000Y-113347000D03*
X72758000Y-111697000D03*
D40*
X51308000Y-82715100D03*
X51308000Y-85940900D03*
D22*
X74409000Y-113347000D03*
X74409000Y-111697000D03*
D15*
X76454000Y-89166000D03*
X76454000Y-90666000D03*
D17*
X71501000Y-97981000D03*
X71501000Y-99631000D03*
D41*
X53421000Y-85443000D03*
X53421000Y-86093000D03*
X53421000Y-86743000D03*
X55291000Y-86743000D03*
X55291000Y-86093000D03*
X55291000Y-85443000D03*
D42*
X54356000Y-85808000D03*
D43*
X54356000Y-86868000D03*
D17*
X73152000Y-89218000D03*
X73152000Y-90868000D03*
X73152000Y-97981000D03*
X73152000Y-99631000D03*
D15*
X76454000Y-106692000D03*
X76454000Y-108192000D03*
D21*
X73520000Y-83960000D03*
X75070000Y-83960000D03*
D26*
X62243000Y-96288000D03*
X60693000Y-96288000D03*
D44*
X55040000Y-89408000D03*
X51640000Y-89408000D03*
D26*
X71120000Y-113284000D03*
X69570000Y-113284000D03*
D11*
X77330000Y-116056000D03*
X77330000Y-119656000D03*
M02*
