M48
; DRILL file {KiCad 7.0.7} date Sun Oct 29 23:24:35 2023
; FORMAT={-:-/ absolute / inch / decimal}
; #@! TF.CreationDate,2023-10-29T23:24:35-05:00
; #@! TF.GenerationSoftware,Kicad,Pcbnew,7.0.7
; #@! TF.FileFunction,MixedPlating,1,2
FMAT,2
INCH
; #@! TA.AperFunction,Plated,PTH,ViaDrill
T1C0.0100
; #@! TA.AperFunction,Plated,PTH,ViaDrill
T2C0.0150
; #@! TA.AperFunction,Plated,PTH,ComponentDrill
T3C0.0197
; #@! TA.AperFunction,Plated,PTH,ComponentDrill
T4C0.0394
; #@! TA.AperFunction,NonPlated,NPTH,ComponentDrill
T5C0.0390
; #@! TA.AperFunction,NonPlated,NPTH,ComponentDrill
T6C0.0827
%
G90
G05
T1
X1.9537Y-2.8637
X1.9537Y-3.0637
X1.9537Y-3.1637
X1.9537Y-3.3637
X1.9537Y-3.4637
X1.9537Y-3.5637
X1.9537Y-3.6637
X1.975Y-4.295
X1.98Y-4.16
X2.0537Y-2.8637
X2.0537Y-2.9637
X2.0537Y-3.0637
X2.0537Y-3.1637
X2.0537Y-3.3637
X2.0537Y-3.4637
X2.0537Y-3.9637
X2.095Y-4.525
X2.135Y-4.565
X2.135Y-4.605
X2.145Y-4.585
X2.1537Y-2.8637
X2.1537Y-3.3637
X2.1537Y-3.4637
X2.1537Y-3.6637
X2.1537Y-3.7637
X2.1537Y-3.9637
X2.1537Y-4.2637
X2.165Y-4.565
X2.165Y-4.605
X2.175Y-4.585
X2.215Y-4.645
X2.2537Y-2.8637
X2.2537Y-2.9637
X2.2537Y-3.0637
X2.2537Y-4.1637
X2.2537Y-4.6637
X2.3537Y-3.1637
X2.3537Y-3.4637
X2.3537Y-3.6637
X2.3537Y-3.9637
X2.3537Y-4.1637
X2.3537Y-4.3637
X2.385Y-3.87
X2.39Y-4.025
X2.425Y-3.405
X2.425Y-3.73
X2.4537Y-2.9637
X2.4537Y-3.2637
X2.4537Y-4.3637
X2.475Y-3.705
X2.496Y-3.7303
X2.52Y-3.705
X2.525Y-4.105
X2.565Y-3.73
X2.58Y-3.95
X2.62Y-3.775
X2.62Y-3.87
X2.62Y-3.915
X2.6537Y-2.8637
X2.6537Y-2.9637
X2.6537Y-3.1637
X2.6537Y-3.2637
X2.6537Y-3.6637
X2.6537Y-4.1637
X2.6537Y-4.2637
X2.6537Y-4.3637
X2.7537Y-2.9637
X2.7537Y-3.3637
X2.7537Y-3.7637
X2.7537Y-4.3637
X2.755Y-4.525
X2.755Y-4.645
X2.795Y-4.565
X2.795Y-4.605
X2.81Y-4.585
X2.825Y-4.565
X2.825Y-4.605
X2.835Y-4.585
X2.8537Y-3.7637
X2.8537Y-3.9637
X2.875Y-4.525
X2.875Y-4.645
X2.91Y-3.125
X2.91Y-3.2445
X2.95Y-3.1645
X2.95Y-3.1895
X2.95Y-3.5
X2.95Y-3.58
X2.95Y-4.19
X2.95Y-4.27
X2.9537Y-3.9637
X2.9537Y-4.3637
X2.97Y-3.1795
X2.97Y-3.2045
X2.99Y-3.1645
X2.99Y-3.1895
X3.03Y-3.1245
X3.03Y-3.245
X3.0537Y-3.0637
X3.0537Y-3.6637
X3.0537Y-3.9637
X3.0537Y-4.3637
X3.1537Y-2.9637
X3.1537Y-3.0637
X3.1537Y-3.1637
X3.1537Y-3.2637
X3.1537Y-3.4637
X3.3537Y-2.9637
X3.3537Y-4.6637
X3.4537Y-2.9637
X3.4537Y-4.6637
X3.5537Y-2.9637
X3.5537Y-4.6637
X3.6537Y-2.9637
X3.6537Y-4.6637
X3.7537Y-4.6637
T2
X1.93Y-4.5
X1.96Y-3.275
X1.97Y-4.715
X1.98Y-3.775
X2.035Y-4.715
X2.095Y-4.47
X2.11Y-4.06
X2.11Y-4.71
X2.18Y-3.88
X2.235Y-3.32
X2.24Y-3.48
X2.575Y-4.73
X2.625Y-4.72
X2.64Y-4.49
X2.65Y-3.465
X2.69Y-4.72
X2.715Y-4.195
X2.765Y-4.705
X2.825Y-3.305
X3.095Y-3.23
X3.11Y-3.31
X3.11Y-3.375
X3.1475Y-4.1325
X3.15Y-3.94
T3
X2.135Y-3.715
X2.365Y-4.12
X2.405Y-4.44
X2.6Y-4.41
X2.7Y-4.11
X2.715Y-3.31
X2.805Y-3.395
X2.845Y-2.96
X3.25Y-2.87
X3.25Y-4.625
T4
X3.8Y-2.875
X3.8Y-2.975
X3.8Y-4.625
X3.8Y-4.725
X3.9Y-2.875
X3.9Y-2.975
X3.9Y-4.625
X3.9Y-4.725
T5
X1.99Y-4.37
X2.03Y-4.17
X2.07Y-4.37
T6
X2.215Y-4.245
X2.285Y-3.64
X2.725Y-2.9
X2.835Y-4.115
T4
G00X2.15Y-3.0168
M15
G01X2.15Y-2.9932
M16
G05
G00X2.2799Y-3.19
M15
G01X2.2563Y-3.19
M16
G05
G00X2.3862Y-3.0168
M15
G01X2.3862Y-2.9932
M16
G05
T0
M30
