M48
; DRILL file {KiCad 7.0.7} date Sun Oct  8 11:51:11 2023
; FORMAT={-:-/ absolute / inch / decimal}
; #@! TF.CreationDate,2023-10-08T11:51:11-05:00
; #@! TF.GenerationSoftware,Kicad,Pcbnew,7.0.7
; #@! TF.FileFunction,MixedPlating,1,2
FMAT,2
INCH
; #@! TA.AperFunction,Plated,PTH,ViaDrill
T1C0.0100
; #@! TA.AperFunction,Plated,PTH,ViaDrill
T2C0.0150
; #@! TA.AperFunction,Plated,PTH,ComponentDrill
T3C0.0197
; #@! TA.AperFunction,Plated,PTH,ComponentDrill
T4C0.0394
; #@! TA.AperFunction,NonPlated,NPTH,ComponentDrill
T5C0.0390
; #@! TA.AperFunction,NonPlated,NPTH,ComponentDrill
T6C0.0827
; #@! TA.AperFunction,NonPlated,NPTH,ComponentDrill
T7C0.0940
%
G90
G05
T1
X1.9537Y-2.8637
X1.9537Y-2.9637
X1.9537Y-3.0637
X1.9537Y-3.1637
X1.9537Y-3.2637
X1.9537Y-3.3637
X1.9537Y-3.6637
X1.9537Y-4.1637
X1.9537Y-4.2637
X1.9537Y-4.3637
X1.9537Y-4.4637
X2.04Y-4.655
X2.0537Y-2.8637
X2.0537Y-3.1637
X2.0537Y-4.0637
X2.0537Y-4.7637
X2.055Y-4.715
X2.09Y-4.655
X2.1537Y-2.8637
X2.1537Y-2.9637
X2.1537Y-3.2637
X2.2537Y-2.8637
X2.2537Y-3.1637
X2.2537Y-3.9637
X2.2537Y-4.1637
X2.2537Y-4.5637
X2.2537Y-4.7637
X2.2544Y-4.3494
X2.263Y-4.09
X2.285Y-4.35
X2.2934Y-4.1758
X2.31Y-4.37
X2.318Y-4.1624
X2.318Y-4.1907
X2.34Y-3.75
X2.34Y-4.115
X2.3537Y-2.8637
X2.3537Y-3.0637
X2.3537Y-3.1637
X2.3537Y-4.6637
X2.3537Y-4.7637
X2.385Y-4.04
X2.385Y-4.28
X2.4Y-3.325
X2.41Y-4.0
X2.41Y-4.1206
X2.41Y-4.16
X2.4167Y-3.9622
X2.42Y-4.31
X2.445Y-4.155
X2.4537Y-2.8637
X2.4537Y-3.0637
X2.4537Y-3.1637
X2.4537Y-4.6637
X2.455Y-4.27
X2.475Y-4.015
X2.505Y-4.38
X2.515Y-3.865
X2.515Y-4.04
X2.52Y-3.5096
X2.5537Y-2.8637
X2.5537Y-2.9637
X2.5537Y-3.0637
X2.5537Y-3.1637
X2.5537Y-3.2637
X2.5537Y-4.4637
X2.5537Y-4.6637
X2.65Y-4.135
X2.6537Y-2.8637
X2.6537Y-3.0637
X2.6537Y-3.1637
X2.6537Y-3.2637
X2.6537Y-3.4637
X2.6537Y-3.5637
X2.6537Y-4.2637
X2.655Y-3.995
X2.655Y-4.04
X2.68Y-3.97
X2.68Y-4.065
X2.735Y-3.945
X2.7488Y-3.0
X2.7512Y-3.13
X2.76Y-4.65
X2.77Y-4.68
X2.785Y-4.315
X2.81Y-3.995
X2.83Y-4.49
X2.845Y-3.085
X2.8537Y-3.6637
X2.8537Y-4.3637
X2.865Y-3.795
X2.865Y-4.4312
X2.905Y-4.525
X2.93Y-4.765
X2.9537Y-3.5637
X2.9537Y-3.7637
X2.96Y-3.26
X2.995Y-4.4288
X3.0Y-3.225
X3.0537Y-3.3637
X3.0537Y-4.4637
X3.095Y-3.055
X3.1537Y-2.9637
X3.1537Y-3.0637
X3.1537Y-3.1637
X3.1537Y-3.3637
X3.1537Y-3.4637
X3.1537Y-3.5637
X3.1537Y-3.6637
X3.1537Y-3.7637
X3.1537Y-3.8637
X3.1537Y-3.9637
X3.1537Y-4.0637
X3.1537Y-4.1637
X3.1537Y-4.2637
X3.1537Y-4.3637
X3.2537Y-4.7637
X3.3537Y-2.9637
X3.3537Y-4.7637
X3.4537Y-2.9637
X3.4537Y-4.7637
X3.5537Y-2.9637
X3.5537Y-4.7637
X3.6537Y-2.9637
X3.6537Y-4.7637
X3.7537Y-4.7637
T2
X2.177Y-3.62
X2.27Y-4.665
X2.3601Y-3.5076
X2.54Y-4.41
X2.635Y-3.37
T3
X2.045Y-4.385
X2.305Y-4.805
X2.355Y-3.97
X2.605Y-2.895
X2.635Y-3.22
X2.665Y-4.39
X2.705Y-3.455
X3.04Y-4.335
X3.07Y-4.835
X3.14Y-3.295
T4
X3.8002Y-2.8748
X3.8002Y-2.9748
X3.8002Y-4.725
X3.8002Y-4.825
X3.9002Y-2.8748
X3.9002Y-2.9748
X3.9002Y-4.725
X3.9002Y-4.825
T5
X2.05Y-4.53
X2.09Y-4.73
X2.13Y-4.53
T6
X2.225Y-4.23
X2.37Y-2.925
X2.605Y-4.79
X3.085Y-3.71
T7
X1.99Y-4.605
X1.99Y-4.73
X2.19Y-4.605
X2.19Y-4.73
T4
X2.01Y-3.0218G85X2.01Y-2.9982
G05
X2.1399Y-3.195G85X2.1163Y-3.195
G05
X2.2462Y-3.0218G85X2.2462Y-2.9982
G05
T0
M30
