%TF.GenerationSoftware,KiCad,Pcbnew,7.0.7*%
%TF.CreationDate,2023-10-29T23:24:32-05:00*%
%TF.ProjectId,1016 Breadboard Power Supply,31303136-2042-4726-9561-64626f617264,1*%
%TF.SameCoordinates,Original*%
%TF.FileFunction,Legend,Bot*%
%TF.FilePolarity,Positive*%
%FSLAX46Y46*%
G04 Gerber Fmt 4.6, Leading zero omitted, Abs format (unit mm)*
G04 Created by KiCad (PCBNEW 7.0.7) date 2023-10-29 23:24:32*
%MOMM*%
%LPD*%
G01*
G04 APERTURE LIST*
%ADD10C,0.177800*%
%ADD11C,0.304800*%
%ADD12C,0.150000*%
%ADD13C,0.120000*%
%ADD14C,0.317500*%
%ADD15C,0.010000*%
%ADD16C,0.990600*%
%ADD17C,1.000000*%
%ADD18O,1.508000X3.016000*%
%ADD19O,3.016000X1.508000*%
%ADD20C,2.100000*%
%ADD21R,1.700000X1.700000*%
%ADD22O,1.700000X1.700000*%
G04 APERTURE END LIST*
D10*
X66444653Y-73710449D02*
X66493034Y-73662068D01*
X66493034Y-73662068D02*
X66541414Y-73516925D01*
X66541414Y-73516925D02*
X66541414Y-73420163D01*
X66541414Y-73420163D02*
X66493034Y-73275020D01*
X66493034Y-73275020D02*
X66396272Y-73178258D01*
X66396272Y-73178258D02*
X66299510Y-73129877D01*
X66299510Y-73129877D02*
X66105986Y-73081496D01*
X66105986Y-73081496D02*
X65960843Y-73081496D01*
X65960843Y-73081496D02*
X65767319Y-73129877D01*
X65767319Y-73129877D02*
X65670557Y-73178258D01*
X65670557Y-73178258D02*
X65573795Y-73275020D01*
X65573795Y-73275020D02*
X65525414Y-73420163D01*
X65525414Y-73420163D02*
X65525414Y-73516925D01*
X65525414Y-73516925D02*
X65573795Y-73662068D01*
X65573795Y-73662068D02*
X65622176Y-73710449D01*
X66541414Y-74291020D02*
X66493034Y-74194258D01*
X66493034Y-74194258D02*
X66444653Y-74145877D01*
X66444653Y-74145877D02*
X66347891Y-74097496D01*
X66347891Y-74097496D02*
X66057605Y-74097496D01*
X66057605Y-74097496D02*
X65960843Y-74145877D01*
X65960843Y-74145877D02*
X65912462Y-74194258D01*
X65912462Y-74194258D02*
X65864081Y-74291020D01*
X65864081Y-74291020D02*
X65864081Y-74436163D01*
X65864081Y-74436163D02*
X65912462Y-74532925D01*
X65912462Y-74532925D02*
X65960843Y-74581306D01*
X65960843Y-74581306D02*
X66057605Y-74629687D01*
X66057605Y-74629687D02*
X66347891Y-74629687D01*
X66347891Y-74629687D02*
X66444653Y-74581306D01*
X66444653Y-74581306D02*
X66493034Y-74532925D01*
X66493034Y-74532925D02*
X66541414Y-74436163D01*
X66541414Y-74436163D02*
X66541414Y-74291020D01*
X65864081Y-75065115D02*
X66880081Y-75065115D01*
X65912462Y-75065115D02*
X65864081Y-75161877D01*
X65864081Y-75161877D02*
X65864081Y-75355401D01*
X65864081Y-75355401D02*
X65912462Y-75452163D01*
X65912462Y-75452163D02*
X65960843Y-75500544D01*
X65960843Y-75500544D02*
X66057605Y-75548925D01*
X66057605Y-75548925D02*
X66347891Y-75548925D01*
X66347891Y-75548925D02*
X66444653Y-75500544D01*
X66444653Y-75500544D02*
X66493034Y-75452163D01*
X66493034Y-75452163D02*
X66541414Y-75355401D01*
X66541414Y-75355401D02*
X66541414Y-75161877D01*
X66541414Y-75161877D02*
X66493034Y-75065115D01*
X65864081Y-75887591D02*
X66541414Y-76129496D01*
X65864081Y-76371401D02*
X66541414Y-76129496D01*
X66541414Y-76129496D02*
X66783319Y-76032734D01*
X66783319Y-76032734D02*
X66831700Y-75984353D01*
X66831700Y-75984353D02*
X66880081Y-75887591D01*
X66541414Y-76758448D02*
X65864081Y-76758448D01*
X66057605Y-76758448D02*
X65960843Y-76806829D01*
X65960843Y-76806829D02*
X65912462Y-76855210D01*
X65912462Y-76855210D02*
X65864081Y-76951972D01*
X65864081Y-76951972D02*
X65864081Y-77048734D01*
X66541414Y-77387400D02*
X65864081Y-77387400D01*
X65525414Y-77387400D02*
X65573795Y-77339019D01*
X65573795Y-77339019D02*
X65622176Y-77387400D01*
X65622176Y-77387400D02*
X65573795Y-77435781D01*
X65573795Y-77435781D02*
X65525414Y-77387400D01*
X65525414Y-77387400D02*
X65622176Y-77387400D01*
X65864081Y-78306639D02*
X66686557Y-78306639D01*
X66686557Y-78306639D02*
X66783319Y-78258258D01*
X66783319Y-78258258D02*
X66831700Y-78209877D01*
X66831700Y-78209877D02*
X66880081Y-78113115D01*
X66880081Y-78113115D02*
X66880081Y-77967972D01*
X66880081Y-77967972D02*
X66831700Y-77871210D01*
X66493034Y-78306639D02*
X66541414Y-78209877D01*
X66541414Y-78209877D02*
X66541414Y-78016353D01*
X66541414Y-78016353D02*
X66493034Y-77919591D01*
X66493034Y-77919591D02*
X66444653Y-77871210D01*
X66444653Y-77871210D02*
X66347891Y-77822829D01*
X66347891Y-77822829D02*
X66057605Y-77822829D01*
X66057605Y-77822829D02*
X65960843Y-77871210D01*
X65960843Y-77871210D02*
X65912462Y-77919591D01*
X65912462Y-77919591D02*
X65864081Y-78016353D01*
X65864081Y-78016353D02*
X65864081Y-78209877D01*
X65864081Y-78209877D02*
X65912462Y-78306639D01*
X66541414Y-78790448D02*
X65525414Y-78790448D01*
X66541414Y-79225877D02*
X66009224Y-79225877D01*
X66009224Y-79225877D02*
X65912462Y-79177496D01*
X65912462Y-79177496D02*
X65864081Y-79080734D01*
X65864081Y-79080734D02*
X65864081Y-78935591D01*
X65864081Y-78935591D02*
X65912462Y-78838829D01*
X65912462Y-78838829D02*
X65960843Y-78790448D01*
X65864081Y-79564543D02*
X65864081Y-79951591D01*
X65525414Y-79709686D02*
X66396272Y-79709686D01*
X66396272Y-79709686D02*
X66493034Y-79758067D01*
X66493034Y-79758067D02*
X66541414Y-79854829D01*
X66541414Y-79854829D02*
X66541414Y-79951591D01*
X65767319Y-81886828D02*
X65718938Y-81790067D01*
X65718938Y-81790067D02*
X65718938Y-81596543D01*
X65718938Y-81596543D02*
X65767319Y-81499781D01*
X65767319Y-81499781D02*
X65864081Y-81403019D01*
X65864081Y-81403019D02*
X65960843Y-81354638D01*
X65960843Y-81354638D02*
X66154367Y-81354638D01*
X66154367Y-81354638D02*
X66251129Y-81403019D01*
X66251129Y-81403019D02*
X66347891Y-81499781D01*
X66347891Y-81499781D02*
X66396272Y-81596543D01*
X66396272Y-81596543D02*
X66396272Y-81790067D01*
X66396272Y-81790067D02*
X66347891Y-81886828D01*
X65380272Y-81693305D02*
X65428653Y-81451400D01*
X65428653Y-81451400D02*
X65573795Y-81209495D01*
X65573795Y-81209495D02*
X65815700Y-81064352D01*
X65815700Y-81064352D02*
X66057605Y-81015971D01*
X66057605Y-81015971D02*
X66299510Y-81064352D01*
X66299510Y-81064352D02*
X66541414Y-81209495D01*
X66541414Y-81209495D02*
X66686557Y-81451400D01*
X66686557Y-81451400D02*
X66734938Y-81693305D01*
X66734938Y-81693305D02*
X66686557Y-81935209D01*
X66686557Y-81935209D02*
X66541414Y-82177114D01*
X66541414Y-82177114D02*
X66299510Y-82322257D01*
X66299510Y-82322257D02*
X66057605Y-82370638D01*
X66057605Y-82370638D02*
X65815700Y-82322257D01*
X65815700Y-82322257D02*
X65573795Y-82177114D01*
X65573795Y-82177114D02*
X65428653Y-81935209D01*
X65428653Y-81935209D02*
X65380272Y-81693305D01*
X65622176Y-83531780D02*
X65573795Y-83580161D01*
X65573795Y-83580161D02*
X65525414Y-83676923D01*
X65525414Y-83676923D02*
X65525414Y-83918828D01*
X65525414Y-83918828D02*
X65573795Y-84015590D01*
X65573795Y-84015590D02*
X65622176Y-84063971D01*
X65622176Y-84063971D02*
X65718938Y-84112352D01*
X65718938Y-84112352D02*
X65815700Y-84112352D01*
X65815700Y-84112352D02*
X65960843Y-84063971D01*
X65960843Y-84063971D02*
X66541414Y-83483399D01*
X66541414Y-83483399D02*
X66541414Y-84112352D01*
X65525414Y-84741304D02*
X65525414Y-84838066D01*
X65525414Y-84838066D02*
X65573795Y-84934828D01*
X65573795Y-84934828D02*
X65622176Y-84983209D01*
X65622176Y-84983209D02*
X65718938Y-85031590D01*
X65718938Y-85031590D02*
X65912462Y-85079971D01*
X65912462Y-85079971D02*
X66154367Y-85079971D01*
X66154367Y-85079971D02*
X66347891Y-85031590D01*
X66347891Y-85031590D02*
X66444653Y-84983209D01*
X66444653Y-84983209D02*
X66493034Y-84934828D01*
X66493034Y-84934828D02*
X66541414Y-84838066D01*
X66541414Y-84838066D02*
X66541414Y-84741304D01*
X66541414Y-84741304D02*
X66493034Y-84644542D01*
X66493034Y-84644542D02*
X66444653Y-84596161D01*
X66444653Y-84596161D02*
X66347891Y-84547780D01*
X66347891Y-84547780D02*
X66154367Y-84499399D01*
X66154367Y-84499399D02*
X65912462Y-84499399D01*
X65912462Y-84499399D02*
X65718938Y-84547780D01*
X65718938Y-84547780D02*
X65622176Y-84596161D01*
X65622176Y-84596161D02*
X65573795Y-84644542D01*
X65573795Y-84644542D02*
X65525414Y-84741304D01*
X65622176Y-85467018D02*
X65573795Y-85515399D01*
X65573795Y-85515399D02*
X65525414Y-85612161D01*
X65525414Y-85612161D02*
X65525414Y-85854066D01*
X65525414Y-85854066D02*
X65573795Y-85950828D01*
X65573795Y-85950828D02*
X65622176Y-85999209D01*
X65622176Y-85999209D02*
X65718938Y-86047590D01*
X65718938Y-86047590D02*
X65815700Y-86047590D01*
X65815700Y-86047590D02*
X65960843Y-85999209D01*
X65960843Y-85999209D02*
X66541414Y-85418637D01*
X66541414Y-85418637D02*
X66541414Y-86047590D01*
X65525414Y-86386256D02*
X65525414Y-87015209D01*
X65525414Y-87015209D02*
X65912462Y-86676542D01*
X65912462Y-86676542D02*
X65912462Y-86821685D01*
X65912462Y-86821685D02*
X65960843Y-86918447D01*
X65960843Y-86918447D02*
X66009224Y-86966828D01*
X66009224Y-86966828D02*
X66105986Y-87015209D01*
X66105986Y-87015209D02*
X66347891Y-87015209D01*
X66347891Y-87015209D02*
X66444653Y-86966828D01*
X66444653Y-86966828D02*
X66493034Y-86918447D01*
X66493034Y-86918447D02*
X66541414Y-86821685D01*
X66541414Y-86821685D02*
X66541414Y-86531399D01*
X66541414Y-86531399D02*
X66493034Y-86434637D01*
X66493034Y-86434637D02*
X66444653Y-86386256D01*
X66541414Y-88224732D02*
X65525414Y-88224732D01*
X65525414Y-88224732D02*
X65525414Y-88466637D01*
X65525414Y-88466637D02*
X65573795Y-88611780D01*
X65573795Y-88611780D02*
X65670557Y-88708542D01*
X65670557Y-88708542D02*
X65767319Y-88756923D01*
X65767319Y-88756923D02*
X65960843Y-88805304D01*
X65960843Y-88805304D02*
X66105986Y-88805304D01*
X66105986Y-88805304D02*
X66299510Y-88756923D01*
X66299510Y-88756923D02*
X66396272Y-88708542D01*
X66396272Y-88708542D02*
X66493034Y-88611780D01*
X66493034Y-88611780D02*
X66541414Y-88466637D01*
X66541414Y-88466637D02*
X66541414Y-88224732D01*
X66541414Y-89676161D02*
X66009224Y-89676161D01*
X66009224Y-89676161D02*
X65912462Y-89627780D01*
X65912462Y-89627780D02*
X65864081Y-89531018D01*
X65864081Y-89531018D02*
X65864081Y-89337494D01*
X65864081Y-89337494D02*
X65912462Y-89240732D01*
X66493034Y-89676161D02*
X66541414Y-89579399D01*
X66541414Y-89579399D02*
X66541414Y-89337494D01*
X66541414Y-89337494D02*
X66493034Y-89240732D01*
X66493034Y-89240732D02*
X66396272Y-89192351D01*
X66396272Y-89192351D02*
X66299510Y-89192351D01*
X66299510Y-89192351D02*
X66202748Y-89240732D01*
X66202748Y-89240732D02*
X66154367Y-89337494D01*
X66154367Y-89337494D02*
X66154367Y-89579399D01*
X66154367Y-89579399D02*
X66105986Y-89676161D01*
X65864081Y-90159970D02*
X66541414Y-90159970D01*
X65960843Y-90159970D02*
X65912462Y-90208351D01*
X65912462Y-90208351D02*
X65864081Y-90305113D01*
X65864081Y-90305113D02*
X65864081Y-90450256D01*
X65864081Y-90450256D02*
X65912462Y-90547018D01*
X65912462Y-90547018D02*
X66009224Y-90595399D01*
X66009224Y-90595399D02*
X66541414Y-90595399D01*
X65525414Y-91756541D02*
X66541414Y-91998446D01*
X66541414Y-91998446D02*
X65815700Y-92191970D01*
X65815700Y-92191970D02*
X66541414Y-92385494D01*
X66541414Y-92385494D02*
X65525414Y-92627399D01*
X66541414Y-93014446D02*
X65864081Y-93014446D01*
X65525414Y-93014446D02*
X65573795Y-92966065D01*
X65573795Y-92966065D02*
X65622176Y-93014446D01*
X65622176Y-93014446D02*
X65573795Y-93062827D01*
X65573795Y-93062827D02*
X65525414Y-93014446D01*
X65525414Y-93014446D02*
X65622176Y-93014446D01*
X66541414Y-93643399D02*
X66493034Y-93546637D01*
X66493034Y-93546637D02*
X66396272Y-93498256D01*
X66396272Y-93498256D02*
X65525414Y-93498256D01*
X66493034Y-93982065D02*
X66541414Y-94078827D01*
X66541414Y-94078827D02*
X66541414Y-94272351D01*
X66541414Y-94272351D02*
X66493034Y-94369113D01*
X66493034Y-94369113D02*
X66396272Y-94417494D01*
X66396272Y-94417494D02*
X66347891Y-94417494D01*
X66347891Y-94417494D02*
X66251129Y-94369113D01*
X66251129Y-94369113D02*
X66202748Y-94272351D01*
X66202748Y-94272351D02*
X66202748Y-94127208D01*
X66202748Y-94127208D02*
X66154367Y-94030446D01*
X66154367Y-94030446D02*
X66057605Y-93982065D01*
X66057605Y-93982065D02*
X66009224Y-93982065D01*
X66009224Y-93982065D02*
X65912462Y-94030446D01*
X65912462Y-94030446D02*
X65864081Y-94127208D01*
X65864081Y-94127208D02*
X65864081Y-94272351D01*
X65864081Y-94272351D02*
X65912462Y-94369113D01*
X66541414Y-94998065D02*
X66493034Y-94901303D01*
X66493034Y-94901303D02*
X66444653Y-94852922D01*
X66444653Y-94852922D02*
X66347891Y-94804541D01*
X66347891Y-94804541D02*
X66057605Y-94804541D01*
X66057605Y-94804541D02*
X65960843Y-94852922D01*
X65960843Y-94852922D02*
X65912462Y-94901303D01*
X65912462Y-94901303D02*
X65864081Y-94998065D01*
X65864081Y-94998065D02*
X65864081Y-95143208D01*
X65864081Y-95143208D02*
X65912462Y-95239970D01*
X65912462Y-95239970D02*
X65960843Y-95288351D01*
X65960843Y-95288351D02*
X66057605Y-95336732D01*
X66057605Y-95336732D02*
X66347891Y-95336732D01*
X66347891Y-95336732D02*
X66444653Y-95288351D01*
X66444653Y-95288351D02*
X66493034Y-95239970D01*
X66493034Y-95239970D02*
X66541414Y-95143208D01*
X66541414Y-95143208D02*
X66541414Y-94998065D01*
X65864081Y-95772160D02*
X66541414Y-95772160D01*
X65960843Y-95772160D02*
X65912462Y-95820541D01*
X65912462Y-95820541D02*
X65864081Y-95917303D01*
X65864081Y-95917303D02*
X65864081Y-96062446D01*
X65864081Y-96062446D02*
X65912462Y-96159208D01*
X65912462Y-96159208D02*
X66009224Y-96207589D01*
X66009224Y-96207589D02*
X66541414Y-96207589D01*
D11*
G36*
X63780240Y-106753219D02*
G01*
X63780240Y-106971551D01*
X63734818Y-107062396D01*
X63697223Y-107099991D01*
X63606378Y-107145414D01*
X63242904Y-107145414D01*
X63152058Y-107099991D01*
X63114463Y-107062396D01*
X63069040Y-106971551D01*
X63069040Y-106753219D01*
X63083401Y-106724500D01*
X63765881Y-106724500D01*
X63780240Y-106753219D01*
G37*
G36*
X63780240Y-105374362D02*
G01*
X63780240Y-105592694D01*
X63734818Y-105683539D01*
X63697223Y-105721134D01*
X63606378Y-105766557D01*
X63242904Y-105766557D01*
X63152058Y-105721134D01*
X63114463Y-105683539D01*
X63069040Y-105592694D01*
X63069040Y-105374362D01*
X63083401Y-105345643D01*
X63765881Y-105345643D01*
X63780240Y-105374362D01*
G37*
G36*
X63155994Y-99445672D02*
G01*
X63102804Y-99419077D01*
X63069040Y-99351550D01*
X63069040Y-99133218D01*
X63102804Y-99065691D01*
X63170333Y-99031927D01*
X63238743Y-99031927D01*
X63155994Y-99445672D01*
G37*
G36*
X63697224Y-96101923D02*
G01*
X63734819Y-96139517D01*
X63780241Y-96230361D01*
X63780241Y-96376122D01*
X63734818Y-96466967D01*
X63697223Y-96504562D01*
X63606378Y-96549985D01*
X63242904Y-96549985D01*
X63152058Y-96504562D01*
X63114463Y-96466967D01*
X63069041Y-96376122D01*
X63069041Y-96230361D01*
X63114462Y-96139517D01*
X63152059Y-96101922D01*
X63242905Y-96056499D01*
X63606377Y-96056499D01*
X63697224Y-96101923D01*
G37*
G36*
X63054527Y-94997263D02*
G01*
X63009103Y-95088110D01*
X62971509Y-95125704D01*
X62880663Y-95171128D01*
X62734905Y-95171128D01*
X62644059Y-95125704D01*
X62606462Y-95088109D01*
X62561041Y-94997265D01*
X62561041Y-94605071D01*
X63054527Y-94605071D01*
X63054527Y-94997263D01*
G37*
G36*
X63697224Y-92037923D02*
G01*
X63734819Y-92075517D01*
X63780241Y-92166361D01*
X63780241Y-92384694D01*
X63765881Y-92413414D01*
X63083401Y-92413414D01*
X63069041Y-92384694D01*
X63069041Y-92166361D01*
X63114462Y-92075517D01*
X63152059Y-92037922D01*
X63242905Y-91992499D01*
X63606377Y-91992499D01*
X63697224Y-92037923D01*
G37*
G36*
X63746477Y-89703977D02*
G01*
X63780241Y-89771504D01*
X63780241Y-90062408D01*
X63765881Y-90091128D01*
X63504470Y-90091128D01*
X63504470Y-89771504D01*
X63538233Y-89703977D01*
X63605762Y-89670213D01*
X63678949Y-89670213D01*
X63746477Y-89703977D01*
G37*
G36*
X63697224Y-88336780D02*
G01*
X63734819Y-88374374D01*
X63780241Y-88465218D01*
X63780241Y-88610979D01*
X63734818Y-88701824D01*
X63697223Y-88739419D01*
X63606378Y-88784842D01*
X63242904Y-88784842D01*
X63152058Y-88739419D01*
X63114463Y-88701824D01*
X63069041Y-88610979D01*
X63069041Y-88465218D01*
X63114462Y-88374374D01*
X63152059Y-88336779D01*
X63242905Y-88291356D01*
X63606377Y-88291356D01*
X63697224Y-88336780D01*
G37*
G36*
X63780240Y-87013790D02*
G01*
X63780240Y-87232122D01*
X63734818Y-87322967D01*
X63697223Y-87360562D01*
X63606378Y-87405985D01*
X63242904Y-87405985D01*
X63152058Y-87360562D01*
X63114463Y-87322967D01*
X63069040Y-87232122D01*
X63069040Y-87013790D01*
X63083401Y-86985071D01*
X63765881Y-86985071D01*
X63780240Y-87013790D01*
G37*
G36*
X63697224Y-85579066D02*
G01*
X63734819Y-85616660D01*
X63780241Y-85707504D01*
X63780241Y-85925837D01*
X63765881Y-85954557D01*
X63083401Y-85954557D01*
X63069041Y-85925837D01*
X63069041Y-85707504D01*
X63114462Y-85616660D01*
X63152059Y-85579065D01*
X63242905Y-85533642D01*
X63606377Y-85533642D01*
X63697224Y-85579066D01*
G37*
G36*
X63746477Y-84188549D02*
G01*
X63780241Y-84256076D01*
X63780241Y-84546980D01*
X63765881Y-84575700D01*
X63504470Y-84575700D01*
X63504470Y-84256076D01*
X63538233Y-84188549D01*
X63605762Y-84154785D01*
X63678949Y-84154785D01*
X63746477Y-84188549D01*
G37*
G36*
X63155994Y-83262244D02*
G01*
X63102804Y-83235649D01*
X63069040Y-83168122D01*
X63069040Y-82949790D01*
X63102804Y-82882263D01*
X63170333Y-82848499D01*
X63238743Y-82848499D01*
X63155994Y-83262244D01*
G37*
G36*
X63780241Y-80845836D02*
G01*
X63734819Y-80936680D01*
X63697224Y-80974274D01*
X63606377Y-81019699D01*
X63460619Y-81019699D01*
X63369772Y-80974275D01*
X63340128Y-80944631D01*
X63286755Y-80784510D01*
X63286755Y-80453642D01*
X63780241Y-80453642D01*
X63780241Y-80845836D01*
G37*
G36*
X62981955Y-80773265D02*
G01*
X62936533Y-80864109D01*
X62898937Y-80901704D01*
X62808093Y-80947127D01*
X62734904Y-80947127D01*
X62644059Y-80901705D01*
X62606462Y-80864109D01*
X62561041Y-80773265D01*
X62561041Y-80453642D01*
X62981955Y-80453642D01*
X62981955Y-80773265D01*
G37*
G36*
X63697224Y-77813922D02*
G01*
X63734819Y-77851516D01*
X63780241Y-77942360D01*
X63780241Y-78160693D01*
X63734819Y-78251537D01*
X63697223Y-78289132D01*
X63606378Y-78334555D01*
X63315475Y-78334555D01*
X63224629Y-78289132D01*
X63187035Y-78251538D01*
X63141611Y-78160691D01*
X63141611Y-77942362D01*
X63187035Y-77851515D01*
X63224629Y-77813921D01*
X63315476Y-77768498D01*
X63606377Y-77768498D01*
X63697224Y-77813922D01*
G37*
G36*
X63589164Y-74929604D02*
G01*
X63697223Y-74983634D01*
X63734818Y-75021229D01*
X63780241Y-75112074D01*
X63780241Y-75185263D01*
X63734818Y-75276108D01*
X63697223Y-75313703D01*
X63589163Y-75367733D01*
X63333308Y-75431697D01*
X63007974Y-75431697D01*
X62752118Y-75367733D01*
X62644058Y-75313703D01*
X62606463Y-75276108D01*
X62561041Y-75185263D01*
X62561041Y-75112074D01*
X62606463Y-75021230D01*
X62644058Y-74983634D01*
X62752117Y-74929604D01*
X63007975Y-74865640D01*
X63333307Y-74865640D01*
X63589164Y-74929604D01*
G37*
G36*
X64810755Y-109697450D02*
G01*
X62038527Y-109697450D01*
X62038527Y-109302444D01*
X62766719Y-109302444D01*
X62773120Y-109381072D01*
X62817977Y-109445965D01*
X62889271Y-109479736D01*
X62967899Y-109473335D01*
X63983899Y-109110478D01*
X63986318Y-109108805D01*
X63989241Y-109108457D01*
X64352098Y-108963314D01*
X64376677Y-108944925D01*
X64403260Y-108929578D01*
X64475833Y-108857007D01*
X64488102Y-108835754D01*
X64504381Y-108817398D01*
X64576952Y-108672255D01*
X64592767Y-108594968D01*
X64567820Y-108520129D01*
X64508796Y-108467789D01*
X64431510Y-108451974D01*
X64356670Y-108476920D01*
X64304330Y-108535945D01*
X64242819Y-108658967D01*
X64209855Y-108691931D01*
X63929586Y-108804038D01*
X62967899Y-108460579D01*
X62889271Y-108454178D01*
X62817977Y-108487949D01*
X62773120Y-108552842D01*
X62766719Y-108631470D01*
X62800490Y-108702764D01*
X62865383Y-108747621D01*
X63479522Y-108966957D01*
X62865383Y-109186293D01*
X62800490Y-109231150D01*
X62766719Y-109302444D01*
X62038527Y-109302444D01*
X62038527Y-107950957D01*
X62256241Y-107950957D01*
X62276659Y-108027157D01*
X62332441Y-108082939D01*
X62408641Y-108103357D01*
X63678950Y-108103357D01*
X63746477Y-108137120D01*
X63796330Y-108236826D01*
X63848670Y-108295851D01*
X63923510Y-108320797D01*
X64000796Y-108304982D01*
X64059820Y-108252642D01*
X64084767Y-108177803D01*
X64068952Y-108100516D01*
X63996381Y-107955373D01*
X63990197Y-107948399D01*
X63987250Y-107939557D01*
X63964346Y-107919247D01*
X63944041Y-107896349D01*
X63935199Y-107893401D01*
X63928225Y-107887217D01*
X63783082Y-107814646D01*
X63748762Y-107807623D01*
X63714927Y-107798557D01*
X62408641Y-107798557D01*
X62332441Y-107818975D01*
X62276659Y-107874757D01*
X62256241Y-107950957D01*
X62038527Y-107950957D01*
X62038527Y-107007528D01*
X62764241Y-107007528D01*
X62773307Y-107041363D01*
X62780330Y-107075683D01*
X62852901Y-107220826D01*
X62869181Y-107239185D01*
X62881449Y-107260434D01*
X62954021Y-107333006D01*
X62975270Y-107345274D01*
X62993629Y-107361554D01*
X63138772Y-107434125D01*
X63173091Y-107441147D01*
X63206927Y-107450214D01*
X63642355Y-107450214D01*
X63676190Y-107441147D01*
X63710510Y-107434125D01*
X63855653Y-107361554D01*
X63874012Y-107345273D01*
X63895261Y-107333006D01*
X63967833Y-107260434D01*
X63980101Y-107239184D01*
X63996381Y-107220826D01*
X64068952Y-107075683D01*
X64075974Y-107041363D01*
X64085041Y-107007528D01*
X64085041Y-106724500D01*
X64440641Y-106724500D01*
X64516841Y-106704082D01*
X64572623Y-106648300D01*
X64593041Y-106572100D01*
X64572623Y-106495900D01*
X64516841Y-106440118D01*
X64440641Y-106419700D01*
X62916641Y-106419700D01*
X62840441Y-106440118D01*
X62784659Y-106495900D01*
X62764241Y-106572100D01*
X62783285Y-106643175D01*
X62780330Y-106649088D01*
X62773307Y-106683407D01*
X62764241Y-106717243D01*
X62764241Y-107007528D01*
X62038527Y-107007528D01*
X62038527Y-105628671D01*
X62764241Y-105628671D01*
X62773307Y-105662506D01*
X62780330Y-105696826D01*
X62852901Y-105841969D01*
X62869181Y-105860328D01*
X62881449Y-105881577D01*
X62954021Y-105954149D01*
X62975270Y-105966417D01*
X62993629Y-105982697D01*
X63138772Y-106055268D01*
X63173091Y-106062290D01*
X63206927Y-106071357D01*
X63642355Y-106071357D01*
X63676190Y-106062290D01*
X63710510Y-106055268D01*
X63855653Y-105982697D01*
X63874012Y-105966416D01*
X63895261Y-105954149D01*
X63967833Y-105881577D01*
X63980101Y-105860327D01*
X63996381Y-105841969D01*
X64068952Y-105696826D01*
X64075974Y-105662506D01*
X64085041Y-105628671D01*
X64085041Y-105345643D01*
X64440641Y-105345643D01*
X64516841Y-105325225D01*
X64572623Y-105269443D01*
X64593041Y-105193243D01*
X64572623Y-105117043D01*
X64516841Y-105061261D01*
X64440641Y-105040843D01*
X62916641Y-105040843D01*
X62840441Y-105061261D01*
X62784659Y-105117043D01*
X62764241Y-105193243D01*
X62783285Y-105264318D01*
X62780330Y-105270231D01*
X62773307Y-105304550D01*
X62764241Y-105338386D01*
X62764241Y-105628671D01*
X62038527Y-105628671D01*
X62038527Y-104467529D01*
X62764241Y-104467529D01*
X62784659Y-104543729D01*
X62840441Y-104599511D01*
X62916641Y-104619929D01*
X63932641Y-104619929D01*
X64008841Y-104599511D01*
X64064623Y-104543729D01*
X64085041Y-104467529D01*
X64064623Y-104391329D01*
X64043055Y-104369761D01*
X64068952Y-104317969D01*
X64075974Y-104283649D01*
X64085041Y-104249814D01*
X64085041Y-104032100D01*
X64075974Y-103998264D01*
X64068952Y-103963945D01*
X63996381Y-103818802D01*
X63990197Y-103811828D01*
X63987250Y-103802986D01*
X63964346Y-103782676D01*
X63944041Y-103759778D01*
X63935199Y-103756830D01*
X63928225Y-103750646D01*
X63783082Y-103678075D01*
X63748762Y-103671052D01*
X63714927Y-103661986D01*
X62916641Y-103661986D01*
X62840441Y-103682404D01*
X62784659Y-103738186D01*
X62764241Y-103814386D01*
X62784659Y-103890586D01*
X62840441Y-103946368D01*
X62916641Y-103966786D01*
X63678950Y-103966786D01*
X63746477Y-104000549D01*
X63780241Y-104068076D01*
X63780241Y-104213837D01*
X63734818Y-104304682D01*
X63724372Y-104315129D01*
X62916641Y-104315129D01*
X62840441Y-104335547D01*
X62784659Y-104391329D01*
X62764241Y-104467529D01*
X62038527Y-104467529D01*
X62038527Y-102943528D01*
X62256241Y-102943528D01*
X62262591Y-102967229D01*
X62264062Y-102991721D01*
X62336633Y-103209435D01*
X62380099Y-103275268D01*
X62450659Y-103310548D01*
X62529405Y-103305822D01*
X62595238Y-103262355D01*
X62630518Y-103191796D01*
X62625792Y-103113049D01*
X62561041Y-102918797D01*
X62561041Y-102616647D01*
X62606462Y-102525803D01*
X62644059Y-102488208D01*
X62734905Y-102442785D01*
X62808094Y-102442785D01*
X62898936Y-102488206D01*
X62936533Y-102525803D01*
X62990562Y-102633861D01*
X63059077Y-102907920D01*
X63067243Y-102922630D01*
X63070616Y-102939112D01*
X63143187Y-103084255D01*
X63159467Y-103102614D01*
X63171736Y-103123864D01*
X63244308Y-103196435D01*
X63265556Y-103208702D01*
X63283915Y-103224982D01*
X63429057Y-103297553D01*
X63463378Y-103304576D01*
X63497212Y-103313642D01*
X63642355Y-103313642D01*
X63676190Y-103304575D01*
X63710510Y-103297553D01*
X63855653Y-103224982D01*
X63874012Y-103208702D01*
X63895260Y-103196435D01*
X63967833Y-103123864D01*
X63980102Y-103102611D01*
X63996381Y-103084255D01*
X64068952Y-102939112D01*
X64075974Y-102904792D01*
X64085041Y-102870957D01*
X64085041Y-102508100D01*
X64078691Y-102484401D01*
X64077221Y-102459908D01*
X64004649Y-102242192D01*
X63961183Y-102176359D01*
X63890624Y-102141079D01*
X63811877Y-102145806D01*
X63746044Y-102189272D01*
X63710764Y-102259831D01*
X63715491Y-102338578D01*
X63780241Y-102532829D01*
X63780241Y-102834980D01*
X63734819Y-102925824D01*
X63697223Y-102963419D01*
X63606378Y-103008842D01*
X63533190Y-103008842D01*
X63442345Y-102963420D01*
X63404748Y-102925824D01*
X63350719Y-102817766D01*
X63282205Y-102543708D01*
X63274038Y-102528997D01*
X63270666Y-102512516D01*
X63198095Y-102367373D01*
X63181816Y-102349016D01*
X63169547Y-102327764D01*
X63096974Y-102255193D01*
X63075724Y-102242925D01*
X63057368Y-102226647D01*
X62912226Y-102154075D01*
X62877909Y-102147052D01*
X62844070Y-102137985D01*
X62698927Y-102137985D01*
X62665094Y-102147050D01*
X62630771Y-102154074D01*
X62485628Y-102226646D01*
X62467268Y-102242926D01*
X62446022Y-102255193D01*
X62373450Y-102327764D01*
X62361181Y-102349013D01*
X62344901Y-102367373D01*
X62272330Y-102512516D01*
X62265307Y-102546835D01*
X62256241Y-102580671D01*
X62256241Y-102943528D01*
X62038527Y-102943528D01*
X62038527Y-100693813D01*
X62764241Y-100693813D01*
X62784659Y-100770013D01*
X62840441Y-100825795D01*
X62916641Y-100846213D01*
X62992841Y-100825795D01*
X63048623Y-100770013D01*
X63069041Y-100693813D01*
X63069041Y-100584646D01*
X63114463Y-100493803D01*
X63152058Y-100456207D01*
X63242904Y-100410785D01*
X63932641Y-100410785D01*
X64008841Y-100390367D01*
X64064623Y-100334585D01*
X64085041Y-100258385D01*
X64064623Y-100182185D01*
X64008841Y-100126403D01*
X63932641Y-100105985D01*
X62916641Y-100105985D01*
X62840441Y-100126403D01*
X62784659Y-100182185D01*
X62764241Y-100258385D01*
X62784659Y-100334585D01*
X62830416Y-100380342D01*
X62780330Y-100480515D01*
X62773306Y-100514836D01*
X62764241Y-100548670D01*
X62764241Y-100693813D01*
X62038527Y-100693813D01*
X62038527Y-99387527D01*
X62764241Y-99387527D01*
X62773307Y-99421362D01*
X62780330Y-99455682D01*
X62852901Y-99600825D01*
X62859084Y-99607798D01*
X62862032Y-99616640D01*
X62884932Y-99636947D01*
X62905241Y-99659850D01*
X62914082Y-99662797D01*
X62921056Y-99668981D01*
X63066199Y-99741553D01*
X63100522Y-99748576D01*
X63134355Y-99757642D01*
X63279498Y-99757642D01*
X63303519Y-99751205D01*
X63328334Y-99749605D01*
X63340996Y-99741163D01*
X63355698Y-99737224D01*
X63373282Y-99719639D01*
X63393973Y-99705846D01*
X63400718Y-99692203D01*
X63411480Y-99681442D01*
X63417916Y-99657420D01*
X63428938Y-99635130D01*
X63549579Y-99031927D01*
X63678949Y-99031927D01*
X63746477Y-99065691D01*
X63780240Y-99133218D01*
X63780240Y-99351550D01*
X63723759Y-99464515D01*
X63707944Y-99541802D01*
X63732891Y-99616641D01*
X63791915Y-99668981D01*
X63869202Y-99684796D01*
X63944041Y-99659849D01*
X63996381Y-99600825D01*
X64068952Y-99455682D01*
X64075974Y-99421362D01*
X64085041Y-99387527D01*
X64085041Y-99097242D01*
X64075974Y-99063406D01*
X64068952Y-99029087D01*
X63996381Y-98883944D01*
X63990197Y-98876970D01*
X63987250Y-98868129D01*
X63964347Y-98847819D01*
X63944041Y-98824920D01*
X63935200Y-98821973D01*
X63928226Y-98815788D01*
X63783083Y-98743216D01*
X63748759Y-98736192D01*
X63714927Y-98727127D01*
X63134355Y-98727127D01*
X63100522Y-98736192D01*
X63066199Y-98743216D01*
X62921056Y-98815788D01*
X62914082Y-98821971D01*
X62905241Y-98824919D01*
X62884932Y-98847821D01*
X62862032Y-98868129D01*
X62859084Y-98876970D01*
X62852901Y-98883944D01*
X62780330Y-99029087D01*
X62773307Y-99063406D01*
X62764241Y-99097242D01*
X62764241Y-99387527D01*
X62038527Y-99387527D01*
X62038527Y-98334518D01*
X62768803Y-98334518D01*
X62770105Y-98413396D01*
X62810671Y-98481054D01*
X62879631Y-98519366D01*
X62958509Y-98518064D01*
X63974509Y-98227778D01*
X63999789Y-98212620D01*
X64026883Y-98201009D01*
X64033168Y-98192607D01*
X64042167Y-98187212D01*
X64056481Y-98161446D01*
X64074141Y-98137842D01*
X64075383Y-98127423D01*
X64080479Y-98118252D01*
X64079992Y-98088777D01*
X64083483Y-98059509D01*
X64079350Y-98049865D01*
X64079177Y-98039374D01*
X64064019Y-98014093D01*
X64052408Y-97987000D01*
X64044006Y-97980714D01*
X64038611Y-97971716D01*
X64012845Y-97957401D01*
X63989241Y-97939742D01*
X63617277Y-97790956D01*
X63989241Y-97642171D01*
X64012845Y-97624511D01*
X64038611Y-97610197D01*
X64044006Y-97601198D01*
X64052408Y-97594913D01*
X64064019Y-97567819D01*
X64079177Y-97542539D01*
X64079350Y-97532047D01*
X64083483Y-97522404D01*
X64079992Y-97493135D01*
X64080479Y-97463661D01*
X64075383Y-97454489D01*
X64074141Y-97444071D01*
X64056480Y-97420464D01*
X64042167Y-97394701D01*
X64033170Y-97389306D01*
X64026884Y-97380904D01*
X63999788Y-97369291D01*
X63974509Y-97354135D01*
X62958509Y-97063849D01*
X62879631Y-97062547D01*
X62810671Y-97100859D01*
X62770105Y-97168517D01*
X62768803Y-97247395D01*
X62807115Y-97316355D01*
X62874773Y-97356921D01*
X63462126Y-97524736D01*
X63150327Y-97649456D01*
X63132801Y-97662567D01*
X63112685Y-97671189D01*
X63101761Y-97685790D01*
X63087160Y-97696714D01*
X63078538Y-97716830D01*
X63065427Y-97734356D01*
X63063267Y-97752463D01*
X63056085Y-97769223D01*
X63058676Y-97790956D01*
X63056085Y-97812689D01*
X63063267Y-97829448D01*
X63065427Y-97847556D01*
X63078538Y-97865081D01*
X63087160Y-97885198D01*
X63101761Y-97896121D01*
X63112685Y-97910723D01*
X63132801Y-97919344D01*
X63150327Y-97932456D01*
X63462127Y-98057176D01*
X62874773Y-98224992D01*
X62807115Y-98265558D01*
X62768803Y-98334518D01*
X62038527Y-98334518D01*
X62038527Y-96412099D01*
X62764241Y-96412099D01*
X62773307Y-96445934D01*
X62780330Y-96480254D01*
X62852901Y-96625397D01*
X62869181Y-96643756D01*
X62881449Y-96665005D01*
X62954021Y-96737577D01*
X62975270Y-96749845D01*
X62993629Y-96766125D01*
X63138772Y-96838696D01*
X63173091Y-96845718D01*
X63206927Y-96854785D01*
X63642355Y-96854785D01*
X63676190Y-96845718D01*
X63710510Y-96838696D01*
X63855653Y-96766125D01*
X63874012Y-96749844D01*
X63895261Y-96737577D01*
X63967833Y-96665005D01*
X63980101Y-96643755D01*
X63996381Y-96625397D01*
X64068952Y-96480254D01*
X64075974Y-96445934D01*
X64085041Y-96412099D01*
X64085041Y-96194385D01*
X64075974Y-96160549D01*
X64068952Y-96126230D01*
X63996381Y-95981087D01*
X63980102Y-95962730D01*
X63967833Y-95941478D01*
X63895260Y-95868907D01*
X63874013Y-95856640D01*
X63855654Y-95840360D01*
X63710511Y-95767788D01*
X63676187Y-95760764D01*
X63642355Y-95751699D01*
X63206927Y-95751699D01*
X63173094Y-95760764D01*
X63138771Y-95767788D01*
X62993628Y-95840360D01*
X62975268Y-95856640D01*
X62954022Y-95868907D01*
X62881450Y-95941478D01*
X62869181Y-95962727D01*
X62852901Y-95981087D01*
X62780330Y-96126230D01*
X62773307Y-96160549D01*
X62764241Y-96194385D01*
X62764241Y-96412099D01*
X62038527Y-96412099D01*
X62038527Y-95033242D01*
X62256241Y-95033242D01*
X62265307Y-95067077D01*
X62272330Y-95101397D01*
X62344901Y-95246540D01*
X62361181Y-95264899D01*
X62373450Y-95286149D01*
X62446022Y-95358720D01*
X62467268Y-95370986D01*
X62485628Y-95387267D01*
X62630771Y-95459839D01*
X62665094Y-95466862D01*
X62698927Y-95475928D01*
X62916641Y-95475928D01*
X62950473Y-95466862D01*
X62984797Y-95459839D01*
X63129940Y-95387267D01*
X63148299Y-95370986D01*
X63169547Y-95358719D01*
X63242118Y-95286148D01*
X63254385Y-95264900D01*
X63270666Y-95246541D01*
X63343238Y-95101398D01*
X63350261Y-95067074D01*
X63359327Y-95033242D01*
X63359327Y-94605071D01*
X63932641Y-94605071D01*
X64008841Y-94584653D01*
X64064623Y-94528871D01*
X64085041Y-94452671D01*
X64064623Y-94376471D01*
X64008841Y-94320689D01*
X63932641Y-94300271D01*
X62408641Y-94300271D01*
X62332441Y-94320689D01*
X62276659Y-94376471D01*
X62256241Y-94452671D01*
X62256241Y-95033242D01*
X62038527Y-95033242D01*
X62038527Y-92565814D01*
X62256241Y-92565814D01*
X62276659Y-92642014D01*
X62332441Y-92697796D01*
X62408641Y-92718214D01*
X63932641Y-92718214D01*
X64008841Y-92697796D01*
X64064623Y-92642014D01*
X64085041Y-92565814D01*
X64065996Y-92494738D01*
X64068952Y-92488826D01*
X64075974Y-92454506D01*
X64085041Y-92420671D01*
X64085041Y-92130385D01*
X64075974Y-92096549D01*
X64068952Y-92062230D01*
X63996381Y-91917087D01*
X63980102Y-91898730D01*
X63967833Y-91877478D01*
X63895260Y-91804907D01*
X63874013Y-91792640D01*
X63855654Y-91776360D01*
X63710511Y-91703788D01*
X63676187Y-91696764D01*
X63642355Y-91687699D01*
X63206927Y-91687699D01*
X63173094Y-91696764D01*
X63138771Y-91703788D01*
X62993628Y-91776360D01*
X62975268Y-91792640D01*
X62954022Y-91804907D01*
X62881450Y-91877478D01*
X62869181Y-91898727D01*
X62852901Y-91917087D01*
X62780330Y-92062230D01*
X62773307Y-92096549D01*
X62764241Y-92130385D01*
X62764241Y-92413414D01*
X62408641Y-92413414D01*
X62332441Y-92433832D01*
X62276659Y-92489614D01*
X62256241Y-92565814D01*
X62038527Y-92565814D01*
X62038527Y-91404670D01*
X62764241Y-91404670D01*
X62784659Y-91480870D01*
X62840441Y-91536652D01*
X62916641Y-91557070D01*
X62992841Y-91536652D01*
X63048623Y-91480870D01*
X63069041Y-91404670D01*
X63069041Y-91295504D01*
X63114463Y-91204660D01*
X63152058Y-91167064D01*
X63242904Y-91121642D01*
X63932641Y-91121642D01*
X64008841Y-91101224D01*
X64064623Y-91045442D01*
X64085041Y-90969242D01*
X64064623Y-90893042D01*
X64008841Y-90837260D01*
X63932641Y-90816842D01*
X62916641Y-90816842D01*
X62840441Y-90837260D01*
X62784659Y-90893042D01*
X62764241Y-90969242D01*
X62784659Y-91045442D01*
X62830416Y-91091199D01*
X62780330Y-91191372D01*
X62773306Y-91225693D01*
X62764241Y-91259527D01*
X62764241Y-91404670D01*
X62038527Y-91404670D01*
X62038527Y-90025813D01*
X62764241Y-90025813D01*
X62773307Y-90059648D01*
X62780330Y-90093968D01*
X62852901Y-90239111D01*
X62859084Y-90246084D01*
X62862032Y-90254926D01*
X62884932Y-90275233D01*
X62905241Y-90298136D01*
X62914082Y-90301083D01*
X62921056Y-90307267D01*
X63066199Y-90379839D01*
X63100522Y-90386862D01*
X63134355Y-90395928D01*
X63932641Y-90395928D01*
X64008841Y-90375510D01*
X64064623Y-90319728D01*
X64085041Y-90243528D01*
X64065996Y-90172452D01*
X64068952Y-90166540D01*
X64075974Y-90132220D01*
X64085041Y-90098385D01*
X64085041Y-89735528D01*
X64075974Y-89701692D01*
X64068952Y-89667373D01*
X63996381Y-89522230D01*
X63990197Y-89515256D01*
X63987250Y-89506415D01*
X63964347Y-89486105D01*
X63944041Y-89463206D01*
X63935200Y-89460259D01*
X63928226Y-89454074D01*
X63783083Y-89381502D01*
X63748759Y-89374478D01*
X63714927Y-89365413D01*
X63569784Y-89365413D01*
X63535951Y-89374478D01*
X63501628Y-89381502D01*
X63356485Y-89454074D01*
X63349511Y-89460257D01*
X63340670Y-89463205D01*
X63320361Y-89486107D01*
X63297461Y-89506415D01*
X63294513Y-89515256D01*
X63288330Y-89522230D01*
X63215759Y-89667373D01*
X63208736Y-89701692D01*
X63199670Y-89735528D01*
X63199669Y-90062406D01*
X63185309Y-90091128D01*
X63170333Y-90091128D01*
X63102804Y-90057363D01*
X63069040Y-89989836D01*
X63069040Y-89771504D01*
X63125523Y-89658540D01*
X63141338Y-89581253D01*
X63116391Y-89506414D01*
X63057367Y-89454074D01*
X62980081Y-89438259D01*
X62905241Y-89463205D01*
X62852901Y-89522230D01*
X62780330Y-89667373D01*
X62773307Y-89701692D01*
X62764241Y-89735528D01*
X62764241Y-90025813D01*
X62038527Y-90025813D01*
X62038527Y-88646956D01*
X62764241Y-88646956D01*
X62773307Y-88680791D01*
X62780330Y-88715111D01*
X62852901Y-88860254D01*
X62869181Y-88878613D01*
X62881449Y-88899862D01*
X62954021Y-88972434D01*
X62975270Y-88984702D01*
X62993629Y-89000982D01*
X63138772Y-89073553D01*
X63173091Y-89080575D01*
X63206927Y-89089642D01*
X63642355Y-89089642D01*
X63676190Y-89080575D01*
X63710510Y-89073553D01*
X63855653Y-89000982D01*
X63874012Y-88984701D01*
X63895261Y-88972434D01*
X63967833Y-88899862D01*
X63980101Y-88878612D01*
X63996381Y-88860254D01*
X64068952Y-88715111D01*
X64075974Y-88680791D01*
X64085041Y-88646956D01*
X64085041Y-88429242D01*
X64075974Y-88395406D01*
X64068952Y-88361087D01*
X63996381Y-88215944D01*
X63980102Y-88197587D01*
X63967833Y-88176335D01*
X63895260Y-88103764D01*
X63874013Y-88091497D01*
X63855654Y-88075217D01*
X63710511Y-88002645D01*
X63676187Y-87995621D01*
X63642355Y-87986556D01*
X63206927Y-87986556D01*
X63173094Y-87995621D01*
X63138771Y-88002645D01*
X62993628Y-88075217D01*
X62975268Y-88091497D01*
X62954022Y-88103764D01*
X62881450Y-88176335D01*
X62869181Y-88197584D01*
X62852901Y-88215944D01*
X62780330Y-88361087D01*
X62773307Y-88395406D01*
X62764241Y-88429242D01*
X62764241Y-88646956D01*
X62038527Y-88646956D01*
X62038527Y-86832671D01*
X62256241Y-86832671D01*
X62276659Y-86908871D01*
X62332441Y-86964653D01*
X62408641Y-86985071D01*
X62764241Y-86985071D01*
X62764241Y-87268099D01*
X62773307Y-87301934D01*
X62780330Y-87336254D01*
X62852901Y-87481397D01*
X62869181Y-87499756D01*
X62881449Y-87521005D01*
X62954021Y-87593577D01*
X62975270Y-87605845D01*
X62993629Y-87622125D01*
X63138772Y-87694696D01*
X63173091Y-87701718D01*
X63206927Y-87710785D01*
X63642355Y-87710785D01*
X63676190Y-87701718D01*
X63710510Y-87694696D01*
X63855653Y-87622125D01*
X63874012Y-87605844D01*
X63895261Y-87593577D01*
X63967833Y-87521005D01*
X63980101Y-87499755D01*
X63996381Y-87481397D01*
X64068952Y-87336254D01*
X64075974Y-87301934D01*
X64085041Y-87268099D01*
X64085041Y-86977814D01*
X64075974Y-86943978D01*
X64068952Y-86909659D01*
X64065996Y-86903746D01*
X64085041Y-86832671D01*
X64064623Y-86756471D01*
X64008841Y-86700689D01*
X63932641Y-86680271D01*
X62408641Y-86680271D01*
X62332441Y-86700689D01*
X62276659Y-86756471D01*
X62256241Y-86832671D01*
X62038527Y-86832671D01*
X62038527Y-86106957D01*
X62256241Y-86106957D01*
X62276659Y-86183157D01*
X62332441Y-86238939D01*
X62408641Y-86259357D01*
X63932641Y-86259357D01*
X64008841Y-86238939D01*
X64064623Y-86183157D01*
X64085041Y-86106957D01*
X64065996Y-86035881D01*
X64068952Y-86029969D01*
X64075974Y-85995649D01*
X64085041Y-85961814D01*
X64085041Y-85671528D01*
X64075974Y-85637692D01*
X64068952Y-85603373D01*
X63996381Y-85458230D01*
X63980102Y-85439873D01*
X63967833Y-85418621D01*
X63895260Y-85346050D01*
X63874013Y-85333783D01*
X63855654Y-85317503D01*
X63710511Y-85244931D01*
X63676187Y-85237907D01*
X63642355Y-85228842D01*
X63206927Y-85228842D01*
X63173094Y-85237907D01*
X63138771Y-85244931D01*
X62993628Y-85317503D01*
X62975268Y-85333783D01*
X62954022Y-85346050D01*
X62881450Y-85418621D01*
X62869181Y-85439870D01*
X62852901Y-85458230D01*
X62780330Y-85603373D01*
X62773307Y-85637692D01*
X62764241Y-85671528D01*
X62764241Y-85954557D01*
X62408641Y-85954557D01*
X62332441Y-85974975D01*
X62276659Y-86030757D01*
X62256241Y-86106957D01*
X62038527Y-86106957D01*
X62038527Y-84510385D01*
X62764241Y-84510385D01*
X62773307Y-84544220D01*
X62780330Y-84578540D01*
X62852901Y-84723683D01*
X62859084Y-84730656D01*
X62862032Y-84739498D01*
X62884932Y-84759805D01*
X62905241Y-84782708D01*
X62914082Y-84785655D01*
X62921056Y-84791839D01*
X63066199Y-84864411D01*
X63100522Y-84871434D01*
X63134355Y-84880500D01*
X63932641Y-84880500D01*
X64008841Y-84860082D01*
X64064623Y-84804300D01*
X64085041Y-84728100D01*
X64065996Y-84657024D01*
X64068952Y-84651112D01*
X64075974Y-84616792D01*
X64085041Y-84582957D01*
X64085041Y-84220100D01*
X64075974Y-84186264D01*
X64068952Y-84151945D01*
X63996381Y-84006802D01*
X63990197Y-83999828D01*
X63987250Y-83990987D01*
X63964347Y-83970677D01*
X63944041Y-83947778D01*
X63935200Y-83944831D01*
X63928226Y-83938646D01*
X63783083Y-83866074D01*
X63748759Y-83859050D01*
X63714927Y-83849985D01*
X63569784Y-83849985D01*
X63535951Y-83859050D01*
X63501628Y-83866074D01*
X63356485Y-83938646D01*
X63349511Y-83944829D01*
X63340670Y-83947777D01*
X63320361Y-83970679D01*
X63297461Y-83990987D01*
X63294513Y-83999828D01*
X63288330Y-84006802D01*
X63215759Y-84151945D01*
X63208736Y-84186264D01*
X63199670Y-84220100D01*
X63199669Y-84546978D01*
X63185309Y-84575700D01*
X63170333Y-84575700D01*
X63102804Y-84541935D01*
X63069040Y-84474408D01*
X63069040Y-84256076D01*
X63125523Y-84143112D01*
X63141338Y-84065825D01*
X63116391Y-83990986D01*
X63057367Y-83938646D01*
X62980081Y-83922831D01*
X62905241Y-83947777D01*
X62852901Y-84006802D01*
X62780330Y-84151945D01*
X62773307Y-84186264D01*
X62764241Y-84220100D01*
X62764241Y-84510385D01*
X62038527Y-84510385D01*
X62038527Y-83204099D01*
X62764241Y-83204099D01*
X62773307Y-83237934D01*
X62780330Y-83272254D01*
X62852901Y-83417397D01*
X62859084Y-83424370D01*
X62862032Y-83433212D01*
X62884932Y-83453519D01*
X62905241Y-83476422D01*
X62914082Y-83479369D01*
X62921056Y-83485553D01*
X63066199Y-83558125D01*
X63100522Y-83565148D01*
X63134355Y-83574214D01*
X63279498Y-83574214D01*
X63303519Y-83567777D01*
X63328334Y-83566177D01*
X63340996Y-83557735D01*
X63355698Y-83553796D01*
X63373282Y-83536211D01*
X63393973Y-83522418D01*
X63400718Y-83508775D01*
X63411480Y-83498014D01*
X63417916Y-83473992D01*
X63428938Y-83451702D01*
X63549579Y-82848499D01*
X63678949Y-82848499D01*
X63746477Y-82882263D01*
X63780240Y-82949790D01*
X63780240Y-83168122D01*
X63723759Y-83281087D01*
X63707944Y-83358374D01*
X63732891Y-83433213D01*
X63791915Y-83485553D01*
X63869202Y-83501368D01*
X63944041Y-83476421D01*
X63996381Y-83417397D01*
X64068952Y-83272254D01*
X64075974Y-83237934D01*
X64085041Y-83204099D01*
X64085041Y-82913814D01*
X64075974Y-82879978D01*
X64068952Y-82845659D01*
X63996381Y-82700516D01*
X63990197Y-82693542D01*
X63987250Y-82684701D01*
X63964347Y-82664391D01*
X63944041Y-82641492D01*
X63935200Y-82638545D01*
X63928226Y-82632360D01*
X63783083Y-82559788D01*
X63748759Y-82552764D01*
X63714927Y-82543699D01*
X63134355Y-82543699D01*
X63100522Y-82552764D01*
X63066199Y-82559788D01*
X62921056Y-82632360D01*
X62914082Y-82638543D01*
X62905241Y-82641491D01*
X62884932Y-82664393D01*
X62862032Y-82684701D01*
X62859084Y-82693542D01*
X62852901Y-82700516D01*
X62780330Y-82845659D01*
X62773307Y-82879978D01*
X62764241Y-82913814D01*
X62764241Y-83204099D01*
X62038527Y-83204099D01*
X62038527Y-82260670D01*
X62764241Y-82260670D01*
X62784659Y-82336870D01*
X62840441Y-82392652D01*
X62916641Y-82413070D01*
X62992841Y-82392652D01*
X63048623Y-82336870D01*
X63069041Y-82260670D01*
X63069041Y-82151504D01*
X63114463Y-82060660D01*
X63152058Y-82023064D01*
X63242904Y-81977642D01*
X63932641Y-81977642D01*
X64008841Y-81957224D01*
X64064623Y-81901442D01*
X64085041Y-81825242D01*
X64064623Y-81749042D01*
X64008841Y-81693260D01*
X63932641Y-81672842D01*
X62916641Y-81672842D01*
X62840441Y-81693260D01*
X62784659Y-81749042D01*
X62764241Y-81825242D01*
X62784659Y-81901442D01*
X62830416Y-81947199D01*
X62780330Y-82047372D01*
X62773306Y-82081693D01*
X62764241Y-82115527D01*
X62764241Y-82260670D01*
X62038527Y-82260670D01*
X62038527Y-80809242D01*
X62256241Y-80809242D01*
X62265307Y-80843077D01*
X62272330Y-80877397D01*
X62344901Y-81022540D01*
X62361181Y-81040899D01*
X62373450Y-81062149D01*
X62446022Y-81134720D01*
X62467270Y-81146987D01*
X62485629Y-81163267D01*
X62630772Y-81235838D01*
X62665091Y-81242860D01*
X62698927Y-81251927D01*
X62844070Y-81251927D01*
X62877903Y-81242861D01*
X62912225Y-81235838D01*
X63057368Y-81163267D01*
X63075727Y-81146986D01*
X63096974Y-81134720D01*
X63098362Y-81133331D01*
X63099164Y-81134719D01*
X63171735Y-81207290D01*
X63192982Y-81219557D01*
X63211342Y-81235838D01*
X63356485Y-81308410D01*
X63390808Y-81315433D01*
X63424641Y-81324499D01*
X63642355Y-81324499D01*
X63676187Y-81315433D01*
X63710511Y-81308410D01*
X63855654Y-81235838D01*
X63874013Y-81219557D01*
X63895260Y-81207291D01*
X63967833Y-81134720D01*
X63980102Y-81113467D01*
X63996381Y-81095111D01*
X64068952Y-80949968D01*
X64075974Y-80915648D01*
X64085041Y-80881813D01*
X64085041Y-80301242D01*
X64064623Y-80225042D01*
X64008841Y-80169260D01*
X63932641Y-80148842D01*
X62408641Y-80148842D01*
X62332441Y-80169260D01*
X62276659Y-80225042D01*
X62256241Y-80301242D01*
X62256241Y-80809242D01*
X62038527Y-80809242D01*
X62038527Y-78341813D01*
X62256241Y-78341813D01*
X62276659Y-78418013D01*
X62332441Y-78473795D01*
X62408641Y-78494213D01*
X62484841Y-78473795D01*
X62540623Y-78418013D01*
X62561041Y-78341813D01*
X62561041Y-78087503D01*
X62606462Y-77996659D01*
X62650880Y-77952243D01*
X62834069Y-77830117D01*
X62860225Y-77823578D01*
X62852901Y-77838228D01*
X62845877Y-77872551D01*
X62836812Y-77906384D01*
X62836812Y-78196670D01*
X62845877Y-78230502D01*
X62852901Y-78264826D01*
X62925473Y-78409969D01*
X62941753Y-78428328D01*
X62954021Y-78449576D01*
X63026592Y-78522147D01*
X63047841Y-78534415D01*
X63066200Y-78550695D01*
X63211343Y-78623266D01*
X63245662Y-78630288D01*
X63279498Y-78639355D01*
X63642355Y-78639355D01*
X63676190Y-78630288D01*
X63710510Y-78623266D01*
X63855653Y-78550695D01*
X63874012Y-78534415D01*
X63895260Y-78522148D01*
X63967833Y-78449577D01*
X63980102Y-78428324D01*
X63996381Y-78409968D01*
X64068952Y-78264825D01*
X64075974Y-78230505D01*
X64085041Y-78196670D01*
X64085041Y-77906384D01*
X64075974Y-77872548D01*
X64068952Y-77838229D01*
X63996381Y-77693086D01*
X63980102Y-77674729D01*
X63967833Y-77653477D01*
X63895260Y-77580906D01*
X63874013Y-77568639D01*
X63855654Y-77552359D01*
X63710511Y-77479787D01*
X63676187Y-77472763D01*
X63642355Y-77463698D01*
X63061784Y-77463698D01*
X63043622Y-77468564D01*
X63024821Y-77468248D01*
X62734535Y-77540820D01*
X62711698Y-77553497D01*
X62686962Y-77561866D01*
X62469248Y-77707009D01*
X62459202Y-77718439D01*
X62446022Y-77726049D01*
X62373450Y-77798620D01*
X62361181Y-77819869D01*
X62344901Y-77838229D01*
X62272330Y-77983372D01*
X62265307Y-78017691D01*
X62256241Y-78051527D01*
X62256241Y-78341813D01*
X62038527Y-78341813D01*
X62038527Y-76600098D01*
X62256241Y-76600098D01*
X62257545Y-76604965D01*
X62256557Y-76609906D01*
X62267676Y-76642775D01*
X62276659Y-76676298D01*
X62280222Y-76679861D01*
X62281837Y-76684634D01*
X62307900Y-76707539D01*
X62332441Y-76732080D01*
X62337308Y-76733384D01*
X62341094Y-76736711D01*
X62375123Y-76743516D01*
X62408641Y-76752498D01*
X63780241Y-76752498D01*
X63780241Y-77035526D01*
X63800659Y-77111726D01*
X63856441Y-77167508D01*
X63932641Y-77187926D01*
X64008841Y-77167508D01*
X64064623Y-77111726D01*
X64085041Y-77035526D01*
X64085041Y-76164669D01*
X64064623Y-76088469D01*
X64008841Y-76032687D01*
X63932641Y-76012269D01*
X63856441Y-76032687D01*
X63800659Y-76088469D01*
X63780241Y-76164669D01*
X63780241Y-76447698D01*
X62849138Y-76447698D01*
X62879261Y-76417575D01*
X62891528Y-76396327D01*
X62907809Y-76377968D01*
X62980381Y-76232825D01*
X62996196Y-76155538D01*
X62971250Y-76080699D01*
X62912226Y-76028359D01*
X62834939Y-76012543D01*
X62760100Y-76037489D01*
X62707759Y-76096513D01*
X62646246Y-76219537D01*
X62529260Y-76336523D01*
X62324105Y-76473294D01*
X62301199Y-76499357D01*
X62276659Y-76523898D01*
X62275354Y-76528765D01*
X62272028Y-76532551D01*
X62265222Y-76566580D01*
X62256241Y-76600098D01*
X62038527Y-76600098D01*
X62038527Y-75221240D01*
X62256241Y-75221240D01*
X62265307Y-75255075D01*
X62272330Y-75289395D01*
X62344901Y-75434538D01*
X62361181Y-75452897D01*
X62373449Y-75474146D01*
X62446021Y-75546718D01*
X62467270Y-75558986D01*
X62485629Y-75575266D01*
X62630772Y-75647837D01*
X62647255Y-75651209D01*
X62661965Y-75659376D01*
X62952250Y-75731947D01*
X62971050Y-75731630D01*
X62989212Y-75736497D01*
X63352070Y-75736497D01*
X63370231Y-75731630D01*
X63389032Y-75731947D01*
X63679317Y-75659376D01*
X63694026Y-75651209D01*
X63710510Y-75647837D01*
X63855653Y-75575266D01*
X63874012Y-75558985D01*
X63895261Y-75546718D01*
X63967833Y-75474146D01*
X63980101Y-75452896D01*
X63996381Y-75434538D01*
X64068952Y-75289395D01*
X64075974Y-75255075D01*
X64085041Y-75221240D01*
X64085041Y-75076097D01*
X64075975Y-75042263D01*
X64068952Y-75007942D01*
X63996381Y-74862800D01*
X63980101Y-74844441D01*
X63967833Y-74823192D01*
X63895261Y-74750620D01*
X63874012Y-74738352D01*
X63855653Y-74722072D01*
X63710510Y-74649501D01*
X63694028Y-74646128D01*
X63679318Y-74637962D01*
X63389033Y-74565390D01*
X63370231Y-74565706D01*
X63352070Y-74560840D01*
X62989212Y-74560840D01*
X62971050Y-74565706D01*
X62952249Y-74565390D01*
X62661964Y-74637962D01*
X62647253Y-74646128D01*
X62630772Y-74649501D01*
X62485629Y-74722072D01*
X62467270Y-74738351D01*
X62446021Y-74750620D01*
X62373449Y-74823192D01*
X62361181Y-74844439D01*
X62344901Y-74862799D01*
X62272330Y-75007942D01*
X62265306Y-75042263D01*
X62256241Y-75076097D01*
X62256241Y-75221240D01*
X62038527Y-75221240D01*
X62038527Y-73697240D01*
X62256241Y-73697240D01*
X62257545Y-73702107D01*
X62256557Y-73707048D01*
X62267676Y-73739917D01*
X62276659Y-73773440D01*
X62280222Y-73777003D01*
X62281837Y-73781776D01*
X62307900Y-73804681D01*
X62332441Y-73829222D01*
X62337308Y-73830526D01*
X62341094Y-73833853D01*
X62375123Y-73840658D01*
X62408641Y-73849640D01*
X63780241Y-73849640D01*
X63780241Y-74132668D01*
X63800659Y-74208868D01*
X63856441Y-74264650D01*
X63932641Y-74285068D01*
X64008841Y-74264650D01*
X64064623Y-74208868D01*
X64085041Y-74132668D01*
X64085041Y-73261811D01*
X64064623Y-73185611D01*
X64008841Y-73129829D01*
X63932641Y-73109411D01*
X63856441Y-73129829D01*
X63800659Y-73185611D01*
X63780241Y-73261811D01*
X63780241Y-73544840D01*
X62849138Y-73544840D01*
X62879261Y-73514717D01*
X62891528Y-73493469D01*
X62907809Y-73475110D01*
X62980381Y-73329967D01*
X62996196Y-73252680D01*
X62971250Y-73177841D01*
X62912226Y-73125501D01*
X62834939Y-73109685D01*
X62760100Y-73134631D01*
X62707759Y-73193655D01*
X62646246Y-73316679D01*
X62529260Y-73433665D01*
X62324105Y-73570436D01*
X62301199Y-73596499D01*
X62276659Y-73621040D01*
X62275354Y-73625907D01*
X62272028Y-73629693D01*
X62265222Y-73663722D01*
X62256241Y-73697240D01*
X62038527Y-73697240D01*
X62038527Y-72891697D01*
X64810755Y-72891697D01*
X64810755Y-109697450D01*
G37*
D12*
X76688094Y-76329819D02*
X76688094Y-75329819D01*
X76688094Y-75806009D02*
X76116666Y-75806009D01*
X76116666Y-76329819D02*
X76116666Y-75329819D01*
X75688094Y-76282200D02*
X75545237Y-76329819D01*
X75545237Y-76329819D02*
X75307142Y-76329819D01*
X75307142Y-76329819D02*
X75211904Y-76282200D01*
X75211904Y-76282200D02*
X75164285Y-76234580D01*
X75164285Y-76234580D02*
X75116666Y-76139342D01*
X75116666Y-76139342D02*
X75116666Y-76044104D01*
X75116666Y-76044104D02*
X75164285Y-75948866D01*
X75164285Y-75948866D02*
X75211904Y-75901247D01*
X75211904Y-75901247D02*
X75307142Y-75853628D01*
X75307142Y-75853628D02*
X75497618Y-75806009D01*
X75497618Y-75806009D02*
X75592856Y-75758390D01*
X75592856Y-75758390D02*
X75640475Y-75710771D01*
X75640475Y-75710771D02*
X75688094Y-75615533D01*
X75688094Y-75615533D02*
X75688094Y-75520295D01*
X75688094Y-75520295D02*
X75640475Y-75425057D01*
X75640475Y-75425057D02*
X75592856Y-75377438D01*
X75592856Y-75377438D02*
X75497618Y-75329819D01*
X75497618Y-75329819D02*
X75259523Y-75329819D01*
X75259523Y-75329819D02*
X75116666Y-75377438D01*
X74735713Y-75425057D02*
X74688094Y-75377438D01*
X74688094Y-75377438D02*
X74592856Y-75329819D01*
X74592856Y-75329819D02*
X74354761Y-75329819D01*
X74354761Y-75329819D02*
X74259523Y-75377438D01*
X74259523Y-75377438D02*
X74211904Y-75425057D01*
X74211904Y-75425057D02*
X74164285Y-75520295D01*
X74164285Y-75520295D02*
X74164285Y-75615533D01*
X74164285Y-75615533D02*
X74211904Y-75758390D01*
X74211904Y-75758390D02*
X74783332Y-76329819D01*
X74783332Y-76329819D02*
X74164285Y-76329819D01*
X72716094Y-111882819D02*
X72716094Y-110882819D01*
X72716094Y-111359009D02*
X72144666Y-111359009D01*
X72144666Y-111882819D02*
X72144666Y-110882819D01*
X71716094Y-111835200D02*
X71573237Y-111882819D01*
X71573237Y-111882819D02*
X71335142Y-111882819D01*
X71335142Y-111882819D02*
X71239904Y-111835200D01*
X71239904Y-111835200D02*
X71192285Y-111787580D01*
X71192285Y-111787580D02*
X71144666Y-111692342D01*
X71144666Y-111692342D02*
X71144666Y-111597104D01*
X71144666Y-111597104D02*
X71192285Y-111501866D01*
X71192285Y-111501866D02*
X71239904Y-111454247D01*
X71239904Y-111454247D02*
X71335142Y-111406628D01*
X71335142Y-111406628D02*
X71525618Y-111359009D01*
X71525618Y-111359009D02*
X71620856Y-111311390D01*
X71620856Y-111311390D02*
X71668475Y-111263771D01*
X71668475Y-111263771D02*
X71716094Y-111168533D01*
X71716094Y-111168533D02*
X71716094Y-111073295D01*
X71716094Y-111073295D02*
X71668475Y-110978057D01*
X71668475Y-110978057D02*
X71620856Y-110930438D01*
X71620856Y-110930438D02*
X71525618Y-110882819D01*
X71525618Y-110882819D02*
X71287523Y-110882819D01*
X71287523Y-110882819D02*
X71144666Y-110930438D01*
X70192285Y-111882819D02*
X70763713Y-111882819D01*
X70477999Y-111882819D02*
X70477999Y-110882819D01*
X70477999Y-110882819D02*
X70573237Y-111025676D01*
X70573237Y-111025676D02*
X70668475Y-111120914D01*
X70668475Y-111120914D02*
X70763713Y-111168533D01*
X94308333Y-73754819D02*
X94308333Y-74469104D01*
X94308333Y-74469104D02*
X94355952Y-74611961D01*
X94355952Y-74611961D02*
X94451190Y-74707200D01*
X94451190Y-74707200D02*
X94594047Y-74754819D01*
X94594047Y-74754819D02*
X94689285Y-74754819D01*
X93927380Y-73754819D02*
X93308333Y-73754819D01*
X93308333Y-73754819D02*
X93641666Y-74135771D01*
X93641666Y-74135771D02*
X93498809Y-74135771D01*
X93498809Y-74135771D02*
X93403571Y-74183390D01*
X93403571Y-74183390D02*
X93355952Y-74231009D01*
X93355952Y-74231009D02*
X93308333Y-74326247D01*
X93308333Y-74326247D02*
X93308333Y-74564342D01*
X93308333Y-74564342D02*
X93355952Y-74659580D01*
X93355952Y-74659580D02*
X93403571Y-74707200D01*
X93403571Y-74707200D02*
X93498809Y-74754819D01*
X93498809Y-74754819D02*
X93784523Y-74754819D01*
X93784523Y-74754819D02*
X93879761Y-74707200D01*
X93879761Y-74707200D02*
X93927380Y-74659580D01*
X94308333Y-118199819D02*
X94308333Y-118914104D01*
X94308333Y-118914104D02*
X94355952Y-119056961D01*
X94355952Y-119056961D02*
X94451190Y-119152200D01*
X94451190Y-119152200D02*
X94594047Y-119199819D01*
X94594047Y-119199819D02*
X94689285Y-119199819D01*
X93403571Y-118533152D02*
X93403571Y-119199819D01*
X93641666Y-118152200D02*
X93879761Y-118866485D01*
X93879761Y-118866485D02*
X93260714Y-118866485D01*
D13*
X79700000Y-76625000D02*
X71200000Y-76625000D01*
X71200000Y-76625000D02*
X71200000Y-85125000D01*
X71200000Y-85125000D02*
X79700000Y-85125000D01*
X79700000Y-85125000D02*
X79700000Y-76625000D01*
X75728000Y-112178000D02*
X67228000Y-112178000D01*
X67228000Y-112178000D02*
X67228000Y-120678000D01*
X67228000Y-120678000D02*
X75728000Y-120678000D01*
X75728000Y-120678000D02*
X75728000Y-112178000D01*
D14*
X50323750Y-106553000D02*
G75*
G03*
X50323750Y-106553000I-158750J0D01*
G01*
D15*
X66946665Y-101057938D02*
X67122042Y-101108630D01*
X67309540Y-101190083D01*
X67352798Y-101212437D01*
X67550112Y-101342041D01*
X67723986Y-101502984D01*
X67869952Y-101689740D01*
X67983541Y-101896782D01*
X68060285Y-102118583D01*
X68077679Y-102221568D01*
X68086836Y-102359382D01*
X68086482Y-102511304D01*
X68077094Y-102663395D01*
X68059148Y-102801718D01*
X68033123Y-102912333D01*
X67965484Y-103079851D01*
X67846043Y-103280506D01*
X67694100Y-103460832D01*
X67514103Y-103616479D01*
X67310503Y-103743099D01*
X67087750Y-103836342D01*
X67078737Y-103839254D01*
X66987474Y-103865457D01*
X66902249Y-103881626D01*
X66806979Y-103890025D01*
X66685583Y-103892915D01*
X66545282Y-103890667D01*
X66410312Y-103878107D01*
X66287931Y-103851523D01*
X66162614Y-103807406D01*
X66018833Y-103742250D01*
X66008437Y-103737178D01*
X65904788Y-103682762D01*
X65820199Y-103628096D01*
X65739511Y-103562237D01*
X65647565Y-103474241D01*
X65530366Y-103343804D01*
X65400182Y-103150183D01*
X65308474Y-102941170D01*
X65254115Y-102714005D01*
X65240664Y-102530013D01*
X65322443Y-102530013D01*
X65331685Y-102675426D01*
X65352266Y-102796761D01*
X65364367Y-102840813D01*
X65445415Y-103045243D01*
X65561442Y-103237734D01*
X65706625Y-103411097D01*
X65875141Y-103558146D01*
X66061167Y-103671694D01*
X66111922Y-103695204D01*
X66301254Y-103763425D01*
X66496875Y-103807078D01*
X66682153Y-103822132D01*
X66802572Y-103814623D01*
X67007680Y-103772511D01*
X67210742Y-103696905D01*
X67401791Y-103591852D01*
X67570862Y-103461396D01*
X67589252Y-103444576D01*
X67661652Y-103377965D01*
X67710345Y-103328675D01*
X67732672Y-103294103D01*
X67725973Y-103271650D01*
X67687588Y-103258714D01*
X67614858Y-103252694D01*
X67505123Y-103250990D01*
X67355724Y-103251000D01*
X66955458Y-103251000D01*
X66943349Y-103311544D01*
X66937498Y-103333458D01*
X66893976Y-103413603D01*
X66825702Y-103483011D01*
X66745923Y-103527210D01*
X66691138Y-103539778D01*
X66587441Y-103542840D01*
X66486023Y-103524746D01*
X66405147Y-103487617D01*
X66359059Y-103446898D01*
X66302397Y-103358667D01*
X66275768Y-103256968D01*
X66276662Y-103220873D01*
X66357500Y-103220873D01*
X66361291Y-103274310D01*
X66382018Y-103329062D01*
X66428791Y-103387076D01*
X66494151Y-103437817D01*
X66584765Y-103467361D01*
X66677879Y-103462184D01*
X66763436Y-103423181D01*
X66831377Y-103351247D01*
X66838651Y-103339130D01*
X66871831Y-103243482D01*
X66867944Y-103148600D01*
X66830563Y-103063212D01*
X66763257Y-102996048D01*
X66669599Y-102955835D01*
X66588562Y-102950233D01*
X66497872Y-102976646D01*
X66424510Y-103034482D01*
X66375408Y-103117853D01*
X66357500Y-103220873D01*
X66276662Y-103220873D01*
X66278390Y-103151156D01*
X66309482Y-103050587D01*
X66368265Y-102964615D01*
X66453957Y-102902596D01*
X66530244Y-102876241D01*
X66588562Y-102871851D01*
X66640193Y-102867965D01*
X66744939Y-102890485D01*
X66836056Y-102940275D01*
X66905119Y-103013810D01*
X66943704Y-103107563D01*
X66955458Y-103166333D01*
X67817024Y-103166333D01*
X67851029Y-103114435D01*
X67852876Y-103111520D01*
X67877543Y-103063040D01*
X67908599Y-102990364D01*
X67939777Y-102908060D01*
X67959707Y-102841047D01*
X67985932Y-102703188D01*
X68001391Y-102548935D01*
X68005416Y-102392424D01*
X67997341Y-102247790D01*
X67976501Y-102129167D01*
X67930129Y-101993922D01*
X67833807Y-101802767D01*
X67708482Y-101622067D01*
X67561622Y-101462144D01*
X67400695Y-101333320D01*
X67387309Y-101324733D01*
X67302253Y-101277626D01*
X67199815Y-101229449D01*
X67099268Y-101189402D01*
X67092524Y-101187026D01*
X67009466Y-101159507D01*
X66938803Y-101141545D01*
X66866857Y-101131104D01*
X66779954Y-101126146D01*
X66664417Y-101124634D01*
X66590101Y-101124821D01*
X66488731Y-101127978D01*
X66409611Y-101136048D01*
X66340096Y-101150574D01*
X66267542Y-101173101D01*
X66124666Y-101222451D01*
X66124666Y-101400642D01*
X66124667Y-101578833D01*
X66399833Y-101578833D01*
X66399833Y-101875167D01*
X65764833Y-101875167D01*
X65764833Y-101663500D01*
X65849500Y-101663500D01*
X65849500Y-101790500D01*
X66315167Y-101790500D01*
X66315167Y-101663500D01*
X65849500Y-101663500D01*
X65764833Y-101663500D01*
X65764833Y-101578833D01*
X65849500Y-101578833D01*
X66040000Y-101578833D01*
X66040000Y-101261955D01*
X65976191Y-101300760D01*
X65837491Y-101398325D01*
X65671307Y-101556262D01*
X65531689Y-101739289D01*
X65423837Y-101940302D01*
X65352949Y-102152200D01*
X65337905Y-102233773D01*
X65324523Y-102377228D01*
X65322443Y-102530013D01*
X65240664Y-102530013D01*
X65235979Y-102465927D01*
X65245256Y-102282593D01*
X65288912Y-102053672D01*
X65369678Y-101842986D01*
X65489024Y-101646959D01*
X65648417Y-101462018D01*
X65727204Y-101387553D01*
X65918317Y-101243043D01*
X66123280Y-101137533D01*
X66345986Y-101069262D01*
X66590333Y-101036471D01*
X66664417Y-101035910D01*
X66769854Y-101035113D01*
X66946665Y-101057938D01*
G36*
X66946665Y-101057938D02*
G01*
X67122042Y-101108630D01*
X67309540Y-101190083D01*
X67352798Y-101212437D01*
X67550112Y-101342041D01*
X67723986Y-101502984D01*
X67869952Y-101689740D01*
X67983541Y-101896782D01*
X68060285Y-102118583D01*
X68077679Y-102221568D01*
X68086836Y-102359382D01*
X68086482Y-102511304D01*
X68077094Y-102663395D01*
X68059148Y-102801718D01*
X68033123Y-102912333D01*
X67965484Y-103079851D01*
X67846043Y-103280506D01*
X67694100Y-103460832D01*
X67514103Y-103616479D01*
X67310503Y-103743099D01*
X67087750Y-103836342D01*
X67078737Y-103839254D01*
X66987474Y-103865457D01*
X66902249Y-103881626D01*
X66806979Y-103890025D01*
X66685583Y-103892915D01*
X66545282Y-103890667D01*
X66410312Y-103878107D01*
X66287931Y-103851523D01*
X66162614Y-103807406D01*
X66018833Y-103742250D01*
X66008437Y-103737178D01*
X65904788Y-103682762D01*
X65820199Y-103628096D01*
X65739511Y-103562237D01*
X65647565Y-103474241D01*
X65530366Y-103343804D01*
X65400182Y-103150183D01*
X65308474Y-102941170D01*
X65254115Y-102714005D01*
X65240664Y-102530013D01*
X65322443Y-102530013D01*
X65331685Y-102675426D01*
X65352266Y-102796761D01*
X65364367Y-102840813D01*
X65445415Y-103045243D01*
X65561442Y-103237734D01*
X65706625Y-103411097D01*
X65875141Y-103558146D01*
X66061167Y-103671694D01*
X66111922Y-103695204D01*
X66301254Y-103763425D01*
X66496875Y-103807078D01*
X66682153Y-103822132D01*
X66802572Y-103814623D01*
X67007680Y-103772511D01*
X67210742Y-103696905D01*
X67401791Y-103591852D01*
X67570862Y-103461396D01*
X67589252Y-103444576D01*
X67661652Y-103377965D01*
X67710345Y-103328675D01*
X67732672Y-103294103D01*
X67725973Y-103271650D01*
X67687588Y-103258714D01*
X67614858Y-103252694D01*
X67505123Y-103250990D01*
X67355724Y-103251000D01*
X66955458Y-103251000D01*
X66943349Y-103311544D01*
X66937498Y-103333458D01*
X66893976Y-103413603D01*
X66825702Y-103483011D01*
X66745923Y-103527210D01*
X66691138Y-103539778D01*
X66587441Y-103542840D01*
X66486023Y-103524746D01*
X66405147Y-103487617D01*
X66359059Y-103446898D01*
X66302397Y-103358667D01*
X66275768Y-103256968D01*
X66276662Y-103220873D01*
X66357500Y-103220873D01*
X66361291Y-103274310D01*
X66382018Y-103329062D01*
X66428791Y-103387076D01*
X66494151Y-103437817D01*
X66584765Y-103467361D01*
X66677879Y-103462184D01*
X66763436Y-103423181D01*
X66831377Y-103351247D01*
X66838651Y-103339130D01*
X66871831Y-103243482D01*
X66867944Y-103148600D01*
X66830563Y-103063212D01*
X66763257Y-102996048D01*
X66669599Y-102955835D01*
X66588562Y-102950233D01*
X66497872Y-102976646D01*
X66424510Y-103034482D01*
X66375408Y-103117853D01*
X66357500Y-103220873D01*
X66276662Y-103220873D01*
X66278390Y-103151156D01*
X66309482Y-103050587D01*
X66368265Y-102964615D01*
X66453957Y-102902596D01*
X66530244Y-102876241D01*
X66588562Y-102871851D01*
X66640193Y-102867965D01*
X66744939Y-102890485D01*
X66836056Y-102940275D01*
X66905119Y-103013810D01*
X66943704Y-103107563D01*
X66955458Y-103166333D01*
X67817024Y-103166333D01*
X67851029Y-103114435D01*
X67852876Y-103111520D01*
X67877543Y-103063040D01*
X67908599Y-102990364D01*
X67939777Y-102908060D01*
X67959707Y-102841047D01*
X67985932Y-102703188D01*
X68001391Y-102548935D01*
X68005416Y-102392424D01*
X67997341Y-102247790D01*
X67976501Y-102129167D01*
X67930129Y-101993922D01*
X67833807Y-101802767D01*
X67708482Y-101622067D01*
X67561622Y-101462144D01*
X67400695Y-101333320D01*
X67387309Y-101324733D01*
X67302253Y-101277626D01*
X67199815Y-101229449D01*
X67099268Y-101189402D01*
X67092524Y-101187026D01*
X67009466Y-101159507D01*
X66938803Y-101141545D01*
X66866857Y-101131104D01*
X66779954Y-101126146D01*
X66664417Y-101124634D01*
X66590101Y-101124821D01*
X66488731Y-101127978D01*
X66409611Y-101136048D01*
X66340096Y-101150574D01*
X66267542Y-101173101D01*
X66124666Y-101222451D01*
X66124666Y-101400642D01*
X66124667Y-101578833D01*
X66399833Y-101578833D01*
X66399833Y-101875167D01*
X65764833Y-101875167D01*
X65764833Y-101663500D01*
X65849500Y-101663500D01*
X65849500Y-101790500D01*
X66315167Y-101790500D01*
X66315167Y-101663500D01*
X65849500Y-101663500D01*
X65764833Y-101663500D01*
X65764833Y-101578833D01*
X65849500Y-101578833D01*
X66040000Y-101578833D01*
X66040000Y-101261955D01*
X65976191Y-101300760D01*
X65837491Y-101398325D01*
X65671307Y-101556262D01*
X65531689Y-101739289D01*
X65423837Y-101940302D01*
X65352949Y-102152200D01*
X65337905Y-102233773D01*
X65324523Y-102377228D01*
X65322443Y-102530013D01*
X65240664Y-102530013D01*
X65235979Y-102465927D01*
X65245256Y-102282593D01*
X65288912Y-102053672D01*
X65369678Y-101842986D01*
X65489024Y-101646959D01*
X65648417Y-101462018D01*
X65727204Y-101387553D01*
X65918317Y-101243043D01*
X66123280Y-101137533D01*
X66345986Y-101069262D01*
X66590333Y-101036471D01*
X66664417Y-101035910D01*
X66769854Y-101035113D01*
X66946665Y-101057938D01*
G37*
X66590333Y-101388333D02*
X66823167Y-101388333D01*
X66823167Y-101483583D01*
X66823369Y-101509274D01*
X66827958Y-101555480D01*
X66843429Y-101574885D01*
X66876083Y-101578833D01*
X66890356Y-101578469D01*
X66916026Y-101570208D01*
X66926807Y-101542360D01*
X66929000Y-101483583D01*
X66929000Y-101473000D01*
X67013667Y-101473000D01*
X67013667Y-102616000D01*
X67183000Y-102616000D01*
X67183000Y-101473000D01*
X67013667Y-101473000D01*
X66929000Y-101473000D01*
X66929000Y-101388333D01*
X67013667Y-101388333D01*
X67267667Y-101388333D01*
X67267667Y-102002167D01*
X67605477Y-102002167D01*
X67669833Y-102002167D01*
X67669833Y-102104267D01*
X67670552Y-102152616D01*
X67678179Y-102191928D01*
X67701344Y-102211938D01*
X67748683Y-102225975D01*
X67807250Y-102249823D01*
X67855383Y-102298500D01*
X67872808Y-102358116D01*
X67878324Y-102440366D01*
X67872225Y-102528055D01*
X67855631Y-102605529D01*
X67829667Y-102657135D01*
X67813007Y-102672843D01*
X67778392Y-102690116D01*
X67725134Y-102698483D01*
X67641458Y-102700667D01*
X67539076Y-102695602D01*
X67466253Y-102675514D01*
X67422197Y-102634205D01*
X67400478Y-102565490D01*
X67394667Y-102463181D01*
X67394823Y-102454050D01*
X67478260Y-102454050D01*
X67482124Y-102521507D01*
X67493781Y-102576008D01*
X67512814Y-102603152D01*
X67540404Y-102610261D01*
X67604000Y-102615817D01*
X67674597Y-102613863D01*
X67735855Y-102605193D01*
X67771433Y-102590600D01*
X67786500Y-102556555D01*
X67794969Y-102495140D01*
X67795281Y-102424644D01*
X67787436Y-102361939D01*
X67771433Y-102323900D01*
X67737388Y-102308833D01*
X67675974Y-102300364D01*
X67605477Y-102300052D01*
X67542772Y-102307897D01*
X67504733Y-102323900D01*
X67495576Y-102337871D01*
X67482605Y-102388038D01*
X67478260Y-102454050D01*
X67394823Y-102454050D01*
X67395795Y-102397334D01*
X67402458Y-102339282D01*
X67418231Y-102299874D01*
X67446621Y-102265788D01*
X67449462Y-102263008D01*
X67497720Y-102228185D01*
X67541871Y-102213833D01*
X67554015Y-102213077D01*
X67578640Y-102196655D01*
X67585167Y-102150333D01*
X67585167Y-102086833D01*
X67267667Y-102086833D01*
X67267667Y-102700667D01*
X66929000Y-102700667D01*
X66929000Y-101663500D01*
X66823167Y-101663500D01*
X66823167Y-102700667D01*
X66505667Y-102700667D01*
X66505667Y-102510167D01*
X66251667Y-102510167D01*
X66251667Y-102764167D01*
X65997667Y-102764167D01*
X65997666Y-102903703D01*
X65997667Y-102904508D01*
X66001435Y-102992751D01*
X66014578Y-103052514D01*
X66040000Y-103097057D01*
X66071204Y-103146730D01*
X66078606Y-103205549D01*
X66048572Y-103268615D01*
X66047228Y-103270487D01*
X65997691Y-103306903D01*
X65935241Y-103313915D01*
X65875180Y-103293119D01*
X65832814Y-103246113D01*
X65822112Y-103202568D01*
X65899986Y-103202568D01*
X65925367Y-103223618D01*
X65964494Y-103222725D01*
X65980678Y-103213636D01*
X65997667Y-103187500D01*
X65997617Y-103185849D01*
X65979253Y-103159396D01*
X65942153Y-103150093D01*
X65907344Y-103163523D01*
X65900575Y-103172239D01*
X65899986Y-103202568D01*
X65822112Y-103202568D01*
X65819857Y-103193393D01*
X65835479Y-103126187D01*
X65884340Y-103075323D01*
X65897389Y-103058463D01*
X65909193Y-103004057D01*
X65913000Y-102911281D01*
X65913000Y-102764167D01*
X65637833Y-102764167D01*
X65637833Y-102213833D01*
X65722500Y-102213833D01*
X65722500Y-102679500D01*
X65942153Y-102679500D01*
X66167000Y-102679500D01*
X66167000Y-102213833D01*
X65722500Y-102213833D01*
X65637833Y-102213833D01*
X65637833Y-102129167D01*
X65722500Y-102129167D01*
X66251667Y-102129167D01*
X66251667Y-102425500D01*
X66505667Y-102425500D01*
X66505667Y-101473000D01*
X66590333Y-101473000D01*
X66590333Y-102616000D01*
X66738500Y-102616000D01*
X66738500Y-101473000D01*
X66590333Y-101473000D01*
X66505667Y-101473000D01*
X66505667Y-101388333D01*
X66590333Y-101388333D01*
G36*
X66590333Y-101388333D02*
G01*
X66823167Y-101388333D01*
X66823167Y-101483583D01*
X66823369Y-101509274D01*
X66827958Y-101555480D01*
X66843429Y-101574885D01*
X66876083Y-101578833D01*
X66890356Y-101578469D01*
X66916026Y-101570208D01*
X66926807Y-101542360D01*
X66929000Y-101483583D01*
X66929000Y-101473000D01*
X67013667Y-101473000D01*
X67013667Y-102616000D01*
X67183000Y-102616000D01*
X67183000Y-101473000D01*
X67013667Y-101473000D01*
X66929000Y-101473000D01*
X66929000Y-101388333D01*
X67013667Y-101388333D01*
X67267667Y-101388333D01*
X67267667Y-102002167D01*
X67605477Y-102002167D01*
X67669833Y-102002167D01*
X67669833Y-102104267D01*
X67670552Y-102152616D01*
X67678179Y-102191928D01*
X67701344Y-102211938D01*
X67748683Y-102225975D01*
X67807250Y-102249823D01*
X67855383Y-102298500D01*
X67872808Y-102358116D01*
X67878324Y-102440366D01*
X67872225Y-102528055D01*
X67855631Y-102605529D01*
X67829667Y-102657135D01*
X67813007Y-102672843D01*
X67778392Y-102690116D01*
X67725134Y-102698483D01*
X67641458Y-102700667D01*
X67539076Y-102695602D01*
X67466253Y-102675514D01*
X67422197Y-102634205D01*
X67400478Y-102565490D01*
X67394667Y-102463181D01*
X67394823Y-102454050D01*
X67478260Y-102454050D01*
X67482124Y-102521507D01*
X67493781Y-102576008D01*
X67512814Y-102603152D01*
X67540404Y-102610261D01*
X67604000Y-102615817D01*
X67674597Y-102613863D01*
X67735855Y-102605193D01*
X67771433Y-102590600D01*
X67786500Y-102556555D01*
X67794969Y-102495140D01*
X67795281Y-102424644D01*
X67787436Y-102361939D01*
X67771433Y-102323900D01*
X67737388Y-102308833D01*
X67675974Y-102300364D01*
X67605477Y-102300052D01*
X67542772Y-102307897D01*
X67504733Y-102323900D01*
X67495576Y-102337871D01*
X67482605Y-102388038D01*
X67478260Y-102454050D01*
X67394823Y-102454050D01*
X67395795Y-102397334D01*
X67402458Y-102339282D01*
X67418231Y-102299874D01*
X67446621Y-102265788D01*
X67449462Y-102263008D01*
X67497720Y-102228185D01*
X67541871Y-102213833D01*
X67554015Y-102213077D01*
X67578640Y-102196655D01*
X67585167Y-102150333D01*
X67585167Y-102086833D01*
X67267667Y-102086833D01*
X67267667Y-102700667D01*
X66929000Y-102700667D01*
X66929000Y-101663500D01*
X66823167Y-101663500D01*
X66823167Y-102700667D01*
X66505667Y-102700667D01*
X66505667Y-102510167D01*
X66251667Y-102510167D01*
X66251667Y-102764167D01*
X65997667Y-102764167D01*
X65997666Y-102903703D01*
X65997667Y-102904508D01*
X66001435Y-102992751D01*
X66014578Y-103052514D01*
X66040000Y-103097057D01*
X66071204Y-103146730D01*
X66078606Y-103205549D01*
X66048572Y-103268615D01*
X66047228Y-103270487D01*
X65997691Y-103306903D01*
X65935241Y-103313915D01*
X65875180Y-103293119D01*
X65832814Y-103246113D01*
X65822112Y-103202568D01*
X65899986Y-103202568D01*
X65925367Y-103223618D01*
X65964494Y-103222725D01*
X65980678Y-103213636D01*
X65997667Y-103187500D01*
X65997617Y-103185849D01*
X65979253Y-103159396D01*
X65942153Y-103150093D01*
X65907344Y-103163523D01*
X65900575Y-103172239D01*
X65899986Y-103202568D01*
X65822112Y-103202568D01*
X65819857Y-103193393D01*
X65835479Y-103126187D01*
X65884340Y-103075323D01*
X65897389Y-103058463D01*
X65909193Y-103004057D01*
X65913000Y-102911281D01*
X65913000Y-102764167D01*
X65637833Y-102764167D01*
X65637833Y-102213833D01*
X65722500Y-102213833D01*
X65722500Y-102679500D01*
X65942153Y-102679500D01*
X66167000Y-102679500D01*
X66167000Y-102213833D01*
X65722500Y-102213833D01*
X65637833Y-102213833D01*
X65637833Y-102129167D01*
X65722500Y-102129167D01*
X66251667Y-102129167D01*
X66251667Y-102425500D01*
X66505667Y-102425500D01*
X66505667Y-101473000D01*
X66590333Y-101473000D01*
X66590333Y-102616000D01*
X66738500Y-102616000D01*
X66738500Y-101473000D01*
X66590333Y-101473000D01*
X66505667Y-101473000D01*
X66505667Y-101388333D01*
X66590333Y-101388333D01*
G37*
X65528398Y-106277850D02*
X65552797Y-106283984D01*
X65613303Y-106300333D01*
X65705524Y-106325666D01*
X65825064Y-106358753D01*
X65967529Y-106398361D01*
X66128526Y-106443261D01*
X66303661Y-106492221D01*
X66488539Y-106544011D01*
X66678766Y-106597400D01*
X66869948Y-106651156D01*
X67057692Y-106704050D01*
X67237602Y-106754850D01*
X67405285Y-106802326D01*
X67556347Y-106845245D01*
X67686394Y-106882379D01*
X67798205Y-106914415D01*
X67792227Y-107151348D01*
X67786250Y-107388281D01*
X67081098Y-107558015D01*
X66375946Y-107727750D01*
X67059931Y-107893328D01*
X67171367Y-107920330D01*
X67327996Y-107958377D01*
X67468611Y-107992644D01*
X67588183Y-108021899D01*
X67681686Y-108044912D01*
X67744092Y-108060453D01*
X67770375Y-108067289D01*
X67781706Y-108081922D01*
X67790417Y-108126000D01*
X67795306Y-108203544D01*
X67796833Y-108318936D01*
X67796833Y-108562201D01*
X67709485Y-108585722D01*
X67672851Y-108595766D01*
X67599928Y-108615969D01*
X67496991Y-108644594D01*
X67368758Y-108680321D01*
X67219951Y-108721829D01*
X67055287Y-108767800D01*
X66879486Y-108816913D01*
X66697268Y-108867848D01*
X66513352Y-108919285D01*
X66332457Y-108969904D01*
X66159303Y-109018386D01*
X65998608Y-109063411D01*
X65855093Y-109103658D01*
X65733476Y-109137808D01*
X65638477Y-109164540D01*
X65574815Y-109182535D01*
X65547210Y-109190473D01*
X65536790Y-109192731D01*
X65524516Y-109187964D01*
X65517085Y-109167100D01*
X65513658Y-109123588D01*
X65513396Y-109050873D01*
X65515460Y-108942404D01*
X65521417Y-108682700D01*
X66202490Y-108512142D01*
X66314313Y-108484024D01*
X66469010Y-108444723D01*
X66607023Y-108409187D01*
X66723469Y-108378699D01*
X66813466Y-108354540D01*
X66872135Y-108337994D01*
X66894592Y-108330342D01*
X66892140Y-108328289D01*
X66859108Y-108317326D01*
X66791758Y-108298764D01*
X66694983Y-108273847D01*
X66573674Y-108243819D01*
X66432722Y-108209921D01*
X66277019Y-108173398D01*
X66222317Y-108160708D01*
X66064858Y-108124067D01*
X65919859Y-108090159D01*
X65793079Y-108060344D01*
X65690275Y-108035977D01*
X65617204Y-108018417D01*
X65579625Y-108009019D01*
X65510833Y-107990343D01*
X65510833Y-107726755D01*
X65510842Y-107716168D01*
X65511800Y-107617524D01*
X65514118Y-107537123D01*
X65517469Y-107482994D01*
X65521527Y-107463167D01*
X65530364Y-107461949D01*
X65575572Y-107453346D01*
X65652820Y-107437612D01*
X65756005Y-107416068D01*
X65879024Y-107390032D01*
X66015773Y-107360824D01*
X66160148Y-107329763D01*
X66306047Y-107298170D01*
X66447365Y-107267362D01*
X66577999Y-107238661D01*
X66691847Y-107213384D01*
X66782803Y-107192852D01*
X66844766Y-107178385D01*
X66871631Y-107171301D01*
X66872954Y-107170468D01*
X66858279Y-107159647D01*
X66803695Y-107139867D01*
X66710397Y-107111478D01*
X66579580Y-107074829D01*
X66412440Y-107030268D01*
X66210172Y-106978146D01*
X65510833Y-106800351D01*
X65510833Y-106539092D01*
X65510843Y-106530439D01*
X65512367Y-106432021D01*
X65516125Y-106351738D01*
X65521579Y-106297653D01*
X65528195Y-106277833D01*
X65528398Y-106277850D01*
G36*
X65528398Y-106277850D02*
G01*
X65552797Y-106283984D01*
X65613303Y-106300333D01*
X65705524Y-106325666D01*
X65825064Y-106358753D01*
X65967529Y-106398361D01*
X66128526Y-106443261D01*
X66303661Y-106492221D01*
X66488539Y-106544011D01*
X66678766Y-106597400D01*
X66869948Y-106651156D01*
X67057692Y-106704050D01*
X67237602Y-106754850D01*
X67405285Y-106802326D01*
X67556347Y-106845245D01*
X67686394Y-106882379D01*
X67798205Y-106914415D01*
X67792227Y-107151348D01*
X67786250Y-107388281D01*
X67081098Y-107558015D01*
X66375946Y-107727750D01*
X67059931Y-107893328D01*
X67171367Y-107920330D01*
X67327996Y-107958377D01*
X67468611Y-107992644D01*
X67588183Y-108021899D01*
X67681686Y-108044912D01*
X67744092Y-108060453D01*
X67770375Y-108067289D01*
X67781706Y-108081922D01*
X67790417Y-108126000D01*
X67795306Y-108203544D01*
X67796833Y-108318936D01*
X67796833Y-108562201D01*
X67709485Y-108585722D01*
X67672851Y-108595766D01*
X67599928Y-108615969D01*
X67496991Y-108644594D01*
X67368758Y-108680321D01*
X67219951Y-108721829D01*
X67055287Y-108767800D01*
X66879486Y-108816913D01*
X66697268Y-108867848D01*
X66513352Y-108919285D01*
X66332457Y-108969904D01*
X66159303Y-109018386D01*
X65998608Y-109063411D01*
X65855093Y-109103658D01*
X65733476Y-109137808D01*
X65638477Y-109164540D01*
X65574815Y-109182535D01*
X65547210Y-109190473D01*
X65536790Y-109192731D01*
X65524516Y-109187964D01*
X65517085Y-109167100D01*
X65513658Y-109123588D01*
X65513396Y-109050873D01*
X65515460Y-108942404D01*
X65521417Y-108682700D01*
X66202490Y-108512142D01*
X66314313Y-108484024D01*
X66469010Y-108444723D01*
X66607023Y-108409187D01*
X66723469Y-108378699D01*
X66813466Y-108354540D01*
X66872135Y-108337994D01*
X66894592Y-108330342D01*
X66892140Y-108328289D01*
X66859108Y-108317326D01*
X66791758Y-108298764D01*
X66694983Y-108273847D01*
X66573674Y-108243819D01*
X66432722Y-108209921D01*
X66277019Y-108173398D01*
X66222317Y-108160708D01*
X66064858Y-108124067D01*
X65919859Y-108090159D01*
X65793079Y-108060344D01*
X65690275Y-108035977D01*
X65617204Y-108018417D01*
X65579625Y-108009019D01*
X65510833Y-107990343D01*
X65510833Y-107726755D01*
X65510842Y-107716168D01*
X65511800Y-107617524D01*
X65514118Y-107537123D01*
X65517469Y-107482994D01*
X65521527Y-107463167D01*
X65530364Y-107461949D01*
X65575572Y-107453346D01*
X65652820Y-107437612D01*
X65756005Y-107416068D01*
X65879024Y-107390032D01*
X66015773Y-107360824D01*
X66160148Y-107329763D01*
X66306047Y-107298170D01*
X66447365Y-107267362D01*
X66577999Y-107238661D01*
X66691847Y-107213384D01*
X66782803Y-107192852D01*
X66844766Y-107178385D01*
X66871631Y-107171301D01*
X66872954Y-107170468D01*
X66858279Y-107159647D01*
X66803695Y-107139867D01*
X66710397Y-107111478D01*
X66579580Y-107074829D01*
X66412440Y-107030268D01*
X66210172Y-106978146D01*
X65510833Y-106800351D01*
X65510833Y-106539092D01*
X65510843Y-106530439D01*
X65512367Y-106432021D01*
X65516125Y-106351738D01*
X65521579Y-106297653D01*
X65528195Y-106277833D01*
X65528398Y-106277850D01*
G37*
X67394667Y-104267000D02*
X67799091Y-104267000D01*
X67792671Y-104917875D01*
X67791775Y-105007583D01*
X67789924Y-105172978D01*
X67787864Y-105303558D01*
X67785198Y-105404464D01*
X67781530Y-105480837D01*
X67776463Y-105537814D01*
X67769600Y-105580538D01*
X67760544Y-105614147D01*
X67748900Y-105643782D01*
X67734269Y-105674583D01*
X67716236Y-105708827D01*
X67614649Y-105848601D01*
X67480368Y-105969901D01*
X67318642Y-106070816D01*
X67134720Y-106149437D01*
X66933851Y-106203855D01*
X66721284Y-106232160D01*
X66502269Y-106232444D01*
X66282055Y-106202797D01*
X66082844Y-106147639D01*
X65908333Y-106066697D01*
X65765569Y-105960621D01*
X65652548Y-105828222D01*
X65639576Y-105808841D01*
X65603915Y-105751368D01*
X65575484Y-105695066D01*
X65553472Y-105634497D01*
X65537068Y-105564223D01*
X65525464Y-105478807D01*
X65517848Y-105372814D01*
X65513411Y-105240805D01*
X65511343Y-105077343D01*
X65510833Y-104876991D01*
X65510833Y-104753833D01*
X65908196Y-104753833D01*
X65917338Y-105044875D01*
X65919893Y-105112727D01*
X65929159Y-105248027D01*
X65944472Y-105352119D01*
X65967793Y-105432753D01*
X66001083Y-105497678D01*
X66046302Y-105554646D01*
X66066302Y-105574478D01*
X66174603Y-105646700D01*
X66316014Y-105695845D01*
X66488218Y-105721306D01*
X66688895Y-105722479D01*
X66851662Y-105704785D01*
X67025413Y-105659642D01*
X67168430Y-105589562D01*
X67278943Y-105495459D01*
X67355177Y-105378250D01*
X67364803Y-105354847D01*
X67378981Y-105303653D01*
X67387940Y-105237460D01*
X67392680Y-105147176D01*
X67394202Y-105023708D01*
X67394667Y-104753833D01*
X65908196Y-104753833D01*
X65510833Y-104753833D01*
X65510833Y-104267000D01*
X67394667Y-104267000D01*
G36*
X67394667Y-104267000D02*
G01*
X67799091Y-104267000D01*
X67792671Y-104917875D01*
X67791775Y-105007583D01*
X67789924Y-105172978D01*
X67787864Y-105303558D01*
X67785198Y-105404464D01*
X67781530Y-105480837D01*
X67776463Y-105537814D01*
X67769600Y-105580538D01*
X67760544Y-105614147D01*
X67748900Y-105643782D01*
X67734269Y-105674583D01*
X67716236Y-105708827D01*
X67614649Y-105848601D01*
X67480368Y-105969901D01*
X67318642Y-106070816D01*
X67134720Y-106149437D01*
X66933851Y-106203855D01*
X66721284Y-106232160D01*
X66502269Y-106232444D01*
X66282055Y-106202797D01*
X66082844Y-106147639D01*
X65908333Y-106066697D01*
X65765569Y-105960621D01*
X65652548Y-105828222D01*
X65639576Y-105808841D01*
X65603915Y-105751368D01*
X65575484Y-105695066D01*
X65553472Y-105634497D01*
X65537068Y-105564223D01*
X65525464Y-105478807D01*
X65517848Y-105372814D01*
X65513411Y-105240805D01*
X65511343Y-105077343D01*
X65510833Y-104876991D01*
X65510833Y-104753833D01*
X65908196Y-104753833D01*
X65917338Y-105044875D01*
X65919893Y-105112727D01*
X65929159Y-105248027D01*
X65944472Y-105352119D01*
X65967793Y-105432753D01*
X66001083Y-105497678D01*
X66046302Y-105554646D01*
X66066302Y-105574478D01*
X66174603Y-105646700D01*
X66316014Y-105695845D01*
X66488218Y-105721306D01*
X66688895Y-105722479D01*
X66851662Y-105704785D01*
X67025413Y-105659642D01*
X67168430Y-105589562D01*
X67278943Y-105495459D01*
X67355177Y-105378250D01*
X67364803Y-105354847D01*
X67378981Y-105303653D01*
X67387940Y-105237460D01*
X67392680Y-105147176D01*
X67394202Y-105023708D01*
X67394667Y-104753833D01*
X65908196Y-104753833D01*
X65510833Y-104753833D01*
X65510833Y-104267000D01*
X67394667Y-104267000D01*
G37*
D13*
X100390000Y-76895000D02*
X95190000Y-76895000D01*
X100390000Y-74295000D02*
X100390000Y-76895000D01*
X100390000Y-74295000D02*
X97790000Y-74295000D01*
X100390000Y-73025000D02*
X100390000Y-71695000D01*
X100390000Y-71695000D02*
X99060000Y-71695000D01*
X97790000Y-74295000D02*
X97790000Y-71695000D01*
X97790000Y-71695000D02*
X95190000Y-71695000D01*
X95190000Y-71695000D02*
X95190000Y-76895000D01*
X100390000Y-121345000D02*
X95190000Y-121345000D01*
X100390000Y-118745000D02*
X100390000Y-121345000D01*
X100390000Y-118745000D02*
X97790000Y-118745000D01*
X100390000Y-117475000D02*
X100390000Y-116145000D01*
X100390000Y-116145000D02*
X99060000Y-116145000D01*
X97790000Y-118745000D02*
X97790000Y-116145000D01*
X97790000Y-116145000D02*
X95190000Y-116145000D01*
X95190000Y-116145000D02*
X95190000Y-121345000D01*
%LPC*%
X76465000Y-79860000D02*
X74435000Y-79860000D01*
X74435000Y-79860000D02*
X74435000Y-81890000D01*
X74435000Y-81890000D02*
X76465000Y-81890000D01*
X76465000Y-81890000D02*
X76465000Y-79860000D01*
G36*
X76465000Y-79860000D02*
G01*
X74435000Y-79860000D01*
X74435000Y-81890000D01*
X76465000Y-81890000D01*
X76465000Y-79860000D01*
G37*
X72493000Y-115413000D02*
X70463000Y-115413000D01*
X70463000Y-115413000D02*
X70463000Y-117443000D01*
X70463000Y-117443000D02*
X72493000Y-117443000D01*
X72493000Y-117443000D02*
X72493000Y-115413000D01*
G36*
X72493000Y-115413000D02*
G01*
X70463000Y-115413000D01*
X70463000Y-117443000D01*
X72493000Y-117443000D01*
X72493000Y-115413000D01*
G37*
D16*
X51562000Y-105918000D03*
X52578000Y-110998000D03*
X50546000Y-110998000D03*
D17*
X68961000Y-84074000D03*
X60071000Y-104648000D03*
D18*
X60610000Y-76327000D03*
X54610000Y-76327000D03*
D19*
X57610000Y-81027000D03*
D17*
X82550000Y-117475000D03*
X82550000Y-72898000D03*
X61087000Y-112776000D03*
X54229000Y-94361000D03*
D20*
X69215000Y-73660000D03*
X56261000Y-107823000D03*
X72009000Y-104521000D03*
D17*
X71247000Y-86233000D03*
X72263000Y-75184000D03*
X68580000Y-104394000D03*
D20*
X58039000Y-92456000D03*
D17*
X66040000Y-112014000D03*
D21*
X99060000Y-73025000D03*
D22*
X96520000Y-73025000D03*
X99060000Y-75565000D03*
X96520000Y-75565000D03*
D21*
X99060000Y-117475000D03*
D22*
X96520000Y-117475000D03*
X99060000Y-120015000D03*
X96520000Y-120015000D03*
%LPD*%
M02*
