%TF.GenerationSoftware,KiCad,Pcbnew,7.0.7*%
%TF.CreationDate,2023-10-29T23:24:32-05:00*%
%TF.ProjectId,1016 Breadboard Power Supply,31303136-2042-4726-9561-64626f617264,1*%
%TF.SameCoordinates,Original*%
%TF.FileFunction,Soldermask,Bot*%
%TF.FilePolarity,Negative*%
%FSLAX46Y46*%
G04 Gerber Fmt 4.6, Leading zero omitted, Abs format (unit mm)*
G04 Created by KiCad (PCBNEW 7.0.7) date 2023-10-29 23:24:32*
%MOMM*%
%LPD*%
G01*
G04 APERTURE LIST*
%ADD10C,0.120000*%
%ADD11C,0.990600*%
%ADD12C,1.000000*%
%ADD13O,1.508000X3.016000*%
%ADD14O,3.016000X1.508000*%
%ADD15C,2.100000*%
%ADD16R,1.700000X1.700000*%
%ADD17O,1.700000X1.700000*%
G04 APERTURE END LIST*
D10*
X76465000Y-79860000D02*
X74435000Y-79860000D01*
X74435000Y-79860000D02*
X74435000Y-81890000D01*
X74435000Y-81890000D02*
X76465000Y-81890000D01*
X76465000Y-81890000D02*
X76465000Y-79860000D01*
G36*
X76465000Y-79860000D02*
G01*
X74435000Y-79860000D01*
X74435000Y-81890000D01*
X76465000Y-81890000D01*
X76465000Y-79860000D01*
G37*
X72493000Y-115413000D02*
X70463000Y-115413000D01*
X70463000Y-115413000D02*
X70463000Y-117443000D01*
X70463000Y-117443000D02*
X72493000Y-117443000D01*
X72493000Y-117443000D02*
X72493000Y-115413000D01*
G36*
X72493000Y-115413000D02*
G01*
X70463000Y-115413000D01*
X70463000Y-117443000D01*
X72493000Y-117443000D01*
X72493000Y-115413000D01*
G37*
D11*
X51562000Y-105918000D03*
X52578000Y-110998000D03*
X50546000Y-110998000D03*
D12*
X68961000Y-84074000D03*
X60071000Y-104648000D03*
D13*
X60610000Y-76327000D03*
X54610000Y-76327000D03*
D14*
X57610000Y-81027000D03*
D12*
X82550000Y-117475000D03*
X82550000Y-72898000D03*
X61087000Y-112776000D03*
X54229000Y-94361000D03*
D15*
X69215000Y-73660000D03*
X56261000Y-107823000D03*
X72009000Y-104521000D03*
D12*
X71247000Y-86233000D03*
X72263000Y-75184000D03*
X68580000Y-104394000D03*
D15*
X58039000Y-92456000D03*
D12*
X66040000Y-112014000D03*
D16*
X99060000Y-73025000D03*
D17*
X96520000Y-73025000D03*
X99060000Y-75565000D03*
X96520000Y-75565000D03*
D16*
X99060000Y-117475000D03*
D17*
X96520000Y-117475000D03*
X99060000Y-120015000D03*
X96520000Y-120015000D03*
M02*
